<?xml version="1.0" encoding="utf-8"?>
<!-- Generator: Adobe Illustrator 27.5.0, SVG Export Plug-In . SVG Version: 6.00 Build 0)  -->
<svg version="1.1" id="Layer_1" xmlns="http://www.w3.org/2000/svg" xmlns:xlink="http://www.w3.org/1999/xlink" x="0px" y="0px"
	 viewBox="0 0 4000 4000" style="enable-background:new 0 0 4000 4000;" xml:space="preserve">
<g>
	<g>
		<rect style="fill:#FBE291;" width="4000" height="4000"/>
	</g>
	<g>
		<g>
			<path style="fill:#FCF4DB;" d="M2008.485,2621.456c43.131-12.522,89.224-12.522,132.355,0
				c184.172,53.468,237.982,297.682,131.137,536.425c-95.792,216.964,68.774,327.493,303.75,232.111
				c352.785-163.997,532.257-515.152,528.444-1064.233c-0.326-46.882,10.444-93.248,31.62-135.076
				c331.432-654.652-208.163-1221.473-803.228-989.165c-92.107,33.159-152.591,69.081-257.9,68.774
				c-105.309,0.307-165.793-35.615-257.901-68.774c-595.065-232.308-1134.659,334.513-803.228,989.165
				c21.176,41.828,31.946,88.194,31.62,135.076c-3.813,549.08,175.659,900.236,528.444,1064.233
				c234.977,95.382,399.542-15.147,303.75-232.111C1770.504,2919.138,1824.313,2674.924,2008.485,2621.456z"/>
		</g>
		<g>
			<path style="fill:#EACAB0;" d="M2415.462,2823.661c0,122.967-55.848,243.498-141.913,320.398
				c94.649-231.899,38.676-463.508-140.098-515.436c-43.135-12.507-89.202-12.507-132.337,0
				c-178.773,51.928-234.746,283.537-140.097,515.436c-86.064-76.9-141.913-197.431-141.913-320.398
				c0-205.522,155.906-340.211,348.178-340.211S2415.462,2618.139,2415.462,2823.661z"/>
		</g>
		<g>
			<path style="fill:#EACAB0;" d="M1566.213,3397.175c-352.761-163.997-532.237-515.147-528.438-1064.224
				c0.33-46.891-10.443-93.246-31.618-135.102c-213.655-421.983-65.343-807.476,226.408-965.942
				c-303.887,280.854-251.629,797.693-10.65,994.465c66.003,53.867,94.857,141.665,73.64,224.221
				c-172.5,672.209,475.974,982.742,574.421,714.477C1965.782,3382.026,1801.207,3492.568,1566.213,3397.175z"/>
		</g>
		<g>
			<path style="fill:#EACAB0;" d="M2568.36,3397.175c352.761-163.997,532.237-515.147,528.438-1064.224
				c-0.33-46.891,10.444-93.246,31.618-135.102c213.655-421.983,65.343-807.476-226.408-965.942
				c303.886,280.854,251.629,797.693,10.65,994.465c-66.003,53.867-94.857,141.665-73.64,224.221
				c172.5,672.209-475.974,982.742-574.421,714.477C2168.791,3382.026,2333.366,3492.568,2568.36,3397.175z"/>
		</g>
		<g style="opacity:0.2;">
			<path style="fill:#020174;" d="M1090.292,1506.199c70.723,107.451,250.986,113.647,402.632,13.843
				c146.509-96.431,212.666-256.523,153.198-364.155c-233.604-34.087-445.132,51.641-580.381,209.932
				C1056.371,1416.619,1063.642,1465.711,1090.292,1506.199z"/>
		</g>
		<g style="opacity:0.2;">
			<path style="fill:#020174;" d="M1511.811,3010.135c-77.954-102.329-224.101-122.085-326.431-44.136
				c-6.816,5.195-13.242,10.713-19.321,16.48c70.947,150.293,172.851,267.158,304.966,351.396
				C1570.38,3255.296,1588.891,3111.316,1511.811,3010.135z"/>
		</g>
		<g style="opacity:0.2;">
			<path style="fill:#020174;" d="M2382.187,3212.342c74.419-56.69,88.789-162.979,32.095-237.398
				c-22.969-30.146-54.072-50.435-87.905-60.142c0.474,76.177-17.197,159.946-54.399,243.076
				c-13.618,30.85-21.963,59.536-25.601,85.796C2292.377,3252.84,2341.938,3243.006,2382.187,3212.342z"/>
		</g>
		<g style="opacity:0.2;">
			<path style="fill:#020174;" d="M2946.24,2550.11c-83.77,63.819-99.946,183.467-36.128,267.241
				c28.779,37.778,68.921,61.758,111.997,70.903c39.155-109.478,64.404-233.975,75.532-373.721
				C3046.274,2504.719,2991.113,2515.926,2946.24,2550.11z"/>
		</g>
		<g style="opacity:0.2;">
			<path style="fill:#020174;" d="M3080.077,1780.14c-83.77,63.823-99.946,183.467-36.128,267.241
				c31.479,41.328,76.553,66.167,124.199,73.105c54.917-131.743,74.99-258.784,67.075-375.141
				C3182.802,1734.241,3126.044,1745.125,3080.077,1780.14z"/>
		</g>
		<g style="opacity:0.2;">
			<path style="fill:#020174;" d="M1647.465,2473.543c-59.722,39.307-76.27,119.59-36.963,179.312
				c39.307,59.721,119.59,76.269,179.312,36.963c59.722-39.307,76.274-119.59,36.963-179.312
				C1787.47,2450.784,1707.187,2434.231,1647.465,2473.543z"/>
		</g>
		<g>
			<path style="fill:#020174;" d="M2214.855,2353.384c-12.383,1.238-25.676,1.114-39.875-0.496
				c-38.059-4.912-53.165-31.577-100.304-34.095c-47.141,2.518-62.289,29.184-100.346,34.095
				c-14.199,1.61-27.492,1.734-39.875,0.496c-84.495-8.215-126.723-78.387-119.623-156.773
				c13.911-100.718,127.879-164.492,259.844-164.492c131.924,0,245.891,63.774,259.802,164.492
				C2341.577,2274.997,2299.35,2345.169,2214.855,2353.384z"/>
		</g>
		<g>
			<path style="fill:#E55123;" d="M2217.125,2332.621c0,7.1-0.784,14.034-2.27,20.763c-12.383,1.238-25.676,1.114-39.875-0.496
				c-38.059-4.912-53.165-31.577-100.304-34.095c-47.141,2.518-62.289,29.184-100.346,34.095
				c-14.199,1.61-27.492,1.734-39.875,0.496c-1.485-6.729-2.27-13.663-2.27-20.763c0-64.435,63.815-116.692,142.491-116.692
				C2153.352,2215.929,2217.125,2268.186,2217.125,2332.621z"/>
		</g>
		<g>
			<path style="fill:#D32020;" d="M1348.91,1778.743c65.269-69.717,166.738-112.102,261.758-85.824
				c123.109,32.731,225.944,159.833,198.495,290.375c-12.979,63.438-52.527,120.256-106.395,155.513
				c-122.504,82.276-294.663,22.868-329.742-122.995c-12.534-55.6-0.561-115.947,33.292-161.962
				c65.115-92.934,202.502-101.397,278.031-16.303c63.756,71.36,47.495,189.657-35.773,238.388
				c-58.831,35.033-140.813,19.981-181.908-35.323c-70.687-93.386,15.826-231.369,131.089-190.648
				c51.344,18.762,81.96,75.427,64.388,128.194c-10.648,34.326-41.942,64.182-79.208,65.038
				c-69.42,2.34-128.881-84.533-64.682-134.458c23.254-18.952,60.067-19.019,82.226,1.578c29.693,22.468,16.24,79.254-22.803,80.795
				c-17.384,0.548-47.763-12.883-35.068-33.53c5.196-7.442,15.425-9.287,22.891-4.146c5.023,3.438,11.959,7.943,15.776,1.186
				c2.967-4.569,3.72-12.819,0.064-17.334c-8.194-8.169-18.693-11.849-29.321-9.199c-19.948,4.957-35.268,26.492-25.776,46.792
				c9.06,20.404,33.323,36.801,55.522,35.899c36.865-1.668,59.43-44.498,51.494-78.286c-2.637-11.773-8.184-22.935-16.416-31.807
				c-50.253-51.899-130.579-20.563-142.026,48.399c-14.682,105.474,123.079,152.775,186.908,73.485
				c44.586-51.535,36.861-134.741-16.29-177.221c-94.149-77.807-226.757-15.162-242.723,102.471
				c-7.841,53.763,12.404,110.78,53.178,147.016c89.188,79.951,219.956,51.921,284.623-44.303
				c89.202-126.723-0.477-283.217-139.229-320.492c-81.738-21.757-166.966,16.143-222.264,76.935
				C1359.835,1826.89,1330.235,1799.285,1348.91,1778.743L1348.91,1778.743z"/>
		</g>
		<g>
			<path style="fill:#D32020;" d="M2770.302,1806.975c-55.293-60.781-140.53-98.706-222.266-76.932
				c-78.828,20.532-149.937,86.514-169.526,165.511c-21.362,80.688,20.668,167.469,88.166,212.891
				c94.392,65.872,231.242,29.596,271.615-80.489c39.915-107.594-43.902-232.523-162.222-215.296
				c-52.45,7.563-101.27,45.921-113.842,98.486c-21.18,80.093,44.689,165.849,129.908,149.354
				c51.463-8.652,92.2-58.762,82.371-111.416c-4.199-24.798-18.664-48.281-40.043-61.738
				c-42.025-28.231-107.872-5.84-118.398,45.147c-5.327,23.73,3.227,49.789,21.172,65.751c22.776,21.421,57.331,12.989,76.704-9.23
				c10.69-11.446,16.329-29.022,7.851-42.499c-10.734-18.511-36.577-26.843-53.188-9.892c-5.133,5.289-3.556,16.696,2.08,20.82
				c4.236,2.262,9.131-1.428,13.135-4.004c18.177-11.879,36.292,14.266,18.813,27.124c-19.604,15.442-48.86,14.479-62.504-8.468
				c-26.385-44.432,19.707-86.846,64.781-75.887c39.284,9.068,65.812,53.442,48.206,91.367
				c-22.839,51.738-93.264,75.662-137.376,34.852c-26.753-23.908-38.893-61.795-31.142-96.718
				c15.291-72.885,106.104-105.776,167.07-65.677c60.252,37.431,74.56,124.994,30.995,180.58
				c-41.104,55.294-123.076,70.366-181.913,35.321c-87.589-51.521-100.196-177.692-27.142-247.352
				c112.982-105.703,284.389-34.582,305.594,114.653c3.926,27.887,1.954,57.289-6.147,84.316
				c-18.973,66.749-74.649,119.631-140.708,139.526c-66.213,20.791-140.27,5.479-195.844-34.996
				c-143.056-109.759-129.356-297.029,15.616-398.255c114.501-82.56,254.451-54.233,348.3,44.918
				C2819.071,1799.226,2789.48,1826.897,2770.302,1806.975L2770.302,1806.975z"/>
		</g>
		<g>
			<path style="fill:#020174;" d="M2197.763,2374.851c-8.169,0-16.563-0.483-25.112-1.455c-21.245-2.739-36.514-10.869-49.98-18.042
				c-14.668-7.813-27.373-14.575-47.993-15.889c-20.625,1.313-33.345,8.081-48.027,15.893c-13.477,7.168-28.75,15.298-49.678,17.998
				c-15.703,1.782-30.596,1.963-44.575,0.561c-90.059-8.755-146.88-82.436-138.12-179.17c0.029-0.322,0.068-0.644,0.112-0.962
				c14.824-107.344,130.083-182.31,280.288-182.31c150.176,0,265.42,74.966,280.244,182.31c0.044,0.317,0.083,0.639,0.112,0.962
				c8.76,96.724-48.042,170.396-138.145,179.17C2210.683,2374.539,2204.296,2374.851,2197.763,2374.851z M2074.677,2298.152
				c0.366,0,0.732,0.01,1.104,0.029c30.4,1.626,49.468,11.782,66.289,20.737c11.851,6.314,22.09,11.763,35.552,13.501
				c12.173,1.386,24.116,1.538,35.181,0.425c0.02,0,0.039-0.005,0.059-0.005c77.334-7.514,106.475-72.573,101.104-133.882
				c-12.051-84.741-112.573-146.201-239.287-146.201c-126.738,0-227.28,61.46-239.331,146.201
				c-5.371,61.309,23.77,126.367,101.104,133.882c11.128,1.113,23.071,0.962,35.552-0.459c13.154-1.699,23.398-7.148,35.259-13.462
				c16.831-8.96,35.913-19.111,66.313-20.737C2073.945,2298.162,2074.311,2298.152,2074.677,2298.152z"/>
		</g>
		<g>
			<path style="fill:#020174;" d="M943.266,515.408c4.883,47.427,0.933,96.201-16.431,141.084
				c-16.903,44.553-40.644,82.538-48.846,127.989c-4.792,27.466-6.487,56.087-4.845,83.891c0.829,27.527,5.248,55.206,13.389,81.343
				c14.513,44.152,42.938,82.631,58.432,129.17c12.314,35.024,17.328,72.788,17.305,109.731
				c0.586,33.305-3.271,67.387-11.206,99.761c-3.976,14.126-9.602,30.419-15.318,43.979
				c-18.428,40.962-45.969,77.332-61.464,118.071c-11.522,30.158-16.419,62.303-19.936,94.37c-1.231,8.599-9.195,14.57-17.794,13.34
				c-7.588-1.089-13.13-7.427-13.477-14.81c-0.562-11.631-1.318-23.306-1.294-35.098c0.343-35.947,6.603-72.323,19.908-105.947
				c16.077-42.084,39.291-77.962,47.909-120.547c2.463-9.542,3.601-19.989,5.152-29.653c0.591-9.189,2.044-21.637,1.841-30.659
				c0.947-37.841-2.502-76.519-14.239-112.554c-14.735-44.156-43.572-82.33-59.292-128.872
				c-18.521-52.409-21.081-109.483-14.937-164.297c1.528-14.184,5.081-31.703,8.37-45.547c3.995-14.154,9.732-30.485,15.503-44.058
				c4.298-8.935,11.396-23.724,16.44-32.26c22.433-39.039,45.064-72.25,55.673-115.099c6.308-20.837,8.707-42.785,12.066-64.462
				C918.839,498.886,941.802,499.281,943.266,515.408L943.266,515.408z"/>
		</g>
		<g>
			<path style="fill:#020174;" d="M2019.667,440.721c5.014,29.953,5.324,60.713-1.289,90.64
				c-7.822,34.09-19.008,63.278-19.799,97.295c-0.627,18.927-0.318,38.494,1.645,57.334c2.529,41.57,21.946,75.163,31.774,116.338
				c10.132,46.228,9.08,93.611-0.742,139.575c-5.904,28.889-20.66,56.699-31.481,82.246c-9.912,23.403-15.297,48.799-19.287,76.065
				c-1.034,8.849-9.2,15.181-18.037,13.862c-17.154-2.937-13.644-23.04-15.567-35.986c-1.189-22.837,0.22-46.012,5.543-68.501
				c6.362-27.907,16.219-51.636,19.057-78.672c2.697-21.971,2.277-44.498,0.767-66.616c-1.206-15.423-3.529-30.993-7.393-45.435
				c-6.805-26.284-20.061-51.592-26.513-80.151c-9.139-38.611-9.111-77.698-4.097-116.538
				c4.093-37.008,21.551-73.243,36.701-105.405c10.336-23.262,16.302-48.653,21.434-76.05
				C1994.865,425.379,2017.176,425.195,2019.667,440.721L2019.667,440.721z"/>
		</g>
		<g>
			<path style="fill:#020174;" d="M3167.997,650.105c9.576,36.414,19.07,65.524,36.28,98.916
				c27.972,55.069,32.299,122.429,19.833,183.028c-7.172,37.446-29.3,71.299-40.742,106.157
				c-5.624,16.646-9.246,34.085-13.271,51.548c-1.689,9.09-10.714,15.1-19.737,12.734c-6.265-1.611-10.703-6.748-11.748-12.734
				c-1.685-9.78-3.403-19.604-3.853-29.736c-2.871-29.996,3.232-63.405,11.788-90.859c5.253-18.018,9.233-33.232,11.298-49.297
				c5.819-50.276,3.189-99.64-12.129-148.848c-11.881-36.973-15.474-82.727-4.999-120.908
				C3144.129,636.091,3164.643,636.09,3167.997,650.105L3167.997,650.105z"/>
		</g>
		<g>
			<path style="fill:#020174;" d="M2417.143,3457.718c-65.42,0-120.493-19.692-158.271-58.628
				c-56.558-58.286-62.788-151.069-17.104-254.546c60.112-134.321,68.359-274.018,22.124-373.848
				c-27.7-59.809-73.433-100.449-132.256-117.524c-37.275-10.82-76.675-10.825-113.94,0c0,0,0,0-0.005,0
				c-58.823,17.075-104.556,57.715-132.256,117.524c-46.235,99.829-37.988,239.526,22.056,373.692
				c45.752,103.633,39.521,196.416-17.036,254.702c-67.627,69.702-190.718,77.744-329.277,21.499
				c-0.503-0.205-1.006-0.42-1.499-0.649c-183.335-85.229-322.475-220.781-413.559-402.885
				c-90.83-181.607-135.908-414.268-133.984-691.524c0.288-41.631-9.419-83.105-28.062-119.932
				c-82.51-162.983-117.271-332.549-100.518-490.361c15.596-146.924,74.385-280.259,170.019-385.591
				c190.732-210.073,487.573-270.996,774.775-159.057c20.684,7.456,39.556,14.946,57.813,22.188
				c62.622,24.839,112.168,44.492,187.144,44.492c0.85,0,1.685,0,2.524,0c75.171,0,124.707-19.648,187.334-44.492
				c18.257-7.241,37.129-14.731,57.813-22.188c287.192-111.934,584.048-51.021,774.775,159.057
				c95.635,105.332,154.424,238.667,170.02,385.591c16.753,157.813-18.008,327.378-100.518,490.361
				c-18.643,36.826-28.35,78.301-28.062,119.937c1.924,277.251-43.154,509.912-133.984,691.519
				c-91.084,182.104-230.225,317.656-413.56,402.885c-0.493,0.229-0.996,0.444-1.499,0.649
				C2526.991,3445.418,2468.832,3457.718,2417.143,3457.718z M2074.662,2579.007c25.361,0,50.728,3.579,75.386,10.737
				c77.715,22.564,137.803,75.537,173.77,153.198c54.15,116.914,46.035,277.075-21.699,428.428
				c-34.697,78.589-33.247,143.184,4.15,181.728c47.402,48.843,145.552,51.357,256.289,6.602
				c341.138-158.979,512.251-506.763,508.589-1033.711c-0.356-52.109,11.807-104.053,35.181-150.225
				c147.603-291.543,124.814-598.745-59.473-801.724c-171.978-189.409-441.069-243.735-702.285-141.763
				c-0.273,0.107-0.547,0.21-0.82,0.308c-19.844,7.144-38.345,14.482-56.23,21.582c-63.706,25.269-123.901,49.146-211.538,49.146
				c-0.938,0.005-1.88,0.005-2.827,0c-87.456,0.005-147.642-23.877-211.348-49.146c-17.886-7.1-36.387-14.438-56.23-21.582
				c-0.273-0.098-0.547-0.2-0.82-0.308c-261.211-101.973-530.308-47.656-702.285,141.763
				c-184.287,202.979-207.075,510.181-59.473,801.724c23.374,46.172,35.537,98.115,35.181,150.22
				c-3.662,526.953,167.451,874.737,508.589,1033.716c110.747,44.766,208.897,42.246,256.289-6.602
				c37.397-38.545,38.848-103.14,4.082-181.885c-67.666-151.196-75.781-311.357-21.631-428.271
				c35.967-77.661,96.055-130.635,173.77-153.198C2023.935,2582.586,2049.301,2579.007,2074.662,2579.007z M2008.486,2621.458h0.049
				H2008.486z"/>
		</g>
		<g>
			<path style="fill:#AF684B;" d="M3237.678,1449.813c-4.706,47.346-17.049,96.838-30.299,142.945
				c-105.752-160.158-191.404-22.373-238.916-92.792c-47.469-70.42,0-212.87,0-212.87l-24.561-22.951
				c0,0-89.241,85.157-158.547,55.684c-69.306-29.472-54.322-111.326-54.322-111.326c-48.749-18.369-93.288-17.089-135.886-6.976
				c-39.915,10.443-75.537-37.439-25.345-78.18c86.849-82.679,244.736-18.038,244.736-18.038
				c7.349-5.779,14.613-10.979,21.753-15.603c129.531-83.835,230.083,12.136,268.1,140.882
				C3223.644,1260.431,3247.459,1350.457,3237.678,1449.813z"/>
		</g>
		<g>
			<path style="fill:#995037;" d="M3237.678,1449.813c-4.706,47.346-17.049,96.838-30.299,142.945
				c-105.752-160.158-191.404-22.373-238.916-92.792c-47.469-70.42,0-212.87,0-212.87l-24.561-22.951
				c0,0-89.241,85.157-158.547,55.684c-69.306-29.472-54.322-111.326-54.322-111.326c-48.749-18.369-93.288-17.089-135.886-6.976
				c-39.915,10.443-75.537-37.439-25.345-78.18c86.849-82.679,244.736-18.038,244.736-18.038
				c7.349-5.779,14.613-10.979,21.753-15.603l0.042,0.041c0,0-41.32,29.514-24.271,92.462c17.005,62.907,149.053,0,149.053,0
				l126.476,59.853c0,0-73.063,33.146-55.85,119.128C3046.52,1435.035,3174.647,1470.865,3237.678,1449.813z"/>
		</g>
		<g>
			<path style="fill:#020174;" d="M3207.392,1621.668c-9.609,0-18.711-4.8-24.106-12.974
				c-52.832-80.015-92.827-71.958-135.171-63.408c-31.162,6.289-73.857,14.907-103.589-29.17
				c-40.229-59.644-25.288-154.063-12.915-204.741c-37.183,26.543-99.8,59.604-157.559,35.054
				c-57.354-24.39-72.905-78.252-73.428-117.339c-31.211-8.105-63.042-7.886-98.545,0.488c-32.07,8.262-64.473-5.85-78.887-34.307
				c-12.275-24.253-11.421-61.489,27.515-93.633c82.91-77.9,213.789-43.887,259.038-28.784
				c72.041-51.147,131.709-48.198,169.907-36.021c64.795,20.669,118.008,82.285,147.583,170.166
				c51.831,16.162,89.941,44.946,113.428,85.713c48.872,84.829,24.644,203.325-5.498,308.052
				c-3.12,10.835-12.256,18.867-23.403,20.571C3210.302,1621.556,3208.842,1621.668,3207.392,1621.668z M3087.856,1482.141
				c31.768,0,68.267,9.775,106.284,47.954c17.837-74.912,27.085-155.361-3.55-208.535c-17.939-31.143-48.433-51.729-93.218-62.935
				c-9.927-2.485-17.798-10.039-20.693-19.854c-22.515-76.27-65.352-131.177-114.585-146.885
				c-39.507-12.578-83.135-0.425-129.683,36.157c-8.179,6.431-19.18,7.959-28.809,4.023c-1.372-0.562-141.772-56.47-213.862,12.202
				c-0.557,0.522-1.128,1.03-1.724,1.509c-10.645,8.638-15.977,18.037-13.267,23.384c1.743,3.443,6.772,6.055,13.076,4.414
				c0.21-0.054,0.425-0.107,0.64-0.161c54.287-12.866,104.253-10.244,152.769,8.032c13.027,4.912,20.693,18.408,18.257,32.1
				c-1.055,6.201-8.765,60.166,37.173,79.697c42.021,17.886,107.661-31.362,127.339-50.02c11.084-10.503,28.472-10.6,39.624-0.185
				l24.565,22.925c8.267,7.71,11.274,19.536,7.7,30.259c-11.909,35.923-35.757,139.688-3.457,187.578
				c6.836,10.132,11.05,11.533,44.253,4.834C3051.601,1485.628,3068.886,1482.141,3087.856,1482.141z"/>
		</g>
		<g>
			<path style="fill:#AF684B;" d="M1192.652,2631.018c27.574,27.698,43.3,56.675,39.255,87.798
				c-1.156,9.411-4.169,18.988-9.205,28.812c-4.788,9.453-11.475,19.07-20.226,28.936c15.686,21.01,22.124,43.507,21.01,64.187
				c-2.188,42.516-35.788,77.602-85.032,77.602c-72.153-8.709-112.813-65.301-105.053-195.698
				c1.569-25.592-6.852-51.02-23.94-70.131c-47.469-53.084-73.888-112.73-73.516-180.673c0.165-27.574,4.705-56.51,14.034-86.931
				c2.394-7.843,3.798-15.851,4.169-23.818c1.032-22.083-5.407-44.125-18.575-62.535c-42.681-59.647-57.334-121.233-49.203-166.184
				c7.306-40.535,33.105-67.614,73.516-67.614c99.603,4.912,157.764,57.087,148.022,186.782
				c48.832,34.178,71.369,75.993,34.385,135.103c102.905,38.141,122.388,106.951,76.116,199.991
				C1211.351,2600.885,1202.723,2615.663,1192.652,2631.018z"/>
		</g>
		<g>
			<path style="fill:#995037;" d="M1088.508,2388.346c-16.222,3.343-117.683,25.923-130.85,65.425
				c-3.137,9.411-11.104,15.479-21.712,18.08c0.165-27.574,4.705-56.51,14.034-86.931c2.394-7.843,3.798-15.851,4.169-23.818
				c1.032-22.083-5.407-44.125-18.575-62.535c-42.681-59.647-57.334-121.233-49.203-166.184l18.658-21.63
				c0,0,3.096,88.004,76.405,121.976c73.268,33.972,110.501-24.56,110.501-24.56l15.974,43.383c0,0-98.654,8.999-86.807,80.244
				C1031.627,2394.744,1077.899,2390.245,1088.508,2388.346z"/>
		</g>
		<g>
			<path style="fill:#995037;" d="M1223.486,2840.75c-2.188,42.516-35.788,77.602-85.032,77.602
				c-72.153-8.709-112.813-65.301-105.053-195.698c1.569-25.592-6.852-51.02-23.94-70.131
				c-66.706-74.631-91.843-162.18-59.482-267.604c2.394-7.843,3.798-15.851,4.169-23.818l8.421-6.893
				c0,0-25.385,146.66,59.358,206.843c84.742,60.142,203.871-38.595,192.808-103.442c0,0,25.551,74.506-1.445,126.557
				c-7.306,13.993-18.368,26.376-34.755,35.21c-77.396,41.732-101.956,71.823-79.832,114.835
				c22.084,42.97,124.04,6.728,101.916-54.032c0,0,25.551,17.997,31.288,38.636c2.684,9.535,1.115,19.607-9.163,28.771l-0.041,0.041
				c-32.609,28.936-123.999,10.031-112.936,66.127c11.022,56.138,82.267,51.226,90.853,30.958
				C1203.673,2837.572,1213.415,2836.375,1223.486,2840.75z"/>
		</g>
		<g>
			<path style="fill:#020174;" d="M1138.437,2947.244c-1.157,0-2.314-0.073-3.467-0.21c-46.831-5.659-81.836-28.022-104.033-66.46
				c-21.89-37.91-30.508-90.132-26.357-159.649c1.084-18.159-4.995-36.074-16.675-49.146
				c-77.148-86.367-99.204-185.728-65.562-295.327c6.372-20.761,2.627-43.018-10.283-61.06
				c-55.718-77.881-72.173-166.23-41.909-225.088c17.788-34.6,50.498-54.448,89.746-54.448c0.479,0,0.952,0.015,1.426,0.039
				c59.341,2.935,104.561,21.567,134.404,55.386c30.054,34.043,44.111,83.262,41.885,146.465
				c56.86,45.923,59.043,94.654,44.097,134.468c43.096,21.597,70.898,50.791,82.803,87.065
				c15.488,47.192,3.794,102.505-35.776,168.623c48.755,59.839,35.615,112.3,9.028,150.518
				c18.569,35.142,19.951,74.214,3.042,107.954C1221.708,2924.49,1183.437,2947.244,1138.437,2947.244z M959.233,2093.65
				c-17.471,0.19-29.805,7.739-37.69,23.076c-16.226,31.558-11.401,96.665,37.519,165.044c23.13,32.334,30.059,74.067,18.525,111.64
				c-27.681,90.181-10.21,168.643,53.413,239.868c21.865,24.468,33.262,57.671,31.265,91.094
				c-9.004,150.777,52.222,161.885,77.788,165.063c22.246-0.483,40.078-10.977,49.087-28.95
				c10.049-20.049,6.377-44.956-9.814-66.626c-8.203-10.977-7.568-26.206,1.519-36.46c32.832-37.046,30.405-66.753-8.667-105.967
				c-9.658-9.698-11.191-24.839-3.672-36.27c38.218-58.125,52.046-104.507,41.099-137.861
				c-8.652-26.367-34.678-47.754-77.349-63.564c-8.15-3.022-14.507-9.551-17.31-17.778c-2.803-8.227-1.758-17.275,2.856-24.643
				c20.835-33.291,23.677-60.982-26.465-96.094c-8.354-5.85-13.008-15.664-12.241-25.835c4.121-54.8-4.858-95.127-26.694-119.863
				C1033.1,2107.654,1002.621,2095.916,959.233,2093.65z"/>
		</g>
	</g>
</g>
</svg>
