<?xml version="1.0" encoding="utf-8"?>
<!-- Generator: Adobe Illustrator 27.5.0, SVG Export Plug-In . SVG Version: 6.00 Build 0)  -->
<svg version="1.1" xmlns="http://www.w3.org/2000/svg" xmlns:xlink="http://www.w3.org/1999/xlink" x="0px" y="0px"
	 viewBox="0 0 1122 900" style="enable-background:new 0 0 1122 900;" xml:space="preserve">
<g id="background">
	<rect x="0" style="fill:#FFFFFF;" width="1122" height="900"/>
</g>
<g id="object">
	<path style="opacity:0.08;fill:#90A2AF;" d="M52.785,832.472c0.657-2.677,2.166-5.386,4.686-8.045
		c7.983-8.42,22.462-12.634,36.295-15.775c59.292-13.466,122.235-16.073,184.347-18.163c78.79-2.651,157.613-4.642,236.443-5.999
		c122.645-2.112,245.593-2.682,367.443,5.612c59.736,4.067,122.209,11.149,168.659,36.928c3.313,1.838,6.681,3.928,7.827,6.76
		c1.638,4.046-1.761,8.309-5.863,11.486c-20.301,15.72-47.772,14.312-74.545,13.846c-35.571-0.619-72.512,4.188-108.344,5.424
		c-16.095,0.555-32.191,1.076-48.289,1.555c-123.355,3.674-246.788,3.144-370.06,1.042c-62.254-1.061-124.483-2.526-186.705-4.048
		c-58.539-1.432-118.853-0.034-176.963-3.15C68.168,858.897,49.438,846.104,52.785,832.472z"/>
	<g>
		<g>
			<g>
				<g>
					<g>
						<g>
							<path style="fill:#E8D9D0;" d="M519.905,264.033c-2.374-4.239-4.551-8.591-6.846-12.412
								c-5.727-9.535-11.014-19.4-14.628-30.004c-1.742-5.113-2.827-11.616,0.748-15.321c2.836-2.939,7.552-2.605,10.977-0.446
								c3.424,2.159,5.88,5.738,8.323,9.149c6.711,9.371,14.06,18.276,20.646,27.738c5.54,7.958,12.985,17.146,11.748,27.749
								c-0.456,3.909-2.563,7.937-6.162,9.914c-4.979,2.735-11.193,0.742-15.056-2.883
								C525.785,273.885,522.708,269.038,519.905,264.033z"/>
						</g>
						<path style="fill:#116B84;" d="M535.146,304.888c-8.389-6.233-16.194-13.322-23.08-21.153
							c-5.028-5.718-6.092-8.088,0.375-12.815c5.038-3.683,11.151-5.85,16.351-9.326c2.791-1.865,5.483-3.896,8.173-5.926
							c4.426-3.339,15.175-14.555,19.473-6.697c2.156,3.942,2.101,8.25,3.704,12.252c2.128,5.311,6.533,9.464,8.505,15.026
							c4.155,11.716,2.946,24.809-6.861,32.898c-2.733,2.254-5.896,4.31-9.434,4.462c-3.838,0.166-7.378-1.921-10.574-4.052
							C539.532,308.06,537.32,306.503,535.146,304.888z"/>
					</g>
					<g>
						<g>
							<path style="fill:#E8D9D0;" d="M618.988,320.495c2.186,4.339,4.575,8.578,6.458,12.618
								c4.797,10.29,11.047,20.049,15.124,30.618c2.724,7.062,9.516,13.029,17.365,11.906c6.888-0.986,13.715-2.401,20.427-4.236
								c5.845-1.598,8.609-3.506,13.578-6.342c5.476-3.126,12.199-3.13,17.741-6.172c5.342-2.933,9.164-8.483,9.999-14.52
								c0.177-1.284,0.215-2.647-0.346-3.815c-1.14-2.373-4.161-3.012-6.771-3.366c-4.237-0.574-4.894,2.101-8.384,3.417
								c-1.907,0.719-4.768,0.013-4.791-2.025c-4.228-0.255-7.105,4.406-7.683,8.602c-0.085,0.618-0.162,1.283-0.577,1.748
								c-0.314,0.352-0.775,0.531-1.217,0.698c-7.669,2.889-12.713,4.724-20.987,5.134c-1.382,0.068-2.803,0.131-4.112-0.316
								c-10.531-3.598-13.931-28.939-17.422-37.966c-3.497-9.044-6.948-20.355-16.428-25.261c-3.495-1.809-8.013-2.316-11.665-0.439
								c-5.053,2.597-6.877,8.862-6.033,14.092C614.111,310.11,616.407,315.372,618.988,320.495z"/>
						</g>
						<path style="fill:#116B84;" d="M594.891,284.947c-5.189,13.206-4.102,28.953,3.586,40.953
							c10.659-1.365,17.982-7.516,27.504-11.407c3.108-1.27,6.297-2.365,9.485-3.46c5.244-1.8,20.554-4.435,16.445-12.393
							c-2.061-3.992-5.663-6.357-8.083-9.924c-3.212-4.735-4.19-10.71-7.697-15.456c-3.852-5.213-9.678-9.364-16.155-9.608
							c-7.42-0.279-14.168,4.551-18.8,10.354C598.532,277.319,596.434,281.021,594.891,284.947z"/>
					</g>
					<g>
						<g>
							<path style="fill:#443C37;" d="M537.855,187.661c-0.243,2.993-0.21,6.196-0.145,9.186c0.073,3.382,1.316,6.697,0.627,10.092
								c-0.44,2.167-1.623,4.097-2.471,6.139c-2.716,6.548-1.738,14.49,2.485,20.184c1.45,1.955,3.247,3.654,4.509,5.736
								c2.102,3.469,2.483,7.56,3.202,11.462c0.763,4.137,2.78,7.133,4.016,10.99c1.754,5.472,1.302,11.411,0.221,17.055
								c-0.251,1.312-0.534,2.677-0.181,3.965c0.531,1.939,2.493,2.536,4.298,2.592c22.112,0.685,44.012-2.446,65.819-5.572
								c-1.713,0.246-1.83-15.739-1.724-17.022c0.532-6.41,1.761-12.762,3.667-18.905c0.984-3.171,2.161-6.385,1.99-9.701
								c-0.243-4.706-3.182-9.36-1.787-13.861c1.243-4.01,4.797-7.117,4.933-11.556c0.151-4.946-3.551-9.856-6.426-13.534
								c-2.371-3.033-4.944-6.056-6.567-9.579c-1.383-3.004-1.422-5.848-3.168-8.703c-3.57-5.84-8.883-10.755-14.682-14.327
								c-2.175-1.34-4.47-2.53-6.936-3.197c-2.938-0.795-6.031-0.824-9.067-0.608c-6.887,0.489-13.545,2.179-20.25,3.421
								c-7.041,1.305-13.668,6.122-17.616,11.997C539.867,177.984,538.251,182.775,537.855,187.661z"/>
							<g>
								<path style="fill:#E8D9D0;" d="M620.699,200.84c-1.545-2.124-4.328-3.385-6.892-2.815c-1.364,0.303-2.41,0.893-3.206,1.681
									c-0.97-4.292-2.396-8.491-4.288-12.498c-1.274-2.699-2.76-5.356-4.909-7.426c-1.875-1.807-4.19-3.1-6.586-4.122
									c-8.146-3.471-17.552-3.892-25.976-1.161c-11.837,3.836-18.309,11.302-20.708,21.439c-0.825,3.486-1.169,7.288-1.084,11.368
									c0.003,0.167,0.009,0.339,0.014,0.508c-0.757-0.256-1.609-0.376-2.568-0.325c-2.623,0.138-4.966,2.099-5.885,4.56
									c-0.918,2.461-0.521,5.299,0.733,7.607c1.254,2.308,3.296,4.119,5.571,5.433c1.383,0.799,2.96,1.428,4.53,1.396
									c2.352,9.24,6.798,17.874,14.91,22.421c5.599,3.138,5.779,4.626,6.605,11.326c0.425,3.445,1.57,7.242,4.639,8.863
									c1.618,0.855,3.52,0.953,5.349,0.935c2.5-0.025,4.998-0.234,7.467-0.625c1.899-0.301,3.902-0.773,5.239-2.156
									c2.064-2.135,1.787-5.538,1.343-8.474c-1.216-8.047-1.017-7.066,4.471-11.83c3.57-3.099,6.093-7.048,7.968-11.359
									c2.497-5.74,3.963-11.802,4.462-17.926c0.381,0.138,0.796,0.179,1.203,0.159c1.949-0.091,3.656-1.334,5.021-2.727
									c1.839-1.876,3.321-4.168,3.91-6.728C622.622,205.805,622.244,202.965,620.699,200.84z"/>
								<g>
									<g>
										<path style="fill:#6B4D26;" d="M561.42,218.326c-0.643,0.053-0.562,1.053,0.082,1
											C562.146,219.273,562.065,218.273,561.42,218.326z"/>
										<path style="fill:#6B4D26;" d="M557.861,223.988c-0.643,0.053-0.562,1.053,0.082,1
											C558.587,224.935,558.505,223.935,557.861,223.988z"/>
										<path style="fill:#6B4D26;" d="M570.914,221.57c0.005,0.056,0.009,0.111,0.014,0.167c0.053,0.643,1.053,0.562,1-0.082
											c-0.005-0.056-0.009-0.111-0.014-0.167C571.861,220.845,570.861,220.926,570.914,221.57z"/>
										<path style="fill:#6B4D26;" d="M580.484,217.594c-0.643,0.053-0.562,1.053,0.082,1
											C581.209,218.541,581.128,217.541,580.484,217.594z"/>
										<path style="fill:#6B4D26;" d="M584.606,218.764c-0.643,0.053-0.562,1.053,0.082,1
											C585.332,219.711,585.25,218.711,584.606,218.764z"/>
										<path style="fill:#6B4D26;" d="M599.324,218.223c0.005,0.056,0.009,0.111,0.014,0.167c0.053,0.643,1.053,0.562,1-0.082
											c-0.004-0.056-0.009-0.111-0.014-0.167C600.27,217.497,599.271,217.578,599.324,218.223z"/>
										<path style="fill:#6B4D26;" d="M604.006,213.979c-0.643,0.053-0.562,1.053,0.082,1
											C604.732,214.926,604.651,213.926,604.006,213.979z"/>
										<path style="fill:#6B4D26;" d="M596.481,214.263c-0.643,0.053-0.562,1.053,0.082,1
											C597.207,215.21,597.125,214.21,596.481,214.263z"/>
										<path style="fill:#6B4D26;" d="M594.049,217.316c-0.643,0.053-0.562,1.053,0.082,1
											C594.774,218.262,594.693,217.262,594.049,217.316z"/>
										<path style="fill:#6B4D26;" d="M600.535,214.6c-0.056,0.005-0.111,0.009-0.167,0.014c-0.643,0.053-0.562,1.053,0.082,1
											c0.056-0.005,0.111-0.009,0.167-0.014C601.26,215.547,601.179,214.547,600.535,214.6z"/>
										<path style="fill:#6B4D26;" d="M562.75,222.243c-0.056,0.005-0.111,0.009-0.166,0.014
											c-0.393,0.032-0.513,0.418-0.401,0.701c-0.058,0.169-0.032,0.364,0.146,0.514c0.06,0.051,0.12,0.102,0.18,0.153
											c0.46,0.39,1.042-0.246,0.722-0.672C563.354,222.644,563.183,222.207,562.75,222.243z"/>
										<path style="fill:#6B4D26;" d="M558.059,220.281c-0.643,0.053-0.562,1.053,0.082,1
											C558.784,221.228,558.703,220.228,558.059,220.281z"/>
										<path style="fill:#6B4D26;" d="M572.668,216.393c0.005,0.056,0.009,0.111,0.014,0.167c0.053,0.643,1.053,0.562,1-0.082
											c-0.005-0.056-0.009-0.111-0.014-0.167C573.615,215.668,572.615,215.749,572.668,216.393z"/>
									</g>
									<path style="opacity:0.1;fill:#D58EBE;" d="M574.832,220.95c0.016-0.128,0.024-0.259,0.024-0.392
										c-0.006-1.522-1.22-2.834-2.631-3.405c-1.411-0.571-2.985-0.546-4.505-0.454c-2.441,0.148-4.873,0.445-7.277,0.89
										c-1.806,0.334-3.625,0.762-5.225,1.663c-1.6,0.901-2.975,2.339-3.431,4.118c-0.478,1.861,0.347,4.462,2.242,5.224
										c2.449,0.985,5.943-0.715,8.221-1.505c2.895-1.005,5.949-0.946,8.87-2.28C572.816,224.033,574.607,222.743,574.832,220.95z
										"/>
									<path style="opacity:0.1;fill:#D58EBE;" d="M607.995,218.9c0.048-0.12,0.088-0.244,0.121-0.374
										c0.375-1.475-0.473-3.049-1.697-3.955c-1.224-0.906-2.754-1.275-4.248-1.565c-2.4-0.467-4.829-0.787-7.269-0.958
										c-1.832-0.128-3.7-0.169-5.475,0.304c-2.194,0.584-5.667,2.642-4.744,5.187c0.18,0.495,0.446,0.957,0.778,1.366
										c0.898,1.108,2.24,1.788,3.623,2.139c1.383,0.352,2.822,0.404,4.248,0.454c3.352,0.119,6.772,0.663,10.104,0.208
										C605.273,221.381,607.329,220.579,607.995,218.9z"/>
								</g>
								<path style="fill:#4C3F39;" d="M595.969,188.017c0.647,1.625,1.308,3.327,2.561,4.924c2.838,3.618,6.908,6.21,9.32,10.125
									c3.12,5.064,2.949,11.442,2.304,17.354c-0.565,5.184-1.415,10.338-2.55,15.428c-0.433,1.944-1.192,3.736-0.562,5.697
									c0.514,1.602,2.036,2.616,2.686,4.155c2.277,5.396-3.918,12.464-8.614,14.645c5.427,5.715,12.653,9.696,20.384,11.228
									c3.285,0.651,6.442-11.968,6.998-13.904c1.842-6.416,1.561-13.143-1.417-19.215c-1.799-3.669-4.432-6.865-6.416-10.438
									c-2.94-5.295-4.401-11.402-4.174-17.454c0.138-3.671,0.88-7.35,0.408-10.993c-0.329-2.534-1.234-4.953-2.163-7.334
									c-2.778-7.124-5.911-14.289-11.049-19.952c-4.832-5.325-12.882-10.353-20.261-8.313c-4.126,1.141-7.959,3.47-10.569,6.897
									c-1.655,2.173-6.379,8.375-0.782,9.2c3.016,0.445,6.083,0.208,9.131,0.144c3.048-0.063,6.17,0.063,9.006,1.183
									C593.858,182.836,594.895,185.32,595.969,188.017z"/>
								<path style="fill:#4C3F39;" d="M563.031,184.923c-4.163,1.541-11.125,3.98-11.118,9.141
									c0.007,5.248,3.337,9.821,2.295,15.446c-0.526,2.836-2.228,5.286-3.529,7.861c-2.163,4.281-3.216,9.531-1.087,13.83
									c2.181,4.402,7.24,6.95,9.038,11.522c1.937,4.922-0.51,10.556,0.549,15.738c0.898,4.395,0.706,7.056-3.812,9.226
									c-2.293,1.101-4.75,2.201-6.443,4.191c-0.47,0.553-3.357,7.023-1.669,7.156c-4.868-0.381-10.552-1.27-12.838-5.585
									c-1.238-2.337-1.107-5.22-0.186-7.699c0.921-2.48,2.557-4.624,4.272-6.638c0.987-1.158,2.028-2.32,2.582-3.737
									c1.109-2.841,0.03-6.065-1.456-8.728c-1.486-2.664-3.407-5.16-4.138-8.121c-2.213-8.963,6.037-14.654,8.523-22.33
									c3.669-11.331-7.222-23.354-4.257-34.89c0.923-3.593,3.123-6.713,5.42-9.626c3.531-4.478,7.755-8.907,13.304-10.216
									c7.12-1.679,13.673,3.771,17.517,9.078c1.015,1.401,1.953,2.882,2.778,4.402c1.456,2.686,1.881,2.628-0.449,4.254
									c-3.89,2.714-10.386,3.889-14.85,5.56C563.332,184.812,563.183,184.867,563.031,184.923z"/>
							</g>
						</g>
						<g>
							<g>
								<polygon style="fill:#E8D9D0;" points="543.25,498.827 545.646,531.429 549.094,628.207 565.824,626.496 574.856,536.156 
									584.13,500.072 								"/>
							</g>
							<g>
								<path style="fill:#363535;" d="M547.566,625.922c0.43,2.733,0.624,5.859-0.905,7.825c-1.672,2.148-4.755,2.607-5.958,5.371
									c-0.503,1.157-0.481,2.473-0.327,3.725c0.116,0.937,0.315,1.903,0.884,2.657c0.94,1.247,2.622,1.615,4.158,1.896
									c2.384,0.437,4.801,0.875,7.217,0.675c4.16-0.344,7.832-2.532,11.124-4.949c2.79-2.048,5.679-3.646,5.735-7.629
									c0.017-1.192-0.344-2.351-0.64-3.505c-0.778-3.028-1.13-6.164-1.043-9.289c-6.919,0.12-13.837,0.239-20.756,0.358
									C547.205,623.899,547.403,624.882,547.566,625.922z"/>
							</g>
						</g>
						<g>
							<g>
								<polygon style="fill:#E8D9D0;" points="627.503,499.611 622.296,537.879 610.65,628.023 594.127,624.891 589.682,535.295 
									586.667,497.366 								"/>
							</g>
							<g>
								<path style="fill:#363535;" d="M612.366,625.875c-0.661,2.686-1.121,5.785,0.235,7.874c1.482,2.283,4.516,3.003,5.479,5.86
									c0.403,1.196,0.269,2.505,0.008,3.739c-0.195,0.924-0.477,1.869-1.107,2.572c-1.043,1.162-2.75,1.386-4.305,1.535
									c-2.413,0.232-4.859,0.462-7.248,0.058c-4.115-0.697-7.588-3.191-10.661-5.879c-2.605-2.279-5.347-4.116-5.064-8.09
									c0.085-1.189,0.543-2.313,0.937-3.438c1.033-2.95,1.651-6.045,1.831-9.166c6.883,0.709,13.766,1.418,20.649,2.127
									C612.899,623.891,612.618,624.853,612.366,625.875z"/>
							</g>
						</g>
						<g>
							<path style="fill:#116B84;" d="M558.723,263.928c-34.813,80.259-44.808,157.452-79.729,216.806
								c8.247,0.773,13.865,9.711,20.048,15.921c5.869,5.895,13.243,9.848,20.748,12.459c32.265,11.221,66.141-1.359,99.022,3.784
								c8.084,1.264,16.077,3.61,24.19,3.467c16.289-0.286,31.955-6.067,46.973-11.587c0.987-0.363,14.119-4.52,13.707-5.572
								c-11.215-28.648-22.43-57.296-33.645-85.943c-6.085-15.544-12.177-31.108-16.916-47.078
								c-5.374-18.108-8.976-36.644-12.103-55.215c-2.723-16.174-3.262-32.736-14.319-46.273
								c-4.098-5.018-10.203-9.057-16.876-9.962c-6.641-0.901-14.555,1.713-21.182,2.638
								C585.409,257.822,559.284,259.71,558.723,263.928z"/>
						</g>
					</g>
				</g>
			</g>
			<path style="fill:#E8D9D0;" d="M509.815,132.209c-0.15,0.51-0.35,0.974-0.612,1.377c1.103,0.114,2.394,0.342,3.364,0.911
				c6.526,3.828-5.021,6.785-5.818,8.02c-3.203,4.963-0.2,13.298,1.235,18.299c2.437,8.493,3.039,17.96,4.482,26.681
				c1.453,8.783,1.921,17.273,1.198,26.241c-0.284,3.523-0.802,7.223-4.299,8.596c-3.265,1.282-8.076,0.692-10.648-1.758
				c-3.078-2.932-4.113-7.362-4.881-11.542c-3.906-21.268-4.626-43.118-2.129-64.597c0.71-6.103,1.457-12.588,3.155-18.531
				c0.554-1.939,1.225-3.877,2.368-5.539c1.143-1.662,2.815-3.039,4.788-3.458c1.248-0.265,2.541-0.14,3.81-0.007
				c0.771,0.081,1.589,0.183,2.188,0.674c0.754,0.618,0.954,1.672,1.088,2.637C509.533,123.312,510.818,128.791,509.815,132.209z"/>
		</g>
		<g>
			<g>
				<path style="fill:#F3C229;" d="M756.529,178.125l-2.516-53.015l-9.732-2.574l25.608-98.426c1.054-4.052-1.376-8.191-5.428-9.245
					l0,0c-4.052-1.054-8.191,1.376-9.245,5.428l-25.618,98.465l-2.114,8.127l-0.356,1.368l2.17,48.438l-80.408,309.056
					c-1.93,7.416,2.518,14.993,9.935,16.922s14.993-2.518,16.922-9.935l80.463-309.266
					C756.677,181.667,756.763,179.86,756.529,178.125z"/>
				<g>
					<polygon style="fill:#FFF5CC;" points="790.885,130.972 789.995,127.481 792.555,124.552 791.665,121.062 794.225,118.132 
						793.336,114.642 795.896,111.712 795.006,108.222 797.566,105.293 796.676,101.802 799.236,98.873 798.346,95.382 
						800.906,92.453 800.017,88.963 802.577,86.033 801.687,82.543 804.247,79.614 803.357,76.123 805.917,73.194 805.028,69.703 
						807.587,66.774 806.698,63.284 809.258,60.354 808.368,56.864 810.928,53.934 810.038,50.444 812.598,47.515 811.708,44.024 
						814.268,41.095 813.379,37.604 816.167,34.413 770.312,22.483 743.588,125.199 789.127,137.047 788.325,133.901 					"/>
					<polygon style="fill:#B7BBBC;" points="814.621,36.183 769.783,24.517 769.571,25.331 814.002,36.891 					"/>
					<polygon style="fill:#B7BBBC;" points="768.724,28.587 814.089,40.389 813.851,39.459 768.936,27.773 					"/>
					<polygon style="fill:#B7BBBC;" points="767.877,31.842 812.263,43.39 812.881,42.682 768.089,31.028 					"/>
					<polygon style="fill:#B7BBBC;" points="767.03,35.097 812.445,46.913 812.208,45.983 767.242,34.284 					"/>
					<polygon style="fill:#B7BBBC;" points="766.183,38.353 810.523,49.889 811.142,49.181 766.395,37.539 					"/>
					<polygon style="fill:#B7BBBC;" points="765.336,41.608 810.801,53.437 810.564,52.507 765.548,40.794 					"/>
					<polygon style="fill:#B7BBBC;" points="764.489,44.864 808.784,56.388 809.402,55.68 764.701,44.05 					"/>
					<polygon style="fill:#B7BBBC;" points="763.642,48.119 809.157,59.961 808.92,59.03 763.854,47.305 					"/>
					<polygon style="fill:#B7BBBC;" points="762.795,51.375 807.044,62.887 807.663,62.179 763.007,50.561 					"/>
					<polygon style="fill:#B7BBBC;" points="761.948,54.63 807.514,66.485 807.276,65.554 762.16,53.816 					"/>
					<polygon style="fill:#B7BBBC;" points="761.101,57.886 805.305,69.386 805.923,68.678 761.313,57.072 					"/>
					<polygon style="fill:#B7BBBC;" points="760.254,61.141 805.87,73.009 805.633,72.078 760.466,60.327 					"/>
					<polygon style="fill:#B7BBBC;" points="759.407,64.396 803.565,75.885 804.184,75.177 759.619,63.583 					"/>
					<polygon style="fill:#B7BBBC;" points="758.56,67.652 804.226,79.533 803.989,78.602 758.772,66.838 					"/>
					<polygon style="fill:#B7BBBC;" points="757.713,70.907 801.826,82.384 802.444,81.676 757.925,70.093 					"/>
					<polygon style="fill:#B7BBBC;" points="756.866,74.163 802.561,86.051 802.577,86.033 802.345,85.126 757.078,73.349 					"/>
					<polygon style="fill:#B7BBBC;" points="756.019,77.418 800.086,88.883 800.705,88.175 756.231,76.604 					"/>
					<polygon style="fill:#B7BBBC;" points="755.172,80.674 800.821,92.55 800.907,92.453 800.702,91.65 755.384,79.86 					"/>
					<polygon style="fill:#B7BBBC;" points="754.325,83.929 798.347,95.382 798.965,94.674 754.537,83.115 					"/>
					<polygon style="fill:#B7BBBC;" points="753.478,87.185 799.082,99.049 799.236,98.873 799.058,98.174 753.69,86.371 					"/>
					<polygon style="fill:#B7BBBC;" points="752.631,90.44 796.703,101.906 796.676,101.802 797.226,101.173 752.843,89.626 					
						"/>
					<polygon style="fill:#B7BBBC;" points="751.784,93.695 797.343,105.548 797.566,105.293 797.414,104.698 751.996,92.881 					
						"/>
					<polygon style="fill:#B7BBBC;" points="750.937,96.951 795.059,108.43 795.006,108.222 795.486,107.672 751.149,96.137 					
						"/>
					<polygon style="fill:#B7BBBC;" points="747.549,109.973 791.771,121.478 791.665,121.062 792.007,120.67 747.761,109.159 					
						"/>
					<polygon style="fill:#B7BBBC;" points="746.702,113.228 792.124,125.045 792.555,124.552 792.483,124.27 746.914,112.414 					
						"/>
					<polygon style="fill:#B7BBBC;" points="745.855,116.483 790.128,128.002 789.995,127.481 790.268,127.17 746.067,115.67 					
						"/>
					<polygon style="fill:#B7BBBC;" points="745.008,119.739 790.384,131.544 790.885,130.972 790.839,130.794 745.22,118.925 					
						"/>
					<polygon style="fill:#B7BBBC;" points="744.161,122.994 788.484,134.526 788.325,133.901 788.528,133.668 744.373,122.18 					
						"/>
					<polygon style="fill:#B7BBBC;" points="750.09,100.206 795.603,112.047 795.896,111.713 795.77,111.222 750.302,99.392 					
						"/>
					<polygon style="fill:#B7BBBC;" points="749.243,103.462 793.415,114.954 793.335,114.642 793.747,114.171 749.455,102.648 
											"/>
					<polygon style="fill:#B7BBBC;" points="748.396,106.717 793.863,118.546 794.225,118.132 794.127,117.746 748.608,105.903 
											"/>
				</g>
			</g>
		</g>
	</g>
	<g>
		<g>
			<circle style="opacity:0.59;fill:#BFE0F2;" cx="921.426" cy="163.786" r="57.996"/>
		</g>
		<g style="opacity:0.56;">
			<g>
				<path style="fill:#FFFFFF;" d="M886.427,202.546c-0.66,0-1.319-0.252-1.822-0.755c-20.542-20.542-20.542-53.965,0-74.507
					c9.951-9.951,23.181-15.431,37.253-15.431c14.073,0,27.303,5.48,37.253,15.431c1.007,1.006,1.007,2.638,0,3.644
					c-1.006,1.007-2.638,1.007-3.645,0c-8.977-8.977-20.913-13.921-33.609-13.921c-12.696,0-24.631,4.944-33.609,13.921
					c-18.532,18.532-18.532,48.686,0,67.218c1.007,1.006,1.007,2.638,0,3.644C887.746,202.294,887.086,202.546,886.427,202.546z"/>
			</g>
			<path style="fill:#FFFFFF;" d="M889.862,205.951c0-1.821,1.476-3.298,3.297-3.298c1.821,0,3.298,1.476,3.298,3.298
				c0,1.821-1.476,3.298-3.298,3.298C891.338,209.249,889.862,207.773,889.862,205.951z"/>
		</g>
	</g>
	<g>
		<g>
			
				<ellipse transform="matrix(0.9208 -0.39 0.39 0.9208 -19.9147 86.6929)" style="opacity:0.59;fill:#BFE0F2;" cx="203.546" cy="92.391" rx="41.384" ry="41.384"/>
		</g>
		<g style="opacity:0.56;">
			<g>
				<path style="fill:#FFFFFF;" d="M203.748,129.656c-0.348,0.317-0.816,0.502-1.323,0.479
					c-20.708-0.943-36.787-18.558-35.844-39.265c0.457-10.031,4.793-19.284,12.209-26.054c7.416-6.77,17.025-10.247,27.056-9.79
					c1.015,0.046,1.8,0.906,1.753,1.921c-0.046,1.014-0.906,1.8-1.921,1.753c-9.05-0.412-17.719,2.724-24.409,8.832
					c-6.691,6.108-10.602,14.455-11.015,23.505c-0.851,18.682,13.656,34.573,32.338,35.424c1.015,0.046,1.8,0.906,1.753,1.921
					C204.322,128.889,204.096,129.339,203.748,129.656z"/>
			</g>
			<path style="fill:#FFFFFF;" d="M207.197,129.798c-0.876-0.96-0.808-2.448,0.152-3.324c0.96-0.876,2.448-0.808,3.324,0.151
				c0.876,0.96,0.808,2.448-0.151,3.324C209.561,130.825,208.073,130.758,207.197,129.798z"/>
		</g>
	</g>
	<g>
		<g>
			
				<ellipse transform="matrix(0.0455 -0.999 0.999 0.0455 242.1108 446.3211)" style="opacity:0.59;fill:#BFE0F2;" cx="354.612" cy="96.466" rx="33.398" ry="33.398"/>
		</g>
		<g style="opacity:0.56;">
			<g>
				<path style="fill:#FFFFFF;" d="M354.775,126.539c-0.28,0.256-0.659,0.405-1.068,0.386
					c-16.711-0.761-29.688-14.976-28.927-31.688c0.369-8.096,3.868-15.563,9.853-21.026c5.985-5.464,13.74-8.269,21.835-7.901
					c0.819,0.037,1.452,0.731,1.415,1.55c-0.037,0.819-0.731,1.452-1.55,1.415c-7.303-0.333-14.299,2.199-19.699,7.128
					c-5.399,4.929-8.556,11.666-8.889,18.969c-0.686,15.077,11.021,27.901,26.097,28.588c0.819,0.037,1.452,0.731,1.415,1.55
					C355.239,125.92,355.056,126.283,354.775,126.539z"/>
			</g>
			<path style="fill:#FFFFFF;" d="M357.558,126.653c-0.707-0.774-0.652-1.975,0.122-2.683c0.775-0.707,1.976-0.652,2.683,0.122
				c0.707,0.775,0.652,1.976-0.122,2.683C359.466,127.483,358.265,127.428,357.558,126.653z"/>
		</g>
	</g>
	<g>
		<g>
			<circle style="opacity:0.59;fill:#BFE0F2;" cx="419.868" cy="242.518" r="15.997"/>
		</g>
		<g style="opacity:0.56;">
			<g>
				<path style="fill:#FFFFFF;" d="M410.215,253.209c-0.182,0-0.364-0.069-0.503-0.208c-5.666-5.666-5.666-14.885,0-20.551
					c2.745-2.745,6.394-4.256,10.275-4.256c3.882,0,7.531,1.512,10.275,4.256c0.278,0.277,0.278,0.728,0,1.005
					c-0.277,0.278-0.728,0.278-1.005,0c-2.476-2.476-5.768-3.84-9.27-3.84c-3.502,0-6.794,1.364-9.27,3.84
					c-5.111,5.112-5.111,13.429,0,18.54c0.278,0.278,0.278,0.728,0,1.005C410.579,253.14,410.397,253.209,410.215,253.209z"/>
			</g>
			<path style="fill:#FFFFFF;" d="M411.162,254.148c0-0.502,0.407-0.91,0.91-0.91c0.502,0,0.91,0.407,0.91,0.91
				c0,0.502-0.407,0.91-0.91,0.91C411.569,255.058,411.162,254.651,411.162,254.148z"/>
		</g>
	</g>
	<g>
		<g>
			<g>
				<path style="fill:#E4F0F4;" d="M757.609,399.509c-49.087-61.71-140.249-33.66-140.25-33.66
					c-23.099,6.866-46.959,18.91-71.607,13.876c-17.42-3.558-34.819-8.647-51.812-13.876c-0.002-0.001-91.163-28.049-140.249,33.66
					c-49.087,61.71-23.842,192.142,23.842,287.511S499.55,849.71,507.965,837.088c8.347-12.52,15.427-67.299,47.685-67.299
					c28.05,0,39.338,54.779,47.685,67.299c8.415,12.622,82.747-54.697,130.432-150.067S806.697,461.219,757.609,399.509z"/>
			</g>
			<g style="opacity:0.06;">
				<path d="M415.093,749.973c41.939,60.061,86.473,96.715,92.873,87.114c8.347-12.52,15.427-67.299,47.685-67.299
					c28.05,0,39.338,54.779,47.685,67.299c8.415,12.622,82.747-54.697,130.432-150.067c28.001-56,48.254-124.087,50.273-183.253
					C664.679,831.391,415.098,749.975,415.093,749.973z"/>
			</g>
			<g>
				<path style="fill:#FFFFFF;" d="M463.64,378.174c-7.034-1.621-14.35-2.507-21.877-2.507c-53.594,0-97.04,43.446-97.04,97.04
					c0,17.689,4.756,34.258,13.026,48.54c-0.438-4.377-0.664-8.816-0.664-13.308C357.084,443.687,402.898,390.144,463.64,378.174z"
					/>
			</g>
			<g>
				<path style="opacity:0.09;" d="M594.82,391.638c0,0,31.999-30.518,69.837-32.143c-26.792,0.052-47.297,6.355-47.297,6.355
					c-23.098,6.866-46.959,18.909-71.606,13.876c-17.42-3.558-34.819-8.647-51.812-13.876c-0.001,0-12.306-3.781-30.3-5.512
					c0.021,0.006,33.226,9.538,66.959,34.565C564.342,419.938,594.82,391.638,594.82,391.638z"/>
			</g>
		</g>
		<path style="fill:#BFE0F2;" d="M434.094,334.349c-2.725,0.199-5.289,0.891-7.648,1.944c-2.563-14.689-15.894-25.33-31.082-24.224
			c-16.188,1.179-28.355,15.259-27.176,31.447c0.228,3.129,0.942,6.104,2.056,8.865c-14.139,3.003-24.251,16.05-23.171,30.872
			c0.002,0.032,0.007,0.063,0.009,0.095c-7.269,1.343-12.518,7.965-11.969,15.51c0.59,8.094,7.629,14.178,15.723,13.588
			c4.453-0.324,8.29-2.608,10.749-5.938c4.947,2.89,10.788,4.369,16.934,3.922c10.723-0.781,19.677-7.225,24.161-16.19
			c9.584-2.137,16.421-11.005,15.686-21.091c-0.035-0.474-0.107-0.935-0.173-1.398c4.557,5.47,11.579,8.753,19.222,8.196
			c12.591-0.917,22.054-11.868,21.137-24.459C457.635,342.894,446.685,333.431,434.094,334.349z"/>
		<path style="fill:#BFE0F2;" d="M324.656,542.556c-0.425,1.964-0.469,3.916-0.215,5.799c-10.895-1.238-21.168,5.96-23.537,16.905
			c-2.525,11.666,4.885,23.17,16.551,25.696c2.254,0.488,4.502,0.601,6.681,0.388c-0.814,10.599,6.294,20.438,16.975,22.751
			c0.023,0.005,0.046,0.008,0.069,0.013c-0.56,5.407,3.023,10.484,8.46,11.661c5.833,1.263,11.585-2.442,12.848-8.275
			c0.695-3.209-0.12-6.389-1.96-8.816c3.065-2.891,5.32-6.705,6.279-11.134c1.673-7.727-1.017-15.381-6.412-20.404
			c0.48-7.206-4.359-13.868-11.627-15.442c-0.342-0.074-0.682-0.118-1.023-0.168c4.804-2.08,8.577-6.354,9.769-11.862
			c1.964-9.074-3.799-18.021-12.872-19.985C335.568,527.719,326.621,533.482,324.656,542.556z"/>
		<g style="opacity:0.56;">
			<g>
				<path style="fill:#FFFFFF;" d="M418.653,330.149c0.085-0.283,0.061-0.597-0.09-0.877c-6.165-11.434-20.482-15.721-31.916-9.557
					c-5.539,2.986-9.584,7.951-11.389,13.979c-1.805,6.028-1.155,12.398,1.832,17.937c0.302,0.56,1.001,0.77,1.561,0.467
					c0.56-0.302,0.77-1.001,0.467-1.561c-2.694-4.997-3.281-10.744-1.652-16.183c1.629-5.438,5.277-9.917,10.275-12.611
					c10.316-5.561,23.232-1.693,28.794,8.622c0.302,0.56,1.001,0.77,1.561,0.467C418.376,330.681,418.569,330.431,418.653,330.149z"
					/>
			</g>
			<path style="fill:#FFFFFF;" d="M419.671,332.057c-0.78-0.234-1.602,0.209-1.836,0.99c-0.234,0.78,0.21,1.602,0.99,1.836
				c0.78,0.234,1.602-0.21,1.836-0.99S420.451,332.29,419.671,332.057z"/>
		</g>
		<g style="opacity:0.56;">
			<g>
				<path style="fill:#FFFFFF;" d="M318.425,553.716c-0.176-0.122-0.399-0.177-0.627-0.135c-9.298,1.69-15.487,10.63-13.797,19.929
					c0.819,4.504,3.343,8.42,7.107,11.026c3.764,2.606,8.318,3.59,12.822,2.771c0.456-0.083,0.758-0.519,0.675-0.975
					c-0.083-0.456-0.519-0.758-0.975-0.675c-4.064,0.739-8.172-0.149-11.567-2.5c-3.396-2.351-5.673-5.883-6.412-9.947
					c-1.525-8.389,4.059-16.454,12.447-17.979c0.456-0.083,0.758-0.519,0.675-0.975
					C318.732,554.028,318.602,553.839,318.425,553.716z"/>
			</g>
			<path style="fill:#FFFFFF;" d="M319.975,553.442c-0.337,0.487-0.216,1.155,0.271,1.493c0.487,0.337,1.155,0.216,1.493-0.271
				c0.337-0.487,0.216-1.155-0.271-1.493C320.98,552.833,320.312,552.955,319.975,553.442z"/>
		</g>
	</g>
	<g>
		<g>
			<g>
				<g>
					<path style="fill:#465C82;" d="M210.549,706.629c0.008,0.519,0.015,1.037,0.022,1.556c0.262,18.648,3.936,41.234,0.835,59.258
						c-3.363,19.555-13.005,39.622-19.209,58.527c-4.167-1.123-10.538-1.545-14.139-3.81c-6.754-4.246-2.918-8.073-1.576-16.004
						c3.458-20.436,1.873-41.953-4.035-61.783c-5.2-17.453-13.767-33.715-19.729-50.922c-4.592-13.255-16.236-55.551,5.667-58.319
						c15.6-1.971,31.548-1.161,46.867,2.383c0.992,0.229,2.052,0.513,2.702,1.297c0.661,0.797,0.734,1.913,0.777,2.948
						C209.626,663.374,210.232,685,210.549,706.629z"/>
				</g>
				<g>
					<path style="fill:#1A1A1A;" d="M194.105,823.925c-0.878,2.674-1.583,5.782-0.369,8.005c1.328,2.43,4.349,3.394,5.106,6.367
						c0.316,1.244,0.079,2.562-0.28,3.794c-0.269,0.922-0.628,1.859-1.322,2.524c-1.147,1.099-2.897,1.193-4.485,1.225
						c-2.465,0.049-4.964,0.094-7.357-0.5c-4.121-1.024-7.451-3.822-10.361-6.786c-2.467-2.512-5.107-4.588-4.513-8.597
						c0.178-1.199,0.729-2.305,1.215-3.415c1.275-2.913,2.141-6.005,2.564-9.157c6.928,1.25,13.855,2.5,20.782,3.75
						C194.798,821.953,194.439,822.908,194.105,823.925z"/>
				</g>
			</g>
			<g>
				<g>
					<path style="fill:#465C82;" d="M159.546,709.256c-0.401,1.37-0.807,2.736-1.218,4.097
						c-6.913,22.938-13.423,44.264-25.385,64.775c-1.694,2.905-23.384,40.913-23.765,40.718
						c-9.987-5.123-17.627-5.691-15.129-18.214c2.502-12.544,9.069-23.904,11.198-36.564c2.248-13.365-0.519-26.988-2.538-40.39
						c-2-13.278-3.268-26.665-3.799-40.082c-0.458-11.546-3.189-29.164,0.607-40.182c6.025-17.486,42.748-11.101,57.169-9.467
						c2.669,0.302,5.567,0.713,7.433,2.645c1.448,1.5,1.985,3.639,2.387,5.684C170.884,664.524,165.939,687.409,159.546,709.256z"/>
				</g>
				<g>
					<path style="fill:#1A1A1A;" d="M111.486,817.252c-1.418,2.431-2.758,5.322-2.036,7.75c1.733,5.826,8.528,11.519,3.49,17.433
						c-1.431,1.679-3.746,2.687-5.899,2.206c-1.109-0.248-2.101-0.854-3.047-1.485c-5.932-3.957-20.056-16.31-16.829-24.943
						c0.425-1.135,1.195-2.1,1.903-3.084c1.857-2.582,3.351-5.424,4.424-8.417c6.512,2.672,13.025,5.344,19.537,8.016
						C112.577,815.469,112.026,816.327,111.486,817.252z"/>
				</g>
			</g>
			<path style="fill:#B7CCEA;" d="M217.671,535.235c-0.693-7.05-1.511-14.091-2.454-21.121c-1.48-11.034-3.472-22.52-10.672-31.652
				c-17.533-22.235-80.502-17.552-94.731,5.615c-14.018,22.824-18.22,51.348-19.724,77.126c-1.829,31.327,0.99,62.813-0.235,94.173
				c42.107,3.367,84.353,5.013,126.561,4.93C221.483,621.526,221.899,578.232,217.671,535.235z"/>
			<g>
				<path d="M201.456,410.092c1.928,0.478,4.183,6.281,4.685,8.371c0.533,2.22,0.607,4.686,1.808,6.39
					c1.143-1.633,1.262-4.105,0.891-6.261c-0.222-1.285-1.315-1.888-1.673-3.186c-0.421-1.522-0.169-3.361-0.287-4.935
					c-0.067-0.894-0.233-1.83-0.719-2.503c-0.45-0.622-1.104-0.927-1.701-1.305c-1.575-0.996-2.887-2.651-3.671-4.63
					c-0.261-0.659-0.475-1.37-0.889-1.893c-0.264-0.334-0.584-0.559-0.931-0.717c-0.178-0.263-0.377-0.513-0.613-0.743
					c-1.434-1.399-3.69-1.591-4.497-3.625c-0.452-1.14-0.263-2.473-0.191-3.729c0.874-15.325-11.825-14.786-19.566-17.072
					c-7.392-2.182-11.863-5.97-17.851,3.52c-5.794,9.182-2.548,14.799,0.885,23.524c2.753,6.997,1.462,11.919,2.756,19.41
					c1.008,5.835,4.278,10.791,5.463,16.599c1.054,5.163,0.575,10.64,1.734,15.77c1.159,5.13,5.021,10.177,9.113,8.943
					c-0.616,3.88,1.776,8.186,4.919,8.854c3.143,0.668,6.4-2.437,6.696-6.385c2.645,0.594,6.223,0.511,6.905-2.707
					c0.237-1.115,0.007-2.312,0.086-3.466c0.334-4.883,5.355-6.327,9.27-6.537c-1.476-5.355,0.185-11.721,3.869-14.827
					c-1.402-0.641-1.812-2.943-1.547-4.759c0.265-1.815,0.97-3.536,0.918-5.39c-0.148-5.215-5.736-7.658-7.169-12.597
					c-0.376-1.297-0.455-2.715-0.42-4.166C200.298,410.107,200.958,409.953,201.456,410.092z"/>
				<path d="M103.719,397.255c0.283,1.249,0.736,2.564,0.299,3.749c-0.779,2.114-3.775,2.525-5.491,4.065
					c-4.127,3.704,1.138,10.437-0.092,15.711c-1.186,5.081-8.315,8.07-7.737,13.301c0.206,1.86,1.407,3.513,2.033,5.303
					c0.626,1.79,0.418,4.134-1.366,4.912c5.402,2.749,8.577,8.956,7.396,14.457c5.282-0.172,12.23,0.784,13.405,5.636
					c0.277,1.147,0.148,2.367,0.631,3.459c1.395,3.153,6.204,2.888,9.663,2.036c0.986,3.921,5.815,6.71,9.93,5.736
					c4.116-0.975,6.682-5.515,5.278-9.337c5.671,0.836,10.098-4.589,10.889-9.836c0.79-5.246-0.668-10.679-0.023-15.947
					c0.725-5.926,4.371-11.203,4.854-17.14c0.62-7.621-1.843-12.42,0.806-19.688c3.304-9.063,6.82-15-2.316-23.622
					c-2.847-2.686-6.247-5.051-10.348-5.346c-1.512-0.109-2.979,0.343-4.454,0.189c-2.391-0.25-4.448-2.048-6.796-0.411
					c-0.621,0.433-1.061,1.052-1.635,1.538c-2.126,1.801-5.467,1.413-8.366,0.942c-1.074-0.174-2.214-0.34-3.204,0.039
					c-2.808,1.075-2.506,5.581-5.383,6.502c-3.481,1.112-5.102,1.267-7.075,4.667C103.019,390.922,103.024,394.188,103.719,397.255z
					"/>
				<path style="fill:#8C6239;" d="M181.148,425.342c-0.039-0.116-0.077-0.233-0.114-0.35c-1.44-4.565-1.244-9.469-2.032-14.19
					c-2.266-13.576-17.913-16.542-29.714-13.761c-16.058,3.783-20.285,15.649-21.36,30.431c-0.134,1.839-0.773,4.207-2.614,4.299
					c-0.924,0.046-1.749-0.568-2.66-0.73c-2.32-0.412-4.106,2.166-4.436,4.499c-0.411,2.907,0.456,6.004,2.445,8.168
					c1.973,2.145,3.985,1.912,6.383,2.887c3.789,1.541,1.602-0.405,3.679,3.23c2.657,4.649,4.642,8.953,9.27,12.072
					c4.678,3.152,4.729,4.468,4.969,10.397c0.124,3.049,0.853,6.456,3.425,8.098c1.355,0.866,3.014,1.089,4.618,1.204
					c2.191,0.158,4.395,0.155,6.586-0.009c1.685-0.127,3.474-0.396,4.744-1.511c1.962-1.721,1.964-4.722,1.787-7.326
					c-0.485-7.136-0.382-6.263,4.769-10.041c7.172-5.26,16.003-16.64,14.513-26.021
					C184.772,432.688,182.432,429.184,181.148,425.342z"/>
				<path d="M126.5,423.702c-1.793,1.318-4.065,2.257-4.659,4.279c-0.353,1.202,0.007,2.508-0.143,3.753
					c-0.238,1.969-1.88,3.678-3.947,4.106c-3.82,0.792-6.729-2.443-8.381-5.189c-2.496-4.145-7.53-6.9-12.545-6.864
					c-2.692,0.019-5.284,0.773-7.948,1.06c-5.033,0.543-12.083-1.562-14.328-6.143c-0.287-0.585-0.565-1.199-0.553-1.833
					c0.012-0.634,0.393-1.293,1.045-1.452c0.809-0.197,1.591,0.4,2.347,0.777c2.09,1.043,6.864-0.018,8.589-1.336
					c2.037-1.556,1.152-4.59,0.843-7.083c-0.792-6.372,4.204-12.72,10.9-13.852c2.124-0.359,4.338-0.249,6.444-0.677
					c4.861-0.988,8.404-4.614,12.285-7.443c3.881-2.829,9.33-4.981,13.78-2.671c1.279,0.664,2.364,1.654,3.705,2.192
					c4.995,2.005,9.382-0.318,14.351,2.16c5.087,2.536,11.525,7.76,11.151,12.993c0.116-1.623-2.392-2.317-4.028-1.794
					c-1.637,0.523-3.161,1.649-4.9,1.402c-2.287-0.326-3.755-2.894-6.054-3.103c-1.911-0.173-3.418,1.378-4.294,2.935
					c-0.876,1.557-1.534,3.348-3.087,4.339c-2.117,1.351-5.244,0.773-7.303,2.198c-2.345,1.623-2.18,4.947-1.549,7.676
					c0.631,2.729,1.448,5.8-0.168,8.071C127.642,422.781,127.097,423.263,126.5,423.702z"/>
				<path d="M177.508,403.59c3.644,0.762,5.076,5.273,4.904,8.992c-0.072,1.551-0.226,3.323,0.859,4.434
					c0.58,0.594,1.405,0.863,2.144,1.24c3.223,1.641,4.878,5.833,3.646,9.234c3.022-1.828,4.267-6.096,2.702-9.262
					c-0.526-1.064-1.31-1.982-1.859-3.034c-1.692-3.238-0.942-7.14-1.137-10.788c-0.08-1.486-0.361-3.044-1.325-4.177
					c-0.892-1.048-2.231-1.576-3.446-2.223c-3.206-1.706-5.822-4.497-7.318-7.806c-0.498-1.102-0.895-2.289-1.72-3.173
					c-1.325-1.419-3.429-1.735-5.365-1.88c-1.697-0.127-3.642-0.091-4.776,1.177c-0.529,0.592-0.807,1.389-1.391,1.928
					c-3.464,3.197-7.569-1.042-6.999,6.003c0.353,4.368,0.658,3.715,4.28,3.704c3.585-0.011,5.673-2.365,9.029,0.484
					c1.591,1.35,1.014,3.468,2.896,4.627C173.915,403.861,176.074,403.242,177.508,403.59z"/>
			</g>
		</g>
		<g>
			<path style="fill:#8C6239;" d="M256.779,420.826c-0.176-1.194-0.171-2.738,0.935-3.219c1.367-0.594,2.559,1.105,3.092,2.497
				c2.835-3.513,2.868-8.996,0.077-12.544c2.051-2.832,6.289-3.484,9.466-2.025c3.177,1.459,5.329,4.608,6.363,7.948
				c1.557,5.031-0.044,10.571-1.843,15.314c-1.343,3.541-2.693,7.092-3.784,10.72c-0.304,1.01-0.54,4.455-1.312,5.103
				c-1.78,1.493-9.221-0.862-11.279-1.404c-0.165-0.043-0.34-0.094-0.45-0.224c-0.228-0.268-0.051-0.674,0.12-0.981
				c1.1-1.976,1.722-4.244,1.596-6.503c-0.137-2.449-1.623-4.089-2.201-6.314C256.886,426.608,257.173,423.502,256.779,420.826z"/>
			<path style="fill:#B7CCEA;" d="M258.259,488.593c0.258-0.401,0.508-0.823,0.752-1.268c7.833-14.292,15.379-28.742,22.632-43.337
				c0.833-1.677,1.678-3.621,0.967-5.354c-5.619-1.352-19.384-9.225-24.564-7.577c-4.893,1.557-6.944,10.852-9.731,14.734
				c-3.662,5.091-7.729,8.475-12.859,11.915c-19.523,13.088-38.956,11.946-61.336,11.496c-4.733-0.095-11.096,1.252-11.22,5.984
				c-0.032,1.223,0.427,2.399,0.898,3.528c5.356,12.834,13.285,24.588,23.178,34.362c3.931,3.883,8.729,7.669,14.253,7.512
				c3.699-0.105,7.086-1.983,10.303-3.811c9.572-5.439,19.28-10.59,28.778-16.179C247.388,496.433,253.875,495.416,258.259,488.593z
				"/>
		</g>
		<g>
			<g>
				<path style="fill:#9672B2;" d="M285.645,398.378l16.447-54.068l-8.839-6.064l60.903-89.546
					c2.507-3.686,1.551-8.707-2.135-11.214l0,0c-3.686-2.507-8.707-1.551-11.214,2.135l-60.927,89.581l-5.029,7.393l-0.847,1.245
					l-15.157,49.353L67.614,668.366c-4.589,6.747-2.84,15.937,3.908,20.526c6.747,4.589,15.937,2.84,20.526-3.908l191.364-281.364
					C284.526,401.984,285.258,400.202,285.645,398.378z"/>
				<g>
					<polygon style="fill:#FFF5CC;" points="336.973,363.383 337.33,359.565 340.946,357.543 341.302,353.724 344.918,351.702 
						345.275,347.883 348.89,345.862 349.247,342.043 352.863,340.021 353.22,336.202 356.835,334.18 357.192,330.362 
						360.807,328.34 361.164,324.521 364.78,322.499 365.137,318.681 368.752,316.659 369.109,312.84 372.724,310.818 
						373.081,306.999 376.697,304.978 377.053,301.159 380.669,299.137 381.026,295.318 384.642,293.297 384.998,289.478 
						388.614,287.456 388.971,283.637 392.586,281.615 392.943,277.797 396.882,275.594 355.163,247.22 291.606,340.669 
						333.036,368.848 333.358,365.405 					"/>
					<polygon style="fill:#B7BBBC;" points="394.697,276.815 353.904,249.071 353.401,249.811 393.823,277.304 					"/>
					<polygon style="fill:#B7BBBC;" points="351.386,252.773 392.658,280.843 392.753,279.825 351.89,252.033 					"/>
					<polygon style="fill:#B7BBBC;" points="349.372,255.735 389.753,283.199 390.627,282.711 349.876,254.995 					"/>
					<polygon style="fill:#B7BBBC;" points="347.358,258.697 388.675,286.798 388.771,285.78 347.861,257.956 					"/>
					<polygon style="fill:#B7BBBC;" points="345.343,261.658 385.683,289.095 386.557,288.606 345.847,260.918 					"/>
					<polygon style="fill:#B7BBBC;" points="343.329,264.62 384.692,292.753 384.787,291.734 343.833,263.88 					"/>
					<polygon style="fill:#B7BBBC;" points="341.315,267.582 381.613,294.99 382.487,294.501 341.818,266.841 					"/>
					<polygon style="fill:#B7BBBC;" points="339.3,270.544 380.709,298.707 380.805,297.689 339.804,269.803 					"/>
					<polygon style="fill:#B7BBBC;" points="337.286,273.505 377.543,300.885 378.417,300.397 337.789,272.765 					"/>
					<polygon style="fill:#B7BBBC;" points="335.272,276.467 376.726,304.662 376.821,303.643 335.775,275.727 					"/>
					<polygon style="fill:#B7BBBC;" points="333.257,279.429 373.473,306.78 374.346,306.292 333.761,278.688 					"/>
					<polygon style="fill:#B7BBBC;" points="331.243,282.39 372.743,310.616 372.839,309.598 331.746,281.65 					"/>
					<polygon style="fill:#B7BBBC;" points="329.228,285.352 369.403,312.676 370.276,312.187 329.732,284.612 					"/>
					<polygon style="fill:#B7BBBC;" points="327.214,288.314 368.76,316.571 368.855,315.552 327.718,287.573 					"/>
					<polygon style="fill:#B7BBBC;" points="325.2,291.276 365.332,318.571 366.206,318.082 325.703,290.535 					"/>
					<polygon style="fill:#B7BBBC;" points="323.185,294.237 364.757,322.512 364.78,322.499 364.872,321.507 323.689,293.497 					
						"/>
					<polygon style="fill:#B7BBBC;" points="321.171,297.199 361.262,324.466 362.136,323.978 321.675,296.459 					"/>
					<polygon style="fill:#B7BBBC;" points="319.157,300.161 360.687,328.407 360.808,328.34 360.889,327.461 319.66,299.42 					
						"/>
					<polygon style="fill:#B7BBBC;" points="317.142,303.122 357.192,330.362 358.066,329.873 317.646,302.382 					"/>
					<polygon style="fill:#B7BBBC;" points="315.128,306.084 356.617,334.302 356.835,334.181 356.907,333.416 315.632,305.344 
											"/>
					<polygon style="fill:#B7BBBC;" points="313.114,309.046 353.209,336.316 353.219,336.202 353.996,335.768 313.617,308.306 
											"/>
					<polygon style="fill:#B7BBBC;" points="311.099,312.008 352.547,340.198 352.863,340.021 352.923,339.371 311.603,311.267 
											"/>
					<polygon style="fill:#B7BBBC;" points="309.085,314.969 349.226,342.271 349.247,342.043 349.926,341.664 309.589,314.229 
											"/>
					<polygon style="fill:#B7BBBC;" points="301.027,326.816 341.26,354.18 341.302,353.724 341.785,353.454 301.531,326.076 					
						"/>
					<polygon style="fill:#B7BBBC;" points="299.013,329.778 340.337,357.883 340.946,357.543 340.974,357.234 299.517,329.038 
											"/>
					<polygon style="fill:#B7BBBC;" points="296.999,332.74 337.277,360.134 337.33,359.564 337.715,359.349 297.502,331.999 					
						"/>
					<polygon style="fill:#B7BBBC;" points="294.984,335.701 336.266,363.779 336.974,363.383 336.991,363.189 295.488,334.961 
											"/>
					<polygon style="fill:#B7BBBC;" points="292.97,338.663 333.294,366.089 333.358,365.405 333.645,365.245 293.474,337.923 					
						"/>
					<polygon style="fill:#B7BBBC;" points="307.07,317.931 348.477,346.093 348.89,345.862 348.94,345.325 307.574,317.191 					
						"/>
					<polygon style="fill:#B7BBBC;" points="305.056,320.893 345.243,348.225 345.275,347.883 345.855,347.559 305.56,320.152 					
						"/>
					<polygon style="fill:#B7BBBC;" points="303.042,323.855 344.406,351.988 344.918,351.702 344.957,351.28 303.546,323.114 					
						"/>
				</g>
			</g>
		</g>
		<g>
			<g>
				<path style="fill:#8C6239;" d="M141.994,623.469c0.064-0.346,0.128-0.705,0.092-1.044c-0.335-3.158-2.401-4.604-3.584-7.54
					c-0.528-1.31,1.563-4.278-1.331-4.839c-1.068-0.207-3.76-0.346-6.041-0.766c-3.327-0.612-7.174-3.4-9.821-6.177
					c-7.509-7.88-13.316-17.082-18.468-26.676c-4.538,1.451-8.965,3.639-12.862,5.527c-0.742,0.359-1.486,0.727-2.23,1.096
					c5.716,8.026,11.736,15.848,17.875,23.618c2.775,3.512,7.044,5.119,9.581,8.39c1.619,2.087,1.388,4.889,2.479,7.197
					c1.08,2.283,3.08,5.005,4.924,6.727c3.637,3.396,8.689,2.445,13.184,2.049c1.119-0.099,1.875-0.162,2.759-0.734
					c1.438-0.93,1.999-2.495,2.611-4.027C141.524,625.364,141.816,624.424,141.994,623.469z"/>
			</g>
			<g>
				<path style="fill:#B7CCEA;" d="M82.678,524.174c-6.281,14.383-6.792,28.84-2.613,43.993c3.304,11.98,7.488,23.718,12.506,35.087
					c2.742,6.212,20.87-5.54,25.892-7.514c-1.785-10.628-3.57-21.256-5.355-31.884c-1.044-6.217-2.06-12.778,0.151-18.682
					c1.996-5.333,6.345-9.37,10.4-13.367c8.083-7.969,15.855-17.225,17.64-28.434c1.785-11.209-4.825-24.418-16.065-26
					C102.807,474.216,89.611,508.298,82.678,524.174z"/>
			</g>
		</g>
	</g>
	<g>
		<g>
			<path style="fill:#EACDB0;" d="M855.06,507.129c-2.575-0.656-5.257-1.664-7.884-2.009c-4.492-0.591-8.758,0.837-13.311-0.04
				c-1.059-0.204-2.161-0.496-3.195-0.191c-0.698,0.206-1.29,0.666-1.847,1.135c-3.693,3.113-6.66,7.083-8.599,11.507
				c-0.643,1.466-1.182,3.034-1.075,4.63c0.107,1.597,0.993,3.229,2.486,3.805c4.125,1.59,13.107-5.208,17.678-6.145
				c5.039-1.033,10.169-0.193,15.282,0.203C854.594,520.024,855.06,507.129,855.06,507.129z"/>
			<path style="fill:#A4C6A7;" d="M887.561,497.828c-0.228,1.319-0.447,2.639-0.656,3.961c-10.358,0.479-20.566-0.179-30.862-1.238
				c-10.03-1.032-10.864,5.609-10.736,15.158c0.09,6.709,0.657,6.886,6.654,8.661c20.259,5.995,43.604,9.674,64.704,10.209
				c6.031-9.752,8.117-21.366,9.927-32.689c2.071-12.958,3.934-25.949,5.587-38.966c1.37-10.788,2.227-22.938-4.704-31.318
				c-1.805-2.182-4.233-4.047-7.049-4.344c-3.159-0.333-6.199,1.357-8.596,3.441c-6.007,5.222-9.226,12.889-11.92,20.379
				C894.449,466.267,890.313,481.927,887.561,497.828z"/>
		</g>
		<g>
			<g>
				<g>
					<path style="fill:#3A3029;" d="M985.829,807.505l0.755,17.186l-10.954,11.961l-8.89,0.391
						c-3.811,0.167-6.467-3.735-4.912-7.219l1.841-4.126l5.225-11.709l5.225-11.709L985.829,807.505z"/>
				</g>
				<g>
					<path style="fill:#3A3029;" d="M936.434,806.959l0.755,17.186l-10.954,11.961l-9.639-2.749
						c-3.583-1.022-4.838-5.457-2.321-8.205l0,0l5.225-11.709l5.225-11.709L936.434,806.959z"/>
				</g>
				<polygon style="fill:#666666;" points="897.424,563.912 1016.805,572.929 1014.981,604.716 999.456,709.709 990.393,809.64 
					968.863,810.586 953.005,710.282 943.011,628.251 897.424,600.697 				"/>
				<g>
					<polygon style="fill:#666666;" points="897.424,600.697 896.982,704.17 916.706,811.515 938.121,811.694 942.156,703.825 
						959.375,607.159 					"/>
				</g>
			</g>
			<g>
				<g>
					<path style="fill:#EACDB0;" d="M993.711,364.151c1.519-2.477,2.407-5.332,2.531-8.236c0.101-2.36,0.022-5.121-1.877-6.526
						c-1.403-1.039-3.406-0.924-4.981-0.172c-1.451,0.693-2.629,1.88-3.813,2.923c-3.603-3.425-3.48-11.602-6.382-16.032
						c-1.992-3.041-4.914-5.449-7.836-7.758c-1.916-1.515-3.89-3.03-6.219-3.929c-8.942-3.452-19.38-2.053-27.77,2.215
						c-17.78,9.044-14.821,29.492-15.786,46.092c-0.768,13.213,0.927,26.119,15.813,30.687c3.813,1.17,8.193,3.294,10.328,6.763
						c1.16,1.883,1.76,4.038,2.286,6.173c0.391,1.59,0.788,3.263,1.907,4.481c1.947,2.119,5.285,2.119,8.194,1.956
						c3.543-0.198,7.628-0.69,9.534-3.609c2.435-3.73,0.842-9.146,2.65-13.225c2.252-5.079,7.278-9.142,10.742-13.379
						c4.07-4.978,7.468-11.297,6.169-17.593c-0.363-1.76-1.068-3.668-0.243-5.265c0.404-0.782,1.118-1.346,1.768-1.939
						C991.889,366.712,992.892,365.486,993.711,364.151z"/>
					<path style="fill:#6C4E28;" d="M992.824,325.295c-3.896-4.732-8.935-8.605-14.522-11.282c-4.4-2.108-9.037-3.964-13.908-4.245
						c-9.051-0.521-30.431,11.185-35.352,0.88c-1.836-3.843-8.413-4.262-10.758-0.686c-0.698,1.065-1.032,2.326-1.753,3.376
						c-0.721,1.051-2.075,1.894-3.3,1.456c-1.61-0.575-1.847-2.832-3.322-3.679c-1.833-1.053-4.177,0.905-4.449,2.945
						c-0.156,1.175,0.552,2.416,0.405,3.49c-0.112,0.822-0.686,1.195-0.866,1.98c-0.406,1.773-0.882,3.28,0.415,4.903
						c0.516,0.645,1.208,1.156,1.647,1.852c0.844,1.339,0.58,3.032,0.69,4.595c0.241,3.438,2.374,6.406,4.927,8.898
						c-0.813,3.469-1.27,7.073-0.649,10.373c1.033,5.491,5.912,11.313,8.684,16.134c0.903-1.685,0.967-3.672,1.242-5.564
						c0.583-4.001,2.216-7.844,4.692-11.039c1.218-1.572,2.626-3,3.732-4.649c0.228,0.031,0.458,0.061,0.677,0.095
						c1.385,0.219,2.802,0.437,4.18,0.179c1.734-0.324,3.232-1.364,4.72-2.312c6.94-4.42,15.002-7.326,23.23-7.294
						c8.983,0.036,14.34,5.159,17.831,12.998c0.822,1.846,1.456,6.253,3.398,7.308c2.954,1.605,3.597-2.77,5.939-3.316
						c6.201-1.447,3.864,7.126,2.484,9.755c-1.158,2.205-2.888,4.074-4.01,6.297c-1.122,2.223-1.526,5.099-0.022,7.084
						c0.354,0.467,0.873,0.89,1.458,0.846c0.694-0.053,1.158-0.716,1.513-1.315c4.984-8.428,8.905-17.788,9.146-27.576
						C1001.13,339.306,997.974,331.55,992.824,325.295z"/>
				</g>
			</g>
			<path style="fill:#A4C6A7;" d="M893.328,558.441c0.892-10.482,2.194-20.944,2.991-31.464c0.793-10.478,1.868-20.937,3.325-31.345
				c2.199-15.706,6.795-30.936,9.465-46.553c2.407-14.076,3.198-22.154,18.481-27.153c4.797-1.569,13.716-0.388,17.212-3.905
				c1.827-1.838,1.823-5.37,1.237-7.698c9.045-0.144,18.884-0.015,28.234-0.474c7.335-0.357,5.871,3.106,8.686,7.624
				c3.02,4.848,10.567,7.254,14.823,10.908c3.947,3.388,6.811,7.857,9.272,12.439c4.052,7.543,7.176,15.6,9.051,23.954
				c1.806,8.046,2.445,16.303,2.952,24.533c1.754,28.498,1.967,57.091,0.639,85.613c-0.233,5.006,0.305,12.055-1.687,16.73
				c-2.03,4.764-7.799,4.092-12.933,4.805c-11.99,1.663-24.092,2.507-36.197,2.534c-24.208,0.055-48.428-3.152-71.768-9.588
				c-1.31-0.361-2.7-0.784-3.572-1.827c-0.958-1.146-1.061-2.758-1.107-4.251C892.176,574.99,892.625,566.709,893.328,558.441z"/>
		</g>
		<g>
			<g>
				<path style="fill:#2874A3;" d="M722.637,597.199l-37.498,47.473l6.443,9.494l-95.657,65.484
					c-3.938,2.696-4.945,8.074-2.249,12.011l0,0c2.696,3.938,8.074,4.945,12.012,2.249l95.695-65.51l7.898-5.407l1.33-0.91
					l34.372-43.277l300.363-205.617c7.208-4.934,9.051-14.777,4.117-21.985c-4.934-7.208-14.777-9.051-21.985-4.117L726.909,592.845
					C725.16,594.042,723.734,595.532,722.637,597.199z"/>
				<g>
					<polygon style="fill:#FFF5CC;" points="657.816,612.045 655.97,615.713 651.576,616.317 649.73,619.984 645.337,620.588 
						643.491,624.255 639.098,624.859 637.252,628.526 632.859,629.13 631.013,632.797 626.62,633.401 624.773,637.068 
						620.38,637.672 618.534,641.339 614.141,641.943 612.295,645.61 607.902,646.214 606.056,649.881 601.663,650.486 
						599.817,654.153 595.424,654.757 593.578,658.424 589.185,659.028 587.338,662.695 582.945,663.299 581.099,666.966 
						576.706,667.57 574.86,671.237 570.467,671.841 568.621,675.508 563.835,676.166 594.343,720.732 694.17,652.394 
						663.873,608.135 662.209,611.441 					"/>
					<polygon style="fill:#B7BBBC;" points="566.489,675.802 596.32,719.379 597.111,718.837 567.551,675.656 					"/>
					<polygon style="fill:#B7BBBC;" points="600.275,716.671 570.094,672.583 569.602,673.56 599.484,717.213 					"/>
					<polygon style="fill:#B7BBBC;" points="603.439,714.505 573.909,671.368 572.847,671.514 602.648,715.047 					"/>
					<polygon style="fill:#B7BBBC;" points="606.603,712.339 576.388,668.202 575.896,669.18 605.812,712.881 					"/>
					<polygon style="fill:#B7BBBC;" points="609.767,710.174 580.267,667.081 579.205,667.227 608.976,710.715 					"/>
					<polygon style="fill:#B7BBBC;" points="612.931,708.008 582.682,663.821 582.19,664.799 612.14,708.549 					"/>
					<polygon style="fill:#B7BBBC;" points="616.095,705.842 586.625,662.793 585.563,662.939 615.304,706.383 					"/>
					<polygon style="fill:#B7BBBC;" points="619.259,703.676 588.977,659.441 588.484,660.418 618.468,704.217 					"/>
					<polygon style="fill:#B7BBBC;" points="622.422,701.51 592.983,658.505 591.921,658.651 621.631,702.052 					"/>
					<polygon style="fill:#B7BBBC;" points="625.586,699.344 595.271,655.06 594.779,656.038 624.795,699.886 					"/>
					<polygon style="fill:#B7BBBC;" points="628.75,697.178 599.341,654.218 598.279,654.364 627.959,697.72 					"/>
					<polygon style="fill:#B7BBBC;" points="631.914,695.013 601.565,650.68 601.073,651.657 631.123,695.554 					"/>
					<polygon style="fill:#B7BBBC;" points="635.078,692.847 605.699,649.93 604.637,650.076 634.287,693.388 					"/>
					<polygon style="fill:#B7BBBC;" points="638.242,690.681 607.86,646.299 607.367,647.277 637.451,691.222 					"/>
					<polygon style="fill:#B7BBBC;" points="641.406,688.515 612.057,645.643 610.995,645.789 640.615,689.056 					"/>
					<polygon style="fill:#B7BBBC;" points="644.57,686.349 614.169,641.94 614.141,641.943 613.662,642.896 643.779,686.891 					
						"/>
					<polygon style="fill:#B7BBBC;" points="647.733,684.183 618.415,641.356 617.354,641.502 646.942,684.725 					"/>
					<polygon style="fill:#B7BBBC;" points="650.897,682.017 620.526,637.652 620.38,637.672 619.956,638.516 650.106,682.559 					
						"/>
					<polygon style="fill:#B7BBBC;" points="654.061,679.851 624.773,637.068 623.711,637.214 653.27,680.393 					"/>
					<polygon style="fill:#B7BBBC;" points="657.225,677.685 626.885,633.365 626.62,633.401 626.25,634.135 656.434,678.227 					
						"/>
					<polygon style="fill:#B7BBBC;" points="660.389,675.52 631.068,632.688 631.013,632.797 630.07,632.927 659.598,676.061 					
						"/>
					<polygon style="fill:#B7BBBC;" points="663.553,673.354 633.242,629.077 632.859,629.13 632.544,629.754 662.762,673.895 					
						"/>
					<polygon style="fill:#B7BBBC;" points="666.717,671.188 637.362,628.307 637.252,628.526 636.427,628.639 665.926,671.729 
											"/>
					<polygon style="fill:#B7BBBC;" points="679.372,662.524 649.951,619.546 649.731,619.984 649.144,620.064 678.581,663.066 
											"/>
					<polygon style="fill:#B7BBBC;" points="682.536,660.359 652.317,616.215 651.576,616.316 651.428,616.613 681.745,660.9 					
						"/>
					<polygon style="fill:#B7BBBC;" points="685.7,658.193 656.245,615.166 655.97,615.713 655.502,615.777 684.909,658.734 					
						"/>
					<polygon style="fill:#B7BBBC;" points="688.864,656.027 658.675,611.927 657.816,612.045 657.722,612.232 688.073,656.568 
											"/>
					<polygon style="fill:#B7BBBC;" points="692.028,653.861 662.539,610.785 662.209,611.442 661.86,611.489 691.237,654.402 					
						"/>
					<polygon style="fill:#B7BBBC;" points="669.88,669.022 639.601,624.79 639.098,624.859 638.839,625.374 669.089,669.563 					
						"/>
					<polygon style="fill:#B7BBBC;" points="673.044,666.856 643.656,623.927 643.491,624.255 642.786,624.352 672.253,667.398 
											"/>
					<polygon style="fill:#B7BBBC;" points="676.208,664.69 645.959,620.502 645.337,620.587 645.133,620.993 675.417,665.232 					
						"/>
				</g>
			</g>
			<path style="fill:#67B8CE;" d="M557.972,629.577c0,0-10.282,15.063,0.973,29.761s25.599,7.715,42.433-3.363
				c16.834-11.078,51.178-36.19,51.178-36.19s5.867-18.87-9.551-24.88c-15.417-6.01-23.353,1.504-39.722,17.353
				C586.914,628.106,561.823,645.382,557.972,629.577z"/>
			<path style="opacity:0.14;" d="M635.609,592.984c5.811,4.036,11.181,10.9,9.431,18.401c-1.509,6.468-7.406,10.931-12.101,15.127
				c-4.578,4.091-9.157,8.182-13.735,12.273c-7.595,6.787-15.191,13.574-22.786,20.361c1.628-1.006,3.281-2.067,4.96-3.172
				c16.834-11.078,51.178-36.19,51.178-36.19s5.867-18.87-9.551-24.88C640.343,593.867,637.907,593.242,635.609,592.984z"/>
			<path style="opacity:0.58;fill:#FFFFFF;" d="M563.87,651.522c-2.533-2.666-4.199-5.835-5.034-9.165
				c-1.186,5.277,0.195,11.03,4.2,15.246c6.381,6.717,16.998,6.989,23.715,0.608c1.022-0.971,1.876-2.048,2.599-3.186
				C581.259,659.852,570.631,658.64,563.87,651.522z"/>
		</g>
		<g>
			<path style="fill:#EACDB0;" d="M917.224,495.844l-10.356-6.333l-2.79-6.572l-8.6-5.26c0,0-3.622,4.649-2.951,5.06
				c1.437,0.881,2.799,3.069,2.983,4.671c-3.295,0.21-6.585-0.845-9.578-2.173c-2.608-1.157-5.877-3.808-6.813,0.79
				c-0.251,1.234-0.037,2.524,0.328,3.731c0.922,3.051,2.822,5.789,5.337,7.689c1.984,1.498,4.396,2.552,5.786,4.633
				c0.229,0.342,0.435,0.718,0.768,0.954c0.808,0.573,4.802,0.237,5.961,0.352c1.285,0.127,3.151-0.045,4.365,0.432
				c0.002,0.001,11.465,4.513,11.465,4.513L917.224,495.844z"/>
			<path style="fill:#A4C6A7;" d="M966.741,501.853c-5.234,0.555-10.575,0.621-16.287-0.868c-3.331-0.869-36.867-14.778-37.83-13.59
				c-3.306,4.078-5.782,8.888-7.184,13.992c-1.811,6.594-1.318,6.934,3.934,10.429c8.778,5.842,18.901,10.31,28.472,14.586
				c13.448,6.009,95.562,35.088,79.49-9.029c-3.278-8.999-12.227-15.081-21.608-17.01
				C985.367,498.231,976.23,500.846,966.741,501.853z"/>
		</g>
		<path style="fill:#EACDB0;" d="M837.936,527.751c0.463-0.323,0.925-0.705,1.118-1.235c0.201-0.554,0.074-1.164,0.064-1.753
			c-0.074-4.233,5.563-6.378,6.68-10.462c0.781-2.857-1.078-6.01-3.768-7.247c-2.691-1.237-5.932-0.801-8.563,0.559
			c-4.386,2.267-13.786,11.638-12.036,17.384C823.348,531.294,833.553,530.815,837.936,527.751z"/>
	</g>
</g>
</svg>
