<?xml version="1.0" encoding="utf-8"?>
<!-- Generator: Adobe Illustrator 27.5.0, SVG Export Plug-In . SVG Version: 6.00 Build 0)  -->
<svg version="1.1" id="Layer_1" xmlns="http://www.w3.org/2000/svg" xmlns:xlink="http://www.w3.org/1999/xlink" x="0px" y="0px"
	 viewBox="0 0 1100 1200" style="enable-background:new 0 0 1100 1200;" xml:space="preserve">
<rect style="fill:#FFFFFF;" width="1100" height="1200"/>
<g>
	<linearGradient id="SVGID_1_" gradientUnits="userSpaceOnUse" x1="115.3231" y1="610.0109" x2="965.2921" y2="610.0109">
		<stop  offset="0.2869" style="stop-color:#FFDBDC"/>
		<stop  offset="0.6582" style="stop-color:#FFD6D7"/>
		<stop  offset="0.8448" style="stop-color:#FFD1D2"/>
	</linearGradient>
	<path style="fill:url(#SVGID_1_);" d="M709.787,110.577c401.415,66.741,272.529,755.765,5.402,958.315
		c-48.583,36.838-98.74,45.052-154.352,44.051C243.789,1107.237,114.26,940.266,115.33,786.2
		c1.056-152.04,152.044-204.63,169.191-227.494c101.588-135.45,208.06-334.954,208.06-334.954S544.026,83.017,709.787,110.577z"/>
	<path style="fill:#FFB080;" d="M490.377,587.473c0,0,4.186,7.924,3.987,16.946c-0.199,9.021-3.588,16.547-3.588,16.547
		s25.543,10.19,41.068,5.781c16.148-4.585,20.933-16.348,20.933-16.348s-7.178-6.18-8.174-12.759
		c-0.997-6.579,4.186-13.556,4.186-13.556L490.377,587.473z"/>
	<path style="opacity:0.55;fill:#EC9A6C;" d="M498.966,585.777c0,0,10.579,15.343,31.367,16.751
		c11.268,0.763,13.996-6.465,13.996-6.465s-0.053-2.585,1.01-5.328c1.453-3.75,2.792-5.812,2.792-5.812
		S498.561,586.297,498.966,585.777z"/>
	<ellipse style="opacity:0.33;fill:#FF95B1;" cx="564.927" cy="1087.9" rx="107.704" ry="24.714"/>
	<path style="fill:#29BBAB;" d="M562.182,613.37c0,0,60.537-2.996,98.303-24.69c35.716-20.517,55.034-56.875,55.034-56.875
		s2.459,2.174,9.433,3.369c4.835,0.829,12.527,0.045,12.527,0.045s2.643,56.377-29.413,96.918
		c-24.755,31.306-69.123,39.271-69.123,39.271L562.182,613.37z"/>
	<path style="opacity:0.55;fill:#44867F;" d="M607.829,647.007c0,0,23.249-5.166,41.625,5.912
		c11.181,6.741,7.411,13.551,7.411,13.551s-3.187,1.24-9.481,3.123c-6.294,1.883-11.113,2.216-11.113,2.216L607.829,647.007z"/>
	<path style="fill:#0BB8CE;" d="M419.933,835.558c0,0,9.695,59.1,23.269,106.565c13.574,47.466,31.025,83.296,31.025,83.296
		s15.176,7.335,28.328,6.071c10.87-1.045,17.264-3.047,23.426-12.724c1.294-2.032,2.577-4.402,3.89-7.173
		c12.14-25.63,35.409-113.31,35.409-113.31l9.076-5.248c0,0,1.802,21.175,2.391,47.065c0.523,23.007-10.843,84.333,32.712,81.611
		c10.791-0.675,18.042,1.265,35.409-33.049c17.367-34.314,24.956-63.4,31.025-106.903c7.525-53.924,0.338-101.845,0.338-101.845
		L419.933,835.558z"/>
	<path style="fill:#00A4C0;" d="M419.822,836.479l1.501,7.258c0,0,27.8,27.514,98.779,17.309
		c104.076-14.964,157.008-75.489,157.008-75.489l-3.574-18.091L419.822,836.479z"/>
	<path style="fill:#00A4C0;" d="M586.38,882.368c0,0,11.29,13.227,11.221,38.909c-0.103,38.973-21.944,46.772-21.944,46.772
		s1.297-20.99,0.743-39.926c-0.445-15.199-1.788-35.122-1.788-35.122s4.11-3.081,6.199-4.915
		C582.9,886.253,586.38,882.368,586.38,882.368z"/>
	<path style="fill:#885056;" d="M561.537,223.832c0,0,11.254,2.617,23.186,22.475c15.654,26.054,18.112,60.478,18.112,60.478
		l-61.395-52.996L561.537,223.832z"/>
	<path style="fill:#FFC791;" d="M544.745,252.382c0,0,11.88-4.701,27.825,11.664c15.946,16.365,22.451,34.377,35.941,49.657
		c24.549,27.805,31.012,17.042,56.165,52.213c19.399,27.124,36.974,112.073-35.315,177.531
		c-94.672,85.727-204.983,23.291-204.983,23.291s-38.794,7.878-45.351-17.906c-6.557-25.784,22.657-26.985,22.657-26.985
		s-85.082-124.911-14.015-223.342C445.21,218.805,544.745,252.382,544.745,252.382z"/>
	<path style="opacity:0.55;fill:#EC9A6C;" d="M402.016,520.517c0,0,6.656-24.714,13.519-42.816
		c6.862-18.102,8.018-17.006,13.93-29.593c8.701-18.529,6.972-35.188,6.972-35.188s25.68-6.237,42.607-22.471
		c30.138-28.902,21.943-45.6,21.943-45.6s15.276-0.925,28.809-18.064c14.329-18.148,12.959-30.47,12.959-30.47
		s8.84-1.761,19.793-15.043c10.953-13.282,5.183-22.089,5.183-22.089s-4.641-3.493-10.314-5.803
		c-6.76-2.753-13.173-1.172-13.173-1.172l-152.565,61.727l-6.475,145.366C385.203,459.301,400.704,519.444,402.016,520.517z"/>
	
		<linearGradient id="SVGID_00000152974713850893957630000007714221065900269715_" gradientUnits="userSpaceOnUse" x1="361.5319" y1="161.0378" x2="424.2994" y2="346.4872">
		<stop  offset="0" style="stop-color:#A95C6A"/>
		<stop  offset="1" style="stop-color:#995760"/>
	</linearGradient>
	<path style="fill:url(#SVGID_00000152974713850893957630000007714221065900269715_);" d="M258.717,400.503
		c0,0-27.951-27.916-24.782-67.514c6.579-82.198,53.531-93.148,60.996-88.509c6.093,3.786,3.582,12.317,3.582,12.317
		s19.544-44.5,64.069-60.563c25.425-9.172,23.361,3.386,23.361,3.386s19.659-12.204,52.736-14.433
		c27.637-1.862,60.981,7.455,60.981,7.455s0.637-11.575,9.119-12.078c12.953-0.768,20.387,19.514,20.387,19.514
		s5.174-2.064,7.642-7.823c4.515-10.535,3.556-18.407,12.666-19.995c9.11-1.588,21.432,20.631,12.975,49.983
		c-10.283,35.686-37.712,43.527-37.712,43.527s-7.248,15.452-16.246,24.99c-8.998,9.538-19.744,13.162-19.744,13.162
		s1.129,29.673-22.331,51.102c-32.273,29.481-74.557,31.156-74.557,31.156L258.717,400.503z"/>
	<path style="opacity:0.72;fill:#79444B;" d="M375.456,216.414c0,0,7.434-1.105,13.067-5.074c18.105-12.755,5.271-15.4,5.271-15.4
		l-7.609,3.493c0,0-1.305,4.286-3.987,8.531C379.515,212.21,375.456,216.414,375.456,216.414z"/>
	<path style="opacity:0.72;fill:#79444B;" d="M488.56,190.069c0,0,0.051,7.078-2.445,16.278c-2.496,9.2-8.431,20.277-8.431,20.277
		s7.254-4.01,13.589-11.906c8.298-10.342,8.644-22.317,8.644-22.317L488.56,190.069z"/>
	<path style="opacity:0.72;fill:#79444B;" d="M528.937,199.923c0,0,1.633-0.001,4.22-2.556c3.771-3.725,4.861-8.889,4.861-8.889
		s5.375,15.368,3.681,34.347c-2.732,30.608-15.705,41.142-15.705,41.142s8.595-16.615,7.834-36.517
		C533.181,210.52,528.937,199.923,528.937,199.923z"/>
	<path style="opacity:0.72;fill:#79444B;" d="M481.651,266.983c0,0,9.542,1.848,12.856,10.045c5.214,12.898-1.426,25.22-1.426,25.22
		l-3.881,1.358c0,0,0.199-8.551-1.042-17.666C486.677,275.051,481.651,266.983,481.651,266.983z"/>
	<path style="fill:#995760;" d="M511.632,441.036c-1.788,0.319-3.693,0.691-5.406,1.22c-1.738,0.505-3.375,1.152-4.902,1.909
		c-0.784,0.33-1.489,0.814-2.23,1.19l-1.041,0.694c-0.359,0.206-0.693,0.451-1.015,0.714c-0.327,0.255-0.655,0.505-0.991,0.74
		l-0.929,0.826c-0.644,0.513-1.199,1.152-1.794,1.733c-0.59,0.59-1.072,1.24-1.628,1.849c-0.434,0.676-1.011,1.277-1.387,1.987
		c-0.937,1.33-1.565,2.82-2.211,4.355c-0.62,1.549-1.044,3.218-1.37,4.975c-0.169,0.88-0.279,1.781-0.391,2.707
		c-0.045,0.46-0.094,0.931-0.111,1.396c-0.055,0.465-0.043,0.966-0.094,1.373l-0.044,0.358c-0.102,0.827-0.855,1.413-1.682,1.311
		c-0.451-0.056-0.834-0.311-1.069-0.66c-0.69-1.034-1.144-1.996-1.565-3.06c-0.409-1.049-0.708-2.141-0.932-3.257
		c-0.428-2.232-0.507-4.584-0.152-6.913c0.667-4.658,2.971-9.212,6.269-12.512c3.223-3.322,7.43-5.921,11.967-6.924
		c2.253-0.524,4.55-0.736,6.797-0.56c1.123,0.097,2.232,0.243,3.317,0.522c1.101,0.267,2.11,0.594,3.223,1.123
		c0.756,0.359,1.078,1.263,0.719,2.019c-0.217,0.457-0.633,0.755-1.094,0.84L511.632,441.036z"/>
	<path style="fill:#995760;" d="M583.64,359.495c-1.248-3.694-1.573-7.442-1.091-11.38c0.241-1.958,0.733-3.945,1.59-5.896
		c0.194-0.488,0.441-0.968,0.711-1.444c0.271-0.474,0.495-0.963,0.846-1.409c0.325-0.451,0.654-0.915,0.99-1.347
		c0.336-0.381,0.681-0.754,1.03-1.124c0.356-0.365,0.678-0.753,1.064-1.095c0.385-0.343,0.779-0.676,1.174-1.006
		c0.758-0.692,1.671-1.231,2.531-1.804c1.801-1.049,3.739-1.906,5.775-2.348c2.024-0.457,4.095-0.615,6.105-0.409
		c1.004,0.131,1.993,0.27,2.956,0.554c0.986,0.27,1.851,0.593,2.878,1.119c0.89,0.456,1.241,1.546,0.785,2.436
		c-0.275,0.537-0.782,0.878-1.337,0.964l-0.559,0.082c-0.291,0.043-0.727,0.03-1.104,0.072c-0.39,0.021-0.779,0.052-1.167,0.1
		c-0.775,0.093-1.536,0.196-2.279,0.357c-1.486,0.313-2.888,0.769-4.196,1.352c-2.631,1.137-4.869,2.86-6.84,5.02
		c-0.243,0.273-0.49,0.543-0.745,0.805l-0.574,0.757c-0.206,0.233-0.355,0.542-0.54,0.813c-0.184,0.272-0.36,0.556-0.503,0.876
		c-0.674,1.194-1.2,2.581-1.673,4.039c-0.945,2.906-1.57,6.223-2.197,9.486l-0.035,0.183c-0.194,1.01-1.17,1.672-2.181,1.478
		C584.372,360.597,583.848,360.108,583.64,359.495z"/>
	<path style="fill:#79444B;" d="M471.869,420.033c-3.924,0.064-8.087,12.233-8.116,15.509c-0.015,1.716-0.615,5.678,2.035,5.884
		c2.055,0.159,3.371-2.377,4.474-3.746C472.659,434.7,480.792,419.888,471.869,420.033z"/>
	<path style="fill:#79444B;" d="M568.302,321.646c1.273,3.89,11.231,1.827,13.963,0.387c1.476-0.777,3.533-2.169,2.909-4.055
		c-1.76-5.314-10.431-2.249-13.618-0.569C569.952,318.254,567.62,319.564,568.302,321.646z"/>
	
		<linearGradient id="SVGID_00000153668748170887482910000012576723954599472534_" gradientUnits="userSpaceOnUse" x1="587.5005" y1="402.4519" x2="548.5085" y2="403.6407">
		<stop  offset="0.1767" style="stop-color:#EC9A6C"/>
		<stop  offset="0.4255" style="stop-color:#EE9E6F"/>
		<stop  offset="0.6671" style="stop-color:#F3AA79"/>
		<stop  offset="0.9051" style="stop-color:#FBBD89"/>
		<stop  offset="1" style="stop-color:#FFC791"/>
	</linearGradient>
	<path style="fill:url(#SVGID_00000153668748170887482910000012576723954599472534_);" d="M547.5,398.41
		c2.624-2.136,10.257,2.655,15.075,1.274c4.443-1.273,1.443-4.253,4.896-5.724c7.062-3.008,15.407,13.344-0.63,18.019
		C553.309,415.923,544.67,400.712,547.5,398.41z"/>
	<path style="opacity:0.47;fill:#F37D86;" d="M503.507,480.286c-6.852-2.31-18.441,8.724-21.182,14.466
		c-1.7,3.559-1.476,9.448,3.016,11.011C496.717,509.72,523.244,486.938,503.507,480.286z"/>
	<path style="opacity:0.47;fill:#F37D86;" d="M643.584,342.181c-3.061-2.616-6.012-4.258-6.012-4.258
		c-5.728,2.203-13.402,9.18-12.32,16.597c1.099,7.524,9.219,10.271,15.127,6.07c3.508-2.494,9.632-10.31,9.439-12.203
		C649.726,347.476,646.646,344.797,643.584,342.181z"/>
	<path style="fill:#FCFFF2;" d="M491.253,620.935c0,0-32.13,19.288-34.461,21.962c-23.318,26.756-33.45,100.534-33.45,100.534
		l-16.737,89.524c0,0,65.45,21.935,150.556,2.491c89.523-20.452,131.971-68.235,131.971-68.235s-10.713-48.06-45.527-92.275
		c-30.093-38.219-75.64-61.477-75.64-61.477l-16.047-4.977c0,0,4.925,16.281-19.089,21.273
		C508.816,634.749,491.253,620.935,491.253,620.935z"/>
	<path style="fill:#058374;" d="M640.653,671.334c-0.408,0-0.814-0.166-1.107-0.493c-0.069-0.076-6.955-7.74-13.752-14.373
		c-6.815-6.65-13.622-12.83-13.69-12.891c-0.608-0.551-0.654-1.492-0.103-2.099c0.551-0.608,1.492-0.654,2.099-0.102
		c0.069,0.062,6.916,6.279,13.77,12.966c6.869,6.702,13.819,14.437,13.888,14.514c0.549,0.612,0.497,1.551-0.113,2.098
		C641.36,671.209,641.006,671.334,640.653,671.334z"/>
	<path style="fill:#29BBAB;" d="M491.845,618.938c0,0,15.897,9.85,35.545,7.03c19.125-2.745,23.764-17.572,23.764-17.572
		l12.166,3.312c0,0-6.528,20.176-34.301,25c-29.628,5.145-44.676-11.742-44.676-11.742L491.845,618.938z"/>
	<path style="opacity:0.37;fill:#44867F;" d="M473.629,693.24c0,0,6.618,31.083-12.371,54.419
		c-21.762,26.743-43.448,23.93-43.448,23.93l3.515-17.56L473.629,693.24z"/>
	<path style="fill:#0090A7;" d="M565.656,899.386c-0.628,0-1.21-0.399-1.414-1.029c-0.252-0.78,0.175-1.617,0.955-1.87
		c0.096-0.031,9.716-3.281,19.752-15.034c0.533-0.626,1.471-0.699,2.095-0.165c0.625,0.533,0.698,1.47,0.165,2.095
		c-10.625,12.444-20.673,15.795-21.096,15.933C565.961,899.363,565.807,899.386,565.656,899.386z"/>
	<path style="fill:#FFC791;" d="M322.698,786.325c0,0-8.399-0.169-18.105,3.198c-9.707,3.367-19.533,8.932-21.238,12.122
		c-1.704,3.189,15.409,0.966,15.409,0.966s-18.307,22.068-17.97,25.411c0.337,3.344,18.051-13.03,19.32-12.037
		c3.326,2.602-16.658,24.96-12.19,27.349c3.117,1.667,24.108-21.708,25.035-21.441c0.928,0.266-10.155,24.307-6.682,24.812
		c3.473,0.505,16.573-20.663,20.576-22.793c3.761-2.001,6.024,19.972,10.428,14.079c4.404-5.894,7.187-37.653,7.187-37.653
		s0.866-7.923-4.576-11.427C334.449,785.409,322.698,786.325,322.698,786.325z"/>
	<path style="opacity:0.55;fill:#EC9A6C;" d="M322.212,786.284c0,0,4.969,2.678,10.315,6.538c5.347,3.86,11.071,8.901,11.071,8.901
		s-2.454-8.19-7.801-12.051C330.451,785.813,322.212,786.284,322.212,786.284z"/>
	<path style="fill:#00A4C0;" d="M470.631,1016.409c0,0,12.545,5.317,30.678,4.091c15.207-1.029,29.179-9.681,29.179-9.681
		s-5.046,11.112-12.817,16.088c-7.772,4.977-18.271,3.818-18.271,3.818l-26.724-7.499L470.631,1016.409z"/>
	<path style="fill:#FFC791;" d="M513.585,1042.681c0,0-2.34,19.211,0.391,24.478c4.402,8.489,17.073,10.599,17.073,10.599
		l-26.923,9.588c0,0-13.361,3.511-17.651-1.462c-4.291-4.974,0.293-9.387,0.487-18.432c0.195-9.045-1.462-24.185-1.462-24.185
		L513.585,1042.681z"/>
	<path style="fill:#FF807F;" d="M486.084,1074.473c0,0,3.608,0,9.85,5.949c2.778,2.648,11.151,0.617,14.744-3.013
		c3.479-3.515,5.151-7.812,5.151-7.812s1.295,2.568,7.509,5.363c5.852,2.634,12.67,2.885,16.459,7.887
		c7.314,9.655-3.489,14.153-7.78,14.544c-13.514,1.229-41.687-0.467-41.687-0.467s-7.366-2.264-7.366-11.431
		C482.964,1079.987,486.084,1074.473,486.084,1074.473z"/>
	<path style="fill:#F7F9B2;" d="M519.325,1085.073c-0.064,0-0.129-0.006-0.193-0.019c-0.537-0.106-0.886-0.628-0.779-1.164
		c0.056-0.284,1.41-6.987,4.043-9.721c0.381-0.395,1.01-0.404,1.401-0.027c0.395,0.38,0.406,1.007,0.027,1.401
		c-1.854,1.925-3.175,6.957-3.528,8.732C520.202,1084.747,519.788,1085.073,519.325,1085.073z"/>
	<path style="fill:#F7F9B2;" d="M527.651,1086.871c-0.043,0-0.085-0.003-0.129-0.009c-0.543-0.071-0.925-0.567-0.855-1.109
		c0.031-0.237,0.784-5.834,3.657-9.007c0.367-0.407,0.994-0.438,1.399-0.07c0.406,0.368,0.437,0.994,0.07,1.399
		c-2.453,2.71-3.154,7.88-3.161,7.932C528.568,1086.507,528.142,1086.871,527.651,1086.871z"/>
	<path style="opacity:0.55;fill:#EC9A6C;" d="M485.852,1046.121l0.46,5.291c0,0,4.936,4.159,13.578,4.337
		c8.584,0.178,13.058-4.965,13.058-4.965l0.142-5.406L485.852,1046.121z"/>
	<path style="fill:#FFC791;" d="M588.606,1026.944c0,0,0.431,16.362-0.097,24.825c-0.528,8.463-5.05,14.128-1.087,18.589
		c3.964,4.46,29.479-0.858,29.479-0.858l8.508-7.736c0,0-11.206-1.189-11.206-9.123c0-7.933,1.923-22.151,1.923-22.151
		L588.606,1026.944z"/>
	<path style="opacity:0.55;fill:#EC9A6C;" d="M589.094,1028.83l-0.167,8.014c0,0,4.643,6.7,13.018,7.519
		c8.376,0.82,13.047-3.971,13.047-3.971l0.079-6.8L589.094,1028.83z"/>
	<path style="fill:#00A4C0;" d="M582.254,1008.296c0,0,12.252,3.408,24.327,4.231c12.075,0.822,23.973-0.94,23.973-0.94l-3.643,4.23
		l-20.213,5.053l-19.86-5.875l-2.232-2.821L582.254,1008.296z"/>
	<path style="fill:#96002E;" d="M656.181,456.231c-1.316,0.307-2.608,0.302-3.894,0.215c-1.284-0.115-2.563-0.302-3.818-0.794
		c-0.533-0.208-0.796-0.81-0.587-1.343c0.129-0.33,0.415-0.558,0.735-0.633c1.315-0.298,2.607-0.293,3.894-0.215
		c1.285,0.106,2.563,0.294,3.818,0.794c0.533,0.212,0.792,0.816,0.58,1.349C656.78,455.93,656.498,456.155,656.181,456.231z"/>
	<path style="fill:#96002E;" d="M653.715,485.786c0.187-0.884,0.524-1.655,0.885-2.41c0.372-0.746,0.806-1.445,1.281-2.115
		c0.475-0.669,0.998-1.303,1.604-1.875c0.609-0.57,1.269-1.101,2.107-1.5c0.559-0.266,1.228-0.028,1.494,0.531
		c0.1,0.211,0.129,0.437,0.096,0.652c-0.141,0.918-0.46,1.703-0.831,2.45c-0.374,0.744-0.831,1.427-1.335,2.075
		c-0.504,0.648-1.05,1.264-1.657,1.835c-0.619,0.563-1.261,1.108-2.054,1.541c-0.529,0.289-1.191,0.094-1.48-0.434
		C653.695,486.296,653.663,486.031,653.715,485.786z"/>
	<path style="fill:#FF807F;" d="M547.558,670.462c-13.582,8.065-12.094,44.091-8.488,58.827
		c2.936,11.997,12.877,24.527,12.877,24.527s-8.47,15.315,1.754,25.464c2.893,2.871,11.594-16.101,11.594-16.101
		s7.878,11.254,12.239,9.709c4.36-1.545,5.204-15.888,5.204-15.888s12.317,8.269,16.639,5.812c4.323-2.457,5.237-9.022,0.65-15.64
		c-3.477-5.017-6.792-7.99-6.792-7.99s-3.436-21.853-7.878-31.463C580.302,696.785,558.535,663.944,547.558,670.462z"/>
	<path style="fill:#FCFFF2;" d="M553.237,718.975c0-5.154,4.309-9.333,9.625-9.333c5.316,0,9.625,4.179,9.625,9.333
		c0,5.154-4.309,9.332-9.625,9.332C557.546,728.308,553.237,724.13,553.237,718.975z"/>
	<path style="fill:#FCFFF2;" d="M550.549,697.3c0-2.199,1.823-3.983,4.071-3.983c2.248,0,4.07,1.784,4.07,3.983
		c0,2.2-1.823,3.983-4.07,3.983C552.372,701.283,550.549,699.5,550.549,697.3z"/>
	<path style="fill:#FF807F;" d="M585.775,799.027c-0.578,0-1.151-0.134-1.7-0.399c-2.758-1.336-4.195-5.654-4.454-6.505
		c-0.062-0.201-0.125-0.433-0.187-0.682c-0.938,1.161-2.326,2.095-3.635,2.095c-3.881-0.016-6.79-5.781-7.801-9.653
		c-0.923-3.533-0.572-6.058,0.965-6.927c0.476-0.27,1.081-0.102,1.349,0.375c0.27,0.476,0.103,1.081-0.374,1.35
		c-0.452,0.256-0.759,1.885-0.022,4.703c1.028,3.939,3.638,8.162,5.881,8.172c1.067,0,2.586-1.595,2.777-2.639
		c0.065-0.357,0.208-1.065,0.208-1.065c0.094-0.467,0.511-0.804,0.986-0.793c0.477,0.007,0.881,0.353,0.962,0.823
		c0.005,0.024,0.433,2.504,0.787,3.664c0.649,2.127,1.959,4.591,3.423,5.3c0.522,0.253,1.023,0.27,1.577,0.053
		c2.282-0.893,3.322-2.669,3.181-5.429c-0.019-0.103-0.115-0.426-0.223-0.809c-0.578-2.045-0.896-3.171,0.024-3.69
		c0.311-0.175,0.791-0.263,1.32,0.29c0.77,0.802,1.33,1.079,1.666,0.818c2.044-1.577,2.272-4.207,2.226-5.634
		c-0.099-3.053-1.524-6.019-3.547-7.38c-0.454-0.306-0.574-0.921-0.269-1.376c0.306-0.453,0.921-0.574,1.376-0.269
		c2.525,1.7,4.302,5.301,4.42,8.959c0.1,3.073-0.993,5.723-2.997,7.268c-0.464,0.359-1.268,0.738-2.344,0.362
		c0.011,0.039,0.021,0.076,0.031,0.111c0.201,0.711,0.283,1.009,0.296,1.244c0.185,3.619-1.349,6.169-4.438,7.379
		C586.753,798.932,586.261,799.027,585.775,799.027z"/>
	<path style="opacity:0.55;fill:#EC9A6C;" d="M407.343,538.32c-9.187-3.446-16.354,10.482-6.172,14.555
		C411.256,556.908,417.213,542.021,407.343,538.32z"/>
	<path style="fill:#FF807F;" d="M495.442,769.814c-0.133,0-0.266-0.007-0.401-0.022c-1.372-0.15-2.518-1.049-2.991-2.345
		l-2.267-6.212c-0.183-0.501-0.6-0.879-1.116-1.014l-6.401-1.654c-1.337-0.345-2.343-1.4-2.625-2.752
		c-0.281-1.352,0.219-2.719,1.306-3.57l5.208-4.075c0.42-0.329,0.651-0.843,0.619-1.376l-0.404-6.6
		c-0.085-1.379,0.608-2.66,1.805-3.346c1.199-0.685,2.655-0.632,3.8,0.139l5.485,3.694c0.442,0.297,1.002,0.362,1.498,0.162
		l6.154-2.423c1.282-0.507,2.717-0.245,3.739,0.684c1.023,0.928,1.422,2.329,1.043,3.657l-1.818,6.357
		c-0.147,0.513-0.032,1.064,0.308,1.475l4.206,5.103c0.878,1.064,1.072,2.508,0.506,3.767c-0.567,1.26-1.776,2.072-3.156,2.122
		l-6.609,0.236c-0.533,0.019-1.022,0.299-1.308,0.749l-3.552,5.577C497.8,769.199,496.665,769.814,495.442,769.814z
		 M489.966,738.349c-0.276,0-0.552,0.074-0.808,0.22c-0.547,0.313-0.85,0.875-0.812,1.504l0.404,6.601
		c0.073,1.184-0.442,2.327-1.376,3.057l-5.208,4.074c-0.496,0.389-0.716,0.989-0.587,1.606c0.129,0.618,0.57,1.081,1.18,1.239
		l6.402,1.654c1.148,0.297,2.076,1.14,2.482,2.252l2.267,6.212c0.216,0.592,0.719,0.987,1.346,1.055
		c0.622,0.072,1.203-0.208,1.542-0.74l3.552-5.577c0.638-1,1.725-1.623,2.909-1.664l6.607-0.236c0.631-0.023,1.162-0.38,1.42-0.955
		c0.258-0.575,0.173-1.208-0.227-1.694l-4.206-5.103c-0.755-0.914-1.01-2.14-0.685-3.28l1.818-6.358
		c0.174-0.607-0.001-1.222-0.468-1.646c-0.466-0.422-1.095-0.54-1.681-0.307l-6.154,2.423c-1.105,0.435-2.348,0.298-3.331-0.364
		l-5.486-3.694C490.589,738.443,490.278,738.349,489.966,738.349z"/>
	<path style="fill:#FF807F;" d="M510.281,685.847c-0.106,0-0.213-0.006-0.32-0.017c-1.098-0.12-2.016-0.839-2.394-1.877
		l-1.643-4.502c-0.102-0.279-0.334-0.49-0.621-0.564l-4.639-1.2c-1.07-0.276-1.876-1.119-2.101-2.201
		c-0.225-1.083,0.175-2.178,1.046-2.86l3.774-2.953c0.233-0.182,0.362-0.468,0.344-0.765l-0.293-4.782
		c-0.069-1.103,0.486-2.129,1.444-2.678c0.96-0.549,2.126-0.507,3.043,0.111l3.974,2.676c0.246,0.165,0.557,0.201,0.833,0.091
		l4.46-1.757c1.029-0.404,2.175-0.194,2.993,0.548c0.819,0.742,1.138,1.863,0.835,2.926l-1.318,4.608
		c-0.082,0.284-0.018,0.592,0.171,0.821l3.049,3.696c0.703,0.853,0.858,2.009,0.404,3.017c-0.454,1.008-1.421,1.658-2.525,1.698
		l-4.791,0.17c-0.296,0.011-0.568,0.166-0.727,0.416l-2.574,4.043C512.169,685.354,511.26,685.847,510.281,685.847z
		 M506.318,663.045c-0.218,0-0.389,0.083-0.457,0.122c-0.113,0.065-0.483,0.318-0.451,0.837l0.293,4.783
		c0.057,0.948-0.354,1.862-1.101,2.447l-3.774,2.954c-0.41,0.32-0.354,0.764-0.327,0.893c0.027,0.129,0.153,0.558,0.657,0.688
		l4.639,1.201c0.918,0.237,1.661,0.91,1.987,1.801l1.643,4.503c0.178,0.488,0.617,0.573,0.748,0.586
		c0.134,0.018,0.579,0.027,0.858-0.411l2.574-4.042c0.509-0.8,1.379-1.298,2.328-1.332l4.791-0.17
		c0.518-0.019,0.735-0.411,0.788-0.531c0.054-0.12,0.205-0.543-0.126-0.944l-3.049-3.696c-0.604-0.734-0.808-1.715-0.548-2.628
		l1.318-4.607c0.097-0.337-0.001-0.679-0.26-0.915c-0.26-0.236-0.611-0.299-0.937-0.17l-4.459,1.757
		c-0.88,0.349-1.879,0.241-2.666-0.292l-3.974-2.676C506.639,663.084,506.467,663.045,506.318,663.045z"/>
	<path style="fill:#FF807F;" d="M601.626,693.918c-0.098,0-0.196-0.005-0.295-0.016c-1.018-0.11-1.868-0.777-2.219-1.738
		l-1.457-3.996c-0.077-0.213-0.255-0.375-0.474-0.431l-4.118-1.064c-0.992-0.255-1.737-1.037-1.945-2.039
		c-0.209-1.002,0.163-2.017,0.968-2.648l3.349-2.621c0.179-0.14,0.277-0.359,0.263-0.584l-0.26-4.245
		c-0.063-1.022,0.45-1.973,1.339-2.481c0.889-0.509,1.967-0.47,2.817,0.103l3.528,2.376c0.188,0.126,0.424,0.151,0.637,0.069
		l3.958-1.56c0.95-0.375,2.014-0.182,2.772,0.507c0.758,0.688,1.055,1.727,0.774,2.711l-1.169,4.09
		c-0.063,0.218-0.014,0.452,0.13,0.627l2.706,3.282c0.651,0.789,0.794,1.86,0.375,2.793c-0.42,0.934-1.317,1.536-2.34,1.572
		l-4.249,0.152c-0.227,0.009-0.435,0.127-0.555,0.317l-2.286,3.588C603.376,693.461,602.534,693.918,601.626,693.918z
		 M598.109,673.679c-0.158,0-0.284,0.058-0.348,0.095c-0.112,0.064-0.369,0.254-0.345,0.639l0.26,4.245
		c0.054,0.878-0.327,1.725-1.02,2.267l-3.349,2.621c-0.305,0.238-0.276,0.557-0.25,0.683c0.026,0.126,0.128,0.43,0.501,0.526
		l4.118,1.064c0.851,0.22,1.538,0.844,1.84,1.67l1.457,3.995c0.133,0.363,0.444,0.434,0.573,0.448
		c0.122,0.015,0.447,0.011,0.655-0.315l2.285-3.587c0.471-0.741,1.278-1.203,2.157-1.234l4.249-0.152
		c0.387-0.015,0.551-0.288,0.605-0.405c0.052-0.118,0.149-0.423-0.097-0.721l-2.706-3.281c-0.559-0.677-0.749-1.587-0.508-2.433
		l1.17-4.089c0.106-0.371-0.104-0.612-0.199-0.699c-0.096-0.087-0.354-0.273-0.715-0.131l-3.958,1.56
		c-0.816,0.321-1.739,0.221-2.47-0.27l-3.527-2.376C598.352,673.709,598.222,673.679,598.109,673.679z"/>
	
		<linearGradient id="SVGID_00000055708342975432416650000003717044425768510631_" gradientUnits="userSpaceOnUse" x1="384.0695" y1="610.0198" x2="288.4915" y2="348.9631">
		<stop  offset="0" style="stop-color:#885056"/>
		<stop  offset="0.4856" style="stop-color:#8C5259"/>
		<stop  offset="1" style="stop-color:#995760"/>
	</linearGradient>
	<path style="fill:url(#SVGID_00000055708342975432416650000003717044425768510631_);" d="M401.965,521.209
		c0,0-1.293-18.052-0.111-38.213c0.689-11.744,7.425-30.087,6.73-52.66c-1.048-34.037-26.392-72.333-72.987-76.071
		c-85.226-6.836-105.171,106-85.479,157.026c12.982,33.639,27.5,50.075,41.45,50.561c8.826,0.309,4.996-7.868,4.996-7.868
		s4.797,16.947,23.837,31.233c13.916,10.442,29.878,13.012,29.878,13.012s13.909,16.16,58.012,15.667
		c16.547-0.184,17.747-8.157,17.747-8.157s16.879,0.603,28.478-4.782c11.599-5.385,17.917-16.759,17.917-16.759l-23.664-5.898
		L425.014,567.1c0,0-40.493,5.406-44.807-18.666C375.814,523.922,401.965,521.209,401.965,521.209z"/>
	<g>
		<path style="fill:#79444B;" d="M295.458,279.266c-0.925,0-1.752-0.65-1.941-1.591c-0.072-0.355-1.686-8.827,3.151-20.933
			c0.406-1.017,1.559-1.511,2.575-1.105c1.016,0.406,1.51,1.559,1.105,2.575c-4.406,11.024-2.961,18.608-2.946,18.683
			c0.215,1.073-0.48,2.118-1.553,2.332C295.718,279.253,295.586,279.266,295.458,279.266z"/>
		<path style="fill:#79444B;" d="M373.006,219.896c-0.581,0-1.157-0.254-1.549-0.744c-0.683-0.854-0.544-2.1,0.31-2.784
			c0.09-0.073,9.093-7.37,12.357-17.126c0.347-1.037,1.468-1.595,2.508-1.25c1.037,0.347,1.597,1.47,1.25,2.508
			c-3.641,10.886-13.234,18.639-13.641,18.963C373.876,219.755,373.44,219.896,373.006,219.896z"/>
		<path style="fill:#79444B;" d="M296.501,555.667c-0.797,0-1.55-0.486-1.851-1.276c-0.17-0.444-4.135-11.009-2.023-21.102
			c0.225-1.071,1.279-1.757,2.345-1.534c1.072,0.224,1.758,1.274,1.534,2.345c-1.877,8.967,1.808,18.78,1.845,18.878
			c0.391,1.022-0.122,2.167-1.144,2.557C296.975,555.625,296.736,555.667,296.501,555.667z"/>
		<path style="fill:#79444B;" d="M427.026,607.396c-0.628-0.003-6.339-0.25-16.081-7.926c-0.859-0.677-1.007-1.923-0.33-2.783
			c0.678-0.859,1.924-1.007,2.783-0.33c8.664,6.828,13.618,7.076,13.666,7.077c1.083,0.038,1.948,0.938,1.927,2.02
			C428.97,606.533,428.104,607.396,427.026,607.396z"/>
	</g>
	<path style="fill:#79444B;" d="M489.148,304.564c-0.582-0.019-1.01-0.479-0.991-1.025c0.01-0.3,0.923-30.144-9.849-37.878
		c-2.926-2.1-6.392-2.349-10.592-0.767c-4.315,1.625-5.251,4.977-6.548,9.614c-1.2,4.292-2.694,9.635-7.579,14.881
		c-8.39,9.012-17.099,12.717-17.466,12.871c-0.506,0.215-1.085-0.027-1.295-0.531c-0.212-0.505,0.026-1.085,0.53-1.296
		c0.086-0.037,8.698-3.711,16.782-12.394c4.556-4.893,5.918-9.765,7.12-14.065c1.344-4.805,2.504-8.954,7.758-10.934
		c4.801-1.81,8.991-1.47,12.448,1.012c11.629,8.351,10.715,38.286,10.671,39.556C490.119,304.143,489.68,304.564,489.148,304.564z"
		/>
	<path style="fill:#79444B;" d="M473.891,230.127c-0.345,0-0.68-0.18-0.863-0.502c-0.27-0.476-0.103-1.08,0.373-1.35
		c0.115-0.065,11.606-6.648,18.092-15.532c6.455-8.842,7.507-20.357,7.517-20.472c0.045-0.546,0.538-0.962,1.071-0.902
		c0.546,0.046,0.95,0.526,0.903,1.071c-0.042,0.493-1.113,12.187-7.891,21.472c-6.742,9.234-18.229,15.812-18.715,16.087
		C474.225,230.085,474.056,230.127,473.891,230.127z"/>
	<path style="fill:#79444B;" d="M524.155,267.397c-0.186,0-0.374-0.052-0.543-0.163c-0.457-0.3-0.584-0.914-0.284-1.372
		c0.185-0.283,18.339-28.697,3.878-67.981c-0.189-0.514,0.075-1.084,0.587-1.272c0.513-0.192,1.083,0.074,1.272,0.587
		c14.819,40.26-3.891,69.464-4.082,69.754C524.794,267.241,524.478,267.397,524.155,267.397z"/>
	<g>
		<path style="fill:#E85D69;" d="M633.335,405.793c-12.278,5.47-6.659,11.615-20.305,27.128
			c-12.645,14.375-28.404,10.639-36.091,33.282c-10.9,32.105,34.782,71.044,75.388,27.1
			C687.788,454.927,654.257,396.471,633.335,405.793z"/>
		<path style="fill:#F37D86;" d="M583.621,498.55c13.741,16.855,42.297,23.333,68.706-5.246c8.646-9.356,13.19-19.906,14.817-30.377
			l-0.612,0.199c0,0-30.595-12.716-63.169,2.817c-19.875,9.478-19.677,32.206-19.677,32.206L583.621,498.55z"/>
		<path style="fill:#EC9A6C;" d="M633.874,407.002c-2.832,1.272-5.327,2.962-6.923,5.382c-1.586,2.438-2.597,5.568-4.044,8.531
			c-1.408,2.988-3.146,5.842-5.091,8.503c-1.923,2.678-4.067,5.168-6.496,7.517c-2.442,2.311-5.221,4.209-8.044,5.907
			c-2.834,1.697-5.746,3.115-8.484,4.672c-2.742,1.553-5.322,3.235-7.574,5.264c-2.243,2.041-4.031,4.505-5.587,7.124l-1.029,2.057
			l-0.516,1.028l-0.418,1.084c-0.559,1.444-1.159,2.882-1.517,4.345c-0.806,2.915-1.225,5.961-1.052,9.002
			c0.147,3.033,0.661,6.072,1.663,8.97c1.006,2.894,2.375,5.662,4.044,8.249c1.733,2.547,3.754,4.892,6.008,6.999
			c2.283,2.078,4.822,3.858,7.511,5.373c2.716,1.475,5.621,2.564,8.6,3.38c3.008,0.701,6.087,1.121,9.189,1.106
			c6.204-0.021,12.365-1.65,18.027-4.312c5.68-2.672,10.822-6.469,15.456-10.779l3.367-3.361c1.109-1.132,2.144-2.323,3.144-3.545
			c1.997-2.445,3.798-5.048,5.369-7.784c3.147-5.472,5.307-11.496,6.453-17.712c1.128-6.222,1.207-12.632,0.327-18.906
			c-0.854-6.279-2.691-12.422-5.363-18.153c-2.688-5.704-6.24-11.084-10.849-15.271c-2.295-2.08-4.895-3.836-7.716-4.825
			C639.519,405.849,636.478,405.812,633.874,407.002z M632.796,404.583c1.643-0.715,3.447-1.074,5.225-1.063
			c1.78,0.009,3.527,0.363,5.146,0.956c3.25,1.196,6.049,3.179,8.482,5.438c4.874,4.555,8.441,10.206,11.172,16.136
			c5.376,11.915,7.334,25.381,5.118,38.308c-1.135,6.446-3.33,12.724-6.556,18.437c-1.61,2.857-3.46,5.576-5.513,8.13
			c-2.031,2.584-4.365,4.87-6.642,7.202c-4.716,4.505-9.998,8.531-15.938,11.429c-5.919,2.886-12.466,4.727-19.148,4.837
			c-3.34,0.059-6.675-0.345-9.941-1.066c-3.237-0.836-6.402-1.978-9.368-3.538c-2.936-1.602-5.723-3.491-8.222-5.728
			c-2.466-2.268-4.681-4.803-6.586-7.569c-1.843-2.807-3.364-5.826-4.49-9.004c-1.123-3.182-1.725-6.545-1.908-9.925
			c-0.21-3.387,0.227-6.81,1.11-10.086c0.252-0.806,0.408-1.668,0.745-2.426l0.909-2.333l0.456-1.166l0.565-1.129l1.138-2.254
			c1.724-2.906,3.761-5.686,6.298-7.984c2.534-2.285,5.388-4.113,8.265-5.684c2.876-1.587,5.772-2.956,8.478-4.536
			c2.702-1.584,5.284-3.306,7.555-5.391c2.223-2.088,4.337-4.455,6.201-6.979c1.886-2.504,3.548-5.145,4.925-7.959
			c0.7-1.403,1.328-2.852,1.991-4.336c0.686-1.481,1.365-3.023,2.379-4.48c1.016-1.433,2.263-2.765,3.7-3.752
			c0.692-0.538,1.457-0.917,2.183-1.379L632.796,404.583z"/>
	</g>
	<path style="fill:#79444B;" d="M562.578,184.299c3.023,7.475,3.921,15.669,3.483,23.694c-0.444,8.06-2.375,15.988-5.263,23.525
		c-1.458,3.773-3.206,7.451-5.278,10.962c-2.08,3.505-4.504,6.825-7.239,9.893c-2.756,3.048-5.838,5.833-9.242,8.213
		c-1.7,1.192-3.48,2.281-5.341,3.249c-0.928,0.488-1.881,0.937-2.859,1.353c-0.488,0.209-0.985,0.406-1.494,0.593
		c-0.526,0.193-0.982,0.353-1.645,0.536l1.835-1.841c-0.26,1.349-0.534,2.499-0.898,3.702c-0.347,1.19-0.734,2.361-1.145,3.524
		c-0.824,2.326-1.833,4.579-2.919,6.797c-2.243,4.397-4.957,8.582-8.159,12.391c-0.803,0.949-1.656,1.858-2.484,2.788
		c-0.91,0.902-1.806,1.851-2.81,2.651c-0.965,0.855-1.999,1.609-3.025,2.375c-1.067,0.701-2.129,1.408-3.24,2.023
		c-2.208,1.251-4.51,2.306-6.883,3.133c-1.182,0.427-2.389,0.776-3.607,1.087c-1.244,0.303-2.41,0.542-3.804,0.711l2.001-2.413
		c0.079,1.661,0.082,3.129,0.019,4.677c-0.073,1.526-0.175,3.049-0.346,4.564c-0.352,3.028-0.849,6.046-1.568,9.019
		c-1.389,5.959-3.528,11.778-6.359,17.284c-1.435,2.742-3.016,5.42-4.786,7.981c-1.781,2.554-3.757,4.972-5.849,7.286
		c-2.109,2.297-4.403,4.463-6.713,6.413c-1.143,1.012-2.362,1.93-3.541,2.898c-1.197,0.944-2.435,1.833-3.651,2.751
		c-4.936,3.574-10.191,6.669-15.607,9.385c-5.402,2.753-11.044,4.968-16.755,6.88c-5.729,1.871-11.568,3.35-17.474,4.411
		c-2.955,0.522-5.921,0.967-8.908,1.262c-3.005,0.309-5.938,0.498-9.07,0.495c-1.31-0.001-2.372-1.064-2.37-2.375
		c0.001-1.213,0.912-2.212,2.086-2.354l0.097-0.012c2.719-0.33,5.607-0.869,8.396-1.423c2.806-0.586,5.6-1.225,8.368-1.958
		c5.534-1.478,10.983-3.221,16.292-5.286c5.312-2.054,10.48-4.434,15.464-7.112c4.979-2.69,9.754-5.716,14.3-9.03
		c4.5-3.343,8.833-7.067,12.584-10.973c3.711-4.025,7.018-8.45,9.754-13.257c2.774-4.784,5.024-9.91,6.819-15.226
		c0.867-2.666,1.691-5.365,2.318-8.114c0.334-1.371,0.631-2.751,0.888-4.136c0.257-1.363,0.512-2.818,0.659-4.086
		c-0.132-0.958,0.434-1.852,1.31-2.166l0.691-0.248c0.914-0.329,2.017-0.755,3.019-1.178c1.027-0.419,2.034-0.892,3.033-1.368
		c1.992-0.973,3.921-2.043,5.756-3.228c1.837-1.18,3.586-2.472,5.191-3.897c0.831-0.69,1.551-1.471,2.336-2.21
		c0.748-0.828,1.523-1.631,2.254-2.476c2.916-3.386,5.517-7.063,7.8-10.951c1.131-1.951,2.172-3.955,3.158-5.99
		c0.486-1.02,0.951-2.051,1.377-3.092c0.418-1.024,0.851-2.129,1.179-3.066c0,0,0.04-0.139,0.04-0.139
		c0.251-0.881,0.962-1.51,1.796-1.702c0.297-0.068,0.789-0.206,1.199-0.341c0.429-0.137,0.862-0.288,1.293-0.452
		c0.863-0.325,1.724-0.686,2.57-1.087c1.697-0.795,3.351-1.713,4.946-2.734c3.194-2.04,6.148-4.488,8.833-7.219
		c2.665-2.751,5.076-5.773,7.186-9.012c2.102-3.244,3.921-6.688,5.475-10.26c3.088-7.155,5.287-14.766,6.04-22.553
		c0.749-7.764,0.212-15.78-2.43-23.187c-0.094-0.255,0.037-0.537,0.292-0.631C562.2,183.931,562.477,184.058,562.578,184.299z"/>
	<path style="fill:#29BBAB;" d="M476.458,647.819c-22.974-23.268-69.905,18.572-90.993,39.559
		c-49.118,48.883-63.137,98.203-63.137,98.203s5.886,1.137,11.453,5.119c5.567,3.983,10.815,10.811,10.815,10.811
		s55.324-23.607,90.836-59.69C473.756,702.883,499.995,671.655,476.458,647.819z"/>
	<path style="fill:#009C8B;" d="M421.172,756.73c-0.425,0-0.846-0.181-1.14-0.532c-0.527-0.629-0.445-1.566,0.185-2.092
		c0.118-0.1,12.017-10.107,25.201-24.382c13.21-14.308,28.066-33.288,28.215-33.479c0.506-0.646,1.439-0.761,2.086-0.255
		c0.646,0.505,0.761,1.438,0.255,2.086c-0.149,0.191-15.078,19.265-28.373,33.665c-13.32,14.423-25.356,24.544-25.476,24.643
		C421.847,756.616,421.508,756.73,421.172,756.73z"/>
	<g>
		<g>
			<path style="fill:#EC9A6C;" d="M696.243,397.29c-35.417,0-64.128,28.599-64.128,63.878s28.711,63.878,64.128,63.878
				c35.417,0,64.128-28.599,64.128-63.878S731.661,397.29,696.243,397.29z M697.738,477.323c-9.892,0-17.912-8.031-17.912-17.938
				c0-9.908,8.019-17.939,17.912-17.939c9.891,0,17.911,8.031,17.911,17.939C715.649,469.292,707.629,477.323,697.738,477.323z"/>
			
				<linearGradient id="SVGID_00000163781689167786014990000015957713960146013076_" gradientUnits="userSpaceOnUse" x1="657.6924" y1="414.6163" x2="727.0879" y2="499.6818">
				<stop  offset="0" style="stop-color:#BD5556"/>
				<stop  offset="0.2451" style="stop-color:#AC4A4C"/>
				<stop  offset="0.6867" style="stop-color:#91383B"/>
			</linearGradient>
			<path style="fill:url(#SVGID_00000163781689167786014990000015957713960146013076_);" d="M757.896,458.275
				c-2.159-3.642-6.819-5.544-8.344-8.843c-2.753-5.959,1.585-12.95-1.312-19.028c-2.637-5.529-9.123-5.919-13.185-9.593
				c-4.502-4.072-4.377-11.634-9.222-15.863c-0.681-0.594-4.619-2.693-6.84-3.362l-1.175-0.589
				c-6.742-2.399-14.005-3.705-21.575-3.705c-1.972,0-3.922,0.089-5.849,0.262l-1.299,0.094c-3.104,1.276-4.157,4.974-6.995,6.579
				c-5.158,2.917-11.922,2.897-17.241,1.421l-1.514,0.625c-14.787,8.788-25.641,23.336-29.603,40.535c0,0,0.982,1.036,1.225,4.561
				c0.344,4.971,0.678,10.571,3.15,15.071c1.921,3.499,6.866,6.78,7.648,10.736c1.751,8.856-2.029,17.282,5.778,25.435
				c2.432,2.54,5.436,4.781,8.848,5.928c2.893,0.971,6.429,0.658,9.02,2.482c2.857,2.011,7.679,11.509,12.612,12.431l2.125,0.462
				c3.917,0.745,7.961,1.135,12.096,1.135c32.91,0,60.031-24.694,63.705-56.495C759.948,468.551,760.883,463.312,757.896,458.275z
				 M697.738,477.323c-9.892,0-17.912-8.031-17.912-17.938c0-9.908,8.019-17.939,17.912-17.939c9.891,0,17.911,8.031,17.911,17.939
				C715.649,469.292,707.629,477.323,697.738,477.323z"/>
			<path style="opacity:0.32;fill:#682124;" d="M694.275,432.889c-13.017,0-23.57,10.51-23.57,23.476s10.553,23.476,23.57,23.476
				c13.016,0,23.569-10.511,23.569-23.476S707.292,432.889,694.275,432.889z M697.738,477.323c-9.892,0-17.912-8.031-17.912-17.938
				c0-9.908,8.019-17.939,17.912-17.939c9.891,0,17.911,8.031,17.911,17.939C715.649,469.292,707.629,477.323,697.738,477.323z"/>
			<path style="opacity:0.15;fill:#682124;" d="M633.234,473.112c5.615,29.57,31.69,51.934,63.009,51.934
				c35.417,0,64.128-28.599,64.128-63.878c0-17.08-6.73-32.595-17.692-44.056l2.564,3.912c2.72,4.898,6.431,12.792,8.374,22.182
				c4.487,21.694,1.032,51.055-32.008,66.958c-32.655,15.718-57.992,2.517-72.635-12.244
				c-11.051-11.141-15.454-23.419-15.454-23.419L633.234,473.112z"/>
			<path style="fill:#AE4C4F;" d="M694.275,480.336c-13.269,0-24.065-10.753-24.065-23.971c0-13.218,10.796-23.971,24.065-23.971
				c13.269,0,24.064,10.753,24.064,23.971C718.339,469.583,707.544,480.336,694.275,480.336z M694.275,433.385
				c-12.723,0-23.074,10.309-23.074,22.98s10.352,22.98,23.074,22.98c12.723,0,23.073-10.309,23.073-22.98
				S706.998,433.385,694.275,433.385z"/>
			<path style="fill:#C86366;" d="M696.243,526.037c-4.129,0-8.261-0.388-12.281-1.152l-2.151-0.466
				c-3.509-0.655-6.658-4.811-9.436-8.478c-1.355-1.789-2.635-3.478-3.535-4.112c-1.425-1.003-3.229-1.283-5.14-1.579
				c-1.206-0.188-2.454-0.381-3.625-0.774c-3.21-1.079-6.408-3.217-9.249-6.182c-5.561-5.807-5.535-11.836-5.51-17.667
				c0.011-2.701,0.023-5.495-0.524-8.26c-0.412-2.09-2.278-4.118-4.083-6.079c-1.294-1.405-2.63-2.858-3.461-4.372
				c-2.519-4.588-2.905-10.191-3.246-15.135l-0.024-0.344c-0.207-3-0.971-3.965-0.979-3.974c-0.195-0.237-0.291-0.578-0.223-0.877
				c3.951-17.155,14.908-32.159,30.062-41.164c0.041-0.024,0.083-0.046,0.128-0.064l1.514-0.626c0.204-0.085,0.431-0.099,0.643-0.04
				c4.584,1.272,11.324,1.591,16.489-1.327c1.146-0.649,1.993-1.736,2.89-2.886c1.137-1.458,2.311-2.964,4.217-3.748
				c0.097-0.04,0.2-0.065,0.305-0.072l1.299-0.094c1.936-0.175,3.933-0.265,5.92-0.265c7.521,0,14.892,1.266,21.908,3.762
				c0.039,0.014,0.076,0.03,0.112,0.048l1.1,0.551c2.259,0.703,6.284,2.808,7.121,3.538c2.662,2.325,3.897,5.506,5.091,8.581
				c1.09,2.81,2.12,5.462,4.144,7.294c1.473,1.332,3.3,2.208,5.235,3.134c3.156,1.511,6.419,3.073,8.18,6.767
				c1.589,3.331,1.181,6.828,0.787,10.21c-0.367,3.156-0.714,6.136,0.53,8.83c0.686,1.483,2.188,2.724,3.779,4.038
				c1.659,1.371,3.375,2.787,4.518,4.715c3.139,5.293,2.215,10.727,2.175,10.955C757.154,501.372,729.344,526.037,696.243,526.037z
				 M634.806,446.607c0.391,0.666,0.968,2.064,1.149,4.692l0.023,0.344c0.326,4.74,0.696,10.113,3.006,14.318
				c0.716,1.303,1.914,2.605,3.183,3.985c1.99,2.162,4.048,4.399,4.569,7.035c0.584,2.959,0.573,5.854,0.561,8.654
				c-0.024,5.688-0.047,11.06,4.961,16.289c2.619,2.735,5.54,4.696,8.448,5.673c1.01,0.339,2.122,0.512,3.298,0.694
				c2.052,0.318,4.173,0.647,5.977,1.918c1.152,0.811,2.459,2.537,3.973,4.534c2.435,3.213,5.465,7.212,8.249,7.732l2.154,0.467
				c3.874,0.736,7.882,1.112,11.886,1.112c32.094,0,59.058-23.911,62.721-55.619c0.016-0.107,0.832-5.017-1.92-9.657
				c-0.966-1.63-2.546-2.935-4.075-4.198c-1.692-1.397-3.441-2.842-4.316-4.735c-1.478-3.199-1.083-6.601-0.699-9.89
				c0.377-3.246,0.734-6.312-0.607-9.128c-1.461-3.062-4.271-4.409-7.247-5.834c-1.977-0.946-4.022-1.925-5.709-3.452
				c-2.373-2.146-3.537-5.146-4.662-8.046c-1.158-2.983-2.252-5.802-4.546-7.805c-0.545-0.475-4.333-2.513-6.475-3.16
				c-0.054-0.017-0.107-0.037-0.158-0.063l-1.12-0.561c-6.785-2.407-13.912-3.628-21.186-3.628c-1.926,0-3.864,0.087-5.759,0.258
				l-1.15,0.083c-1.345,0.606-2.28,1.805-3.269,3.074c-0.976,1.253-1.986,2.549-3.477,3.392c-4.752,2.688-11.331,3.278-17.663,1.603
				l-1.136,0.469C649.256,415.821,638.713,430.177,634.806,446.607z"/>
			<path style="opacity:0.24;fill:#FFFFFF;" d="M657.31,486.932c7.234,7.461,16.494,13.21,26.329,15.709
				c2.47,0.603,4.976,0.983,7.487,1.198c2.514,0.215,5.04,0.111,7.543-0.106c5.004-0.538,9.937-1.823,14.607-3.876
				c4.735-1.99,9.172-4.547,13.094-7.67c1.944-1.575,3.795-3.264,5.396-5.161c1.624-1.874,3.101-3.875,4.324-6.032
				c2.471-4.292,4.129-9.078,4.874-14.069c0.406-2.491,0.555-5.032,0.546-7.575c0.001-1.272-0.065-2.545-0.176-3.81
				c-0.099-1.24-0.267-2.583-0.481-3.673l-0.025-0.129c-0.248-1.264,0.576-2.489,1.84-2.737c1.191-0.234,2.351,0.494,2.687,1.636
				c0.443,1.52,0.709,2.837,0.958,4.263c0.23,1.403,0.396,2.812,0.496,4.228c0.209,2.831,0.166,5.686-0.128,8.531
				c-0.597,5.684-2.286,11.335-5.095,16.42c-1.371,2.559-3.046,4.956-4.939,7.146c-1.859,2.227-3.983,4.202-6.202,6.024
				c-4.494,3.59-9.523,6.358-14.717,8.499c-5.235,2.153-10.868,3.503-16.576,3.932c-5.718,0.334-11.503-0.308-16.929-2.01
				c-5.427-1.698-10.486-4.32-15.008-7.58c-2.252-1.646-4.387-3.431-6.372-5.363c-1.996-1.941-3.816-3.967-5.487-6.281
				c-0.399-0.553-0.275-1.324,0.278-1.724c0.504-0.364,1.19-0.293,1.61,0.141L657.31,486.932z"/>
			<path style="opacity:0.32;fill:#FFFFFF;" d="M665.687,419.884c0.812-1.073,1.592-1.882,2.474-2.719
				c0.433-0.413,0.895-0.784,1.345-1.179c0.461-0.377,0.946-0.724,1.42-1.087c1.935-1.4,4.072-2.535,6.32-3.428
				c1.12-0.456,2.296-0.778,3.463-1.108c0.594-0.131,1.197-0.232,1.794-0.347c0.3-0.053,0.596-0.118,0.898-0.158l0.913-0.074
				c2.42-0.288,4.885-0.033,7.225,0.473c1.169,0.253,1.912,1.405,1.659,2.574c-0.204,0.943-0.993,1.608-1.904,1.698l-0.219,0.021
				c-2.051,0.2-4.028,0.3-5.967,0.76c-1.936,0.399-3.842,0.942-5.683,1.707c-1.856,0.717-3.661,1.608-5.426,2.611
				c-0.869,0.52-1.75,1.036-2.597,1.603c-0.847,0.533-1.727,1.182-2.46,1.682l-0.223,0.152c-1.015,0.693-2.4,0.433-3.094-0.583
				C665.071,421.673,665.127,420.626,665.687,419.884z"/>
			<path style="fill:#FDBB9C;" d="M696.243,526.037c-35.906,0-65.119-29.1-65.119-64.868c0-35.769,29.213-64.868,65.119-64.868
				s65.119,29.099,65.119,64.868C761.362,496.937,732.149,526.037,696.243,526.037z M696.243,398.281
				c-34.814,0-63.138,28.211-63.138,62.887c0,34.676,28.323,62.887,63.138,62.887c34.814,0,63.138-28.211,63.138-62.887
				C759.381,426.492,731.057,398.281,696.243,398.281z"/>
			<g>
				<path style="fill:#FF94CD;" d="M662.86,423.966c-0.055,1.649-0.485,3.157-1,4.635c-0.262,0.737-0.584,1.452-0.947,2.151
					c-0.364,0.699-0.778,1.379-1.322,2.012c-0.381,0.443-1.047,0.493-1.49,0.112c-0.242-0.208-0.367-0.507-0.368-0.802
					c0.001-0.834,0.132-1.619,0.313-2.387c0.181-0.767,0.404-1.519,0.687-2.247c0.575-1.455,1.234-2.879,2.269-4.163
					c0.362-0.449,1.02-0.52,1.469-0.157C662.736,423.331,662.869,423.652,662.86,423.966z"/>
				<g>
					<path style="fill:#FFC791;" d="M697.476,413.398l8.321,3.447L697.476,413.398z"/>
					<path style="fill:#AE95D6;" d="M697.855,412.483c0.841-0.07,1.608,0.04,2.361,0.186c0.746,0.16,1.465,0.385,2.161,0.668
						c0.696,0.28,1.367,0.622,2.007,1.039c0.638,0.422,1.254,0.896,1.793,1.555c0.393,0.48,0.323,1.188-0.158,1.582
						c-0.178,0.146-0.387,0.228-0.601,0.249c-0.847,0.085-1.618-0.016-2.367-0.169c-0.747-0.158-1.463-0.39-2.154-0.684
						c-0.692-0.292-1.36-0.641-2-1.056c-0.635-0.43-1.255-0.894-1.8-1.539c-0.397-0.47-0.339-1.172,0.131-1.57
						C697.412,412.587,697.632,412.501,697.855,412.483z"/>
				</g>
				<path style="fill:#FFE270;" d="M728.015,445.983c0.722,0.249,1.334,0.607,1.932,0.98c0.586,0.385,1.131,0.811,1.643,1.27
					c0.509,0.462,1.007,0.935,1.397,1.515c0.389,0.582,0.717,1.224,0.852,2.06c0.107,0.667-0.346,1.294-1.012,1.401
					c-0.131,0.021-0.265,0.019-0.389,0c-0.836-0.135-1.478-0.464-2.06-0.852c-0.581-0.39-1.053-0.888-1.515-1.397
					c-0.459-0.512-0.885-1.057-1.27-1.643c-0.373-0.598-0.732-1.21-0.98-1.932c-0.198-0.576,0.108-1.203,0.684-1.401
					C727.539,445.9,727.791,445.906,728.015,445.983z"/>
				<path style="fill:#FFE270;" d="M651.339,445.983c0.722,0.249,1.335,0.607,1.932,0.98c0.586,0.385,1.131,0.811,1.643,1.27
					c0.509,0.462,1.007,0.935,1.397,1.515c0.389,0.582,0.717,1.224,0.852,2.06c0.107,0.667-0.346,1.294-1.012,1.401
					c-0.131,0.021-0.265,0.019-0.389,0c-0.836-0.135-1.478-0.464-2.06-0.852c-0.581-0.39-1.053-0.888-1.515-1.397
					c-0.459-0.512-0.885-1.057-1.27-1.643c-0.373-0.598-0.732-1.21-0.98-1.932c-0.198-0.576,0.108-1.203,0.684-1.401
					C650.863,445.9,651.114,445.906,651.339,445.983z"/>
				<g>
					
						<linearGradient id="SVGID_00000117647416136096817610000014589503237113932938_" gradientUnits="userSpaceOnUse" x1="695.0393" y1="498.396" x2="696.2875" y2="498.396">
						<stop  offset="0.2869" style="stop-color:#FFDBDC"/>
						<stop  offset="0.6582" style="stop-color:#FFD6D7"/>
						<stop  offset="0.8448" style="stop-color:#FFD1D2"/>
					</linearGradient>
					<path style="fill:url(#SVGID_00000117647416136096817610000014589503237113932938_);" d="M695.039,493.403l1.248,9.986
						L695.039,493.403z"/>
					<path style="fill:#958EDF;" d="M696.022,493.28c0.41,0.794,0.674,1.606,0.89,2.424c0.224,0.817,0.373,1.643,0.484,2.475
						c0.108,0.832,0.17,1.669,0.155,2.516c-0.005,0.845-0.066,1.698-0.28,2.57c-0.139,0.569-0.714,0.917-1.282,0.777
						c-0.304-0.074-0.546-0.277-0.683-0.532c-0.422-0.792-0.692-1.604-0.904-2.422c-0.223-0.817-0.369-1.644-0.469-2.477
						c-0.098-0.833-0.157-1.67-0.14-2.518c0.008-0.846,0.064-1.698,0.265-2.569c0.131-0.568,0.698-0.922,1.266-0.79
						C695.635,492.808,695.885,493.017,696.022,493.28z"/>
				</g>
				<path style="fill:#84E5E0;" d="M709.17,469.234c1.278-0.491,2.578-0.69,3.884-0.817c0.653-0.061,1.309-0.08,1.969-0.056
					c0.66,0.027,1.322,0.096,1.994,0.278c0.56,0.152,0.891,0.729,0.739,1.289c-0.086,0.316-0.312,0.562-0.589,0.686
					c-0.636,0.282-1.281,0.449-1.929,0.575c-0.648,0.123-1.3,0.204-1.955,0.241c-1.31,0.072-2.625,0.071-3.962-0.222
					c-0.558-0.122-0.911-0.673-0.789-1.232C708.607,469.628,708.86,469.356,709.17,469.234z"/>
				<path style="fill:#FF94CD;" d="M757.37,466.77c0.928-0.783,1.963-1.244,3.024-1.626c0.534-0.183,1.078-0.332,1.641-0.427
					c0.562-0.098,1.139-0.15,1.754-0.088c0.494,0.05,0.853,0.492,0.803,0.986c-0.023,0.226-0.13,0.426-0.284,0.569
					c-0.455,0.419-0.948,0.723-1.456,0.982c-0.507,0.262-1.032,0.47-1.569,0.643c-1.078,0.331-2.183,0.584-3.395,0.515
					c-0.486-0.028-0.858-0.445-0.83-0.932C757.072,467.143,757.192,466.92,757.37,466.77z"/>
				<path style="fill:#FF94CD;" d="M714.68,514.782c-0.033-1.214,0.253-2.31,0.617-3.378c0.19-0.531,0.413-1.05,0.69-1.549
					c0.274-0.5,0.593-0.983,1.026-1.425c0.348-0.355,0.917-0.36,1.271-0.013c0.163,0.16,0.252,0.367,0.267,0.578
					c0.044,0.617-0.026,1.192-0.141,1.75c-0.112,0.56-0.277,1.1-0.476,1.627c-0.414,1.05-0.906,2.07-1.716,2.974
					c-0.325,0.363-0.883,0.393-1.246,0.068C714.785,515.247,714.687,515.015,714.68,514.782z"/>
				<path style="fill:#FF94CD;" d="M658.938,483.888c0.928-0.783,1.963-1.243,3.025-1.625c0.533-0.183,1.078-0.332,1.641-0.427
					c0.562-0.097,1.138-0.151,1.754-0.088c0.494,0.051,0.853,0.492,0.803,0.986c-0.023,0.227-0.13,0.426-0.285,0.569
					c-0.455,0.42-0.948,0.724-1.456,0.982c-0.507,0.262-1.032,0.47-1.569,0.643c-1.078,0.331-2.183,0.584-3.395,0.514
					c-0.486-0.028-0.858-0.445-0.83-0.931C658.641,484.261,658.761,484.039,658.938,483.888z"/>
				<path style="fill:#84E5E0;" d="M695.934,392.418c0.674,0.379,1.193,0.856,1.685,1.351c0.478,0.504,0.898,1.044,1.272,1.614
					c0.374,0.57,0.698,1.171,0.951,1.819c0.25,0.649,0.452,1.328,0.492,2.111c0.032,0.629-0.452,1.164-1.081,1.196
					c-0.211,0.011-0.415-0.039-0.589-0.13c-0.694-0.366-1.225-0.835-1.707-1.336c-0.481-0.502-0.89-1.049-1.249-1.629
					c-0.36-0.579-0.672-1.188-0.928-1.833c-0.241-0.654-0.456-1.326-0.515-2.097c-0.047-0.619,0.416-1.159,1.034-1.206
					C695.528,392.26,695.747,392.313,695.934,392.418z"/>
				<g>
					
						<linearGradient id="SVGID_00000174561199492434794200000006696446892977415060_" gradientUnits="userSpaceOnUse" x1="739.8563" y1="423.0272" x2="741.1046" y2="423.0272">
						<stop  offset="0.2869" style="stop-color:#FFDBDC"/>
						<stop  offset="0.6582" style="stop-color:#FFD6D7"/>
						<stop  offset="0.8448" style="stop-color:#FFD1D2"/>
					</linearGradient>
					<path style="fill:url(#SVGID_00000174561199492434794200000006696446892977415060_);" d="M739.856,418.034l1.248,9.986
						L739.856,418.034z"/>
					<path style="fill:#AEE0FF;" d="M740.839,417.911c0.41,0.794,0.674,1.606,0.89,2.424c0.224,0.817,0.373,1.644,0.484,2.475
						c0.108,0.832,0.17,1.669,0.155,2.516c-0.005,0.845-0.066,1.698-0.28,2.57c-0.14,0.569-0.714,0.917-1.283,0.777
						c-0.304-0.074-0.546-0.277-0.683-0.532c-0.422-0.792-0.692-1.604-0.904-2.423c-0.223-0.817-0.369-1.644-0.469-2.477
						c-0.098-0.833-0.156-1.671-0.14-2.518c0.007-0.846,0.064-1.698,0.265-2.568c0.132-0.568,0.698-0.922,1.266-0.79
						C740.452,417.439,740.702,417.648,740.839,417.911z"/>
				</g>
			</g>
		</g>
		<path style="fill:#BD5556;" d="M697.738,478.314c-10.422,0-18.902-8.491-18.902-18.929c0-10.438,8.479-18.93,18.902-18.93
			c10.422,0,18.902,8.492,18.902,18.93C716.639,469.823,708.16,478.314,697.738,478.314z M697.738,442.437
			c-9.33,0-16.92,7.603-16.92,16.949c0,9.344,7.59,16.947,16.92,16.947s16.92-7.603,16.92-16.947
			C714.658,450.04,707.068,442.437,697.738,442.437z"/>
	</g>
	<path style="opacity:0.18;fill:#CA1D3A;" d="M678.099,399.133c0,0-55.397,6.301-60.39,55.16
		c-4.993,48.859,36.377,61.341,36.377,61.341l7.133-9.807L678.099,399.133z"/>
	<path style="opacity:0.18;fill:#682124;" d="M710.196,524.549l-2.972,0.476c0,0-8.203-4.22,0.594-21.041
		c8.797-16.821,33.761-22.111,33.761-22.111l-17.356,39.705L710.196,524.549z"/>
	<g>
		<path style="fill:#FFC791;" d="M724.977,501.767c-0.722-4.299-4.043-6.805-3.042-9.606c1-2.802,7.237-1.649,7.044-1.602
			c-0.193,0.049-3.387-8.677-0.96-10.566c3.775-2.939,10.567,2.882,10.567,2.882s-3.68-8.539-0.641-9.766
			c3.793-1.531,13.609,7.845,13.609,7.845s-1.898-5.664,4.324-3.683c4.064,1.294,11.367,8.806,8.806,26.258
			c-1.247,8.491-10.904,36.043-39.226,31.862c-13.628-2.012-18.252-9.767-14.25-18.573
			C713.683,511.371,726.752,512.338,724.977,501.767z"/>
		<path style="fill:#EC9A6C;" d="M734.356,508.801c-0.174,0-0.351-0.03-0.524-0.096c-0.766-0.289-1.154-1.143-0.868-1.911
			c0.144-0.389,3.436-9.568-4.704-14.664c-0.696-0.435-0.907-1.353-0.471-2.048c0.437-0.697,1.355-0.906,2.048-0.471
			c10.223,6.4,5.953,18.11,5.909,18.228C735.522,508.434,734.957,508.801,734.356,508.801z"/>
		<path style="fill:#EC9A6C;" d="M745.494,505.407c-0.137,0-0.278-0.018-0.416-0.059c-0.789-0.229-1.241-1.055-1.012-1.842
			c1.426-4.897,0.564-13.004-6.554-19.736c-0.597-0.564-0.623-1.504-0.059-2.1c0.565-0.598,1.504-0.623,2.1-0.059
			c8.093,7.652,9.026,17.025,7.367,22.725C746.731,504.985,746.138,505.407,745.494,505.407z"/>
		<path style="fill:#EC9A6C;" d="M756.002,500.887c-0.148,0-0.299-0.022-0.448-0.069c-0.782-0.248-1.216-1.083-0.969-1.865
			c0.098-0.316,2.347-8.016-4.229-17.381c-0.472-0.672-0.31-1.599,0.362-2.07c0.672-0.473,1.598-0.31,2.07,0.362
			c7.462,10.627,4.75,19.608,4.631,19.985C757.219,500.483,756.634,500.887,756.002,500.887z"/>
		<path style="opacity:0.55;fill:#EC9A6C;" d="M715.219,531.86c0,0,6.859,0.969,13.279,1.489c6.422,0.52,12.904,0.77,12.904,0.77
			s-6.237,2.386-14.565,1.581C720.424,535.08,715.219,531.86,715.219,531.86z"/>
	</g>
	<path style="fill:#61E5F4;" d="M471.91,1020.555c0,0,15.351,5.842,28.721,5.603c13.371-0.24,23.152-8.133,24.759-6.561
		c4.087,4-4.446,22.465-9.356,25.717c-5.968,3.954-25.138,4.324-32.586,0.545C467.812,1037.929,471.91,1020.555,471.91,1020.555z"/>
	<path style="fill:#61E5F4;" d="M583.277,1011.325c3.301-2.657,11.102,5.775,22.932,5.814c11.83,0.039,19.471-4.325,22.034-3.044
		c3.905,1.952-6.15,19.062-12.47,20.912c-6.22,1.82-14.386,1.842-23.944-1.184C582.581,1030.894,579.48,1014.381,583.277,1011.325z"
		/>
	<path style="fill:#FF807F;" d="M586.655,1061.396c0,0,3.608,0,9.85,5.949c2.778,2.648,11.151,0.617,14.744-3.013
		c3.479-3.515,5.151-7.812,5.151-7.812s1.295,2.568,7.509,5.363c5.852,2.634,12.67,2.885,16.459,7.887
		c7.314,9.655-3.489,14.154-7.78,14.544c-13.514,1.229-41.687-0.467-41.687-0.467s-7.366-2.264-7.366-11.431
		C583.535,1066.91,586.655,1061.396,586.655,1061.396z"/>
	<path style="fill:#F7F9B2;" d="M619.896,1071.996c-0.064,0-0.128-0.006-0.193-0.019c-0.537-0.106-0.886-0.628-0.779-1.164
		c0.056-0.284,1.41-6.987,4.042-9.721c0.38-0.395,1.007-0.404,1.401-0.027c0.395,0.379,0.406,1.007,0.027,1.401
		c-1.854,1.925-3.174,6.957-3.527,8.732C620.774,1071.67,620.359,1071.996,619.896,1071.996z"/>
	<path style="fill:#F7F9B2;" d="M628.223,1073.794c-0.043,0-0.085-0.003-0.129-0.009c-0.543-0.071-0.925-0.567-0.855-1.109
		c0.031-0.237,0.784-5.834,3.656-9.007c0.367-0.405,0.994-0.438,1.399-0.07c0.405,0.367,0.437,0.994,0.07,1.399
		c-2.453,2.71-3.153,7.88-3.16,7.932C629.139,1073.431,628.713,1073.794,628.223,1073.794z"/>
	<path style="fill:#96002E;" d="M401.471,521.245c-0.013-0.181-1.281-18.314-0.11-38.277c0.252-4.286,1.291-9.391,2.494-15.303
		c2.084-10.233,4.677-22.968,4.234-37.313c-0.487-15.824-6.123-31.74-15.872-44.818l0.793-0.592
		c9.87,13.238,15.576,29.355,16.069,45.379c0.445,14.461-2.16,27.258-4.254,37.542c-1.197,5.874-2.229,10.947-2.477,15.162
		c-1.167,19.895,0.097,37.968,0.11,38.148L401.471,521.245z"/>
	<path style="fill:#0090A7;" d="M485.585,845c-28.495,0-51.365-3.777-65.675-6.995c-0.801-0.181-1.304-0.975-1.124-1.776
		c0.18-0.8,0.966-1.303,1.776-1.124c24.736,5.564,75.331,12.814,136.268-1.108c61.005-13.938,100.106-40.796,117.984-55.565
		c0.633-0.524,1.568-0.434,2.092,0.199c0.522,0.633,0.433,1.569-0.199,2.092c-18.08,14.937-57.612,42.098-119.215,56.171
		C531.217,842.898,506.835,845,485.585,845z"/>
</g>
</svg>
