<?xml version="1.0" encoding="utf-8"?>
<!-- Generator: Adobe Illustrator 27.5.0, SVG Export Plug-In . SVG Version: 6.00 Build 0)  -->
<svg version="1.1" id="Capa_1" xmlns="http://www.w3.org/2000/svg" xmlns:xlink="http://www.w3.org/1999/xlink" x="0px" y="0px"
	 viewBox="0 0 425.2 425.2" style="enable-background:new 0 0 425.2 425.2;" xml:space="preserve">
<rect x="0.002" y="0.004" style="fill:#FFCD41;" width="425.196" height="425.196"/>
<g>
	
		<ellipse transform="matrix(0.0399 -0.9992 0.9992 0.0399 -18.6936 418.1974)" style="fill:none;stroke:#FFFFFF;stroke-width:1.645;stroke-linecap:round;stroke-linejoin:round;stroke-miterlimit:10;stroke-dasharray:2.1933,3.2899;" cx="208.269" cy="218.826" rx="148.177" ry="148.175"/>
	<g>
		<path style="fill:#FFFFFF;" d="M247.234,74.393c0,18.982-15.386,34.371-34.366,34.371c-18.985,0-34.372-15.388-34.372-34.371
			c0-18.985,15.387-34.372,34.372-34.372C231.849,40.021,247.234,55.408,247.234,74.393z"/>
		<g>
			<path style="fill:#EA3E48;" d="M201.605,47.382l-7.228,49.002c0,0,31.239,7.663,47.603-19.929L201.605,47.382z"/>
			<path style="fill:#FFFFFF;" d="M201.342,68.678c0.113,0.236,0.561,1.082,0.945,0.734c0.246-0.226,0.301-0.649,0.402-0.955
				c0.092-0.278,0.195-0.543,0.402-0.754c0.029-0.026,0.08-0.016,0.1,0.011c0.318,0.42,1.053,2.806,1.864,2.12
				c0.416-0.351,0.48-1.053,0.558-1.557c0.068-0.443,0.082-0.944,0.268-1.357c0.023-0.05,0.082-0.054,0.119-0.016
				c0.376,0.392,0.73,0.809,1.123,1.182c0.203,0.191,0.412,0.382,0.641,0.54c0.137,0.095,0.492,0.428,0.565,0.185
				c0.286-0.907-0.065-1.863,0.178-2.774c0.009-0.032,0.048-0.046,0.071-0.045c1.023,0.093,1.744,0.952,2.721,1.157
				c0.06,0.013,0.413,0.108,0.417-0.023c0.009-0.2,0.009-0.4,0-0.598c-0.013-0.33-0.04-0.659-0.077-0.987
				c-0.076-0.659-0.174-1.315-0.216-1.979c-0.004-0.045,0.029-0.083,0.077-0.078c1.273,0.163,2.383,0.888,3.639,1.124
				c0.055-0.292,0.057-0.585,0.026-0.876L203.01,54.98l-1.933,13.091C201.172,68.271,201.248,68.481,201.342,68.678z"/>
			<path style="fill:#8DC63F;" d="M235.551,71.825c0,0-3.729,8.357-17.544,14.192c-13.944,5.888-22.504,2.718-22.504,2.718
				l-1.125,7.649c0,0,31.239,7.663,47.603-19.929L235.551,71.825z"/>
			<path style="fill:#579C43;" d="M195.156,91.094l-0.778,5.291c0,0,31.239,7.663,47.603-19.929l-4.494-3.237
				c0,0-4.481,9.403-18.426,15.294C204.158,94.805,195.156,91.094,195.156,91.094z"/>
			<g>
				<path style="fill:#8E2014;" d="M201.729,81.211c0.729-0.046,2.53,4.475,0.26,4.614C199.816,85.955,200.74,81.27,201.729,81.211z
					"/>
				<path style="fill:#8E2014;" d="M209.02,80.347c0.733-0.044,2.531,4.477,0.26,4.615C207.111,85.094,208.033,80.408,209.02,80.347
					z"/>
				<path style="fill:#8E2014;" d="M225.079,71.349c-0.543,0.493,1.443,4.935,3.124,3.403
					C229.813,73.289,225.811,70.684,225.079,71.349z"/>
				<path style="fill:#8E2014;" d="M220.098,75.308c-0.539,0.493,1.443,4.936,3.127,3.404
					C224.831,77.249,220.826,74.643,220.098,75.308z"/>
				<path style="fill:#8E2014;" d="M214.891,78.41c0.686-0.256,3.723,3.546,1.59,4.337C214.442,83.504,213.963,78.754,214.891,78.41
					z"/>
				<path style="fill:#8E2014;" d="M204.018,74.38c0.66-0.093,2.621,3.897,0.564,4.183C202.611,78.837,203.121,74.504,204.018,74.38
					z"/>
				<path style="fill:#8E2014;" d="M209.705,73.193c0.664-0.092,2.625,3.897,0.568,4.184
					C208.304,77.651,208.813,73.318,209.705,73.193z"/>
				<path style="fill:#8E2014;" d="M219.438,67.817c-0.459,0.487,1.666,4.392,3.089,2.877
					C223.886,69.247,220.055,67.158,219.438,67.817z"/>
				<path style="fill:#8E2014;" d="M214.915,71.011c0.605-0.281,3.642,2.965,1.755,3.84
					C214.867,75.685,214.095,71.391,214.915,71.011z"/>
				<path style="fill:#8E2014;" d="M206.051,68.608c0.551-0.022,1.826,3.398,0.123,3.463
					C204.543,72.135,205.311,68.637,206.051,68.608z"/>
				<path style="fill:#8E2014;" d="M214.438,65.012c-0.415,0.361,1.004,3.722,2.287,2.603
					C217.955,66.543,214.996,64.524,214.438,65.012z"/>
				<path style="fill:#8E2014;" d="M210.48,67.25c0.521-0.18,2.736,2.721,1.121,3.279C210.064,71.063,209.783,67.495,210.48,67.25z"
					/>
			</g>
			<path style="fill:#DECCD5;" d="M201.605,47.382l-0.592,4.021c0.608,0.356,25.736,18.986,27.27,20.459
				c1.315,1.265,2.613,2.623,3.389,4.299c0.65,1.402,0.958,2.979,0.67,4.513c-0.322,1.696-1.247,3.21-2.518,4.364
				c-1.446,1.319-15.056,12.054-34.936,7.854l-0.511,3.492c0,0,31.239,7.663,47.603-19.929L201.605,47.382z"/>
		</g>
	</g>
	<g>
		<path style="fill:#FFFFFF;" d="M371.316,279.95c0,19.7-15.967,35.67-35.667,35.67c-19.702,0-35.669-15.97-35.669-35.67
			c0-19.7,15.967-35.669,35.669-35.669C355.35,244.282,371.316,260.25,371.316,279.95z"/>
		<g>
			<g>
				<g>
					<path style="fill:#579C43;" d="M333.176,246.648c0,0,11.355,12.896-0.127,32.036
						C333.049,278.685,321.244,258.887,333.176,246.648z"/>
					<path style="fill:#95C947;" d="M333.073,278.642c11.44-19.116,0.103-31.994,0.103-31.994c-0.033,0.036-0.066,0.074-0.103,0.11
						V278.642z"/>
				</g>
				<g>
					<path style="fill:#579C43;" d="M343.87,252.689c0,0,5.268,15.546-10.964,26.441C332.906,279.13,329.591,257.682,343.87,252.689
						z"/>
					<path style="fill:#95C947;" d="M332.941,279.106c16.191-10.895,10.929-26.418,10.929-26.418
						c-0.042,0.015-0.081,0.033-0.124,0.046L332.941,279.106z"/>
				</g>
				<g>
					<path style="fill:#579C43;" d="M321.462,252.596c0,0-5.406,15.501,10.733,26.534
						C332.195,279.13,335.697,257.71,321.462,252.596z"/>
					<path style="fill:#95C947;" d="M332.16,279.105c-16.096-11.031-10.698-26.509-10.698-26.509
						c0.04,0.015,0.081,0.032,0.122,0.047L332.16,279.105z"/>
				</g>
			</g>
			<path style="fill:#5A3E69;" d="M351.919,291.593c0,10.693-8.3,19.363-18.536,19.363c-10.237,0-18.535-8.67-18.535-19.363
				c0-10.693,8.298-19.362,18.535-19.362C343.619,272.23,351.919,280.899,351.919,291.593z"/>
			<path style="fill:#FFFFFF;" d="M322.334,293.594c0.619-0.848,1.004-1.833,1.156-2.869c0.295-1.913-0.073-3.879,0.723-5.705
				c0.389-0.898,0.987-1.602,1.621-2.336c0.649-0.748,1.365-1.631,1.375-2.678c0.011-0.871-0.379-1.677-0.85-2.394
				c-0.049-0.073-0.099-0.151-0.153-0.229c-4.438,1.298-7.691,5.55-7.691,10.597c0,2.596,0.859,4.979,2.3,6.862
				C321.408,294.589,321.918,294.167,322.334,293.594z"/>
			<path style="fill:#CCA6B9;" d="M333.383,272.23c-0.07,0-0.141,0.004-0.213,0.006c0.965,0.669,1.877,1.428,2.73,2.281
				c2.695,2.692,4.951,5.899,6.48,9.396c2.776,6.328,3.398,14.866-1.66,20.272c-1.988,2.124-4.566,3.559-7.459,3.969
				c-2.578,0.365-5.244,0.154-7.761-0.507c-1.602-0.422-3.232-1.046-4.739-1.879c3.31,3.218,7.742,5.189,12.621,5.189
				c10.236,0,18.536-8.67,18.536-19.363C351.919,280.899,343.619,272.23,333.383,272.23z"/>
		</g>
	</g>
	<g>
		<path style="fill:#FFFFFF;" d="M346.184,106.556c0,18.927-15.344,34.271-34.273,34.271c-18.927,0-34.271-15.344-34.271-34.271
			c0-18.929,15.345-34.272,34.271-34.272C330.84,72.284,346.184,87.627,346.184,106.556z"/>
		<g>
			<path style="fill:#EA3E48;" d="M337.109,106.584c0,15.765-10.125,24.905-25.227,24.905c-15.099,0-25.344-9.061-25.344-24.829
				c0-10.604,3.336-17.838,11.576-22.26c9.85-5.282,19.197-4.435,26.605-0.471C331.984,87.813,337.109,94.387,337.109,106.584z"/>
			<g>
				<path style="fill:#FFCD41;" d="M302.695,97.678c0.316-0.56,4.51,0.263,3.529,2.004
					C305.289,101.347,302.272,98.436,302.695,97.678z"/>
				<path style="fill:#FFCD41;" d="M302.661,114.034c-0.304-0.567,2.636-3.666,3.583-1.906
					C307.147,113.81,303.072,114.799,302.661,114.034z"/>
				<path style="fill:#FFCD41;" d="M300.93,108.214c-0.117-0.632,3.64-2.667,3.995-0.702
					C305.266,109.392,301.082,109.069,300.93,108.214z"/>
				<path style="fill:#FFCD41;" d="M301.215,102.85c0.118-0.633,4.35-1.212,3.986,0.752
					C304.857,105.479,301.059,103.703,301.215,102.85z"/>
			</g>
			<g>
				<path style="fill:#FFCD41;" d="M320.994,97.678c-0.314-0.56-4.51,0.263-3.529,2.004
					C318.399,101.347,321.42,98.436,320.994,97.678z"/>
				<path style="fill:#FFCD41;" d="M321.023,113.023c0.301-0.566-2.639-3.667-3.584-1.905
					C316.535,112.799,320.609,113.788,321.023,113.023z"/>
				<path style="fill:#FFCD41;" d="M322.47,108.214c0.113-0.632-3.646-2.667-3.999-0.702
					C318.137,109.392,322.317,109.069,322.47,108.214z"/>
				<path style="fill:#FFCD41;" d="M322.563,102.85c-0.113-0.633-4.348-1.212-3.985,0.752
					C318.924,105.479,322.723,103.703,322.563,102.85z"/>
			</g>
			<path style="fill:#FFE0AA;" d="M322.506,85.994c-6.445-3.517-14.583-4.271-23.156,0.42c-7.178,3.924-10.084,10.348-10.084,19.763
				c0,13.998,8.922,22.042,22.066,22.042c13.148,0,21.963-8.115,21.963-22.111C333.295,95.281,328.836,89.444,322.506,85.994z
				 M293.795,106.501c0-7.334,2.308-12.338,8.008-15.394c2.01-1.079,3.986-1.784,5.909-2.177c0.775,2.968,1.265,6.54,1.522,10.367
				c-1.947,1.234-3.291,3.811-3.291,6.794c0,3.001,1.356,5.585,3.318,6.813c-0.211,3.739-0.58,7.355-1.076,10.561
				C299.487,122.314,293.795,116.271,293.795,106.501z M315.621,123.275c-0.306-2.703-0.899-6.092-1.305-10.328
				c1.998-1.211,3.385-3.821,3.385-6.856c0-3.168-1.508-5.878-3.648-7.011c0.18-3.101,0.533-6.472,1.127-10.143
				c1.779,0.378,3.463,1.01,5.02,1.843c5.023,2.687,8.568,7.233,8.568,15.667C328.768,115.774,323.641,121.744,315.621,123.275z"/>
			<path style="fill:#DFD2D2;" d="M324.756,84.006c-3.434-1.836-7.287-3.001-11.409-3.2c0.236,0.108,0.477,0.22,0.714,0.336
				c3.955,1.929,8.307,4.322,11.211,7.712c2.453,2.863,3.965,6.302,4.566,10.021c0.64,3.98,0.922,8.332-0.203,12.253
				c-1.121,3.907-3.264,7.368-6.418,9.954c-3.31,2.712-9.818,3.922-13.99,4.04c-13.178,0.371-17.273-5.805-21.271-9.128
				c3.276,10.003,12.127,15.574,23.966,15.574c15.099,0,25.224-9.139,25.224-24.907C337.145,94.466,332.022,87.892,324.756,84.006z"
				/>
			<path style="fill:#FFFFFF;" d="M296.247,107.938c3.069-0.839,4.45-2.992,4.435-6.146c-0.018-3.378-0.705-6.559,0.84-9.725
				c0.797-1.642,2.064-3.166,2.653-4.894c0.015-0.038,0.024-0.077,0.036-0.115c-1.604,0.45-3.24,1.102-4.895,1.99
				c-6.145,3.295-8.629,8.687-8.629,16.589c0,0.931,0.053,1.825,0.148,2.691C292.65,108.421,294.508,108.414,296.247,107.938z"/>
		</g>
	</g>
	<g>
		<path style="fill:#FFFFFF;" d="M385.232,185.871c0,17.977-14.569,32.549-32.548,32.549c-17.978,0-32.551-14.572-32.551-32.549
			c0-17.976,14.572-32.549,32.551-32.549C370.662,153.322,385.232,167.895,385.232,185.871z"/>
		<g>
			<g>
				<path style="fill:#5F3814;" d="M356.966,173.588c0,0-0.413-11.704,1.942-16.326c0,0-2.037-1.806-4.959,0.818
					c0,0,0.497,12.58-0.001,15.063L356.966,173.588z"/>
				<path style="fill:#C4985C;" d="M358.908,157.262c0,0-0.597-0.526-1.604-0.596c0,0-0.787,5.107-1.029,6.928
					c-0.301,2.259-1.792,8.818-2.316,9.484c-0.004,0.02-0.01,0.045-0.011,0.065l3.018,0.445
					C356.966,173.588,356.553,161.884,358.908,157.262z"/>
			</g>
			<path style="fill:#FFCD41;" d="M370.456,190.184c-2.628,10.475-13.774,24.39-26.555,20.284
				c-8.554-2.749-3.657-9.264-6.327-24.954c-2.282-13.423,2.992-19.055,12.309-19.055c3.176,0,3.68,1.371,5.96,1.789
				c1.906,0.349,3.298-1.031,5.221-0.529C370.368,170.146,372.863,180.597,370.456,190.184z"/>
			<path style="fill:#FFFFFF;" d="M340.493,189.781c0.47,0.032,0.94,0.031,1.411-0.017c3.088-0.3,4.897-2.758,5.553-5.629
				c0.671-2.956,0.487-5.992,0.926-8.974c0.168-1.141,0.454-2.297,1.073-3.286c0.437-0.698,0.986-1.283,1.614-1.783
				c-0.559-0.259-1.209-0.476-2.277-0.476c-6.762,0-10.593,4.089-8.936,13.831C340.266,185.84,340.426,187.938,340.493,189.781z"/>
			<path style="fill:#FFD594;" d="M361.064,167.72c-0.148-0.04-0.29-0.063-0.434-0.081c0.374,1.258,0.768,2.515,1.046,3.788
				c1.064,4.862,0.91,9.946-0.111,14.809c-0.848,4.041-2.186,8.083-5.003,11.199c-1.313,1.45-2.835,2.753-4.489,3.801
				c-1.85,1.173-3.789,2.323-5.918,2.902c-1.965,0.537-4.158,0.736-6.084-0.05c-0.562-0.23-1.061-0.569-1.523-0.958
				c0.211,3.759,1.182,5.998,5.354,7.339c12.78,4.107,23.927-9.809,26.555-20.284C372.863,180.597,370.368,170.146,361.064,167.72z"
				/>
		</g>
	</g>
	<g>
		<path style="fill:#FFFFFF;" d="M151.021,107.786c0,18.928-15.345,34.271-34.271,34.271c-18.928,0-34.273-15.343-34.273-34.271
			c0-18.929,15.346-34.272,34.273-34.272C135.677,73.513,151.021,88.857,151.021,107.786z"/>
		<g>
			<path style="fill:#579C43;" d="M132.968,106.597c-1.227-4.809-2.787-6.764-2.457-13.188c0.354-6.851-0.78-11.501-8.164-13.07
				c-7.057-1.499-10.084,1.368-13.275,8.205c-2.386,5.11-3.109,6.969-5.98,10.177c-3.282,3.668-6.092,7.521-7.945,16.233
				c-2.241,10.549,4.584,17.144,15.375,19.438c10.793,2.293,20.256-0.332,22.499-10.879
				C134.484,116.615,134.775,113.68,132.968,106.597z"/>
			<path style="fill:#95C947;" d="M130.37,106.524c-0.984-4.246-2.277-5.963-1.934-11.656c0.367-6.072-0.539-10.181-6.731-11.497
				c-5.925-1.259-8.495,1.313-11.249,7.4c-2.055,4.551-2.684,6.206-5.13,9.076c-2.799,3.283-5.2,6.723-6.843,14.459
				c-1.988,9.367,3.684,15.142,12.736,17.065c9.051,1.923,17.035-0.495,19.025-9.863
				C131.547,115.383,131.821,112.782,130.37,106.524z"/>
			<path style="fill:#5F3814;" d="M125.457,116.697c-1.517,7.141-7.386,11.942-13.116,10.726c-5.726-1.216-9.139-7.992-7.621-15.133
				c1.518-7.141,7.391-11.943,13.119-10.726C123.567,102.78,126.978,109.556,125.457,116.697z"/>
			<path style="fill:#FFFFFF;" d="M108.72,113.083c1.494,0.151,3.119,0.15,4.14-1.141c0.599-0.76,1.052-1.595,1.405-2.495
				c0.609-1.544,1.049-4.02,2.692-4.862c0.376-0.192,0.752-0.31,1.131-0.374c-0.262-0.087-0.527-0.164-0.804-0.222
				c-4.637-0.985-9.383,2.727-10.861,8.365C107.14,112.747,107.93,113.003,108.72,113.083z"/>
			<path style="fill:#EFD0A6;" d="M121.04,102.968c1.533,2.108,2.609,4.531,2.815,7.108c0.374,4.704-1.195,9.337-4.767,12.513
				c-3.132,2.785-7.57,2.964-10.9,0.366c-2.273-1.779-2.932-4.389-3.819-6.894c0.136,5.617,3.273,10.362,7.972,11.361
				c5.73,1.217,11.6-3.585,13.116-10.726C126.665,111.017,124.751,105.573,121.04,102.968z"/>
			<path style="fill:#CFD8A6;" d="M132.968,106.597c-1.227-4.809-2.787-6.764-2.457-13.188c0.354-6.851-0.78-11.501-8.164-13.07
				c-1.524-0.324-2.859-0.444-4.05-0.363c0.128,0.075,0.259,0.147,0.38,0.219c1.573,0.938,3.122,2.268,4.053,3.87
				c2.367,4.058,1.068,8.409,1.214,12.82c0.171,5.341,6.018,13.355,3.837,24.85c-0.551,2.896-2.175,4.888-4.508,6.57
				c-4.706,3.386-9.98,3.028-15.354,0.642c-3.63-1.612-5.944-3.726-8.105-6.812c-2.43-3.469-4.668-7.18-4.668-7.18
				c-2.241,10.549,4.584,17.144,15.375,19.438c10.793,2.293,20.256-0.332,22.499-10.879
				C134.484,116.615,134.775,113.68,132.968,106.597z"/>
			<path style="fill:#FFFFFF;" d="M103.47,101.404c0.75,0.645,1.725,0.703,2.67,0.548c1.605-0.262,3-1.02,4.104-2.218
				c2.305-2.512,3.307-5.61,4.228-8.823c0.694-2.425,2.047-5.775,4.146-7.669c-3.85-0.351-6.21,1.433-8.177,5.645
				c-1.649,3.528-1.664,5.054-3.643,7.268c-1.296,1.449-2.487,2.94-3.506,5.078C103.352,101.292,103.407,101.349,103.47,101.404z"/>
		</g>
	</g>
	<g>
		<path style="fill:#FFFFFF;" d="M104.645,185.87c0,19.141-15.518,34.659-34.659,34.659c-19.143,0-34.659-15.518-34.659-34.659
			c0-19.142,15.517-34.657,34.659-34.657C89.127,151.213,104.645,166.729,104.645,185.87z"/>
		<g>
			<path style="fill:#579C43;" d="M66.701,201.126c0,0-1.512-3.724-4.782-5.991c-4.534-3.145-2.427-10.486,1.249-12.522
				c3.073-1.701,2.055-5.396,3.277-8.058c1.228-2.663,2.899-6.23,7.11-5.974c4.215,0.255,3.726-1.514,6.493-3.422
				c3.85-2.656,9.695,0.853,10.453,4.476c0.753,3.625-1.804,5.405,1.434,7.674c3.24,2.271,1.005,5.522-0.193,7.608
				c-1.197,2.085-1.246,5.378-0.877,8.144c0.474,3.556-2.169,7.24-7.734,8.815c-4.98,1.41-8.562,0.287-10.277,1.753L66.701,201.126z
				"/>
			<path style="fill:#FFFFFF;" d="M70.066,175.671c0.41,1.45,2.381,1.2,3.517,0.896c0.558-0.148,1.142-0.328,1.627-0.647
				c0.535-0.35,1.013-0.775,1.567-1.107c1.148-0.692,2.385-1.222,3.625-1.733c1.033-0.424,1.825-0.801,2.408-1.792
				c0.475-0.808,0.787-1.719,0.912-2.65c0.104-0.749,0.104-1.605-0.088-2.377c-0.912-0.023-1.815,0.195-2.607,0.745
				c-2.226,1.533-1.834,2.953-5.218,2.748c-3.384-0.205-4.73,2.662-5.711,4.801c-0.058,0.122-0.106,0.249-0.152,0.378
				C69.967,175.182,69.998,175.43,70.066,175.671z"/>
			<path style="fill:#C6D291;" d="M91.936,177.309c-3.237-2.269-0.681-4.049-1.434-7.674c-0.33-1.58-1.63-3.138-3.311-4.173
				c0.189,0.719,0.275,1.46,0.232,2.204c-0.082,1.596-0.483,3.153-0.695,4.735c-0.152,1.117-0.381,2.321-0.104,3.437
				c0.579,2.305,2.703,4.023,2.998,6.432c0.188,1.583-0.676,2.839-1.301,4.211c-0.801,1.741-0.49,3.671-0.928,5.505
				c-0.676,2.833-2.596,5.234-5.385,6.212c-1.578,0.554-3.217,0.629-4.877,0.706c-2.034,0.092-4.086,0.127-6.117-0.085
				c-1.693-0.177-3.266-0.456-4.712-1.395c-1.226-0.796-2.349-1.775-3.682-2.382c0.006,0.071-0.036,0.145-0.13,0.142
				c-0.18-0.008-0.357-0.016-0.535-0.023c3.242,2.27,4.744,5.966,4.744,5.966l6.152,2.502c1.716-1.466,5.297-0.343,10.277-1.753
				c5.565-1.575,8.208-5.259,7.734-8.815c-0.369-2.766-0.32-6.059,0.877-8.144C92.94,182.831,95.176,179.579,91.936,177.309z"/>
			<path style="fill:#579C43;" d="M71.666,201.126c0,0,1.514-3.724,4.781-5.991c4.537-3.145,2.426-10.486-1.246-12.522
				c-3.073-1.701-2.055-5.396-3.279-8.058c-1.222-2.663-2.895-6.23-7.107-5.974c-4.212,0.255-3.727-1.514-6.494-3.422
				c-3.85-2.656-9.695,0.853-10.451,4.476c-0.756,3.625,1.801,5.405-1.438,7.674c-3.238,2.271-1.004,5.522,0.193,7.608
				c1.199,2.085,1.248,5.378,0.879,8.144c-0.475,3.556,2.168,7.24,7.732,8.815c4.983,1.41,8.758,0.287,10.473,1.753L71.666,201.126z
				"/>
			<path style="fill:#FFFFFF;" d="M69.488,176.488c-0.412,1.45-2.379,1.2-3.514,0.896c-0.558-0.15-1.139-0.328-1.632-0.646
				c-0.532-0.351-1.011-0.777-1.561-1.108c-1.154-0.693-2.385-1.223-3.628-1.733c-1.034-0.424-1.827-0.801-2.408-1.792
				c-0.475-0.808-0.788-1.719-0.913-2.65c-0.104-0.75-0.105-1.606,0.087-2.377c0.911-0.025,1.812,0.194,2.609,0.743
				c2.225,1.533,1.831,2.954,5.216,2.749c3.387-0.205,4.731,2.661,5.714,4.8c0.057,0.123,0.106,0.249,0.15,0.378
				C69.59,175.998,69.561,176.243,69.488,176.488z"/>
			<path style="fill:#C6D291;" d="M64.719,197.925c-2.35-0.385-4.748-0.094-7.111,0.034c-1.124,0.062-2.26,0.11-3.381,0.004
				c-0.973-0.092-1.995-0.237-2.767-0.882c-1.665-1.387-1.842-3.881-1.807-5.894c0.03-1.624,0.362-3.253,0.302-4.874
				c-0.034-1.08-0.337-1.985-0.861-2.921c-0.342-0.602-0.758-1.235-0.897-1.925c-0.55-2.774,2.396-4.342,3.544-6.447
				c0.754-1.38,0.504-2.998,0.916-4.486c0.404-1.45,1.078-2.811,1.992-4.008c0.587-0.771,1.242-1.479,1.943-2.135
				c-3.672-0.891-8.074,2.132-8.723,5.245c-0.756,3.625,1.801,5.405-1.438,7.674c-3.238,2.271-1.004,5.522,0.193,7.608
				c1.199,2.085,1.248,5.378,0.879,8.144c-0.475,3.556,2.168,7.24,7.732,8.815c4.983,1.41,8.758,0.287,10.473,1.753l4.239-1.78
				C68.945,199.674,67.117,198.316,64.719,197.925z"/>
			<path style="fill:#95C947;" d="M84.82,187.395c-1.338-2.447-2.481-5.535-2.113-7.912c0.363-2.377,1.279-6.217-2.562-7.169
				c-3.841-0.949-2.097-3.53-4.108-6.639c-2.009-3.108-8.724-4.274-11.361-0.409c-1.893,2.778-0.802,4.252-4.822,5.532
				c-4.021,1.28-4.298,5.212-4.48,8.136c-0.182,2.925,2.1,6.003-0.152,8.698c-2.694,3.221-2.015,10.83,3.348,12.13
				c3.374,0.817,6.519,2.955,6.984,3.731c2.676,4.481,0.438,11.78,0.438,11.78h6.619c0,0-1.686-7.306,0.826-12.201
				c0.752-1.46,3.707-1.931,7.35-4.669C85.41,194.931,86.545,190.543,84.82,187.395z"/>
			<path style="fill:#C6D291;" d="M84.82,187.395c-1.338-2.447-2.481-5.535-2.113-7.912c0.363-2.377,1.279-6.217-2.562-7.169
				c-3.841-0.949-2.097-3.53-4.108-6.639c-1.643-2.539-6.422-3.78-9.557-2.045c0.23-0.021,0.463-0.032,0.695-0.026
				c0.649,0.015,1.289,0.131,1.813,0.534c0.502,0.386,0.884,0.959,1.239,1.479c0.462,0.689,0.953,1.362,1.349,2.093
				c0.429,0.784,0.818,1.61,1.351,2.328c0.951,1.271,2.313,2.127,3.511,3.138c0.979,0.827,2.212,1.949,2.487,3.272
				c0.158,0.774-0.133,1.391-0.252,2.143c-0.187,1.186,0.577,1.87,1.116,2.805c0.817,1.417,1.288,3.001,1.491,4.62
				c0.227,1.775,0.204,3.58-0.012,5.357c-0.188,1.529-0.47,3.016-1.36,4.311c-0.9,1.311-2.093,2.267-3.413,3.129
				c-0.844,0.553-1.729,1.117-2.381,1.899c-0.529,0.634-0.945,1.351-1.35,2.071c-0.67,1.198-2.986,5.761-4.813,3.574
				c-0.648-0.776-0.828-1.837-1.262-2.726c-0.765-1.564-2.154-2.738-3.587-3.674c-2.655-1.737-5.523-3.778-8.741-3.945
				c0.748,1.784,2.12,3.246,4.205,3.751c3.374,0.817,6.519,2.955,6.984,3.731c2.676,4.481,0.438,11.78,0.438,11.78h6.619
				c0,0-1.686-7.306,0.826-12.201c0.752-1.46,3.707-1.931,7.35-4.669C85.41,194.931,86.545,190.543,84.82,187.395z"/>
			<g>
				<path style="fill:#579C43;" d="M68.84,200.224c-1.041-0.751-1.955-1.528-2.862-2.302c-0.901-0.778-1.777-1.556-2.647-2.327
					c-0.876-0.772-1.746-1.54-2.637-2.306c-0.889-0.776-1.799-1.527-2.748-2.397c1.292,0.052,2.52,0.46,3.658,1.01
					c1.133,0.56,2.184,1.282,3.121,2.114c0.939,0.834,1.773,1.778,2.484,2.808c0.354,0.517,0.678,1.055,0.957,1.619
					C68.442,199.007,68.69,199.591,68.84,200.224z"/>
				<path style="fill:#579C43;" d="M68.84,200.224c0.15-0.632,0.405-1.217,0.682-1.782c0.284-0.564,0.61-1.102,0.965-1.619
					c0.715-1.03,1.555-1.971,2.5-2.805c0.941-0.833,1.99-1.555,3.131-2.114c1.139-0.55,2.367-0.958,3.66-1.012
					c-0.951,0.871-1.865,1.622-2.756,2.4c-0.893,0.768-1.766,1.536-2.645,2.307c-0.877,0.772-1.756,1.549-2.661,2.327
					C70.807,198.7,69.885,199.476,68.84,200.224z"/>
				<path style="fill:#579C43;" d="M69.293,192.504c-0.988-0.679-1.838-1.389-2.683-2.102c-0.836-0.713-1.644-1.43-2.446-2.146
					l-2.408-2.148c-0.805-0.729-1.633-1.439-2.5-2.274c1.211,0.017,2.354,0.387,3.418,0.89c1.057,0.513,2.03,1.185,2.896,1.962
					c0.867,0.777,1.635,1.659,2.279,2.626c0.32,0.484,0.611,0.989,0.861,1.518C68.955,191.361,69.174,191.909,69.293,192.504z"/>
				<path style="fill:#579C43;" d="M69.293,192.504c0.123-0.595,0.343-1.143,0.586-1.675c0.248-0.529,0.541-1.034,0.861-1.518
					c0.647-0.967,1.411-1.848,2.278-2.626c0.868-0.777,1.841-1.45,2.901-1.962c1.061-0.503,2.204-0.873,3.412-0.89
					c-0.863,0.835-1.693,1.545-2.502,2.274l-2.406,2.148c-0.803,0.716-1.609,1.433-2.443,2.146
					C71.137,191.115,70.282,191.825,69.293,192.504z"/>
				<path style="fill:#579C43;" d="M69.293,184.938c-0.903-0.686-1.668-1.391-2.426-2.094c-0.748-0.706-1.471-1.41-2.184-2.109
					c-0.717-0.698-1.428-1.395-2.158-2.093c-0.73-0.706-1.482-1.391-2.283-2.2c1.145-0.01,2.234,0.346,3.23,0.841
					c0.995,0.504,1.895,1.174,2.681,1.945c0.79,0.772,1.466,1.646,2.015,2.597c0.271,0.477,0.513,0.971,0.707,1.489
					C69.068,183.831,69.23,184.366,69.293,184.938z"/>
				<path style="fill:#579C43;" d="M69.293,184.938c0.117-0.581,0.332-1.115,0.566-1.635c0.24-0.518,0.521-1.01,0.83-1.483
					c0.619-0.942,1.359-1.806,2.195-2.57c0.836-0.765,1.777-1.429,2.806-1.936c1.03-0.499,2.149-0.867,3.333-0.872
					c-0.838,0.823-1.627,1.526-2.402,2.245l-2.318,2.122c-0.771,0.702-1.556,1.405-2.371,2.101
					C71.109,183.602,70.271,184.291,69.293,184.938z"/>
			</g>
			<path style="fill:#FFFFFF;" d="M57.598,188.444c0.082,0.03,0.166,0.06,0.25,0.085c0.887,0.268,1.949,0.157,2.832-0.081
				c1.303-0.351,2.368-1.135,2.722-2.486c0.386-1.448,0.17-2.96,0.116-4.433c-0.041-1.157-0.067-2.493,0.591-3.509
				c0.707-1.095,1.84-1.817,2.526-2.94c0.814-1.334,1.137-2.911,1.137-4.465c0.002-1.025-0.099-2.067-0.471-2.994
				c-0.449,0.302-0.851,0.682-1.173,1.158c-1.565,2.295-0.659,3.514-3.989,4.574c-3.324,1.057-3.55,4.307-3.702,6.726
				c-0.149,2.419,1.735,4.964-0.126,7.192C58.025,187.609,57.787,188.007,57.598,188.444z"/>
		</g>
	</g>
	<g>
		<path style="fill:#FFFFFF;" d="M101.889,281.25c0,18.982-15.386,34.37-34.369,34.37c-18.982,0-34.373-15.388-34.373-34.37
			c0-18.985,15.391-34.371,34.373-34.371C86.503,246.879,101.889,262.265,101.889,281.25z"/>
		<g>
			<g>
				<path style="fill:#AD2032;" d="M71.195,262.541c0,0,7.332-2.075,12.032,6.642c2.962,5.492,4.497,42.753-11.917,32.725
					c0,0,1.979-3.731,1.979-19.677C73.29,264.707,71.195,262.541,71.195,262.541z"/>
				<path style="fill:#AD2032;" d="M63.248,263.339c0,0-9.932-2.74-13.006,5.578c-2.148,5.817-3.637,42.955,12.775,33.003
					c0,0-1.98-3.703-1.98-19.528C61.037,265.002,63.248,263.339,63.248,263.339z"/>
				<path style="fill:#AD2032;" d="M58.129,266.91c0.598,18.943-1.289,36.436,9.274,36.436c7.339,0,7.804-12.44,7.591-36.05
					C74.913,258.236,57.887,259.234,58.129,266.91z"/>
			</g>
			<path style="fill:#95C947;" d="M56.16,266.074c0,0,1.214-2.448,9.996-1.157c2.475,0.364,5.746-2.477,10.744,1.146
				c0,0-7.514,2.35-10.604,2.305C63.697,268.331,59.237,268.167,56.16,266.074z"/>
			<path style="fill:#EA3E48;" d="M69.985,267.388c0,0,9.118-5.018,13.683,1.268c5.1,7.02,5.691,47.646-12.279,37.467
				c0,0,2.167-3.786,2.167-19.972C73.556,268.365,69.985,267.388,69.985,267.388z"/>
			<path style="fill:#EA3E48;" d="M63.705,267.695c0,0-10.035-4.789-14.01,1.425c-5.005,7.826-5.364,47.116,12.609,37.015
				c0,0-2.167-3.758-2.167-19.82C60.138,268.664,63.705,267.695,63.705,267.695z"/>
			<path style="fill:#D72C41;" d="M66.297,266.957c-3.404-0.071-8.17-2.296-8.17,6.225c0,19.237-2.586,34.399,8.98,34.399
				c8.037,0,8.115-9.863,7.799-33.825C74.773,263.821,69.752,267.028,66.297,266.957z"/>
			<path style="fill:#FFFFFF;" d="M54.24,287.775c2.779-0.797,4.041-3.45,4.47-6.12c0.238-1.457,0.185-2.905,0.222-4.372
				c0.037-1.547,0.201-3.039,0.529-4.55c0.2-0.931,0.473-1.899,1.067-2.662c0.158-0.199,0.328-0.379,0.514-0.542
				c-2.469-0.756-6.703-1.442-8.775,1.798c-1.623,2.536-2.601,9.402-2.144,15.869C51.286,288.021,52.768,288.198,54.24,287.775z"/>
			<path style="fill:#DCB9CA;" d="M83.668,268.656c-1.613-2.22-3.791-3.028-5.939-3.147c1.164,3.233,1.867,6.607,2.486,9.981
				c0.359,1.937,0.704,3.863,0.801,5.834c0.1,2.037,0.022,4.077-0.207,6.104c-0.113,1.02-0.258,2.034-0.359,3.056
				c-0.08,0.825-0.159,1.675-0.423,2.465c-0.468,1.395-1.254,2.744-2.128,3.92c-1.648,2.224-4.125,4.396-7.068,4.372
				c-1.849-0.017-3.625-0.414-5.377-0.991c-2.059-0.681-4.113-0.082-6.022,0.771c-2.605,1.164-5.916,2.525-8.396,0.364
				c-0.947-0.827-1.82-2.203-2.85-3.249c2.02,7.487,6.324,12.302,14,8.065c1.256,0.897,2.863,1.38,4.922,1.38
				c1.832,0,3.25-0.515,4.344-1.59c-0.04,0.091-0.063,0.131-0.063,0.131C89.359,316.301,88.768,275.675,83.668,268.656z"/>
			<g>
				<path style="fill:#95C947;" d="M67.265,265.934c0,0-0.474-8.232,2.796-13.423c0,0-3.525-1.794-7.945,1.282
					c0,0,2.884,9.345,2.371,12.075L67.265,265.934z"/>
				<path style="fill:#CFD8A6;" d="M70.061,252.511c0,0-1.031-0.523-2.676-0.519c0,0-0.531,5.608-0.838,7.584
					c-0.18,1.169-1.285,5.454-2.051,6.215c-0.005,0.024-0.008,0.052-0.01,0.075l2.778,0.066
					C67.265,265.933,66.791,257.701,70.061,252.511z"/>
			</g>
		</g>
	</g>
	<g>
		<path style="fill:#5F3814;" d="M230.125,139.464c0,10.854-10.002,19.673-22.359,19.673c-12.361,0-22.375-8.819-22.375-19.673
			c0-10.864,10.014-19.66,22.375-19.66C220.123,119.804,230.125,128.6,230.125,139.464z"/>
		<path style="fill:#F495BF;" d="M188.094,149.63c0,0,17.244-19.228,39.326,0C227.42,149.63,210.7,159.137,188.094,149.63z"/>
		<rect x="191.607" y="232.956" style="fill:#F68F78;" width="32.299" height="29.637"/>
		<path style="fill:#F69583;" d="M239.91,209.873c-5.295,30.032-18.377,34.807-33.209,34.807c-13.33,0-25.6-14.186-28.964-30.96
			c-1.515-7.555-6.716-34.536-6.716-34.536c0-20.295,16.447-33.516,36.732-33.516l0,0c20.295,0,36.74,13.221,36.74,33.516
			C244.494,179.184,241.924,198.442,239.91,209.873z"/>
		<g>
			<g>
				<path style="fill:#F47F7A;" d="M231.084,216.115c0,2.179-3.214,3.947-7.182,3.947c-3.96,0-7.172-1.768-7.172-3.947
					c0-2.19,3.212-3.963,7.172-3.963C227.87,212.152,231.084,213.924,231.084,216.115z"/>
				<path style="fill:#F47F7A;" d="M198.405,216.115c0,2.179-3.212,3.947-7.176,3.947c-3.966,0-7.177-1.768-7.177-3.947
					c0-2.19,3.211-3.963,7.177-3.963C195.193,212.152,198.405,213.924,198.405,216.115z"/>
			</g>
			
				<path style="fill:none;stroke:#5F3814;stroke-width:1.5622;stroke-linecap:round;stroke-linejoin:round;stroke-miterlimit:10;" d="
				M216.188,205.241c0-0.044-0.002-0.089-0.002-0.132c0-3.827,2.963-6.928,6.615-6.928c3.652,0,6.615,3.101,6.615,6.96"/>
			
				<path style="fill:none;stroke:#5F3814;stroke-width:1.5622;stroke-linecap:round;stroke-linejoin:round;stroke-miterlimit:10;" d="
				M186.867,205.241c-0.001-0.044-0.001-0.089-0.001-0.132c0-3.827,2.96-6.928,6.615-6.928c3.651,0,6.612,3.101,6.612,6.96"/>
			<path style="fill:#5F3814;" d="M184.545,196.684c-0.338,0.549-0.789-1.197-0.109-2.42c1.908-3.432,10.338-5.55,13.508-3.314
				C200.067,192.45,189.201,189.175,184.545,196.684z"/>
			<path style="fill:#5F3814;" d="M230.51,196.684c0.342,0.549,0.791-1.197,0.107-2.42c-1.904-3.432-10.336-5.55-13.504-3.314
				C214.988,192.45,225.852,189.175,230.51,196.684z"/>
			<path style="fill:#F47F7A;" d="M210.84,196.265c1.609,1.861,2.5,13.326,1.767,20.334c-0.483,4.615-12.874,5.442-9.937-0.975
				c3.678-8.039,1.986-16.475,3.048-18.873C206.438,195.126,209.113,194.27,210.84,196.265z"/>
			<g>
				<path style="fill:#EA3E48;" d="M221.925,223.636c-14.501,7.812-26.171,0-26.171,0s0.383,13.804,13.186,13.804
					C221.743,237.439,221.925,223.636,221.925,223.636z"/>
				<path style="fill:#F495BF;" d="M208.352,232.873c-4.799,0.118-5.74,2.223-5.961,2.96c1.758,1.214,3.84,1.606,6.549,1.606
					c3.494,0,6.449-0.94,7.879-2.537C216.324,233.898,214.597,232.721,208.352,232.873z"/>
				<path style="fill:#FFFFFF;" d="M198.428,225.011c0,0,0.038,2.793,1.585,3.261c1.909,0.579,8.472,2.428,16.595,0.274
					c0,0,1.768-0.395,2.422-3.536C219.029,225.011,209.387,228.578,198.428,225.011z"/>
			</g>
		</g>
		<path style="fill:#5F3814;" d="M245.975,196.43c0,0-3.373,1.467-7.623,1.467c0,0-10.61-14.873-7.582-30.316
			c0,0-16.465,12.405-32.084,12.927c-15.611,0.537-21.398,6.255-25.507,17.196c0,0-7.081-12.682-1.456-28.792
			c7.471-21.405,25.758-23.863,36.72-23.863C226.352,145.049,249.643,156.395,245.975,196.43z"/>
		<path style="fill:#F69583;" d="M179.948,200.817c0.655,4.224-1.344,8.045-4.468,8.535c-3.14,0.483-6.207-2.533-6.874-6.755
			c-0.659-4.216,1.33-8.031,4.46-8.526C176.198,193.577,179.279,196.6,179.948,200.817z"/>
		<path style="fill:#F69583;" d="M247.035,202.671c-0.727,4.212-3.845,7.192-6.964,6.66c-3.128-0.544-5.071-4.389-4.349-8.599
			c0.721-4.204,3.826-7.184,6.949-6.652C245.797,194.611,247.752,198.461,247.035,202.671z"/>
		<path style="fill:#EA507E;" d="M243.152,209.122c0,1.716-1.394,3.107-3.108,3.107c-1.716,0-3.105-1.391-3.105-3.107
			c0-1.716,1.389-3.108,3.105-3.108C241.759,206.014,243.152,207.405,243.152,209.122z"/>
		<path style="fill:#EA507E;" d="M180.072,209.122c0,1.716-1.391,3.107-3.106,3.107c-1.717,0-3.109-1.391-3.109-3.107
			c0-1.716,1.392-3.108,3.109-3.108C178.682,206.014,180.072,207.405,180.072,209.122z"/>
		<path style="fill:#EA507E;" d="M139.911,425.2h131.817l-1.166-102.663l8.365-46.583c0-5.431-14.805-12.008-21.139-14.049
			c-10.428-3.354-33.883-7.799-33.883-7.799s-2.029,6.395-15.629,6.395c-12.383,0-16.67-6.693-16.67-6.693
			s-25.299,6.249-34.463,9.789c-6.752,2.607-24.109,8.926-24.109,13.11l7.449,45.864L139.911,425.2z"/>
		<path style="fill:#F69583;" d="M313.014,425.2c-0.838-13.865-2.533-35.837-3.724-51.537H272.6
			c2.27,15.545,5.728,38.184,7.94,51.537H313.014z"/>
		<path style="fill:#F69583;" d="M131.129,425.2c1.68-17.95,4.525-47.604,5.518-53.229h-35.012
			c-1.569,15.032-2.9,35.786-4.783,53.229H131.129z"/>
		<path style="fill:#EA507E;" d="M313.283,377.51c-2.989-28.587-6.861-54.567-11.789-69.208
			c-10.689-31.748-25.757-37.236-25.757-37.236s-7.511,9.135-7.716,55.934c-0.074,17.108,2.905,37.393,5.215,50.51H313.283z"/>
		<path style="fill:#EA507E;" d="M138.461,377.51c2.226-13.098,4.824-31.866,4.754-47.855c-0.204-46.8-7.715-55.935-7.715-55.935
			s-15.066,5.487-25.757,37.236c-4.778,14.186-8.56,39.02-11.511,66.553H138.461z"/>
		<g>
			<path style="fill:#DCDDDE;" d="M214.65,255.939c-1.764-3.507-7.77-14.746-8.073-14.615c-0.276,0.118,5.823,15.667,5.823,15.667
				l-0.483,0.225c0,0-7.419-13.878-7.603-13.793c-0.193,0.089,5.497,14.775,5.497,14.775l-0.626,0.294
				c0,0-7.398-13.887-7.604-13.794c-0.215,0.1,5.497,14.775,5.497,14.775l-0.429,0.202c0,0-7.898-14.741-8.08-14.649
				c-0.211,0.11,4.293,12.128,5.857,15.76c0.826,1.921,2.436,5.407,6.953,5.903l19.85,42.505c0,0,0.794,1.556,2.412,0.802
				c1.491-0.696,0.83-2.316,0.83-2.316l-19.845-42.499C217.11,261.648,215.628,257.883,214.65,255.939z"/>
			<path style="fill:#E6E7E8;" d="M214.246,255.12c-1.763-3.507-7.365-13.926-7.669-13.796c-0.276,0.118,5.823,15.667,5.823,15.667
				l-0.483,0.225c0,0-7.419-13.878-7.603-13.793c-0.193,0.089,5.497,14.775,5.497,14.775l-0.626,0.294
				c0,0,24.442,51.51,24.457,51.504c1.491-0.696,0.83-2.316,0.83-2.316l-19.845-42.499
				C217.395,261.412,215.227,257.064,214.246,255.12z"/>
		</g>
		<g>
			<path style="fill:#F68F7E;" d="M310.842,425.2c-8.35-31.702-59.83-106.45-59.83-106.45l-17.648,8.004
				c0,0,28.685,71.29,41.564,98.446H310.842z"/>
			<path style="fill:#F68F7E;" d="M236.475,334.449c-11.006-6.167-13.525-10.246-13.525-10.246
				c-8.472-4.147-3.148-10.665-3.148-10.665c-5.846-4.083-1.418-9.144-1.418-9.144c-4.563-7.308,2.723-10.865,2.723-10.865
				c-7.99-10.693-0.199-14.425,2.951-12.752c13.928,7.403,23.1,16.489,24.34,23.91c1.871,11.216,3.48,15.326,3.48,15.326
				L236.475,334.449z"/>
		</g>
		<g>
			<path style="fill:#FFCD41;" d="M212.318,253.088c-4.768,4.228-14.828,7.298-19.688,1.042c-3.254-4.186,1.301-5.73,5.225-14.263
				c3.355-7.3,7.8-8.287,12.339-5.186c1.546,1.056,1.336,1.893,2.308,2.855c0.813,0.804,1.951,0.596,2.721,1.481
				C218.947,243.296,216.684,249.218,212.318,253.088z"/>
			<path style="fill:#FFDE8E;" d="M211.131,252.167c-4.096,3.632-12.742,6.271-16.918,0.895c-2.795-3.597,1.119-4.924,4.49-12.256
				c2.884-6.272,6.705-7.12,10.602-4.455c1.33,0.908,1.15,1.626,1.984,2.453c0.699,0.691,1.677,0.512,2.338,1.271
				C216.827,243.752,214.883,248.841,211.131,252.167z"/>
			<path style="fill:#FFFFFF;" d="M197.855,242.917c0.219,0.173,0.449,0.329,0.693,0.463c1.605,0.881,3.306,0.286,4.579-0.896
				c1.313-1.217,2.232-2.755,3.441-4.063c0.46-0.5,0.985-0.967,1.615-1.243c0.445-0.195,0.908-0.297,1.381-0.332
				c-0.186-0.312-0.431-0.634-0.951-0.989c-3.295-2.252-6.522-1.535-8.96,3.763C199.057,240.921,198.439,241.998,197.855,242.917z"
				/>
			<path style="fill:#FFD594;" d="M215.223,239.018c-0.06-0.069-0.12-0.128-0.185-0.184c-0.238,0.737-0.464,1.48-0.751,2.194
				c-1.102,2.724-2.868,5.148-4.984,7.177c-1.758,1.687-3.756,3.21-6.166,3.791c-1.121,0.27-2.298,0.397-3.453,0.357
				c-1.289-0.044-2.619-0.131-3.85-0.557c-1.137-0.393-2.27-1.025-2.944-2.048c-0.198-0.3-0.329-0.631-0.424-0.976
				c-1.151,1.902-1.423,3.316,0.165,5.358c4.859,6.256,14.92,3.187,19.688-1.042C216.684,249.218,218.947,243.296,215.223,239.018z"
				/>
		</g>
	</g>
</g>
</svg>
