<?xml version="1.0" encoding="utf-8"?>
<!-- Generator: Adobe Illustrator 27.5.0, SVG Export Plug-In . SVG Version: 6.00 Build 0)  -->
<svg version="1.1" id="Layer_1" xmlns="http://www.w3.org/2000/svg" xmlns:xlink="http://www.w3.org/1999/xlink" x="0px" y="0px"
	 viewBox="0 0 393 428" style="enable-background:new 0 0 393 428;" xml:space="preserve">
<g>
	<g>
		<g>
			<g>
				<g>
					<g>
						<path style="fill:#E78F98;stroke:#CC6566;stroke-linecap:round;stroke-linejoin:round;stroke-miterlimit:10;" d="
							M233.618,222.536c-9.534,0.696-13.023-12.794-13.023-12.794s-9.072,13.956-21.167,16.514
							c-12.094,2.558-19.305-8.839-19.305-8.839s-7.443,15.585-16.98,15.585c-9.535,0-20.467-11.398-20.467-11.398
							s-10.932,15.119-26.05,4.652c-7.443,7.675-18.143,7.907-24.654-1.163c-1.163,16.979-9.304,23.492-26.05,2.792
							c0,0,4.418,13.489,1.395,19.769c3.721,0.931,6.048,4.885,5.815,6.513c3.024-3.954,5.35-4.187,12.095-1.628
							c6.745,2.558,22.096,2.326,25.352,7.211c6.512-4.653,19.537-10.699,40.935,3.489c7.211-7.211,12.56-3.955,16.282-2.327
							c3.722,1.629,14.421-4.419,21.398,0.466c6.279-7.443,14.653-5.116,19.77-3.489c5.119,1.629,10.699,1.163,14.42-1.163
							c3.722-2.326,9.537-0.93,10.931,0.232c0.467-5.117,7.91-7.443,12.561-6.28c4.651,1.163,12.558,1.395,16.979-1.163
							c4.419-2.558,11.862-2.094,13.024,0.232c0.137-0.331,0.279-0.666,0.426-1.003c-0.065,0.078-0.129,0.149-0.192,0.229
							c0,0-0.619-7.755,0-19.849c0.621-12.095-6.821-26.05-20.778-28.531C255.249,210.208,245.248,221.837,233.618,222.536z"/>
					</g>
					<g style="opacity:0.5;">
						<path style="fill:#F4A3AA;" d="M233.618,222.536c-9.534,0.696-13.023-12.794-13.023-12.794s-9.072,13.956-21.167,16.514
							c-12.094,2.558-19.305-8.839-19.305-8.839s-7.443,15.585-16.98,15.585c-9.535,0-20.467-11.398-20.467-11.398
							s-10.932,15.119-26.05,4.652c-7.443,7.675-18.143,7.907-24.654-1.163c-1.163,16.979-9.304,23.492-26.05,2.792
							c0,0,4.418,13.489,1.395,19.769c3.721,0.931,6.048,4.885,5.815,6.513c3.024-3.954,5.35-4.187,12.095-1.628
							c6.745,2.558,22.096,2.326,25.352,7.211c6.512-4.653,19.537-10.699,40.935,3.489c7.211-7.211,12.56-3.955,16.282-2.327
							c3.722,1.629,14.421-4.419,21.398,0.466c6.279-7.443,14.653-5.116,19.77-3.489c5.119,1.629,10.699,1.163,14.42-1.163
							c3.722-2.326,9.537-0.93,10.931,0.232c0.467-5.117,7.91-7.443,12.561-6.28c4.651,1.163,12.558,1.395,16.979-1.163
							c4.419-2.558,11.862-2.094,13.024,0.232c0.137-0.331,0.279-0.666,0.426-1.003c-0.065,0.078-0.129,0.149-0.192,0.229
							c0,0-0.619-7.755,0-19.849c0.621-12.095-6.821-26.05-20.778-28.531C255.249,210.208,245.248,221.837,233.618,222.536z"/>
					</g>
					<g style="opacity:0.5;">
						<path style="fill:#F4A3AA;" d="M140.635,239.003c5.621-1.181,12.89,0.118,19.768,1.188
							c26.987,4.199,58.533,2.118,82.925-11.144c5.764-3.134,10.831-8.027,17.456-9.309c6.984-1.351,12.727,1.911,16.348,7.043
							c-0.38-11.492-7.735-23.867-20.798-26.188c-1.086,9.614-11.087,21.244-22.717,21.942
							c-9.534,0.696-13.023-12.794-13.023-12.794s-9.072,13.956-21.167,16.514c-12.094,2.558-19.305-8.839-19.305-8.839
							s-7.443,15.585-16.98,15.585c-9.535,0-20.467-11.398-20.467-11.398s-10.932,15.119-26.05,4.652
							c-7.443,7.675-18.143,7.907-24.654-1.163c-1.163,16.979-9.304,23.492-26.05,2.792c0,0,4.418,13.489,1.395,19.769
							c3.721,0.931,6.048,4.885,5.815,6.513c3.024-3.954,5.35-4.187,12.095-1.628c6.745,2.558,22.096,2.326,25.352,7.211
							c4.053-2.896,10.631-6.329,20.178-5.093C130.486,244.377,134.615,240.268,140.635,239.003z"/>
					</g>
					<path style="fill:#F4A3AA;stroke:#D25C6F;stroke-linecap:round;stroke-linejoin:round;stroke-miterlimit:10;" d="
						M344.1,275.954c-21.09,35.974-45.588,32.251-55.511,17.056c-14.576,27.601-34.734,22.018-44.347,4.34
						c-19.539,31.634-42.796,15.507-45.899,1.552c-15.506,34.114-40.625,18.297-45.587-5.892
						c-19.227,36.593-35.354,26.049-41.556-5.583c-20.468,26.05-31.632,17.677-40.936-3.1c-12.715,11.165-18.608,9.924-27.91-10.854
						C28.708,293.94,23.125,260.68,23.125,260.68s-9.072,6.978-5.814,25.12c3.256,18.142,3.981,30.635,2.791,46.284
						c-1.628,21.399-0.388,35.356,24.422,49.93c24.81,14.575,96.758,31.632,148.547,32.253
						c51.79,0.619,122.807-11.164,150.716-34.423c27.911-23.259,11.476-46.518,16.439-70.397
						C365.186,285.566,357.435,274.092,344.1,275.954z"/>
					<path style="opacity:0.4;fill:#F4A3AA;" d="M360.226,309.446c4.961-23.88-2.791-35.354-16.126-33.493
						c-21.09,35.974-45.588,32.251-55.511,17.056c-14.576,27.601-34.734,22.018-44.347,4.34
						c-19.539,31.634-42.796,15.507-45.899,1.552c-15.506,34.114-40.625,18.297-45.587-5.892
						c-19.227,36.593-35.354,26.049-41.556-5.583c-20.468,26.05-31.632,17.677-40.936-3.1c-12.715,11.165-18.608,9.924-27.91-10.854
						C28.708,293.94,23.125,260.68,23.125,260.68s-2.317,1.787-4.189,5.893c0.235,0.105,0.461,0.267,0.672,0.509
						c3.425,3.922,2.983,9.722,7.723,12.998c3.943,2.726,6.345-0.542,10.35,0.072c2.492,0.382,4.338,1.65,5.787,3.731
						c2.125,3.05,3.394,6.661,5.746,9.549c3.742,4.598,9.031,6.747,14.399,3.501c6.433-3.891,10.392,1.401,14.84,5.808
						c3.413,3.379,7.244,6.009,12.322,5.7c4.013-0.244,7.807-1.689,11.803-2.075c7.527-0.727,11.707,5.352,17.108,9.4
						c7.467,5.596,15.194,3.318,23.237,0.639c2.983-0.994,6.256-1.936,9.44-1.632c4.048,0.387,7.305,2.353,10.803,4.291
						c9.365,5.186,20.015,10.306,30.726,5.589c3.446-1.519,8.025-4.384,11.993-3.729c4.21,0.695,6.923,3.894,10.797,5.335
						c5.28,1.964,9.988,0.168,14.963-1.751c2.796-1.079,6.107-2.498,9.179-1.954c5.547,0.984,8.886,4.976,10.904,10.066
						c1.799,3.441,2.781,7.387,3.281,11.508c1.213,9.99,2.441,20.53,1.9,30.598c-0.395,7.347-1.743,13.818-7.352,18.954
						c-11.188,10.247-27.324,12.506-41.689,14.898c-10.821,1.802-21.756,3.364-32.741,3.612c-11.888,0.268-23.422-1.593-35.12-3.496
						c-9.321-1.516-18.612-3.188-27.949-4.58c26.69,5.773,56.168,9.853,81.01,10.151c51.79,0.619,122.807-11.164,150.716-34.423
						C371.698,356.585,355.263,333.326,360.226,309.446z"/>
					<path style="fill:#FDF3EE;stroke:#D0D0D0;stroke-linecap:round;stroke-linejoin:round;stroke-miterlimit:10;" d="
						M44.058,238.352c-1.145-0.573-2.206-1.191-3.212-1.838c-8.238-5.272-12.003-12.666-13.667-17.54
						c-0.271,0.546-0.536,1.108-0.797,1.701c-3.722,9.072-3.256,40.005-3.256,40.005s5.582,33.26,19.229,12.792
						c0,0-1.519-12.924-0.507-22.832c0.652-6.366,2.344-11.491,6.165-11.127c0.013-0.008,0.025-0.017,0.037-0.026
						C46.311,238.869,44.89,238.444,44.058,238.352z"/>
					<path style="fill:#FDF3EE;stroke:#D0D0D0;stroke-linecap:round;stroke-linejoin:round;stroke-miterlimit:10;" d="
						M72.201,259.75c0.181-2.302,0.55-4.184,1.044-5.724c-0.038,0.049-0.075,0.091-0.113,0.141c0.233-1.628-2.094-5.581-5.815-6.513
						c0,0-12.249-5.673-19.268-8.168c-0.012,0.009-0.024,0.018-0.037,0.026c-9.768-0.929-5.658,33.959-5.658,33.959
						c9.302,20.778,15.195,22.019,27.91,10.854c0.461,1.033,0.93,2.027,1.404,2.995C69.563,280.361,71.213,272.415,72.201,259.75z"
						/>
					<path style="fill:#FDF3EE;stroke:#D0D0D0;stroke-linecap:round;stroke-linejoin:round;stroke-miterlimit:10;" d="
						M110.825,259.579c-0.082,0.055-0.167,0.114-0.246,0.171c-3.256-4.885-18.607-4.653-25.352-7.211
						c-6.659-2.524-9.012-2.323-11.982,1.487c-0.494,1.54-0.863,3.422-1.044,5.724c-0.988,12.665-2.638,20.612-0.533,27.572
						c9.033,18.521,20.08,24.86,39.531,0.105C109.705,277.818,110.305,266.006,110.825,259.579z"/>
					<path style="opacity:0.6;fill:#EDEDED;" d="M151.515,263.239c-21.138-14.016-34.101-8.287-40.69-3.66
						c-0.52,6.427-1.12,18.24,0.375,27.848c6.161,31.419,22.113,42.025,41.169,6.307c0.6-4.205,1.19-8.638,1.472-11.657
						C154.538,274.635,155.003,267.89,151.515,263.239z"/>
					<g>
						<path style="opacity:0.6;fill:#EDEDED;" d="M175.007,272.077c-8.295,3.754-16.687-0.701-21.296-4.02
							c0.984,4.028,0.615,8.855,0.13,14.02c-0.282,3.019-0.872,7.452-1.472,11.657c0.13-0.241,0.258-0.477,0.387-0.724
							c4.961,24.189,30.081,40.006,45.587,5.892c0.001,0.003,0.001,0.006,0.001,0.008c-0.567-5.369,0.676-12.447,1.781-20.554
							c0.255-1.854,0.052-3.59-0.44-5.195C192.619,274.423,184.101,268.057,175.007,272.077z"/>
						<path style="fill:#FDF3EE;stroke:#D0D0D0;stroke-linecap:round;stroke-linejoin:round;stroke-miterlimit:10;" d="
							M175.007,272.077c9.094-4.021,17.612,2.346,24.678,1.084c-2.227-7.259-10.49-11.784-10.49-11.784
							c-6.977-4.885-17.677,1.164-21.398-0.466c-3.722-1.628-9.071-4.884-16.282,2.327c1.067,1.422,1.761,3.044,2.196,4.819
							C158.32,271.376,166.712,275.831,175.007,272.077z"/>
					</g>
					<path style="fill:#FDF3EE;stroke:#D0D0D0;stroke-linecap:round;stroke-linejoin:round;stroke-miterlimit:10;" d="
						M218.036,273.24c2.791-0.466,6.28,5.35,6.28,5.35s6.978-9.071,11.629-6.281c4.652,2.793,14.654,3.257,10.932-2.093
						c-3.722-5.349-10.932-7.21-12.561-13.258c-1.395-1.163-7.209-2.558-10.931-0.232c-3.721,2.326-9.302,2.791-14.42,1.163
						c-5.117-1.627-13.49-3.954-19.77,3.489c0,0,7.181,3.935,9.958,10.35C203.851,273.666,211.68,275.963,218.036,273.24z"/>
					<path style="opacity:0.6;fill:#EDEDED;" d="M247.688,272.307c-0.08,3.056-7.816,2.358-11.743,0.001
						c-4.651-2.79-11.629,6.281-11.629,6.281s-3.489-5.816-6.28-5.35c-6.356,2.723-14.185,0.426-18.883-1.513
						c0.861,1.989,1.303,4.209,0.972,6.629c-1.105,8.107-2.348,15.185-1.781,20.554c3.108,13.954,26.363,30.066,45.898-1.56
						c2.247-9.613,3.797-24.808,3.797-24.808L247.688,272.307z"/>
					<g>
						<path style="fill:#FDF3EE;stroke:#D0D0D0;stroke-linecap:round;stroke-linejoin:round;stroke-miterlimit:10;" d="
							M261.299,270.913c6.278,3.491,11.861-4.651,18.607-2.79c6.231,1.719,14.245-2.324,12.122-7.719
							c-1.72-0.457-3.829-0.688-5.61-2.051c-2.607-1.992-7.633-5.599-9.097-9.625c-0.006,0.006-0.011,0.012-0.015,0.017
							c-0.147,0.337-0.289,0.672-0.426,1.003c-1.162-2.326-8.605-2.79-13.024-0.232c-4.42,2.558-12.327,2.326-16.979,1.163
							c-4.651-1.163-12.094,1.163-12.561,6.28c1.319,4.901,6.306,7.054,10.129,10.54c2.097,0.233,4.509,0.829,6.153,2.253
							C254.087,272.774,253.854,266.029,261.299,270.913z"/>
						<path style="opacity:0.6;fill:#EDEDED;" d="M292.027,260.403c2.123,5.396-5.891,9.439-12.122,7.719
							c-6.745-1.861-12.328,6.281-18.607,2.79c-7.444-4.884-7.212,1.861-10.7-1.161c-1.645-1.424-4.057-2.02-6.153-2.253
							c0.894,0.814,1.726,1.703,2.432,2.717c0.58,0.834,0.826,1.528,0.811,2.091l0.352,0.235c0,0-1.551,15.195-3.797,24.808
							c9.613,17.678,29.771,23.261,44.347-4.34c0,0,4.107-12.095,6.665-27.446C295.637,261.857,294.124,260.961,292.027,260.403z"/>
					</g>
					<g>
						<path style="fill:#FDF3EE;stroke:#D0D0D0;stroke-linecap:round;stroke-linejoin:round;stroke-miterlimit:10;" d="
							M343.401,251.375c-9.77-8.373-26.515-17.676-37.216-8.605c-15.899-0.921-21.525-2.9-28.865,5.957
							c1.464,4.026,6.49,7.634,9.097,9.625c3.953,3.025,9.536,0.467,8.837,7.211c-0.16,0.962-0.327,1.912-0.496,2.848
							c2.773-1.958,7.228-4.239,12.36-3.544c8.604,1.162,13.722,3.489,13.722,3.489s7.908-6.745,13.258-5.815
							c5.051,0.878,13.414,2.581,13.55-3.689C347.137,256.118,345.874,253.495,343.401,251.375z"/>
						<path style="fill:#FDF3EE;stroke:#D0D0D0;stroke-linecap:round;stroke-linejoin:round;stroke-miterlimit:10;" d="
							M175.007,272.077c9.094-4.021,17.612,2.346,24.678,1.084c-2.227-7.259-10.49-11.784-10.49-11.784
							c-6.977-4.885-17.677,1.164-21.398-0.466c-3.722-1.628-9.071-4.884-16.282,2.327c1.067,1.422,1.761,3.044,2.196,4.819
							C158.32,271.376,166.712,275.831,175.007,272.077z"/>
						<path style="fill:#FDF3EE;stroke:#D0D0D0;stroke-linecap:round;stroke-linejoin:round;stroke-miterlimit:10;" d="
							M218.036,273.24c2.791-0.466,6.28,5.35,6.28,5.35s6.978-9.071,11.629-6.281c4.652,2.793,14.654,3.257,10.932-2.093
							c-3.722-5.349-10.932-7.21-12.561-13.258c-1.395-1.163-7.209-2.558-10.931-0.232c-3.721,2.326-9.302,2.791-14.42,1.163
							c-5.117-1.627-13.49-3.954-19.77,3.489c0,0,7.181,3.935,9.958,10.35C203.851,273.666,211.68,275.963,218.036,273.24z"/>
						<path style="fill:#FDF3EE;stroke:#D0D0D0;stroke-linecap:round;stroke-linejoin:round;stroke-miterlimit:10;" d="
							M261.299,270.913c6.278,3.491,11.861-4.651,18.607-2.79c6.231,1.719,14.245-2.324,12.122-7.719
							c-1.72-0.457-3.829-0.688-5.61-2.051c-2.607-1.992-7.633-5.599-9.097-9.625c-0.006,0.006-0.011,0.012-0.015,0.017
							c-0.147,0.337-0.289,0.672-0.426,1.003c-1.162-2.326-8.605-2.79-13.024-0.232c-4.42,2.558-12.327,2.326-16.979,1.163
							c-4.651-1.163-12.094,1.163-12.561,6.28c1.319,4.901,6.306,7.054,10.129,10.54c2.097,0.233,4.509,0.829,6.153,2.253
							C254.087,272.774,253.854,266.029,261.299,270.913z"/>
						<path style="fill:#FDF3EE;stroke:#D0D0D0;stroke-linecap:round;stroke-linejoin:round;stroke-miterlimit:10;" d="
							M343.401,251.375c-9.77-8.373-26.515-17.676-37.216-8.605c-15.899-0.921-21.525-2.9-28.865,5.957
							c1.464,4.026,6.49,7.634,9.097,9.625c3.953,3.025,9.536,0.467,8.837,7.211c-0.16,0.962-0.327,1.912-0.496,2.848
							c2.773-1.958,7.228-4.239,12.36-3.544c8.604,1.162,13.722,3.489,13.722,3.489s7.908-6.745,13.258-5.815
							c5.051,0.878,13.414,2.581,13.55-3.689C347.137,256.118,345.874,253.495,343.401,251.375z"/>
						<path style="fill:#FDF3EE;stroke:#D0D0D0;stroke-linecap:round;stroke-linejoin:round;stroke-miterlimit:10;" d="
							M175.007,272.077c9.094-4.021,17.612,2.346,24.678,1.084c-2.227-7.259-10.49-11.784-10.49-11.784
							c-6.977-4.885-17.677,1.164-21.398-0.466c-3.722-1.628-9.071-4.884-16.282,2.327c1.067,1.422,1.761,3.044,2.196,4.819
							C158.32,271.376,166.712,275.831,175.007,272.077z"/>
						<path style="fill:#FDF3EE;stroke:#D0D0D0;stroke-linecap:round;stroke-linejoin:round;stroke-miterlimit:10;" d="
							M218.036,273.24c2.791-0.466,6.28,5.35,6.28,5.35s6.978-9.071,11.629-6.281c4.652,2.793,14.654,3.257,10.932-2.093
							c-3.722-5.349-10.932-7.21-12.561-13.258c-1.395-1.163-7.209-2.558-10.931-0.232c-3.721,2.326-9.302,2.791-14.42,1.163
							c-5.117-1.627-13.49-3.954-19.77,3.489c0,0,7.181,3.935,9.958,10.35C203.851,273.666,211.68,275.963,218.036,273.24z"/>
						<path style="fill:#FDF3EE;stroke:#D0D0D0;stroke-linecap:round;stroke-linejoin:round;stroke-miterlimit:10;" d="
							M261.299,270.913c6.278,3.491,11.861-4.651,18.607-2.79c6.231,1.719,14.245-2.324,12.122-7.719
							c-1.72-0.457-3.829-0.688-5.61-2.051c-2.607-1.992-7.633-5.599-9.097-9.625c-0.006,0.006-0.011,0.012-0.015,0.017
							c-0.147,0.337-0.289,0.672-0.426,1.003c-1.162-2.326-8.605-2.79-13.024-0.232c-4.42,2.558-12.327,2.326-16.979,1.163
							c-4.651-1.163-12.094,1.163-12.561,6.28c1.319,4.901,6.306,7.054,10.129,10.54c2.097,0.233,4.509,0.829,6.153,2.253
							C254.087,272.774,253.854,266.029,261.299,270.913z"/>
						<path style="fill:#FDF3EE;stroke:#D0D0D0;stroke-linecap:round;stroke-linejoin:round;stroke-miterlimit:10;" d="
							M175.007,272.077c9.094-4.021,17.612,2.346,24.678,1.084c-2.227-7.259-10.49-11.784-10.49-11.784
							c-6.977-4.885-17.677,1.164-21.398-0.466c-3.722-1.628-9.071-4.884-16.282,2.327c1.067,1.422,1.761,3.044,2.196,4.819
							C158.32,271.376,166.712,275.831,175.007,272.077z"/>
						<path style="fill:#FDF3EE;stroke:#D0D0D0;stroke-linecap:round;stroke-linejoin:round;stroke-miterlimit:10;" d="
							M218.036,273.24c2.791-0.466,6.28,5.35,6.28,5.35s6.978-9.071,11.629-6.281c4.652,2.793,14.654,3.257,10.932-2.093
							c-3.722-5.349-10.932-7.21-12.561-13.258c-1.395-1.163-7.209-2.558-10.931-0.232c-3.721,2.326-9.302,2.791-14.42,1.163
							c-5.117-1.627-13.49-3.954-19.77,3.489c0,0,7.181,3.935,9.958,10.35C203.851,273.666,211.68,275.963,218.036,273.24z"/>
						<path style="fill:#FDF3EE;stroke:#D0D0D0;stroke-linecap:round;stroke-linejoin:round;stroke-miterlimit:10;" d="
							M261.299,270.913c6.278,3.491,11.861-4.651,18.607-2.79c6.231,1.719,14.245-2.324,12.122-7.719
							c-1.72-0.457-3.829-0.688-5.61-2.051c-2.607-1.992-7.633-5.599-9.097-9.625c-0.006,0.006-0.011,0.012-0.015,0.017
							c-0.147,0.337-0.289,0.672-0.426,1.003c-1.162-2.326-8.605-2.79-13.024-0.232c-4.42,2.558-12.327,2.326-16.979,1.163
							c-4.651-1.163-12.094,1.163-12.561,6.28c1.319,4.901,6.306,7.054,10.129,10.54c2.097,0.233,4.509,0.829,6.153,2.253
							C254.087,272.774,253.854,266.029,261.299,270.913z"/>
						<path style="fill:#FDF3EE;stroke:#D0D0D0;stroke-linecap:round;stroke-linejoin:round;stroke-miterlimit:10;" d="
							M343.401,251.375c-9.77-8.373-26.515-17.676-37.216-8.605c-15.899-0.921-21.525-2.9-28.865,5.957
							c1.464,4.026,6.49,7.634,9.097,9.625c3.953,3.025,9.536,0.467,8.837,7.211c-0.16,0.962-0.327,1.912-0.496,2.848
							c2.773-1.958,7.228-4.239,12.36-3.544c8.604,1.162,13.722,3.489,13.722,3.489s7.908-6.745,13.258-5.815
							c5.051,0.878,13.414,2.581,13.55-3.689C347.137,256.118,345.874,253.495,343.401,251.375z"/>
						<path style="fill:#FDF3EE;stroke:#D0D0D0;stroke-linecap:round;stroke-linejoin:round;stroke-miterlimit:10;" d="
							M334.098,262.541c-5.35-0.93-13.258,5.815-13.258,5.815s-5.117-2.327-13.722-3.489c-5.133-0.694-9.587,1.586-12.36,3.544
							c-2.56,13.972-6.169,24.599-6.169,24.599c9.923,15.195,34.421,18.918,55.511-17.056c0,0,5.055-9.038,3.548-17.102
							C347.512,265.122,339.148,263.419,334.098,262.541z"/>
						<path style="fill:#FDF3EE;stroke:#D0D0D0;stroke-linecap:round;stroke-linejoin:round;stroke-miterlimit:10;" d="
							M151.515,263.239c-21.138-14.016-34.101-8.287-40.69-3.66c-0.52,6.427-1.12,18.24,0.375,27.848
							c6.161,31.419,22.113,42.025,41.169,6.307c0.6-4.205,1.19-8.638,1.472-11.657C154.538,274.635,155.003,267.89,151.515,263.239
							z"/>
						<path style="fill:#FDF3EE;stroke:#D0D0D0;stroke-linecap:round;stroke-linejoin:round;stroke-miterlimit:10;" d="
							M175.007,272.077c-8.295,3.754-16.687-0.701-21.296-4.02c0.984,4.028,0.615,8.855,0.13,14.02
							c-0.282,3.019-0.872,7.452-1.472,11.657c0.13-0.241,0.258-0.477,0.387-0.724c4.961,24.189,30.081,40.006,45.587,5.892
							c0.001,0.003,0.001,0.006,0.001,0.008c-0.567-5.369,0.676-12.447,1.781-20.554c0.255-1.854,0.052-3.59-0.44-5.195
							C192.619,274.423,184.101,268.057,175.007,272.077z"/>
						<path style="fill:#FDF3EE;stroke:#D0D0D0;stroke-linecap:round;stroke-linejoin:round;stroke-miterlimit:10;" d="
							M247.688,272.307c-0.08,3.056-7.816,2.358-11.743,0.001c-4.651-2.79-11.629,6.281-11.629,6.281s-3.489-5.816-6.28-5.35
							c-6.356,2.723-14.185,0.426-18.883-1.513c0.861,1.989,1.303,4.209,0.972,6.629c-1.105,8.107-2.348,15.185-1.781,20.554
							c3.108,13.954,26.363,30.066,45.898-1.56c2.247-9.613,3.797-24.808,3.797-24.808L247.688,272.307z"/>
						<path style="fill:#FDF3EE;stroke:#D0D0D0;stroke-linecap:round;stroke-linejoin:round;stroke-miterlimit:10;" d="
							M292.027,260.403c2.123,5.396-5.891,9.439-12.122,7.719c-6.745-1.861-12.328,6.281-18.607,2.79
							c-7.444-4.884-7.212,1.861-10.7-1.161c-1.645-1.424-4.057-2.02-6.153-2.253c0.894,0.814,1.726,1.703,2.432,2.717
							c0.58,0.834,0.826,1.528,0.811,2.091l0.352,0.235c0,0-1.551,15.195-3.797,24.808c9.613,17.678,29.771,23.261,44.347-4.34
							c0,0,4.107-12.095,6.665-27.446C295.637,261.857,294.124,260.961,292.027,260.403z"/>
						<path style="fill:#FDF3EE;stroke:#D0D0D0;stroke-linecap:round;stroke-linejoin:round;stroke-miterlimit:10;" d="
							M334.098,262.541c-5.35-0.93-13.258,5.815-13.258,5.815s-5.117-2.327-13.722-3.489c-5.133-0.694-9.587,1.586-12.36,3.544
							c-2.56,13.972-6.169,24.599-6.169,24.599c9.923,15.195,34.421,18.918,55.511-17.056c0,0,5.055-9.038,3.548-17.102
							C347.512,265.122,339.148,263.419,334.098,262.541z"/>
						<path style="opacity:0.6;fill:#EDEDED;" d="M151.515,263.239c-21.138-14.016-34.101-8.287-40.69-3.66
							c-0.52,6.427-1.12,18.24,0.375,27.848c6.161,31.419,22.113,42.025,41.169,6.307c0.6-4.205,1.19-8.638,1.472-11.657
							C154.538,274.635,155.003,267.89,151.515,263.239z"/>
						<path style="opacity:0.6;fill:#EDEDED;" d="M175.007,272.077c-8.295,3.754-16.687-0.701-21.296-4.02
							c0.984,4.028,0.615,8.855,0.13,14.02c-0.282,3.019-0.872,7.452-1.472,11.657c0.13-0.241,0.258-0.477,0.387-0.724
							c4.961,24.189,30.081,40.006,45.587,5.892c0.001,0.003,0.001,0.006,0.001,0.008c-0.567-5.369,0.676-12.447,1.781-20.554
							c0.255-1.854,0.052-3.59-0.44-5.195C192.619,274.423,184.101,268.057,175.007,272.077z"/>
						<path style="opacity:0.6;fill:#EDEDED;" d="M247.688,272.307c-0.08,3.056-7.816,2.358-11.743,0.001
							c-4.651-2.79-11.629,6.281-11.629,6.281s-3.489-5.816-6.28-5.35c-6.356,2.723-14.185,0.426-18.883-1.513
							c0.861,1.989,1.303,4.209,0.972,6.629c-1.105,8.107-2.348,15.185-1.781,20.554c3.108,13.954,26.363,30.066,45.898-1.56
							c2.247-9.613,3.797-24.808,3.797-24.808L247.688,272.307z"/>
						<path style="opacity:0.9;fill:#EDEDED;" d="M292.027,260.403c2.123,5.396-5.891,9.439-12.122,7.719
							c-6.745-1.861-12.328,6.281-18.607,2.79c-7.444-4.884-7.212,1.861-10.7-1.161c-1.645-1.424-4.057-2.02-6.153-2.253
							c0.894,0.814,1.726,1.703,2.432,2.717c0.58,0.834,0.826,1.528,0.811,2.091l0.352,0.235c0,0-1.551,15.195-3.797,24.808
							c9.613,17.678,29.771,23.261,44.347-4.34c0,0,4.107-12.095,6.665-27.446C295.637,261.857,294.124,260.961,292.027,260.403z"/>
						<path style="opacity:0.9;fill:#EDEDED;" d="M334.098,262.541c-5.35-0.93-13.258,5.815-13.258,5.815s-5.117-2.327-13.722-3.489
							c-5.133-0.694-9.587,1.586-12.36,3.544c-2.56,13.972-6.169,24.599-6.169,24.599c9.923,15.195,34.421,18.918,55.511-17.056
							c0,0,5.055-9.038,3.548-17.102C347.512,265.122,339.148,263.419,334.098,262.541z"/>
					</g>
					<g>
						<path style="fill:#FDF3EE;stroke:#D0D0D0;stroke-linecap:round;stroke-linejoin:round;stroke-miterlimit:10;" d="
							M65.922,227.885c0.206,0.254,0.405,0.488,0.609,0.734c-2.113-6.195-3.514-14.918-1.773-26.319c0-3.257,0-3.257,0-3.257
							s-10.234-1.163-22.561,7.675c-0.42,0-0.789,0-1.12,0c-0.162,7.723,0.488,21.323,5.899,32.397
							c6.757,2.244,20.341,8.539,20.341,8.539C70.34,241.374,65.922,227.885,65.922,227.885z"/>
						<path style="fill:#FDF3EE;stroke:#D0D0D0;stroke-linecap:round;stroke-linejoin:round;stroke-miterlimit:10;" d="
							M41.077,206.718c-2.594,0-2.6,0-2.6,0s-6.285,2.1-11.298,12.255c1.868,5.47,6.364,14.12,16.879,19.379
							c0.653,0.072,1.668,0.349,2.918,0.764C41.565,228.041,40.915,214.441,41.077,206.718z"/>
					</g>
					<path style="fill:#FDF3EE;stroke:#D0D0D0;stroke-linecap:round;stroke-linejoin:round;stroke-miterlimit:10;" d="
						M93.832,203.696c-1.642-0.913-4.141-6.009-5.922-10.053c-6.857-5.703-13.541-3.927-23.151,8.657
						c-1.741,11.4-0.34,20.124,1.773,26.319c16.33,19.785,24.292,13.243,25.44-3.525c0.061,0.086,0.127,0.167,0.19,0.251
						C90.689,213.559,93.832,203.696,93.832,203.696z"/>
					<g>
						<path style="fill:#FDF3EE;stroke:#D0D0D0;stroke-linecap:round;stroke-linejoin:round;stroke-miterlimit:10;" d="
							M103.37,202.3c4.418,1.396,12.326,3.256,18.141,1.396c-0.166-1.83-4.367-9.235-6.754-13.316
							c-6.304-0.943-12.551,3.081-12.551,3.081s-10.467-4.652-13.956,0.464c-0.113-0.097-0.226-0.189-0.34-0.283
							c1.679,3.811,3.997,8.556,5.631,9.852C96.383,202.532,100.632,201.436,103.37,202.3z"/>
						<path style="fill:#FDF3EE;stroke:#D0D0D0;stroke-linecap:round;stroke-linejoin:round;stroke-miterlimit:10;" d="
							M121.511,203.696c-5.815,1.86-13.723,0-18.141-1.396c-2.738-0.864-6.987,0.232-9.828,1.195
							c0.099,0.079,0.197,0.149,0.291,0.201c0,0-3.143,9.863-1.67,21.648c6.529,8.809,17.093,8.515,24.464,0.912
							C120.581,222.07,121.744,206.254,121.511,203.696z"/>
					</g>
					<g>
						<path style="fill:#FDF3EE;stroke:#D0D0D0;stroke-linecap:round;stroke-linejoin:round;stroke-miterlimit:10;" d="
							M127.791,202.998c-3.22-1.841-5.321-0.75-6.384,0.207c0.052,0.189,0.091,0.357,0.104,0.491
							c0.233,2.558-0.93,18.374-4.884,22.56c12.875,8.913,22.709-0.725,25.345-3.78c3.074-6.339,4.892-22.503,4.892-22.503
							C142.676,204.859,132.675,205.788,127.791,202.998z"/>
						<path style="fill:#FDF3EE;stroke:#D0D0D0;stroke-linecap:round;stroke-linejoin:round;stroke-miterlimit:10;" d="
							M138.955,185.553c0,0-7.21,2.093-12.094,1.164c-4.885-0.932-9.536,0-10.699,3.954c-0.467-0.129-0.935-0.22-1.404-0.29
							c2.213,3.785,5.981,10.421,6.65,12.825c1.063-0.957,3.164-2.047,6.384-0.207c4.884,2.79,14.885,1.861,19.072-3.025
							c-0.282-4.824-4.46-10.769-7.676-14.676C139.039,185.451,138.955,185.553,138.955,185.553z"/>
					</g>
					<g>
						<path style="fill:#FDF3EE;stroke:#D0D0D0;stroke-linecap:round;stroke-linejoin:round;stroke-miterlimit:10;" d="
							M161.749,204.16c8.156-3.225,13.528-8.149,18.766-6.575c-1.499-2.698-5.342-6.714-7.137-9.707
							c-0.422-0.703-0.736-1.542-0.975-2.428c-2.39-3.477-8.021-2.373-11.352,0.567c-3.955,3.489-6.745,1.396-12.561-1.861
							c-4.983-2.79-8.421,0.221-9.304,1.141c3.216,3.906,7.394,9.852,7.676,14.676c0,0-0.044,0.388-0.128,1.065
							C149.6,203.506,155.045,206.811,161.749,204.16z"/>
						<path style="fill:#FDF3EE;stroke:#D0D0D0;stroke-linecap:round;stroke-linejoin:round;stroke-miterlimit:10;" d="
							M180.515,197.585c-5.238-1.574-10.61,3.35-18.766,6.575c-6.704,2.65-12.149-0.654-15.014-3.122
							c-0.465,3.699-2.166,16.078-4.764,21.438c0.459-0.533,0.705-0.872,0.705-0.872s10.932,11.398,20.467,11.398
							c9.537,0,16.98-15.585,16.98-15.585s1.629-16.048,0.93-18.607C180.955,198.447,180.763,198.032,180.515,197.585z"/>
					</g>
					<g>
						<path style="fill:#FDF3EE;stroke:#D0D0D0;stroke-linecap:round;stroke-linejoin:round;stroke-miterlimit:10;" d="
							M204.312,201.835c3.024,2.558,6.281-0.466,9.304-3.722c1.502-1.618,4.152-2.431,6.438-2.841
							c-5.957-3.867-9.45-8.459-11.408-11.886c-0.965-0.789-10.421-7.991-23.638,1.702c-3.955-2.094-9.769-0.932-11.629,2.79
							c1.637,2.728,4.971,6.304,6.686,8.959c3.224,1.278,7.362,2.557,11.224,2.671C199.196,199.741,201.29,199.275,204.312,201.835z
							"/>
						<path style="fill:#FDF3EE;stroke:#D0D0D0;stroke-linecap:round;stroke-linejoin:round;stroke-miterlimit:10;" d="
							M220.054,195.272c-2.285,0.41-4.936,1.223-6.438,2.841c-3.023,3.256-6.28,6.28-9.304,3.722
							c-3.022-2.559-5.116-2.094-13.024-2.326c-3.862-0.114-8.001-1.393-11.224-2.671c0.479,0.742,0.837,1.414,0.989,1.973
							c0.699,2.558-0.93,18.607-0.93,18.607s7.211,11.397,19.305,8.839c12.095-2.558,21.167-16.514,21.167-16.514
							s0.014,0.052,0.038,0.145c0.089-2.074,0.245-8.014-0.504-14.565C220.102,195.305,220.081,195.289,220.054,195.272z"/>
					</g>
					<path style="fill:#FDF3EE;stroke:#D0D0D0;stroke-linecap:round;stroke-linejoin:round;stroke-miterlimit:10;" d="
						M243.388,196.019c3.133,1.175,9.893,0.866,11.812-4.954c-2.958-8.81-11.197-14.016-22.279-12.257
						c-6.745,1.163-8.605,3.955-16.048,2.093c-7.443-1.861-8.14,2.558-8.14,2.558s-0.035-0.028-0.087-0.073
						c1.965,3.441,5.479,8.058,11.483,11.935c0.006,0.058,0.01,0.113,0.018,0.171c1.95,0.305,4.52,0.526,7.891,0.526
						C238.968,196.019,239.665,194.624,243.388,196.019z"/>
					<path style="fill:#FDF3EE;stroke:#D0D0D0;stroke-linecap:round;stroke-linejoin:round;stroke-miterlimit:10;" d="
						M255.2,191.065c-1.919,5.82-8.679,6.129-11.812,4.954c-3.723-1.395-4.42,0-15.351,0c-3.372,0-5.941-0.222-7.891-0.526
						c0.727,6.481,0.574,12.338,0.486,14.393c0.405,1.438,4.026,13.303,12.985,12.649c11.63-0.698,21.631-12.328,22.717-21.942
						C256.564,197.117,256.154,193.905,255.2,191.065z"/>
					<path style="fill:#FDF3EE;stroke:#D0D0D0;stroke-linecap:round;stroke-linejoin:round;stroke-miterlimit:10;" d="
						M65.922,227.885c0.206,0.254,0.405,0.488,0.609,0.734c-2.113-6.195-3.514-14.918-1.773-26.319c0-3.257,0-3.257,0-3.257
						s-10.234-1.163-22.561,7.675c-0.42,0-0.789,0-1.12,0c-0.162,7.723,0.488,21.323,5.899,32.397
						c6.757,2.244,20.341,8.539,20.341,8.539C70.34,241.374,65.922,227.885,65.922,227.885z"/>
					<path style="fill:#FDF3EE;stroke:#D0D0D0;stroke-linecap:round;stroke-linejoin:round;stroke-miterlimit:10;" d="
						M41.077,206.718c-2.594,0-2.6,0-2.6,0s-6.285,2.1-11.298,12.255c1.868,5.47,6.364,14.12,16.879,19.379
						c0.653,0.072,1.668,0.349,2.918,0.764C41.565,228.041,40.915,214.441,41.077,206.718z"/>
					<path style="fill:#FDF3EE;stroke:#D0D0D0;stroke-linecap:round;stroke-linejoin:round;stroke-miterlimit:10;" d="
						M93.832,203.696c-1.642-0.913-4.141-6.009-5.922-10.053c-6.857-5.703-13.541-3.927-23.151,8.657
						c-1.741,11.4-0.34,20.124,1.773,26.319c16.33,19.785,24.292,13.243,25.44-3.525c0.061,0.086,0.127,0.167,0.19,0.251
						C90.689,213.559,93.832,203.696,93.832,203.696z"/>
					<path style="fill:#FDF3EE;stroke:#D0D0D0;stroke-linecap:round;stroke-linejoin:round;stroke-miterlimit:10;" d="
						M121.511,203.696c-5.815,1.86-13.723,0-18.141-1.396c-2.738-0.864-6.987,0.232-9.828,1.195
						c0.099,0.079,0.197,0.149,0.291,0.201c0,0-3.143,9.863-1.67,21.648c6.529,8.809,17.093,8.515,24.464,0.912
						C120.581,222.07,121.744,206.254,121.511,203.696z"/>
					<path style="fill:#FDF3EE;stroke:#D0D0D0;stroke-linecap:round;stroke-linejoin:round;stroke-miterlimit:10;" d="
						M127.791,202.998c-3.22-1.841-5.321-0.75-6.384,0.207c0.052,0.189,0.091,0.357,0.104,0.491
						c0.233,2.558-0.93,18.374-4.884,22.56c12.875,8.913,22.709-0.725,25.345-3.78c3.074-6.339,4.892-22.503,4.892-22.503
						C142.676,204.859,132.675,205.788,127.791,202.998z"/>
					<path style="fill:#FDF3EE;stroke:#D0D0D0;stroke-linecap:round;stroke-linejoin:round;stroke-miterlimit:10;" d="
						M180.515,197.585c-5.238-1.574-10.61,3.35-18.766,6.575c-6.704,2.65-12.149-0.654-15.014-3.122
						c-0.465,3.699-2.166,16.078-4.764,21.438c0.459-0.533,0.705-0.872,0.705-0.872s10.932,11.398,20.467,11.398
						c9.537,0,16.98-15.585,16.98-15.585s1.629-16.048,0.93-18.607C180.955,198.447,180.763,198.032,180.515,197.585z"/>
					<path style="fill:#FDF3EE;stroke:#D0D0D0;stroke-linecap:round;stroke-linejoin:round;stroke-miterlimit:10;" d="
						M220.054,195.272c-2.285,0.41-4.936,1.223-6.438,2.841c-3.023,3.256-6.28,6.28-9.304,3.722
						c-3.022-2.559-5.116-2.094-13.024-2.326c-3.862-0.114-8.001-1.393-11.224-2.671c0.479,0.742,0.837,1.414,0.989,1.973
						c0.699,2.558-0.93,18.607-0.93,18.607s7.211,11.397,19.305,8.839c12.095-2.558,21.167-16.514,21.167-16.514
						s0.014,0.052,0.038,0.145c0.089-2.074,0.245-8.014-0.504-14.565C220.102,195.305,220.081,195.289,220.054,195.272z"/>
					<path style="fill:#FDF3EE;stroke:#D0D0D0;stroke-linecap:round;stroke-linejoin:round;stroke-miterlimit:10;" d="
						M255.2,191.065c-1.919,5.82-8.679,6.129-11.812,4.954c-3.723-1.395-4.42,0-15.351,0c-3.372,0-5.941-0.222-7.891-0.526
						c0.727,6.481,0.574,12.338,0.486,14.393c0.405,1.438,4.026,13.303,12.985,12.649c11.63-0.698,21.631-12.328,22.717-21.942
						C256.564,197.117,256.154,193.905,255.2,191.065z"/>
					<path style="opacity:0.6;fill:#EDEDED;" d="M65.922,227.885c0.206,0.254,0.405,0.488,0.609,0.734
						c-2.113-6.195-3.514-14.918-1.773-26.319c0-3.257,0-3.257,0-3.257s-10.234-1.163-22.561,7.675c-0.42,0-0.789,0-1.12,0
						c-0.162,7.723,0.488,21.323,5.899,32.397c6.757,2.244,20.341,8.539,20.341,8.539C70.34,241.374,65.922,227.885,65.922,227.885z
						"/>
					<path style="opacity:0.6;fill:#EDEDED;" d="M41.077,206.718c-2.594,0-2.6,0-2.6,0s-6.285,2.1-11.298,12.255
						c1.868,5.47,6.364,14.12,16.879,19.379c0.653,0.072,1.668,0.349,2.918,0.764C41.565,228.041,40.915,214.441,41.077,206.718z"/>
					<path style="opacity:0.6;fill:#EDEDED;" d="M93.832,203.696c-1.642-0.913-4.141-6.009-5.922-10.053
						c-6.857-5.703-13.541-3.927-23.151,8.657c-1.741,11.4-0.34,20.124,1.773,26.319c16.33,19.785,24.292,13.243,25.44-3.525
						c0.061,0.086,0.127,0.167,0.19,0.251C90.689,213.559,93.832,203.696,93.832,203.696z"/>
					<path style="opacity:0.6;fill:#EDEDED;" d="M121.511,203.696c-5.815,1.86-13.723,0-18.141-1.396
						c-2.738-0.864-6.987,0.232-9.828,1.195c0.099,0.079,0.197,0.149,0.291,0.201c0,0-3.143,9.863-1.67,21.648
						c6.529,8.809,17.093,8.515,24.464,0.912C120.581,222.07,121.744,206.254,121.511,203.696z"/>
					<path style="opacity:0.6;fill:#EDEDED;" d="M127.791,202.998c-3.22-1.841-5.321-0.75-6.384,0.207
						c0.052,0.189,0.091,0.357,0.104,0.491c0.233,2.558-0.93,18.374-4.884,22.56c12.875,8.913,22.709-0.725,25.345-3.78
						c3.074-6.339,4.892-22.503,4.892-22.503C142.676,204.859,132.675,205.788,127.791,202.998z"/>
					<path style="opacity:0.6;fill:#EDEDED;" d="M180.515,197.585c-5.238-1.574-10.61,3.35-18.766,6.575
						c-6.704,2.65-12.149-0.654-15.014-3.122c-0.465,3.699-2.166,16.078-4.764,21.438c0.459-0.533,0.705-0.872,0.705-0.872
						s10.932,11.398,20.467,11.398c9.537,0,16.98-15.585,16.98-15.585s1.629-16.048,0.93-18.607
						C180.955,198.447,180.763,198.032,180.515,197.585z"/>
					<path style="opacity:0.6;fill:#EDEDED;" d="M220.054,195.272c-2.285,0.41-4.936,1.223-6.438,2.841
						c-3.023,3.256-6.28,6.28-9.304,3.722c-3.022-2.559-5.116-2.094-13.024-2.326c-3.862-0.114-8.001-1.393-11.224-2.671
						c0.479,0.742,0.837,1.414,0.989,1.973c0.699,2.558-0.93,18.607-0.93,18.607s7.211,11.397,19.305,8.839
						c12.095-2.558,21.167-16.514,21.167-16.514s0.014,0.052,0.038,0.145c0.089-2.074,0.245-8.014-0.504-14.565
						C220.102,195.305,220.081,195.289,220.054,195.272z"/>
					<path style="opacity:0.6;fill:#EDEDED;" d="M255.2,191.065c-1.919,5.82-8.679,6.129-11.812,4.954c-3.723-1.395-4.42,0-15.351,0
						c-3.372,0-5.941-0.222-7.891-0.526c0.727,6.481,0.574,12.338,0.486,14.393c0.405,1.438,4.026,13.303,12.985,12.649
						c11.63-0.698,21.631-12.328,22.717-21.942C256.564,197.117,256.154,193.905,255.2,191.065z"/>
					<g>
						<path style="fill:#FDF3EE;stroke:#D0D0D0;stroke-linecap:round;stroke-linejoin:round;stroke-miterlimit:10;" d="
							M118.956,309.018c-0.98-1.477-1.902-3.165-2.761-5.049C116.369,304.473,117.204,306.748,118.956,309.018z"/>
						<path style="fill:#FDF3EE;stroke:#D0D0D0;stroke-linecap:round;stroke-linejoin:round;stroke-miterlimit:10;" d="
							M116.154,303.878c0.014,0.031,0.029,0.06,0.042,0.09c-0.023-0.066-0.034-0.105-0.034-0.105L116.154,303.878z"/>
					</g>
				</g>
			</g>
			<g>
				<path style="fill:#F4A3AA;" d="M24.665,312.338c0.705,12.701-2.428,27.147-0.448,39.838c1.733,11.111,8.018,19.322,17.2,25.54
					c2.477,1.677,5.074,3.279,7.768,4.727c2.294,1.136,4.594,2.198,6.833,3.209c1.124,0.452,2.258,0.872,3.404,1.249
					c-6.179-3.042-12.208-6.743-17.348-11.241c-0.529-0.384-1.06-0.766-1.578-1.166c0.031-0.075,0.036-0.149,0.046-0.224
					c-6.772-6.375-8.624-15.086-9.863-24.862c-1.589-12.524,0.987-30.63,0.296-43.184c-0.609-11.06-7.128-15.076-9.906-25.697
					C21.363,291.955,24.028,300.888,24.665,312.338z"/>
				<path style="fill:#F4A3AA;" d="M74.618,302.181c-1.9-1.587-4.571-1.956-7.104-1.782c-1.682,0.858-3.22,1.903-4.707,3.08
					c2.238-0.837,4.581-1.25,7.098-0.976c2.01,0.219,3.802,1.173,5.598,2.136C75.247,303.804,74.957,302.983,74.618,302.181z"/>
				<path style="fill:#F4A3AA;" d="M38.354,286.548c0.63-0.058,1.252,0.004,1.871,0.116c0.38-0.494,0.484-1.064-0.178-1.406
					c-1.968-1.016-4.476-0.04-6.347,1.311c-0.427,0.559-0.849,1.123-1.271,1.686C34.33,287.439,36.276,286.739,38.354,286.548z"/>
				<path style="fill:#F4A3AA;" d="M108.388,312.434c-3.184-0.953-6.434-1.287-9.845,0.044c-0.943,0.368-1.876,0.765-2.812,1.151
					c3.178-0.324,6.494-0.835,9.52,0.056c1.765,0.52,3.404,1.314,5.045,2.104C109.668,314.665,109.039,313.543,108.388,312.434z"/>
				<path style="fill:#F4A3AA;" d="M151.652,323.072c0.593-0.987,0.849-2.219-0.331-2.661c-1.396-0.524-3.492,0.307-4.825,0.797
					c-1.246,0.458-2.914,0.993-3.763,2.069C145.455,325.526,148.658,324.745,151.652,323.072z"/>
			</g>
			<path style="fill:#F4A3AA;" d="M269.512,243.758c1.068-1.591,2.186-3.145,3.261-4.726c0.311-2.676,0.163-5.464-0.648-7.912
				c-1.823-2.359-3.771-4.516-6.595-5.651c0.017,0.044,0.037,0.088,0.075,0.126c2.571,2.593,3.409,5.847,3.587,9.409
				C269.33,237.783,268.647,241.056,269.512,243.758z"/>
			<g>
				<path style="fill:#D0D0D0;" d="M172.523,267.904c1.466-0.887,3.001-1.661,4.587-2.301c0.864-0.349,1.696-0.589,2.52-0.772
					c-1.702,0.107-3.391,0.403-5.045,0.958c-0.733,0.246-1.451,0.469-2.158,0.663c0.054-0.061,0.108-0.118,0.166-0.179
					c0.356-0.382,0.718-0.758,1.071-1.143c0.607-0.664,1.211-1.37,1.512-2.229c0.056-0.158-0.135-0.151-0.201-0.046
					c-0.49,0.793-1.182,1.425-1.875,2.039c-0.52,0.46-1.505,1.037-1.639,1.766c-0.003,0.015,0.003,0.023,0.002,0.037
					c-3.382,0.783-6.467,0.622-9.312-2.162c1.081,2.82,4.185,3.9,7.103,4.216C170.384,268.58,171.462,268.271,172.523,267.904z"/>
				<path style="fill:#D0D0D0;" d="M227.293,265.197c-2.328,1.288-4.567,1.775-6.854,1.643c-0.053-0.322-0.199-0.606-0.333-0.917
					c-0.282-0.655-0.392-1.468-0.309-2.174c0.043-0.365,0.193-0.696,0.379-1.016c-0.295,0.185-0.595,0.372-0.907,0.558
					c-0.227,0.376-0.402,0.793-0.456,1.32c-0.049,0.494,0.002,1.415,0.288,2.08c-1.21-0.196-2.437-0.538-3.707-1.047
					c-2.904-1.165-7.617-2.297-10.736-0.696c1.834-0.295,3.267-0.422,5.285,0.166c3.151,0.918,6.3,2.235,9.548,2.766
					c0.666,0.108,1.337,0.117,2.012,0.06c1.065-0.152,2.123-0.441,3.214-0.874c0.921-0.365,1.817-0.913,2.682-1.401
					c0.966-0.545,1.831-0.914,2.693-1.151c0.439-0.253,0.876-0.507,1.31-0.759C230.043,263.911,228.789,264.37,227.293,265.197z"/>
				<path style="fill:#D0D0D0;" d="M263.572,260.74c-0.43-0.239-0.864-0.407-1.294-0.571c-0.12,0.031-0.244,0.035-0.364-0.029
					c-0.247-0.131-0.486-0.273-0.717-0.425c-0.338-0.165-0.668-0.359-0.984-0.627c-0.112-0.094-0.19-0.216-0.286-0.323
					c-0.488-0.405-0.965-0.829-1.446-1.244c0.35,1.506,0.906,2.767,2.561,3.54c0.06,0.028,0.122,0.053,0.183,0.08
					c-1.475-0.433-2.944-0.794-4.567-0.927c-0.839-0.069-1.714,0.074-2.589,0.235c1.183,0.188,2.38,0.335,3.592,0.486
					c2.588,0.324,5.163,1.077,7.756,1.287c0.768,0.063,1.508,0.066,2.23,0.026C266.266,261.87,264.908,261.481,263.572,260.74z"/>
				<path style="fill:#D0D0D0;" d="M316.98,255.038c2.111-0.948,3.998-2,6.45-2.347c2.985-0.423,6.078,0.203,9.043,0.691
					c-2.279-0.869-4.635-1.44-7.038-1.89c-0.54-0.017-1.08-0.022-1.622,0.001c-2.9,0.127-4.789,1.367-7.192,2.464
					c0.214-1.045,0.754-1.981,1.06-2.998c0.392-1.302,0.683-2.637,1.364-3.795c-0.145,0.095-0.29,0.189-0.432,0.285
					c-0.166,0.111-0.355,0.234-0.547,0.365c-0.321,0.59-0.593,1.218-0.863,1.859c-0.628,1.489-1.485,2.874-1.841,4.421
					c-0.746-0.448-1.485-0.898-2.219-1.322c-2.158-1.248-4.16-2.783-6.53-3.605c-1.716-0.595-3.531-0.273-5.329-0.039
					c1.498,0.303,3.188,0.655,3.41,0.757c0.09,0.041,0.171,0.095,0.26,0.139c0.612,0.091,1.225,0.229,1.836,0.478
					c2.538,1.032,4.959,3.059,7.346,4.432c3.416,1.966,6.865,3.107,10.52,3.342c0.354-0.093,0.707-0.186,1.063-0.273
					c0.43-0.105,0.855-0.218,1.281-0.335c-1.98-0.006-3.927-0.23-5.903-0.809C319.67,256.44,318.306,255.778,316.98,255.038z"/>
				<path style="fill:#D0D0D0;" d="M95.953,197.224c1.393-0.146,2.734-0.205,4.133,0.179c0.374,0.039,0.733,0.096,1.052,0.214
					c3.015,1.115,5.538,1.992,8.717,0.675c0.04-0.017,0.079-0.037,0.119-0.054c-1.491,0.199-2.956,0.003-4.403-0.366
					c0.346-0.296,0.65-0.618,0.863-0.854c0.78-0.868,1.484-1.937,1.795-3.071c0.056-0.206-0.249-0.105-0.297,0.021
					c-0.368,0.947-1.059,1.735-1.811,2.401c-0.564,0.499-1.232,0.801-1.901,1.114c-0.675-0.212-1.346-0.443-2.016-0.673
					c-2.597-0.894-4.588-0.32-7.092,0.147C95.371,197.08,95.655,197.164,95.953,197.224z"/>
				<path style="fill:#D0D0D0;" d="M141.479,192.527c-2.75,1.099-4.761,3.128-7.792,1.475c-0.911-0.497-1.877-0.708-2.869-0.811
					c-0.097-0.138-0.212-0.337-0.261-0.398c-0.097-0.123-0.19-0.249-0.287-0.374c-0.652-0.365-1.29-0.819-1.915-1.388
					c0.214,0.634,0.492,1.432,0.833,2.061c-0.187-0.006-0.374-0.011-0.562-0.017c-1.684-0.05-3.762,0.285-5.067,1.426
					c1.575-0.558,3.68-0.509,4.902-0.436c1.347,0.081,2.547,0.322,3.643,0.699c0.111,0.023,0.224,0.046,0.333,0.069
					c0.031,0.032,0.072,0.063,0.108,0.095c0.996,0.393,1.893,0.918,2.69,1.6c0.465,0.301,0.842,0.626,0.999,0.995
					c0.164,0.188,0.321,0.387,0.475,0.591c0.257-0.735-0.058-1.521-0.663-2.227c-0.137-0.16-0.323-0.342-0.529-0.526
					c2.185-0.002,4.114-1.084,6.072-2.343C141.837,192.859,141.865,192.373,141.479,192.527z"/>
				<path style="fill:#D0D0D0;" d="M167.418,192.883c-2.101,0.487-4.041-0.061-5.979-0.53c0.22-0.36,0.388-0.767,0.597-1.123
					c0.256-0.434,0.536-0.854,0.813-1.276c-0.177,0.042-0.354,0.085-0.533,0.123c-0.307,0.37-0.615,0.739-0.915,1.117
					c-0.241,0.304-0.514,0.631-0.694,0.988c-1.313-0.293-2.632-0.486-4.007-0.233c-1.286,0.236-2.39,0.643-3.585,1.166
					c-0.089,0.039-0.227,0.14-0.383,0.259c2.019-0.303,3.888-1.489,6.181-0.883c2.167,0.573,4.553,1.326,6.765,1.216
					c0.563-0.09,1.131-0.227,1.712-0.427C167.563,193.219,167.693,192.819,167.418,192.883z"/>
				<path style="fill:#D0D0D0;" d="M206.379,190.967c-1.176,0.351-1.987,1.228-3.261,1.595c-0.868,0.249-1.877,0.272-2.927,0.166
					c0.173-0.075,0.342-0.2,0.403-0.317c0.482-0.929-0.027-2.021-0.299-2.939c-0.105-0.354-0.278-0.699-0.399-1.05
					c-0.069-0.201-0.081-0.363-0.068-0.507c-0.419,0.279-0.802,0.614-1.061,1.025c0.217,1.175,1.326,2.397,0.983,3.529
					c-0.027,0.09-0.026,0.154-0.012,0.204c-0.86-0.113-1.735-0.299-2.575-0.513c0.1-0.128,0.135-0.288-0.016-0.385
					c-0.423-0.275-0.723-0.663-0.98-1.09c-0.684-0.616-1.421-1.127-2.193-1.569c0.555,0.81,0.911,1.903,1.565,2.596
					c-0.408-0.12-0.801-0.239-1.158-0.346c-1.614-0.487-3.092-0.752-4.691-0.135c-0.523,0.202-1.046,0.823-1.423,1.213
					c0.001-0.001-0.181,0.263-0.367,0.543c0.951-0.605,1.978-0.89,3.055-0.954c0.041-0.002,0.074-0.012,0.117-0.013
					c0.028,0,0.057,0.005,0.085,0.005c1.206-0.042,2.468,0.164,3.752,0.504c1.583,0.42,3.152,0.857,4.684,1.027
					c1.47,0.031,2.921-0.134,4.333-0.606c0.308-0.103,0.576-0.239,0.831-0.387c0.387-0.238,0.771-0.518,1.148-0.856
					c0.311-0.279,0.614-0.56,0.919-0.839C206.68,190.895,206.538,190.92,206.379,190.967z"/>
				<path style="fill:#D0D0D0;" d="M228.166,191.058c1.073-0.188,2.19-0.223,3.445,0.101c0.292,0.076,0.579,0.158,0.863,0.241
					c2.332,0.331,4.671,0.851,7.054,1.369c0.139-0.155,0.193-0.369-0.05-0.414c-3.152-0.606-6.058-2.037-9.233-2.556
					c-0.922-0.151-2.21,0.229-3.035,0.546c-0.223,0.086-1.768,0.623-2.912,1.004C225.596,191.136,226.884,191.049,228.166,191.058z"
					/>
			</g>
			<path style="opacity:0.6;fill:#EDEDED;" d="M175.007,272.077c9.094-4.021,17.612,2.346,24.678,1.084
				c-2.227-7.259-10.49-11.784-10.49-11.784c-6.977-4.885-17.677,1.164-21.398-0.466c-3.722-1.628-9.071-4.884-16.282,2.327
				c1.067,1.422,1.761,3.044,2.196,4.819C158.32,271.376,166.712,275.831,175.007,272.077z"/>
			<path style="opacity:0.6;fill:#EDEDED;" d="M218.036,273.24c2.791-0.466,6.28,5.35,6.28,5.35s6.978-9.071,11.629-6.281
				c4.652,2.793,14.654,3.257,10.932-2.093c-3.722-5.349-10.932-7.21-12.561-13.258c-1.395-1.163-7.209-2.558-10.931-0.232
				c-3.721,2.326-9.302,2.791-14.42,1.163c-5.117-1.627-13.49-3.954-19.77,3.489c0,0,7.181,3.935,9.958,10.35
				C203.851,273.666,211.68,275.963,218.036,273.24z"/>
			<path style="opacity:0.6;fill:#EDEDED;" d="M261.299,270.913c6.278,3.491,11.861-4.651,18.607-2.79
				c6.231,1.719,14.245-2.324,12.122-7.719c-1.72-0.457-3.829-0.688-5.61-2.051c-2.607-1.992-7.633-5.599-9.097-9.625
				c-0.006,0.006-0.011,0.012-0.015,0.017c-0.147,0.337-0.289,0.672-0.426,1.003c-1.162-2.326-8.605-2.79-13.024-0.232
				c-4.42,2.558-12.327,2.326-16.979,1.163c-4.651-1.163-12.094,1.163-12.561,6.28c1.319,4.901,6.306,7.054,10.129,10.54
				c2.097,0.233,4.509,0.829,6.153,2.253C254.087,272.774,253.854,266.029,261.299,270.913z"/>
			<path style="opacity:0.6;fill:#EDEDED;" d="M343.401,251.375c-9.77-8.373-26.515-17.676-37.216-8.605
				c-15.899-0.921-21.525-2.9-28.865,5.957c1.464,4.026,6.49,7.634,9.097,9.625c3.953,3.025,9.536,0.467,8.837,7.211
				c-0.16,0.962-0.327,1.912-0.496,2.848c2.773-1.958,7.228-4.239,12.36-3.544c8.604,1.162,13.722,3.489,13.722,3.489
				s7.908-6.745,13.258-5.815c5.051,0.878,13.414,2.581,13.55-3.689C347.137,256.118,345.874,253.495,343.401,251.375z"/>
		</g>
		<g>
			<path style="fill:none;" d="M19.809,336.521c0.034-0.609,0.071-1.227,0.112-1.849C19.885,334.853,19.781,335.505,19.809,336.521z
				"/>
			<path style="fill:#F4A3AA;stroke:#D25C6F;stroke-linecap:round;stroke-linejoin:round;stroke-miterlimit:10;" d="M19.924,334.621
				c-0.001,0.017-0.002,0.034-0.003,0.051c0.007-0.035,0.011-0.053,0.011-0.053L19.924,334.621z"/>
		</g>
		<g>
			<path style="fill:#FFFFFF;" d="M29.978,231.44c-1-1.71-2.042-3.579-2.707-5.528c-0.625,2.447-1.233,6.518-1.266,7.318
				c-0.125,2.982-0.591,5.945-0.718,8.931c-0.366,8.641-0.38,18.305,2.695,26.512c0.91,2.428,2.081,5.569,4.675,6.617
				c0.285,0.115,0.567-0.164,0.686-0.39c1.795-3.441,1.689-7.332,2.178-11.091c0.653-5.032,1.72-10.007,2.564-15.009
				c0.483-2.861,0.698-5.325-0.324-7.62C34.706,238.346,32.08,235.034,29.978,231.44z"/>
			<path style="fill:#FFFFFF;" d="M56.538,288.932c0.281,0.095,0.569,0.182,0.869,0.256c2.479-1.028,3.225-3.55,3.487-6.058
				c0.386-3.692,0.459-7.413,0.791-11.112c0.371-4.135,0.401-8.335,0.879-12.452c0.281-2.42,0.639-4.846,0.395-7.234
				c-0.489-1.144-1.289-2.093-2.718-2.544c-2.481-0.785-5.28-0.764-7.69-1.774c-1.271-0.533-2.422-1.312-3.641-1.95
				c-1.241-0.65-4.246-2.534-3.634,0.263c0.06,0.278-0.096,0.558-0.319,0.749C43.396,262.608,43.837,279.885,56.538,288.932z"/>
			<path style="fill:#FFFFFF;" d="M96.091,264.794c-0.581-1.667-1.567-3.192-3.16-4.484c-2.576-2.09-12.859-7.259-15.45-3.402
				c-0.813,1.212-1.201,3.085-1.37,4.503c-1.188,9.967-2.759,21.621,1.354,31.081c1.739,3.998,5.521,7.106,9.982,5.628
				c4.447-1.472,6.757-5.928,7.766-10.213C96.795,281.184,98.424,271.496,96.091,264.794z"/>
			<path style="fill:#FFFFFF;" d="M138.948,268.163c-0.879-2.349-2.218-4.362-4.153-5.852c-6.55-5.045-21.829-4.896-21.459,6.068
				c0.388,11.483-0.181,25.301,6.509,35.261c1.817,2.706,5.306,8.139,9.165,7.987c3.682-0.145,6.365-8.293,7.195-11.073
				C138.511,292.829,142.533,277.729,138.948,268.163z"/>
			<path style="fill:#FFFFFF;" d="M176.315,286.119c-0.253-4.645-2.887-7.16-6.844-9.376c-2.058-1.152-4.403-1.982-6.702-2.491
				c-1.043-0.232-3.011-1.093-3.973-0.133c-1.329,1.325-1.362,3.651-1.027,5.98c-0.108,4.431,0.09,8.872,0.754,13.253
				c0.71,4.683,1.95,9.727,5.173,13.322c1.475,1.646,3.334,3.043,5.044,4.432c0.761,0.618,2.072,1.495,3.108,0.984
				c3.105-1.532,3.92-6.392,4.121-9.456C176.335,297.098,176.616,291.647,176.315,286.119z"/>
			<path style="fill:#FFFFFF;" d="M231.764,281.065c-0.041-0.067-0.086-0.132-0.134-0.193c-1.64-2.126-4.802,0.384-6.764,0.511
				c-2.423,0.156-3.633-2.912-5.486-3.952c-2.567-1.44-6.068-0.866-8.887-0.664c-2.291,0.164-5.354,0.518-6.535,2.819
				c-1.199,2.338-0.805,5.421-0.726,7.93c0.078,2.485-0.041,4.954,0.242,7.432c0.942,8.247,6.649,17.982,16.471,15.779
				c7.653-1.716,10.567-10.874,11.509-17.63C231.884,290.011,233.526,283.903,231.764,281.065z"/>
			<path style="fill:#FFFFFF;" d="M275.661,276.079c-0.111-0.359-0.255-0.71-0.436-1.052c-2.076-3.931-9.572,0.033-12.719,0.196
				c-2.746,0.142-9.435-2.806-10.419,1.699c-0.864,3.958-1.366,8.011-1.967,12.02c-0.603,4.032-0.993,8.353,0.906,12.089
				c2.331,4.587,7.786,8.908,12.947,7.135c7.543-2.592,10.389-12.123,11.657-19.096
				C276.344,285.162,276.893,280.047,275.661,276.079z"/>
			<path style="fill:#FFFFFF;" d="M316.306,269.674c-3.89-1.071-9.593-0.973-13.394,0.354c-3.978,1.388-5.127,5.894-5.908,9.525
				c-0.834,3.875-1.626,8.287-1.91,12.229c-0.188,2.621,0.956,5.347,3.161,6.915c3.559,2.532,9.105,3.578,12.904,1.145
				c3.559-2.279,5.38-6.619,6.777-10.432C320.212,283.213,325.657,272.25,316.306,269.674z"/>
		</g>
		<g>
			<path style="fill:#FFFFFF;" d="M76.433,227.601c-2.239-4.158-3.519-9.269-4.542-13.846c-0.811-3.623-1.35-7.24-1.258-10.901
				c-2.206,3.796-5.223,9.812-3.77,15.427c3.837,14.823,4.61,12.208,9.745,16.734c0,0,3.914,4.28,8.096,1.176
				c0.948-0.704,1.697-1.627,2.289-2.699C83.474,234.837,78,230.511,76.433,227.601z"/>
			<path style="fill:#FFFFFF;" d="M54.6,234.452c-2.326-3.914-2.61-7.965-3.371-12.364c-0.641-3.702-0.777-7.395,0.941-10.852
				c1.436-2.888,3.393-5.464,5.136-8.172c-3.659,1.74-10.958,7.155-11.543,13.441c-0.508,5.47,3.549,20.902,3.549,20.902l9.867,4.51
				C57.532,239.513,56.091,236.961,54.6,234.452z"/>
			<path style="fill:#FFFFFF;" d="M39.059,215.322c0,0,3.549,18.338,5.126,21.296c1.578,2.958-9.662-5.719-10.254-10.254
				C33.34,221.83,37.481,213.942,39.059,215.322z"/>
			<path style="fill:#FFFFFF;" d="M102.178,224.761c-1.572-1.42-1.666-14.052-0.647-17.516c0.4-1.363,1.108-2.268,1.993-3.039
				c-3.355,0.057-6.327,1.241-6.937,5.002c-1.183,7.296-2.859,15.233,1.134,17.599c0,0,5.324,4.141,10.944,2.366
				C107.084,228.638,103.371,225.838,102.178,224.761z"/>
			<path style="fill:#FFFFFF;" d="M127.299,219.266c-0.176-3.423,1.128-11.011,2.224-11.905c0.523-0.427,1.101-0.764,1.695-1.073
				c-1.635,0.037-3.543-0.452-5.209-0.393c-0.719,0.758-1.261,2.247-1.716,4.794c-0.986,5.521-3.155,16.366,0.197,15.972
				c0,0,5.324,3.401,10.758-3.68C130.997,223.555,127.595,225.033,127.299,219.266z"/>
			<path style="fill:#FFFFFF;" d="M160.179,226.834c-2-1.565-3.125-15.951-0.461-18.66c0.984-1,2.167-1.77,3.353-2.533
				c-1.174,0.396-2.359,0.721-3.556,0.94c-1.084,0.559-1.85,0.952-1.85,0.952c-2.563-0.198-5.422,1.085-6.408,5.423
				c-0.985,4.338-2.545,10.465,1.381,13.606c2.957,2.366,10.355,5.406,12.422,3.746C163.511,230.461,161.41,227.798,160.179,226.834
				z"/>
			<path style="fill:#FFFFFF;" d="M190.585,213.76c0.143-1.392,0.034-6.447,0.356-7.277c0.384-0.989,0.982-2.004,2.187-2.117
				c2.05-0.192,4.24,0.716,6.234,0.328c0.888-0.173,1.72-0.449,2.512-0.797c-0.985,0.15-1.909,0.079-2.699-0.209
				c-2.169-0.789-13.211-5.324-13.408,0.592c-0.197,5.916-4.733,15.578,6.507,18.93c0,0,6.707,1.896,11.239-0.789
				C198.027,223.975,189.808,221.33,190.585,213.76z"/>
			<path style="fill:#FFFFFF;" d="M231.022,216.425c-2.481-1.574-1.892-4.385-1.608-6.949c0.417-3.778,0.114-7.758,0.719-11.506
				c-2.192,1.205-5.911,0.619-6.113,3.352c-0.394,5.324-0.296,14.247,5.62,17.205c0,0,3.758,2.471,7.472-0.595
				C234.776,217.89,232.426,217.315,231.022,216.425z"/>
		</g>
		<g>
			<path style="fill:#FFFFFF;" d="M169.305,263.196c-2.711-1.211-6.831-4.142-9.952-2.789c-0.418,0.182-1.377,0.724-2.171,1.37
				c-1.05,0.629-1.878,1.481-1.982,2.623c-0.237,2.593,4.994,4.311,6.909,3.988c0.274-0.046,0.612-0.374,0.568-0.674
				c-0.222-1.496-1.222-2.658-1.499-4.094c2.686,0.296,5.193,1.708,7.855,0.427C169.271,263.933,169.73,263.385,169.305,263.196z"/>
			<path style="fill:#FFFFFF;" d="M194.99,269.024c-1.154-2.696-3.594-4.833-6.115-6.23c-2.159-1.196-9.527-2.814-11.306-0.192
				c-1.284,1.893,2.164,1.051,3.181,1.315c0.895,0.231,1.425,0.385,0.866,1.162c-0.428,0.595-2.353,0.84-3.014,1.085
				c-2.274,0.846-4.336,2.103-6.376,3.397c-0.337,0.214-0.624,0.879-0.068,0.996c1.028,0.216,1.919-0.055,2.901-0.372
				c2.611-0.845,4.991-1.05,7.716-0.899c1.98,0.109,3.963,0.133,5.943,0.243c1.896,0.105,3.705,0.591,5.611,0.437
				C194.702,269.937,195.15,269.399,194.99,269.024z"/>
			<path style="fill:#FFFFFF;" d="M206.838,259.201c-3.003-0.413-6.465-1.491-9.44-0.357c-1.204,0.458-2.926,1.474-2.521,3.072
				c0.748,2.957,3.545,5.728,5.178,8.292c0.806,1.266,1.899,1.713,3.123,1.455c0.215,0.148,0.421,0.281,0.596,0.38
				c1.608,0.91,4.576,0.322,6.321,0.214c1.686-0.104,3.395-0.06,5-0.631c2.802-0.995-0.098-3.1-1.25-3.882
				c-3.359-2.279-8.117-1.573-11.943-1.001c-0.091-0.8,0.843-1.999,1.24-2.454c0.932-1.069,2.396-1.164,3.726-1.171
				c0.088,0,0.179-0.028,0.268-0.072c1.955,0.029,3.945,0.667,5.808,1.137c1.128,0.285,3.628,1.173,4.454-0.204
				C219.503,260.469,208.342,259.408,206.838,259.201z"/>
			<path style="fill:#FFFFFF;" d="M242.143,269.616c-2.04-2.768-6.367-6.582-10.171-5.136c-0.728,0.277-2.877,1.311-4.338,2.455
				c-0.64,0.289-1.268,0.622-1.877,1.048c-0.972,0.679-2.475,2.566-1.671,3.881c0.896,1.464,2.481,0.723,3.732,0.066
				c1.52-0.797,2.776-1.755,4.483-2.169c2.735-0.665,6.057,0.561,8.641,1.294C241.653,271.257,242.649,270.302,242.143,269.616z"/>
			<path style="fill:#FFFFFF;" d="M277.888,255.955c-0.825-1.88-3.597-3.507-5.356-4.43c-2.719-1.426-7.508-0.173-10.301,0.376
				c-3.828,0.753-7.648,1.315-11.487,1.981c-2.78,0.482-6.096-0.069-8.806,0.884c-0.623,0.099-1.21,0.283-1.694,0.615
				c-2.14,1.469,0.187,4.479,1.219,5.851c2.59,3.444,6.034,4.913,10.25,5.385c2.741,0.307,5.485-0.088,8.226,0.208
				c2.444,0.263,4.924,1.3,7.391,1.051c2.189-0.222,2.028-2.954,0.494-3.889c-3.902-2.377-8.914-1.439-13.245-2.137
				c-0.924-0.149-1.858-0.413-2.6-1.009c0.132-0.195,0.303-0.422,0.458-0.638c0.205-0.111,0.403-0.235,0.617-0.332
				c1.082-0.492,2.244-0.662,3.399-0.894c0.331-0.065,0.652-0.404,0.635-0.753c-0.037-0.781,0.059-1.491,0.233-2.203
				c0.517-0.136,1.037-0.162,1.557-0.028c1.954,0.504,3.39,2.09,5.416,2.535c4.397,0.963,8.859-0.003,13.008-1.546
				C277.647,256.853,278.059,256.347,277.888,255.955z"/>
			<path style="fill:#FFFFFF;" d="M317.331,259.795c-2.302-2.868-6.342-4.992-9.672-6.385c-3.301-1.381-7.332-2.511-11.045-2.897
				c1.789-1.074,3.554-2.127,5.678-2.528c3.359-0.634,6.242,1.586,9.49,1.812c3.11,0.216,7.101-2.132,6.422-5.775
				c-0.677-3.622-4.215-1.979-6.503-1.207c-3.159,1.066-6.921,1.01-10.257,1.091c-1.43,0.035-2.815,0.199-4.191,0.402
				c-3.305-0.426-6.195-0.207-9.581,0.774c-6.863,1.988-5.439,6.193-2.938,8.656c1.553,1.53,3.706,2.255,5.654,3.156
				c1.481,0.686,3.008,1.301,4.557,1.813c1.602,0.53,2.646,1.652,3.895,2.701c1.58,1.327,4.601,0.151,6.269-0.2
				c3.43-0.722,7.879-1.922,11.178-0.161C316.876,261.363,317.753,260.32,317.331,259.795z"/>
			<path style="fill:#FFFFFF;" d="M333.001,254.381c-2.293-0.614-4.667-1.423-6.199,0.496c-0.655,0.821-1.603,2.384-0.072,3.005
				c2.531,1.029,5.354,1.67,8.025,2.257c3.154,0.694,7.333,0.423,8.107-3.492C343.575,253.038,336.377,253.797,333.001,254.381z"/>
		</g>
		<g>
			<path style="fill:#FFFFFF;" d="M98.353,193.236c-2.009-0.285-4.305-0.67-6.321-0.265c-3.269,0.657-2.028,5.038,0.372,6.054
				c0.486,0.206,0.956-0.398,0.979-0.819c0.135-2.347,3.065-1.879,4.677-1.919c1.152-0.027,4.615-0.634,3.046-2.46
				c-0.482-0.561-1.456-0.469-2.114-0.52C98.787,193.292,98.573,193.267,98.353,193.236z"/>
			<path style="fill:#FFFFFF;" d="M117.51,199.822c0.097-0.81-0.162-1.796-0.793-2.881c-1.236-2.126-3.185-4.954-5.735-2.681
				c-1.135,1.011-2.091,1.53-1.008,2.94c1.198,1.559,0.327,2.102-1.302,2.183c-0.787,0.039-1.585-0.048-2.369,0.061
				c-0.175,0.024-2.107,0.702-1.212,1.063c1.971,0.796,4.666,1.085,6.785,1.437C113.811,202.265,117.188,202.512,117.51,199.822z"/>
			<path style="fill:#FFFFFF;" d="M132.556,198.163c-2.876-2.726-7.124-3.058-10.758-1.723c-0.302,0.013-0.576,0.053-0.83,0.11
				c0.774-0.928,3.297-2.594,3.541-2.71c2.371-1.122,1.543-2.821-0.579-3.683c-2.587-1.05-7.748,0.587-6.611,4.115
				c0.507,1.575,1.115,3.119,1.985,4.46c0.838,1.291,1.409,2.409,2.941,2.937c1.586,0.547,3.312,0.39,4.945,0.685
				c1.69,0.305,6.087,1.725,7.35-0.178C135.385,200.905,133.413,198.974,132.556,198.163z"/>
			<path style="fill:#FFFFFF;" d="M139.016,187.371c-2.138-0.811-5.128-0.012-7.102,0.912c-2.26,1.059-2.823,2.991-0.506,4.084
				c1.794,0.845,4.321,1.352,6.146,0.332C139.206,191.776,141.981,188.494,139.016,187.371z"/>
			<path style="fill:#FFFFFF;" d="M160.541,194.385c-1.48-0.633-3.117-0.812-4.719-0.682c-0.889,0.072-1.776,0.119-2.629,0.407
				c-2.536-0.098-2.657-2.062-1.328-3.871c0.495-0.673,1.691-1.228,1.204-2.347c-0.271-0.621-1.255-0.708-1.822-0.82
				c-1.53-0.297-4.486-1.079-5.814,0.077c-2.848,2.478,1.98,8.998,3.314,11.344c2.302,4.048,7.211,2.238,10.32,0.393
				C160.137,198.252,162.912,195.399,160.541,194.385z"/>
			<path style="fill:#FFFFFF;" d="M171.617,187.43c-0.796-0.883-1.841-1.575-2.695-1.823c-2.116-0.614-4.431,1.269-5.588,2.818
				c-0.534,0.715-1.346,1.974-0.979,2.922c0.437,1.134,1.867,0.898,2.84,0.913c2.025,0.032,5.489,1.091,7.043-0.667
				C173.37,190.312,172.744,188.68,171.617,187.43z"/>
			<path style="fill:#FFFFFF;" d="M197.944,183.996c-0.379-0.344-0.752-0.719-1.375-0.931c-1.516-0.516-3.57-0.176-5.086,0.215
				c-2.987,0.771-2.569,3.018-5.62,3.549c-1.775,0.31-7.602,0.011-8.176,2.168c-0.473,1.778,1.402,3.797,2.981,4.352
				c2.528,0.89,7.332,0.074,7.964-3.126c0.037-0.186,0.023-0.362-0.015-0.533c-0.139-0.628,4.436-0.938,4.834-0.944
				c1.092-0.018,1.953,0.438,2.897-0.309c1.501-1.189,2.179-1.563,4.085-1.68c0.75-0.046,3.872-0.368,2.862-1.526
				c-0.884-1.014-2.423-0.462-3.567-0.466C198.847,184.762,198.391,184.4,197.944,183.996z"/>
			<path style="fill:#FFFFFF;" d="M212.424,192.466c-2.033-1.395-3.556,0.917-5.415,1.363c-3.084,0.74-6.336,0.591-9.428-0.024
				c-1.529-0.305-3.114-0.66-4.682-0.504c-0.744,0.074-2.847,0.492-3.117,1.313c-0.302,0.916,0.979,1.066,1.664,1.145
				c1.271,0.146,2.475,0.472,3.637,1.024c3.741,1.777,8.593,3.657,12.638,1.758C208.712,198.075,214.364,193.798,212.424,192.466z"
				/>
			<path style="fill:#FFFFFF;" d="M222.094,185.189c-1.941-1.263-5.292-1.006-7.241-0.899c-1.499,0.083-2.894,1.118-2.034,2.678
				c0.787,1.425,2.59,2.11,3.693,3.247c1.227,1.267,4.312,4.711,5.869,1.828c0.634-1.174,1.368-3.184,1.18-4.534
				C223.41,186.428,222.863,185.689,222.094,185.189z"/>
		</g>
		<path style="opacity:0.9;fill:#EDEDED;" d="M93.679,299.915c0,0,12.027-6.705,13.408-14.395c1.381-7.69,0.789-24.846,0.789-24.846
			s-1.577,23.86-4.732,28.001C99.989,292.816,93.679,299.915,93.679,299.915z"/>
		<path style="opacity:0.9;fill:#EDEDED;" d="M69.425,251.605c0,0.591-0.986,27.211-2.366,30.563
			c-1.38,3.353-6.705,7.296-8.676,7.296c0,0,7.295-4.141,7.69-10.451C66.467,272.703,69.425,251.605,69.425,251.605z"/>
		<path style="opacity:0.9;fill:#EDEDED;" d="M34.72,277.238c0,0,3.944-1.379,4.732-7.493c0.789-6.113,0.197-21.494,1.972-27.606
			c0,0-2.366,5.521-2.563,16.367c-0.197,10.845-1.183,13.211-1.183,13.211L34.72,277.238z"/>
		<path style="opacity:0.9;fill:#EDEDED;" d="M151.455,267.971c0,0,0.395,20.901-1.577,25.239
			c-1.972,4.339-7.494,13.212-12.817,17.353c0,0,9.662-11.044,11.437-19.128C150.271,283.352,151.455,267.971,151.455,267.971z"/>
		<path style="opacity:0.9;fill:#EDEDED;" d="M87.172,196.195c0,0,3.549,6.507,3.549,8.874c0,2.366-1.774,11.042-1.183,16.761
			c0.592,5.718-0.197,7.493-0.197,7.493s-1.971-7.099-0.986-14.001c0.986-6.901,0.394-13.211,0.394-13.211L87.172,196.195z"/>
		<path style="opacity:0.9;fill:#EDEDED;" d="M119.905,206.054c0,0-1.183,15.184-4.732,17.747c0,0,2.958-15.184,2.761-16.958
			C117.736,205.068,119.905,206.054,119.905,206.054z"/>
	</g>
	<g>
		<g>
			<path style="fill:#F4A3AA;stroke:#D25C6F;stroke-linecap:round;stroke-linejoin:round;stroke-miterlimit:10;" d="M352.68,77.423
				C326.631,66.386,146.954,20.94,119.581,18.291c0,0-67.55-12.362-77.263,3.532c-9.713,15.894-1.765,37.086-7.065,45.475
				c-4.912,7.779-6.782,21.244-5.267,28.794c1.649-4.619,4.142-8.019,7.77-8.926c6.769-0.996,8.688,9.988,9.224,17.204
				c0.001,0.027,0.004,0.055,0.006,0.082c0.01-0.024,0.021-0.046,0.033-0.069c3.911-8.465,9.668-13.455,15.757-13.097
				c10.007,0.589,15.6,11.479,15.6,11.479c1.877,4.021,3.178,8.135,3.973,12.302c0.57,2.995,0.888,6.015,0.931,9.054
				c0.665-2.784,1.516-5.511,2.574-8.04c3.472-8.293,9.198-14.433,18.127-13.316c4.868,1.481,12.926,7.081,15.321,22.8
				c0.43,2.818,0.679,5.957,0.694,9.462c0.06-0.258,0.111-0.507,0.174-0.768c0,0,0.827-3.55,2.839-7.661
				c2.8-5.72,7.898-12.525,16.291-12.354c9.941,0.203,16.244,9.216,16.986,21.543c-1.165,18.486,3.289,0.899,4.939,1.35
				c3.933-5.734,9.908-10.762,18.694-10.237c9.673,1.675,12.878,10.167,13.63,19.016c0.305,3.596,0.208,7.251-0.026,10.529
				c0.589-3.157,1.544-6.614,3.087-9.704c2.53-5.065,6.643-9.135,13.33-9.246c8.894-0.145,13.235,7.724,14.424,16.706
				c0.394,2.984,0.44,6.092,0.19,9.07c0.803-2.689,1.99-5.551,3.739-8.018c3.043-4.292,7.791-7.385,15.203-6.279
				c10.704,1.599,16.371,8.141,18.805,15.342c2.313,16.225,4.396,1.165,6.556,1.739c3.193-4,8.363-7.223,16.728-6.485
				c12.792,1.128,19.448,8.151,21.588,16.606c0.827,3.265,0.981,6.746,0.553,10.182c0.771-2.6,2.154-5.888,4.614-8.824
				c3.484-4.16,9.133-7.609,18.279-7.368c13.459,0.354,18.281,7.743,19.096,16.007c6.775-4.12,8.398-4.776,12.531-12.458
				c7.776-14.458,9.07-31.155,12.713-50.543c1.949-10.379,2.905-23.383-3.823-32.509C366.824,84.816,359.282,80.22,352.68,77.423z"
				/>
			<path style="opacity:0.4;fill:#F4A3AA;" d="M371.136,90.664c-4.311-5.847-11.853-10.443-18.456-13.241
				c-11.424-4.84-52.391-16.297-97.101-27.86c6.721,2.796,14.757,7.131,15.949,14.359c1.203,7.288-5.204,51.697-13.504,63.054
				c-4.293,5.872-10.976,9.631-18.227,10.393c-3.706,0.39-7.491-0.682-10.857-2.144c-3.994-1.735-9.433-5.846-13.938-5.049
				c-3.55,0.627-6.999,2.31-10.686,1.396c-3.319-0.823-5.574-2.916-7.648-5.554c-0.812-1.032-1.655-2.12-2.536-3.198
				c-2.724-2.44-5.448-4.699-8.235-5.409c-8.518-2.169-15.33,4.958-23.645,4.434c-3.855-0.243-6.906-1.85-9.648-4.543
				c-3.265-3.206-6.585-7.294-11.52-7.676c-5.185-0.401-9.822,2.71-14.895,2.281c-2.876-0.243-5.38-1.366-7.547-3.275
				c-2.872-2.531-5.396-5.823-8.912-7.515c-4.346-2.091-8.517-1.928-13.139-1.027c-3.178,0.62-6.79,1.463-9.973,0.374
				c-4.13-1.413-6.356-4.668-9.275-7.694c-4.525-4.69-9.896-7.661-16.476-5.176c-3.155,1.192-6.866,3.352-10.374,2.938
				c-6.11-0.722-8.616-8.697-15.315-6.994c-1.153,0.293-4.058,2.099-5.402,1.528c-0.443,4.121-0.39,8.038,0.21,11.026
				c1.649-4.619,4.142-8.019,7.77-8.926c6.769-0.996,8.688,9.988,9.224,17.204c0.001,0.027,0.004,0.055,0.006,0.082
				c0.01-0.024,0.021-0.046,0.033-0.069c3.911-8.465,9.668-13.455,15.757-13.097c10.007,0.589,15.6,11.479,15.6,11.479
				c1.877,4.021,3.178,8.135,3.973,12.302c0.57,2.995,0.888,6.015,0.931,9.054c0.665-2.784,1.516-5.511,2.574-8.04
				c3.472-8.293,9.198-14.433,18.127-13.316c4.868,1.481,12.926,7.081,15.321,22.8c0.43,2.818,0.679,5.957,0.694,9.462
				c0.06-0.258,0.111-0.507,0.174-0.768c0,0,0.827-3.55,2.839-7.661c2.8-5.72,7.898-12.525,16.291-12.354
				c9.941,0.203,16.244,9.216,16.986,21.543c-1.165,18.486,3.289,0.899,4.939,1.35c3.933-5.734,9.908-10.762,18.694-10.237
				c9.673,1.675,12.878,10.167,13.63,19.016c0.305,3.596,0.208,7.251-0.026,10.529c0.589-3.157,1.544-6.614,3.087-9.704
				c2.53-5.065,6.643-9.135,13.33-9.246c8.894-0.145,13.235,7.724,14.424,16.706c0.394,2.984,0.44,6.092,0.19,9.07
				c0.803-2.689,1.99-5.551,3.739-8.018c3.043-4.292,7.791-7.385,15.203-6.279c10.704,1.599,16.371,8.141,18.805,15.342
				c2.313,16.225,4.396,1.165,6.556,1.739c3.193-4,8.363-7.223,16.728-6.485c12.792,1.128,19.448,8.151,21.588,16.606
				c0.827,3.265,0.981,6.746,0.553,10.182c0.771-2.6,2.154-5.888,4.614-8.824c3.484-4.16,9.133-7.609,18.279-7.368
				c13.459,0.354,18.281,7.743,19.096,16.007c6.775-4.12,8.398-4.776,12.531-12.458c7.776-14.458,9.07-31.155,12.713-50.543
				C376.908,112.793,377.864,99.789,371.136,90.664z"/>
			<path style="fill:#FDF3EE;stroke:#D0D0D0;stroke-linecap:round;stroke-linejoin:round;stroke-miterlimit:10;" d="M43.053,143.088
				c0,0-10.889,0-13.832-8.83c-2.945-8.829-4.416-43.856,8.535-47.093c10.008-1.472,9.419,23.253,9.419,23.253L43.053,143.088z"/>
			<path style="fill:#FDF3EE;stroke:#D0D0D0;stroke-linecap:round;stroke-linejoin:round;stroke-miterlimit:10;" d="M78.374,102.765
				c0,0-5.593-10.89-15.6-11.479c-10.007-0.589-19.131,13.245-20.604,33.261c-1.472,19.131,3.533,22.369,13.54,25.605
				c5.404,1.75,13.664,5.638,19.322,2.907c4.728-2.283,4.883-8.189,6.091-12.596C84.626,127.68,84.004,114.826,78.374,102.765z"/>
			<path style="fill:#FDF3EE;stroke:#D0D0D0;stroke-linecap:round;stroke-linejoin:round;stroke-miterlimit:10;" d="M81.317,138.673
				c0.59-15.319,6.182-37.969,22.663-35.908c6.77,2.06,19.722,12.067,15.012,46.21c-1.178,11.479-6.182,14.717-20.604,12.363
				C83.966,158.983,80.729,153.978,81.317,138.673z"/>
			<path style="fill:#FDF3EE;stroke:#D0D0D0;stroke-linecap:round;stroke-linejoin:round;stroke-miterlimit:10;" d="
				M154.607,152.507c0,0,5.592-26.784,25.313-25.606c15.305,2.648,14.422,22.369,13.244,33.553
				c-1.177,11.185-15.894,21.487-23.546,20.015C161.965,178.997,151.369,170.167,154.607,152.507z"/>
			<path style="fill:#FDF3EE;stroke:#D0D0D0;stroke-linecap:round;stroke-linejoin:round;stroke-miterlimit:10;" d="
				M192.576,166.635c0,0-0.588-28.844,17.365-29.139c17.955-0.294,17.367,32.083,9.712,40.324
				C212.002,186.062,192.574,189.005,192.576,166.635z"/>
			<path style="fill:#FDF3EE;stroke:#D0D0D0;stroke-linecap:round;stroke-linejoin:round;stroke-miterlimit:10;" d="
				M222.893,172.816c0,0,0.882-26.785,20.604-23.842c19.718,2.944,22.368,22.665,19.131,32.378
				c-3.239,9.712-7.257,11.885-22.045,7.744C232.301,188.504,221.715,193.714,222.893,172.816z"/>
			<path style="fill:#FDF3EE;stroke:#D0D0D0;stroke-linecap:round;stroke-linejoin:round;stroke-miterlimit:10;" d="
				M263.806,178.703c0,0,1.766-20.897,21.779-19.132c20.015,1.767,25.02,17.954,21.19,31.494
				c-3.824,13.54-10.587,14.004-24.192,12.821C273.064,202.536,259.389,204.311,263.806,178.703z"/>
			<path style="fill:#FDF3EE;stroke:#D0D0D0;stroke-linecap:round;stroke-linejoin:round;stroke-miterlimit:10;" d="
				M306.775,191.064c0,0,1.475-21.486,23.844-20.897c22.367,0.589,20.898,20.603,16.775,31.789
				c-4.12,11.184-10.479,6.841-17.486,7.253C319.852,209.801,305.063,211.576,306.775,191.064z"/>
			<path style="fill:#FDF3EE;stroke:#D0D0D0;stroke-linecap:round;stroke-linejoin:round;stroke-miterlimit:10;" d="M120.17,134.258
				c0,0,4.707-20.309,19.13-20.015c14.423,0.294,21.194,19.132,14.423,39.734c-6.77,20.604-21.192,18.25-25.313,17.662
				C124.29,171.051,113.4,162.22,120.17,134.258z"/>
			<path style="opacity:0.6;fill:#EDEDED;" d="M154.607,152.507c0,0,5.592-26.784,25.313-25.606
				c15.305,2.648,14.422,22.369,13.244,33.553c-1.177,11.185-15.894,21.487-23.546,20.015
				C161.965,178.997,151.369,170.167,154.607,152.507z"/>
			<path style="opacity:0.6;fill:#EDEDED;" d="M192.576,166.635c0,0-0.588-28.844,17.365-29.139
				c17.955-0.294,17.367,32.083,9.712,40.324C212.002,186.062,192.574,189.005,192.576,166.635z"/>
			<path style="opacity:0.6;fill:#EDEDED;" d="M222.893,172.816c0,0,0.882-26.785,20.604-23.842
				c19.718,2.944,22.368,22.665,19.131,32.378c-3.239,9.712-7.257,11.885-22.045,7.744
				C232.301,188.504,221.715,193.714,222.893,172.816z"/>
			<path style="opacity:0.9;fill:#EDEDED;" d="M263.806,178.703c0,0,1.766-20.897,21.779-19.132
				c20.015,1.767,25.02,17.954,21.19,31.494c-3.824,13.54-10.587,14.004-24.192,12.821
				C273.064,202.536,259.389,204.311,263.806,178.703z"/>
			<path style="opacity:0.9;fill:#EDEDED;" d="M306.775,191.064c0,0,1.475-21.486,23.844-20.897
				c22.367,0.589,20.898,20.603,16.775,31.789c-4.12,11.184-10.479,6.841-17.486,7.253
				C319.852,209.801,305.063,211.576,306.775,191.064z"/>
			<path style="opacity:0.6;fill:#EDEDED;" d="M120.17,134.258c0,0,4.707-20.309,19.13-20.015
				c14.423,0.294,21.194,19.132,14.423,39.734c-6.77,20.604-21.192,18.25-25.313,17.662C124.29,171.051,113.4,162.22,120.17,134.258
				z"/>
		</g>
		<g>
			<path style="fill:#F4A3AA;" d="M200.16,36.474c0,0-85.382-22.282-142.763-19.029c0,0-12.423-0.592-15.972,12.718
				c-3.549,13.31,2.07,28.987-1.183,33.127c-3.253,4.141-6.803,10.648-7.69,15.972c0,0,2.07-5.028,6.803-9.169
				c4.732-4.141,7.986-7.099,7.099-16.86c-0.887-9.76,2.761-27.704,16.071-30.07C75.833,20.798,127.694,19.319,200.16,36.474z"/>
			<path style="fill:#F4A3AA;" d="M58.97,84.361c2.591-0.972,5.135-1.177,7.608-0.772c0.983,0.063,1.974,0.184,2.97,0.387
				c4.229,0.862,7.744,3.291,10.625,6.359c0.21-0.249,0.327-0.558,0.205-0.805c-5.589-11.3-17.806-12.592-26.177-3.703
				c-0.083,0.088-0.134,0.186-0.17,0.283C55.644,85.396,57.291,84.798,58.97,84.361z"/>
			<path style="fill:#F4A3AA;" d="M99.923,95.29c0.61-0.143,1.238-0.23,1.904-0.177c0.865,0.069,1.686,0.271,2.483,0.54
				c3.275,0.511,6.757,1.497,9.42,3.292c0.027-0.209,0.003-0.412-0.115-0.574c-2.406-3.306-5.308-5.346-9.314-6.17
				c-3.34-0.688-5.568,1.091-8.136,2.515c-0.86,0.604-1.674,1.278-2.464,1.991c0.197,0.031,0.383,0.022,0.574,0.03
				C96.07,95.939,97.949,95.387,99.923,95.29z"/>
			<path style="fill:#F4A3AA;" d="M137.761,105.695c4.774-0.021,9.129,2.277,13.751,2.434c-0.006-0.006-0.006-0.015-0.012-0.021
				c-3.855-4.325-9.231-5.778-14.456-4.594c-0.619,0.322-1.231,0.656-1.828,1.013c-0.832,0.498-1.669,0.994-2.473,1.536
				c-0.134,0.088-0.263,0.183-0.395,0.274c0.002,0.001,0.007,0.002,0.01,0.004C134.126,105.902,135.968,105.703,137.761,105.695z"/>
			<path style="fill:#F4A3AA;" d="M176.795,114.634c1.972-0.003,3.918-0.178,5.518-1.438c0.535-0.422,1.072-1.776-0.114-1.618
				c-2.784,0.371-5.733,0.867-8.407,1.752C174.577,114.085,175.637,114.449,176.795,114.634z"/>
		</g>
		<g>
			<path style="fill:#FFFFFF;" d="M39.938,117.89c1.496-9.054,4.547-18.19,0.176-26.242c-0.583-0.434-0.992-0.924-0.95-1.563
				c-0.015-0.022-0.031-0.043-0.046-0.065c-0.154,0.067-0.299,0.161-0.372,0.254c-4.926,6.343-7.519,14.001-8.163,21.957
				c-0.471,5.828-1.354,12.204,0.291,17.93c0.981,3.416,3.191,10.103,6.805,6.582c0.638-0.622,1.109-1.416,1.477-2.307
				C38.821,128.917,39.032,123.371,39.938,117.89z"/>
			<path style="fill:#FFFFFF;" d="M68.735,104.208c-1.204-9.607-6.211-9.761-11.852-8.445c-0.147,0.021-0.296,0.057-0.437,0.113
				c-2.593,3.421-4.667,7.026-6.35,10.82c-0.04,0.21-0.095,0.418-0.129,0.629c-2.883,8.122-4.566,16.357-4.189,25.3
				c0.374,8.844,7.978,13.81,15.938,15.486c0.449,0.095,1.034-0.273,1.387-0.742C66.665,147.983,69.717,112.043,68.735,104.208z"/>
			<path style="fill:#FFFFFF;" d="M84.066,146.123c0.121,2.066,0.472,3.924,1.108,5.56c4.193,3.445,9.703,6.068,15.205,6.72
				c0.1-0.625,2.173,0.524,3.948,0.327c5.82-0.646,4.088-11.784,3.944-18.536c-0.229-10.691,2.76-31.55-7.379-35.035
				c0.556,0.191-4.791,1.46-5.438,1.908c-1.426,0.99-1.739,2.786-2.874,4.068c-2.311,2.607-3.958,5.707-5.201,8.878
				c-3.201,8.164-3.813,17.18-3.328,25.809C84.057,145.921,84.06,146.022,84.066,146.123z"/>
			<path style="fill:#FFFFFF;" d="M132.169,119.637c-4.722,0.494-7.363,8.052-8.529,11.878c-0.199,0.654-0.375,1.267-0.528,1.815
				c-1.835,6.583-2.426,13.955-1.937,20.757c0.181,2.523,1.808,10.568,5.602,12.629c1.942,1.055,8.586,2.842,12.133-0.758
				c1.892-1.921,2.294-6.915,2.576-9.4c0.563-4.952,0.565-10.005,0.432-14.982c-0.151-5.651-0.701-21.706-9.115-21.961
				C132.589,119.607,132.377,119.616,132.169,119.637z"/>
			<path style="fill:#FFFFFF;" d="M163.549,172.17c0.158,0.001,0.311,0.059,0.428,0.212c0.25,0.325,0.507,0.631,0.767,0.926
				c1.893,1.657,4.185,2.961,6.565,2.857c1.151-0.444,2.232-1.508,3.154-3.388c2.858-5.831,3.58-12.84,3.815-19.246
				c0.135-3.662-0.422-19.7-4.755-22.974c-1.07,0.162-2.13,0.603-3.151,1.226c-2.585,1.578-4.906,4.283-6.437,6.321
				c-3.813,5.076-5.462,11.091-5.752,17.629c-0.256,5.788,1.207,11.949,5.024,16.077C163.318,171.93,163.434,172.05,163.549,172.17z
				"/>
			<path style="fill:#FFFFFF;" d="M214.583,151.817c-0.181-0.485-0.367-0.961-0.56-1.424c-1.027-2.476-3.828-8.506-7.088-8.684
				c-2.498-0.136-4.404,2.938-5.563,4.743c-3.546,5.525-5.517,12.158-5.896,18.691c-0.249,4.303,0.087,8.761,1.495,12.676
				c1.667,2.431,4.161,3.981,7.527,3.587C219.681,179.629,218.722,162.935,214.583,151.817z"/>
			<path style="fill:#FFFFFF;" d="M243.246,158.513c-0.324-1.845-1.477-6.154-4.567-5.982c-2.389,0.133-6.391,3.174-7.265,4.621
				c-4.575,7.57-6.628,19.582-3.348,27.881c0.553,1.402,2.931,0.396,3.714-0.184C241.641,177.564,245.109,169.188,243.246,158.513z"
				/>
			<path style="fill:#FFFFFF;" d="M286.285,169.664c-0.101-5.635-4.465-9.457-9.746-6.892c-7.837,3.806-9.335,11.336-10.914,18.831
				c-0.728,3.461-0.847,9.85,1.157,13.087c2.482,4.012,7.765,2.671,11.336,0.96C287.909,190.957,286.442,178.521,286.285,169.664z"
				/>
			<path style="fill:#FFFFFF;" d="M328.777,173.599c-8.155-3.17-17.633,8.525-19.179,15.554c-0.908,4.137,0.113,10.124,1.593,14.49
				c1.036,3.059,9.478,3.243,11.94,2.706C335.471,203.66,342.425,178.904,328.777,173.599z"/>
		</g>
		<path style="opacity:0.9;fill:#EDEDED;" d="M110.834,111.01c0,0,4.732,2.958,5.718,13.804c0.986,10.845-0.788,31.155-0.788,31.155
			s0.198-21.493-0.789-29.183C113.989,119.095,110.834,111.01,110.834,111.01z"/>
		<path style="opacity:0.9;fill:#EDEDED;" d="M71.397,98.194c0,0,8.281,7.689,9.07,20.507c0.789,12.817-2.958,29.578-2.958,29.578
			s-2.169,3.944-6.112,3.747c0,0,3.55-1.578,5.127-12.029C78.101,129.546,80.467,115.546,71.397,98.194z"/>
		<path style="opacity:0.9;fill:#EDEDED;" d="M148.3,121.067c0.197,0.592,6.901,8.676,5.916,20.508
			c-0.986,11.831-4.141,18.732-8.282,22.085c0,0,5.915-11.437,5.521-22.676C151.061,129.743,148.3,121.067,148.3,121.067z"/>
		<path style="opacity:0.9;fill:#EDEDED;" d="M190.694,146.307c0,0-1.183,22.084-9.268,27.211c0,0,6.901-2.366,8.676-11.437
			C191.877,153.011,190.694,146.307,190.694,146.307z"/>
	</g>
</g>
</svg>
