<?xml version="1.0" encoding="utf-8"?>
<!-- Generator: Adobe Illustrator 27.5.0, SVG Export Plug-In . SVG Version: 6.00 Build 0)  -->
<svg version="1.1" xmlns="http://www.w3.org/2000/svg" xmlns:xlink="http://www.w3.org/1999/xlink" x="0px" y="0px"
	 viewBox="0 0 512 512" style="enable-background:new 0 0 512 512;" xml:space="preserve">
<g id="_x30_4">
</g>
<g id="_x30_3">
</g>
<g id="_x30_2">
</g>
<g id="_x30_1">
</g>
<g id="PREVIEW">
	<g>
		<g>
			<g>
				<path style="fill:#CCDCFC;" d="M122.111,126.483c-11.877-5.791-35.98-15.435-56.107-10.122
					c-27.908,7.366-41.225,42.783-18.133,68.283c23.092,25.5,57.942,55.108,68.85,54.258s6.376-19.55,14.167-20.259
					c7.791-0.708,6.092,20.967,14.45,19.692c8.358-1.275,64.457-82.167,64.174-113.333
					C209.237,94.765,147.891,100.133,122.111,126.483z"/>
				<path style="opacity:0.4;fill:#FFFFFF;" d="M60.628,138.879c-7.392,6.905-15.521,10.215-18.157,7.394
					c-2.635-2.821,1.222-10.706,8.614-17.61c7.393-6.905,15.521-10.215,18.156-7.394C71.877,124.09,68.021,131.974,60.628,138.879z"
					/>
			</g>
			<path style="fill:#183080;" d="M175.229,143.561l-93.5,9.634c0,0,4.958,31.93,25.783,30.372
				c13.564-1.015,16.983-13.706,17.674-22.851c2.151-2.546,5.808-4.644,11.179-0.721c1.317,9.325,5.776,22.591,20.588,20.542
				C179.479,177.42,175.229,143.561,175.229,143.561z M125.339,156.395c-0.012-3.021-0.261-5.043-0.261-5.043h10.767
				c0,0-0.062,1.433,0.049,3.661C133.078,153.833,129.221,153.348,125.339,156.395z"/>
			<g>
				<path style="fill:#183080;" d="M119.173,195.231c-8.461-6.603-15.892-9.292-22.087-7.991c-6.109,1.283-8.774,6.117-8.8,6.166
					l-1.497-0.806c0.123-0.227,3.075-5.579,9.949-7.023c6.709-1.411,14.607,1.388,23.482,8.314L119.173,195.231z"/>
				<path style="fill:#183080;" d="M88.187,199.212c-1.372,0.001-2.463-0.385-3.265-1.154c-2.931-2.815-0.584-9.424-0.307-10.169
					l1.594,0.593c-0.644,1.734-1.918,6.614-0.108,8.35c1.107,1.063,3.45,0.889,6.774-0.505l0.658,1.568
					C91.438,198.773,89.653,199.212,88.187,199.212z"/>
			</g>
			<g>
				<path style="fill:#547AF7;" d="M121.324,84.486l32.229,14.875l-10.483,20.4l13.316-3.825c0,0-8.606,14.734-27.749,18.275
					c-19.143,3.542-29.909-9.492-29.909-9.492l-12.467-20.275L121.324,84.486z"/>
				<path style="fill:#183080;" d="M156.954,115.369l-57.617,10.014c0,0,10.053,12.598,29.302,9.438
					C147.887,131.661,156.954,115.369,156.954,115.369z"/>
				<path style="fill:#FFC23B;" d="M101.836,124.152c0,2.66-1.119,4.817-2.499,4.817c-1.381,0-2.501-2.157-2.501-4.817
					c0-2.66,1.119-4.816,2.501-4.816C100.718,119.336,101.836,121.492,101.836,124.152z"/>
				<polygon style="fill:#FFC23B;" points="99.336,125.383 146.471,115.369 145.621,119.053 99.337,126.281 				"/>
				<polygon style="fill:#FFC23B;" points="127.349,106.349 134.004,101.344 125.855,102.517 123.521,96.528 120.847,103.237 
					114.312,104.178 119.321,107.066 116.296,114.661 123.325,109.374 130.037,113.244 				"/>
			</g>
			<g>
				
					<rect x="95.449" y="159.817" transform="matrix(0.8057 -0.5923 0.5923 0.8057 -75.1863 93.8064)" style="opacity:0.1;fill:#FFFFFF;" width="19.912" height="3.4"/>
				
					<rect x="94.398" y="164.172" transform="matrix(0.7959 -0.6055 0.6055 0.7959 -78.1761 99.8651)" style="opacity:0.1;fill:#FFFFFF;" width="29.239" height="3.4"/>
				
					<rect x="144.768" y="154.85" transform="matrix(0.8057 -0.5923 0.5923 0.8057 -62.6641 122.0573)" style="opacity:0.1;fill:#FFFFFF;" width="19.912" height="3.4"/>
				
					<rect x="143.112" y="159.817" transform="matrix(0.7959 -0.6055 0.6055 0.7959 -65.5955 128.4706)" style="opacity:0.1;fill:#FFFFFF;" width="29.239" height="3.4"/>
			</g>
		</g>
		<g>
			<path style="fill:#CCDCFC;" d="M75.354,207.878c0,0-35.559,5.95-37.967,2.55c-2.408-3.4,13.459-13.317,28.759-16.434l1.275-4.25
				c0,0-41.509,10.767-40.092,20.684c1.417,9.916,43.633,1.841,43.633,1.841s-2.324,3.445,0.143,7.985l-18.134,0.798l3.541,13.6
				l27.909-9.35L75.354,207.878z"/>
			<path style="fill:#547AF7;" d="M56.105,232.137l-0.496-1.626l17.389-5.31c-5.603-5.856-2.859-13.162-2.828-13.239l1.584,0.616
				l-0.792-0.308l0.793,0.307c-0.111,0.29-2.658,7.172,3.442,12.363l1.183,1.007L56.105,232.137z"/>
			
				<rect x="54.393" y="224.499" transform="matrix(0.967 -0.2548 0.2548 0.967 -55.3245 23.621)" style="fill:#547AF7;" width="18.231" height="1.7"/>
			
				<rect x="53.526" y="221.297" transform="matrix(0.9835 -0.1807 0.1807 0.9835 -39.1183 14.9254)" style="fill:#547AF7;" width="17.653" height="1.7"/>
		</g>
		<g>
			<g>
				<polygon style="fill:#183080;" points="210.645,152.77 216.313,177.42 219.429,177.42 220.988,149.37 				"/>
				<polygon style="fill:#183080;" points="183.195,163.591 171.121,95.395 259.521,88.594 254.846,156.028 				"/>
				<polygon style="fill:#94B6FF;" points="251.116,152.795 185.713,157.02 177.496,99.928 252.291,93.806 				"/>
				<path style="opacity:0.62;fill:#CCDCFC;" d="M217.135,102.335c-13.476,0-24.439,10.963-24.439,24.438
					c0,13.476,10.963,24.438,24.439,24.438c13.475,0,24.438-10.963,24.438-24.438C241.573,113.297,230.611,102.335,217.135,102.335z
					 M217.135,107.988c4.153,0,7.993,1.357,11.105,3.647l-26.365,26.074c-2.215-3.083-3.526-6.858-3.526-10.937
					C198.35,116.414,206.777,107.988,217.135,107.988z M217.135,145.558c-4.245,0-8.164-1.417-11.313-3.801l26.422-26.13
					c2.309,3.121,3.676,6.976,3.676,11.146C235.92,137.13,227.493,145.558,217.135,145.558z"/>
				<g>
					<path style="fill:#183080;" d="M240.839,122.241c-0.55-3.666-8.708-3.208-8.708-3.208s5.775-3.208,4.858-5.133
						c-0.645-1.353-6.312,2.862-9.625,5.487v-3.562l-22.915,4.125l0.547,4.854c-2.734-2.621-9.309-8.625-10.538-6.963
						c-1.559,2.108,4.857,6.967,4.857,6.967s-6.69,2.016-5.59,3.758c1.099,1.742,6.171,0,6.171,0s-6.539,8.158-4.248,9.808
						c1.73,1.246,7.376-4.507,10.04-7.402l0.318,2.819l21.356-1.008v-3.49c3.386,2.267,9.251,5.924,9.899,4.498
						c0.918-2.017-4.857-8.433-4.857-8.433S241.389,125.908,240.839,122.241z"/>
					<g>
						<polygon style="fill:#FFC23B;" points="212.869,118.434 209.918,118.965 206.418,133.771 209.275,133.636 						"/>
						<polygon style="fill:#FF33B4;" points="217.784,117.549 214.832,118.08 211.176,133.546 214.034,133.412 						"/>
						<polygon style="fill:#FFC23B;" points="222.264,116.743 219.313,117.274 215.514,133.341 218.372,133.206 						"/>
						<polygon style="fill:#FF33B4;" points="227.165,115.861 224.214,116.392 220.261,133.118 223.118,132.982 						"/>
					</g>
				</g>
			</g>
			<g>
				<path style="fill:#CCDCFC;" d="M215.608,171.344c-3.943-3.157-8.558-5.209-10.062-3.132c-2.975,4.108,3.967,12.75,3.967,12.75
					l-27.059-0.708l-2.266,4.392h32.583c0,0,1.774,12.042,9.104,11.192c7.33-0.85,7.614-23.517,7.614-23.517L215.608,171.344z"/>
				<path style="fill:#547AF7;" d="M220.174,182.926c-3.73,0-10.05-7.401-11.316-8.931l1.31-1.084
					c3.006,3.63,8.134,8.609,10.135,8.306c0.194-0.029,0.419-0.122,0.607-0.579c0.926-2.25-3.941-8.003-9.3-10.991
					c-2.659-1.483-4.718-1.842-5.375-0.938c-2.125,2.936,2.125,9.455,3.942,11.72l1.146,1.429l-23.255-0.608l0.045-1.699
					l19.673,0.515c-1.956-2.789-5.516-8.779-2.928-12.352c1.257-1.734,3.949-1.575,7.581,0.449
					c5.245,2.925,11.604,9.333,10.044,13.123c-0.48,1.165-1.311,1.519-1.924,1.612C220.433,182.917,220.305,182.926,220.174,182.926
					z"/>
				
					<rect x="209.241" y="182.31" transform="matrix(0.0827 -0.9966 0.9966 0.0827 13.6995 381.2033)" style="fill:#547AF7;" width="9.345" height="1.701"/>
				
					<rect x="219.434" y="181.289" transform="matrix(0.2547 -0.967 0.967 0.2547 -17.7757 353.2436)" style="fill:#547AF7;" width="1.7" height="13.731"/>
				
					<rect x="220.661" y="177.113" transform="matrix(0.0478 -0.9989 0.9989 0.0478 27.1948 396.422)" style="fill:#547AF7;" width="1.7" height="13.67"/>
				
					<rect x="221.869" y="178.931" transform="matrix(0.9986 -0.0525 0.0525 0.9986 -9.1344 12.093)" style="fill:#547AF7;" width="7.141" height="1.7"/>
			</g>
		</g>
	</g>
	<g>
		<g>
			<g>
				<polygon style="fill:#183080;" points="299.478,97.734 309.04,78.981 334.966,99.009 318.178,111.971 				"/>
				
					<rect x="296.992" y="89.535" transform="matrix(0.4872 -0.8733 0.8733 0.4872 78.6207 314.6574)" style="fill:#547AF7;" width="20.484" height="1.7"/>
				
					<rect x="300.916" y="92.956" transform="matrix(0.5744 -0.8186 0.8186 0.5744 55.54 294.4319)" style="fill:#547AF7;" width="19.985" height="1.699"/>
				
					<rect x="306.508" y="95.972" transform="matrix(0.6514 -0.7588 0.7588 0.6514 36.3522 272.7601)" style="fill:#547AF7;" width="16.965" height="1.7"/>
				
					<rect x="309.145" y="98.637" transform="matrix(0.7363 -0.6766 0.6766 0.7363 16.5377 241.4123)" style="fill:#547AF7;" width="17.747" height="1.7"/>
				
					<rect x="312.501" y="102.099" transform="matrix(0.7504 -0.661 0.661 0.7504 12.4519 238.8692)" style="fill:#547AF7;" width="19.962" height="1.7"/>
			</g>
			<path style="fill:#CCDCFC;" d="M335.348,106.568l-0.764-1.519c2.997-1.507,4.768-3.463,5.266-5.812
				c0.89-4.203-2.531-8.43-2.566-8.472l1.313-1.082c0.163,0.197,3.973,4.886,2.918,9.895
				C340.908,102.463,338.833,104.815,335.348,106.568z"/>
			<path style="fill:#CCDCFC;" d="M339.935,108.306l-0.589-1.595c2.569-0.95,4.285-2.477,5.1-4.54
				c1.672-4.229-0.865-9.39-0.891-9.441l1.521-0.76c0.12,0.239,2.898,5.899,0.951,10.827
				C345.027,105.328,342.977,107.181,339.935,108.306z"/>
			<path style="fill:#CCDCFC;" d="M303.083,81.555l-1.685-0.225c0.657-4.91,2.374-7.992,5.103-9.162
				c4.149-1.776,8.93,1.64,9.132,1.786l-0.999,1.376c-0.043-0.03-4.208-3-7.468-1.598C305.027,74.652,303.654,77.284,303.083,81.555
				z"/>
			<path style="fill:#CCDCFC;" d="M298.132,79.021l-1.698-0.078c0.193-4.193,1.683-7.288,4.427-9.198
				c5.938-4.132,15.54-1.142,15.947-1.012l-0.516,1.62c-0.093-0.029-9.219-2.864-14.463,0.79
				C299.543,72.734,298.299,75.385,298.132,79.021z"/>
			<g>
				<polygon style="fill:#547AF7;" points="357.491,160.846 300.54,116.293 305.216,105.809 359.403,159.98 				"/>
				<path style="fill:#94B6FF;" d="M300.54,91.571l24.013,18.754c0,0-14.025,21.621-28.688,12.059S300.54,91.571,300.54,91.571z"/>
				
					<rect x="311.697" y="85.805" transform="matrix(0.6251 -0.7805 0.7805 0.6251 38.1892 281.8863)" style="fill:#547AF7;" width="1.7" height="30.765"/>
			</g>
		</g>
		<g>
			<path style="fill:#94B6FF;" d="M451.628,220.984l-26.988,34l-68.425-55.888c0,0-15.513-24.438-2.763-38.25l-7.225-4.037
				l7.013-8.288l5.313,6.73c0,0,19.975-17.78,40.375-5.667L451.628,220.984z"/>
			<path style="fill:#CCDCFC;" d="M355.214,205.729c-3.649,0.001-6.396-1.1-8.177-3.28c-3.761-4.602-1.716-12.251-1.628-12.574
				l1.64,0.45c-0.02,0.071-1.899,7.134,1.308,11.052c1.626,1.985,4.337,2.862,8.085,2.609l0.115,1.696
				C356.096,205.713,355.649,205.729,355.214,205.729z"/>
			<path style="fill:#CCDCFC;" d="M353.463,209.265c-4.656,0-8.15-1.368-10.411-4.083c-5.094-6.118-1.953-16.722-1.817-17.17
				l1.627,0.494c-0.031,0.101-3.01,10.182,1.499,15.592c2.354,2.823,6.401,3.932,12.042,3.292l0.191,1.689
				C355.499,209.203,354.454,209.265,353.463,209.265z"/>
			<path style="fill:#CCDCFC;" d="M404.817,151.689c-0.843-5.806-2.934-9.72-6.217-11.636c-4.459-2.602-9.722-0.606-9.775-0.586
				l-0.62-1.584c0.245-0.095,6.058-2.318,11.236,0.692c3.762,2.187,6.137,6.517,7.057,12.869L404.817,151.689z"/>
			<path style="fill:#CCDCFC;" d="M407.784,148.655c-0.467-6.282-2.365-10.675-5.641-13.058c-2.018-1.466-5.64-2.918-11.428-1.506
				c-0.378,0.092-0.678,0.165-1.011-0.084l0.511-0.679l-0.11-0.839c0.042-0.008,0.111-0.025,0.207-0.049
				c6.424-1.565,10.523,0.106,12.831,1.784c3.699,2.689,5.83,7.503,6.336,14.306L407.784,148.655z"/>
			<g>
				<path style="fill:#FFFFFF;" d="M388.728,191.977c0,3.58-2.902,6.482-6.481,6.482c-3.58,0-6.482-2.902-6.482-6.482
					c0-3.58,2.902-6.481,6.482-6.481C385.826,185.497,388.728,188.398,388.728,191.977z"/>
				<path style="fill:#183080;" d="M387.323,188.986c0,1.154-0.936,2.089-2.089,2.089c-1.154,0-2.089-0.935-2.089-2.089
					c0-1.154,0.936-2.089,2.089-2.089C386.387,186.896,387.323,187.832,387.323,188.986z"/>
			</g>
			<g>
				<path style="fill:#FFFFFF;" d="M402.446,178.828c0,4.753-3.853,8.607-8.607,8.607c-4.753,0-8.606-3.853-8.606-8.607
					c0-4.753,3.853-8.606,8.606-8.606C398.593,170.222,402.446,174.075,402.446,178.828z"/>
				<path style="fill:#183080;" d="M392.162,183.832c0,1.154-0.935,2.089-2.089,2.089s-2.089-0.935-2.089-2.089
					c0-1.154,0.936-2.089,2.089-2.089S392.162,182.678,392.162,183.832z"/>
			</g>
			<polygon style="fill:#547AF7;" points="400.699,150.717 357.491,201.76 352.391,198.337 397.087,146.184 			"/>
			<path style="fill:#547AF7;" d="M366.133,171.613c0,4.343-2.03,7.863-4.533,7.863c-2.504,0-4.534-3.52-4.534-7.863
				c0-4.342,2.029-7.862,4.534-7.862C364.103,163.751,366.133,167.27,366.133,171.613z"/>
			<path style="fill:#FF33B4;" d="M376.544,159.43c0,4.343-2.03,7.863-4.533,7.863c-2.504,0-4.534-3.52-4.534-7.863
				c0-4.342,2.029-7.862,4.534-7.862C374.515,151.567,376.544,155.087,376.544,159.43z"/>
			<g>
				<path style="fill:#183080;" d="M405.603,198.836c5.639,6.087,8.796,12.332,7.053,13.947c-1.744,1.614-7.728-2.011-13.367-8.098
					c-5.639-6.087-8.796-12.332-7.053-13.946C393.98,189.123,399.964,192.749,405.603,198.836z"/>
				<path style="fill:#FFFFFF;" d="M394.997,198.337l4.675-3.978c0,0-4.968-4.389-7.065-3.019
					C390.817,192.509,394.997,198.337,394.997,198.337z"/>
				<path style="fill:#FF91D7;" d="M405.728,209.403c0,0-1.806-4.675,3.825-4.038C409.553,205.365,417.31,217.053,405.728,209.403z"
					/>
			</g>
			<polygon style="fill:#547AF7;" points="451.628,220.984 424.641,254.984 418.752,251.208 447.532,214.691 			"/>
		</g>
	</g>
	<g>
		<g>
			<g>
				<path style="fill:#FF91D7;" d="M100.996,375.825c9.35,16.662,41.084,9.43,55.109,8.508s17.708,11.982,17.708,11.982l5.667-4.821
					l0.85-10.636v-65.793l-29.795-9.075l-35.372,8.224l-17.001,25.24L100.996,375.825z"/>
				<path style="fill:#183080;" d="M126.354,316.058c0,0-28.192,38.285-11.192,72.316l-32.442-2.304
					c0,0-14.875-73.132,50.575-82.349c65.45-9.217,108.517,8.792,98.6,77.563l-59.783,4.786c0,0,8.076-61.362-21.108-69.444
					L126.354,316.058z"/>
				<g>
					<path style="fill:#FFFFFF;" d="M155.715,377.339l-9.919-14.982c1.836-1.523,3.264-4.007,2.516-8.015
						c0,0,15.725,5.105,16.575,14.607C165.388,374.558,160.118,376.607,155.715,377.339z"/>
					<path style="fill:#183080;" d="M150.794,378.603c-0.464,0-0.756-0.011-0.819-0.015l0.076-1.699
						c0.09,0.006,8.928,0.35,12.534-3.422c1.141-1.193,1.616-2.647,1.456-4.443c-0.652-7.286-11.017-11.961-14.703-13.4
						c0.164,2.246-0.345,4.199-1.518,5.821c-2.474,3.423-6.995,4.066-7.186,4.093l-0.963,0.129v-4.506
						c-3.672,2.44-7.991,2.809-10.679,1.807c-1.751-0.655-2.835-1.862-3.055-3.4c-0.207-1.449,0.333-2.121,0.823-2.43
						c1.175-0.742,3.158,0.055,4.553,0.807v-17.072h1.7v20.163l-1.321-0.88c-1.634-1.088-3.589-1.852-4.025-1.579
						c-0.023,0.015-0.124,0.204-0.045,0.751c0.164,1.145,1.16,1.745,1.967,2.047c2.51,0.938,6.998,0.355,10.377-2.569l1.406-1.218
						v6.053c1.314-0.355,3.662-1.233,5.079-3.199c1.127-1.566,1.473-3.564,1.027-5.941l-0.264-1.406l1.362,0.441
						c0.664,0.215,16.27,5.393,17.159,15.338c0.205,2.283-0.442,4.225-1.922,5.773C160.335,378.279,153.221,378.603,150.794,378.603
						z"/>
					
						<rect x="149.048" y="365.01" transform="matrix(0.723 -0.6908 0.6908 0.723 -209.3067 208.8286)" style="fill:#183080;" width="13.447" height="0.851"/>
					
						<rect x="152.52" y="358.731" transform="matrix(0.8324 -0.5542 0.5542 0.8324 -178.6065 146.5224)" style="fill:#183080;" width="0.85" height="19.647"/>
					<polygon style="fill:#183080;" points="162.349,374.804 148.472,356.944 149.143,356.421 163.02,374.281 					"/>
					
						<rect x="158.733" y="354.97" transform="matrix(0.8164 -0.5775 0.5775 0.8164 -181.1514 158.7908)" style="fill:#183080;" width="0.85" height="18.652"/>
					<path style="fill:#183080;" d="M146.951,355.214l-1.527-0.75c0.039-0.08,0.98-1.955,3.115-2.681
						c1.534-0.522,3.252-0.323,5.107,0.593l-0.752,1.524c-1.436-0.708-2.717-0.88-3.808-0.507
						C147.635,353.886,146.956,355.201,146.951,355.214z"/>
				</g>
				<g>
					<path style="fill:#183080;" d="M140.203,353.024l-1.631-0.482c0.083-0.278,2.079-6.858,7.385-8.582
						c3.167-1.027,6.763-0.091,10.696,2.785l3.735-3l1.064,1.326l-4.771,3.832l-0.53-0.409c-3.667-2.823-6.917-3.807-9.663-2.919
						C142.037,347.017,140.221,352.965,140.203,353.024z"/>
					
						<rect x="153.666" y="343.647" transform="matrix(0.5354 -0.8446 0.8446 0.5354 -218.474 291.8514)" style="fill:#183080;" width="4.722" height="1.7"/>
				</g>
				<g>
					<rect x="109.495" y="348.186" style="fill:#183080;" width="7.791" height="1.701"/>
					
						<rect x="113.178" y="341.467" transform="matrix(0.2957 -0.9553 0.9553 0.2957 -249.9951 352.4717)" style="fill:#183080;" width="1.7" height="8.601"/>
					<path style="fill:#FFFFFF;" d="M130.43,348.601c0,3.015-3.71,5.459-8.288,5.459c-4.577,0-8.287-2.444-8.287-5.459
						c0-3.016,3.71-5.459,8.287-5.459C126.72,343.142,130.43,345.585,130.43,348.601z"/>
					<path style="fill:#183080;" d="M128.275,344.938c-3.408,0.085-6.133,1.921-6.133,4.179c0,1.91,1.948,3.518,4.607,4.021
						c2.219-0.979,3.681-2.646,3.681-4.537C130.43,347.189,129.61,345.906,128.275,344.938z"/>
				</g>
				<polygon style="fill:#183080;" points="134.938,339.436 156.026,333.073 137.887,345.569 				"/>
				<polygon style="fill:#183080;" points="112.165,334.45 130.43,340.234 111.295,341.198 				"/>
			</g>
			<g>
				<g>
					<polygon style="fill:#547AF7;" points="155.113,312.514 219.713,315.774 224.388,323.856 151.429,323.856 					"/>
					<g>
						
							<rect x="155.601" y="316.205" transform="matrix(0.0114 -0.9999 0.9999 0.0114 -161.9427 469.4587)" style="fill:#183080;" width="1.701" height="0.85"/>
						<path style="fill:#183080;" d="M215.292,318.155l-1.718-0.021l0.02-1.7l1.718,0.02L215.292,318.155z M211.856,318.115
							l-1.719-0.018l0.02-1.701l1.719,0.02L211.856,318.115z M208.418,318.076l-1.718-0.019l0.02-1.702l1.718,0.02L208.418,318.076z
							 M204.982,318.037l-1.718-0.021l0.02-1.7l1.718,0.019L204.982,318.037z M201.545,317.997l-1.718-0.02l0.02-1.7l1.718,0.02
							L201.545,317.997z M198.108,317.958l-1.718-0.02l0.02-1.701l1.718,0.02L198.108,317.958z M194.672,317.919l-1.718-0.02
							l0.02-1.701l1.718,0.02L194.672,317.919z M191.235,317.88l-1.718-0.021l0.02-1.7l1.718,0.02L191.235,317.88z M187.799,317.839
							l-1.719-0.02l0.02-1.699l1.719,0.02L187.799,317.839z M184.361,317.8l-1.718-0.02l0.02-1.701l1.718,0.021L184.361,317.8z
							 M180.925,317.761l-1.718-0.02l0.02-1.701l1.718,0.02L180.925,317.761z M177.488,317.722l-1.719-0.02l0.02-1.701l1.719,0.02
							L177.488,317.722z M174.051,317.682l-1.718-0.019l0.02-1.701l1.718,0.02L174.051,317.682z M170.614,317.643l-1.718-0.019
							l0.02-1.702l1.718,0.021L170.614,317.643z M167.178,317.603l-1.718-0.019l0.02-1.701l1.718,0.019L167.178,317.603z
							 M163.741,317.564l-1.718-0.02l0.02-1.7l1.718,0.02L163.741,317.564z M160.304,317.524l-1.718-0.02l0.02-1.701l1.718,0.02
							L160.304,317.524z"/>
						
							<rect x="216.595" y="316.904" transform="matrix(0.0115 -0.9999 0.9999 0.0115 -102.3688 531.1025)" style="fill:#183080;" width="1.701" height="0.85"/>
					</g>
					<g>
						<rect x="154.763" y="320.667" style="fill:#183080;" width="0.851" height="1.701"/>
						<path style="fill:#183080;" d="M217.659,322.368h-1.724v-1.701h1.724V322.368z M214.212,322.368h-1.724v-1.701h1.724V322.368z
							 M210.765,322.368h-1.724v-1.701h1.724V322.368z M207.318,322.368h-1.723v-1.701h1.723V322.368z M203.871,322.368h-1.723
							v-1.701h1.723V322.368z M200.424,322.368h-1.724v-1.701h1.724V322.368z M196.977,322.368h-1.724v-1.701h1.724V322.368z
							 M193.53,322.368h-1.724v-1.701h1.724V322.368z M190.083,322.368h-1.723v-1.701h1.723V322.368z M186.637,322.368h-1.724
							v-1.701h1.724V322.368z M183.189,322.368h-1.724v-1.701h1.724V322.368z M179.743,322.368h-1.724v-1.701h1.724V322.368z
							 M176.295,322.368h-1.723v-1.701h1.723V322.368z M172.848,322.368h-1.723v-1.701h1.723V322.368z M169.402,322.368h-1.724
							v-1.701h1.724V322.368z M165.954,322.368h-1.723v-1.701h1.723V322.368z M162.508,322.368h-1.723v-1.701h1.723V322.368z
							 M159.061,322.368h-1.723v-1.701h1.723V322.368z"/>
						<rect x="219.382" y="320.667" style="fill:#183080;" width="0.85" height="1.701"/>
					</g>
				</g>
				<g>
					<polygon style="fill:#547AF7;" points="130.43,325.417 89.238,328.961 93.488,321.446 128.763,314.073 					"/>
					<path style="fill:#183080;" d="M91.867,327.681l-0.158-1.693l1.693-0.158l0.158,1.693L91.867,327.681z M95.253,327.365
						l-0.158-1.693l1.693-0.157l0.158,1.693L95.253,327.365z M98.641,327.052l-0.158-1.693l1.693-0.158l0.158,1.693L98.641,327.052z
						 M102.027,326.736l-0.158-1.693l1.693-0.157l0.158,1.693L102.027,326.736z M105.414,326.421l-0.158-1.693l1.693-0.156
						l0.158,1.693L105.414,326.421z M108.801,326.106l-0.158-1.693l1.694-0.157l0.158,1.693L108.801,326.106z M112.188,325.792
						l-0.158-1.693l1.693-0.158l0.158,1.693L112.188,325.792z M115.575,325.476l-0.158-1.693l1.693-0.156l0.158,1.693
						L115.575,325.476z M118.962,325.163l-0.158-1.693l1.693-0.158l0.158,1.693L118.962,325.163z M122.35,324.847l-0.158-1.693
						l1.544-0.143l0.158,1.693L122.35,324.847z"/>
					<path style="fill:#183080;" d="M93.795,324.69l-0.332-1.668l1.668-0.332l0.332,1.668L93.795,324.69z M97.131,324.026
						l-0.332-1.668l1.669-0.331l0.332,1.669L97.131,324.026z M100.467,323.364l-0.332-1.669l1.668-0.331l0.332,1.668
						L100.467,323.364z M103.803,322.7l-0.332-1.668l1.668-0.332l0.332,1.668L103.803,322.7z M107.14,322.036l-0.332-1.668
						l1.667-0.332l0.332,1.668L107.14,322.036z M110.476,321.372l-0.332-1.668l1.668-0.332l0.332,1.669L110.476,321.372z
						 M113.812,320.709l-0.332-1.669l1.668-0.33l0.332,1.668L113.812,320.709z M117.148,320.046l-0.332-1.668l1.668-0.332
						l0.332,1.668L117.148,320.046z M120.484,319.382l-0.332-1.668l1.668-0.332l0.332,1.668L120.484,319.382z"/>
				</g>
				<g>
					<path style="fill:#94B6FF;" d="M159.863,316.628c-6.6,14.589-20.184,22.684-30.34,18.08
						c-10.157-4.604-13.04-20.162-6.439-34.75c6.601-14.588,20.184-22.684,30.341-18.08
						C163.581,286.481,166.464,302.04,159.863,316.628z"/>
					<path style="opacity:0.2;fill:#FFFFFF;" d="M153.063,314.556c-4.959,10.961-15.165,17.043-22.796,13.584
						c-7.631-3.459-9.796-15.148-4.837-26.109c4.959-10.96,15.165-17.042,22.795-13.584
						C155.855,291.905,158.021,303.595,153.063,314.556z"/>
					<path style="fill:#FFFFFF;" d="M145.087,311.131c0,6.284-2.956,11.378-6.604,11.378c-3.646,0-6.604-5.094-6.604-11.378
						c0-6.286,2.957-11.38,6.604-11.38C142.13,299.751,145.087,304.845,145.087,311.131z"/>
				</g>
			</g>
		</g>
		<g>
			<g>
				<polygon style="fill:#FFC23B;" points="167.225,393.518 185.288,388.559 181.675,406.976 171.758,409.384 				"/>
				<path style="fill:#94B6FF;" d="M228.921,402.866c-1.133-14.166-28.222-18.895-46.639-13.937l-7.761,16.204l-5.915-12.658
					c0,0-7.969,4.999-8.819,12.648l8.254,4.26l3.222,12.891l26.067,7.51l-6.517-34.851c0,0,15.867-2.975,18.7,8.075
					c2.833,11.05-8.217,17.425-8.217,17.425l2.258,1.604l0,0l0.964,5.23l4.917-1.049l0.001-0.004l7.018,4.984
					C216.455,431.2,230.054,417.034,228.921,402.866z"/>
				<polygon style="fill:#183080;" points="173.644,408.696 163.558,402.379 166.587,399.397 163.813,399.397 164.986,394.999 
					166.628,395.436 166.026,397.696 170.737,397.696 166.284,402.081 174.546,407.255 				"/>
				<polygon style="fill:#183080;" points="178.911,408.155 177.497,407.212 184.529,396.663 178.839,394.767 185.367,391.846 
					183.765,388.974 185.249,388.145 187.756,392.64 183.519,394.534 187.179,395.754 				"/>
				
					<rect x="214.52" y="409.549" transform="matrix(0.4499 -0.8931 0.8931 0.4499 -255.0969 422.4577)" style="fill:#183080;" width="1.699" height="17.494"/>
				<path style="fill:#183080;" d="M218.721,424.968c0,0.781-1.269,1.416-2.834,1.416c-1.564,0-2.833-0.635-2.833-1.416
					c0-0.783,1.269-1.418,2.833-1.418C217.452,423.55,218.721,424.185,218.721,424.968z"/>
				<g>
					<path style="fill:#94B6FF;" d="M170.979,409.272l-7.068-2.513c0,0-3.819,35.374-13.087,14.347l-2.835-0.342l0,0l-6.655-4.201
						l-3.152,3.018h0.001l-5.811-0.7c0,0,16.77,35.003,35.525,8.978C170.63,424.068,173.079,416.968,170.979,409.272z"/>
					<polygon style="fill:#183080;" points="136.96,426.26 151.281,421.913 152.009,423.55 137.943,427.711 					"/>
					<path style="fill:#183080;" d="M140.016,423.033c0.152,0.549-0.546,1.221-1.559,1.501c-1.013,0.281-1.957,0.064-2.109-0.484
						c-0.152-0.549,0.546-1.221,1.559-1.501C138.919,422.268,139.864,422.484,140.016,423.033z"/>
				</g>
			</g>
			<g>
				<path style="fill:#FFC23B;" d="M225.308,441.684L62.604,370.284c0,0-9.776,10.908-9.068,15.3
					c0.708,4.392,43.492,23.251,48.025,22.392c2.024-0.383,3.007-3.634,3.476-7.111l118.925,47.479L225.308,441.684z"/>
				<g>
					<path style="fill:#FF91D7;" d="M208.5,434.311c0.442,3.986-3.306,8.772-10.744,9.707c-9.563,1.207-20.12-8.994-20.12-8.994
						l7.141-11.126l-2.397-1.054c4.786-9.061,16.788,3.535,16.788,3.535l4.386-4.342l5.882,4.182l-2.329,4.98
						C207.931,432.102,208.39,433.173,208.5,434.311z"/>
					<path style="fill:#183080;" d="M181.571,438.819l-0.614-1.585c0.31-0.121,7.612-3.06,7.873-10.879l1.698,0.057
						C190.229,435.371,181.924,438.685,181.571,438.819z"/>
					<path style="fill:#183080;" d="M188.284,442.782l-0.81-1.494c0.254-0.139,6.225-3.498,6.063-11.629l1.7-0.033
						C195.419,438.821,188.576,442.625,188.284,442.782z"/>
					<path style="fill:#183080;" d="M194.857,444.716l-0.933-1.422l0.466,0.711l-0.468-0.709c0.238-0.16,5.826-3.978,4.134-11.918
						l1.663-0.355C201.659,440.128,194.925,444.671,194.857,444.716z"/>
				</g>
				<g>
					<path style="fill:#CCDCFC;" d="M60.479,383.317c0,0,7.438-31.238,7.296-31.025c-0.142,0.213,44.553,20.117,44.553,20.117
						l-12.722,26.563L60.479,383.317z"/>
					<polygon style="fill:#94B6FF;" points="66.963,385.747 65.312,385.345 73.088,354.977 74.74,355.379 					"/>
					<polygon style="fill:#94B6FF;" points="73.636,388.501 71.997,388.044 80.449,359.011 82.087,359.468 					"/>
					<polygon style="fill:#94B6FF;" points="79.142,390.725 77.522,390.209 86.833,361.116 88.453,361.631 					"/>
					<polygon style="fill:#94B6FF;" points="95.24,397.29 93.719,396.529 106.802,369.903 108.323,370.664 					"/>
					
						<rect x="79.918" y="380.16" transform="matrix(0.3631 -0.9318 0.9318 0.3631 -294.5699 331.0999)" style="fill:#94B6FF;" width="29.953" height="1.7"/>
					<polygon style="fill:#94B6FF;" points="84.967,393.16 83.355,392.622 93.186,363.95 94.797,364.488 					"/>
				</g>
				<g>
					<path style="fill:#FF33B4;" d="M111.019,371.825c0,0-13.141-7.018-27.591-4.775c-14.45,2.242-34.872-10.791-12.265-26.232
						c0,0-0.944,8.357,7.007,7.721C86.12,347.899,113.251,345.884,111.019,371.825z"/>
					<g>
						<path style="fill:#547AF7;" d="M79.88,360.091c-6.01-0.129-12.633-0.189-18.27-2.563c0.609,1.655,1.71,3.149,3.15,4.442
							c4.362,0.772,8.902,0.883,13.22,0.975c8.474,0.182,16.835-1.908,25.297-1.434c3.51,0.197,5.965,1.568,7.613,3.609
							c-0.315-2.23-0.923-4.162-1.744-5.852c-1.296-0.34-2.64-0.537-3.968-0.612C96.7,358.181,88.355,360.272,79.88,360.091z"/>
						<path style="fill:#547AF7;" d="M74.522,355.393c7.457,0.694,14.608,0.055,22.039-0.642c2.881-0.269,5.874-0.502,8.851-0.477
							c-1.167-1.059-2.461-1.941-3.842-2.672c-1.472,0.098-2.93,0.223-4.354,0.355c-7.107,0.665-30.706,4.206-31.077-7.104
							c-1.665,1.616-2.875,3.189-3.695,4.707C64.692,353.146,69.694,354.944,74.522,355.393z"/>
						<path style="fill:#94B6FF;" d="M105.413,354.274c-2.978-0.025-5.97,0.208-8.851,0.477c-7.432,0.697-14.582,1.337-22.039,0.642
							c-4.828-0.449-9.83-2.248-12.078-5.832c-1.57,2.906-1.704,5.6-0.833,7.966c5.636,2.374,12.26,2.435,18.27,2.563
							c8.475,0.181,16.82-1.91,25.298-1.435c1.329,0.075,2.672,0.273,3.968,0.612C108.178,357.274,106.904,355.627,105.413,354.274z
							"/>
					</g>
					<path style="opacity:0.4;fill:#FFFFFF;" d="M105.198,355.546c1.602,2.23,1.987,4.695,0.858,5.506
						c-1.128,0.811-3.34-0.34-4.943-2.57c-1.602-2.23-1.987-4.695-0.859-5.505C101.382,352.165,103.595,353.317,105.198,355.546z"/>
					<path style="opacity:0.4;fill:#FFFFFF;" d="M69.757,343.862c0,0-6.163,17.512,5.95,21.258
						C75.707,365.12,52.048,360.226,69.757,343.862z"/>
				</g>
				<g>
					<path style="fill:#FF91D7;" d="M138.182,419.582l-1.222-2.768l-19.085,1.482c0,0-3.965-14.986,4.268-21.006l22.531,8.23
						l-6.102,8.082c0,0,11.9-0.719,9.414,7.162L138.182,419.582z"/>
					<g>
						<path style="fill:#FF91D7;" d="M140.592,402.724c-0.932,2.146-5.556,2.204-10.329,0.133c-4.773-2.072-7.888-5.491-6.956-7.638
							c0.931-2.143,5.555-2.202,10.328-0.131C138.408,397.16,141.523,400.579,140.592,402.724z"/>
						<path style="fill:#183080;" d="M132.147,415.805c-1.762-8.15,7-12.934,7.088-12.98l0.943,1.764
							c-0.308,0.165-7.518,4.128-6.077,10.795L132.147,415.805z"/>
						<path style="fill:#183080;" d="M126.274,416.362c-2.397-10.788,7.458-15.455,7.559-15.5l0.835,1.816l-0.417-0.908l0.419,0.908
							c-0.348,0.161-8.486,4.059-6.443,13.25L126.274,416.362z"/>
						<path style="fill:#183080;" d="M121.173,416.392c-3.117-12.281,4.815-17.95,5.154-18.186l1.14,1.643l-0.57-0.821l0.573,0.819
							c-0.292,0.206-7.123,5.16-4.358,16.053L121.173,416.392z"/>
					</g>
				</g>
			</g>
		</g>
	</g>
	<g>
		<g>
			<path style="fill:#CCDCFC;" d="M487.029,392.274c-3.4-9.988-28.688-23.162-28.688-23.162l-0.744,3.188
				c0,0,27.721,15.299,21.994,19.975c-5.728,4.675-32.725,0-32.725,0l-11.262,25.5l36.337,3.824l-2.44-15.512l-14.481,0.619
				c0.824-5.332-1.567-7.42-1.567-7.42S490.429,402.262,487.029,392.274z"/>
			<path style="fill:#547AF7;" d="M471.241,418.939l-19.133-3.448l0.612-1.05c4.155-7.123,0.035-14.664-0.007-14.739l1.483-0.832
				c0.183,0.325,4.261,7.748,0.558,15.369l16.79,3.027L471.241,418.939z"/>
			
				<rect x="461.891" y="404.603" transform="matrix(0.1087 -0.9941 0.9941 0.1087 2.3179 827.7184)" style="fill:#547AF7;" width="1.7" height="15.928"/>
			
				<rect x="461.84" y="401.977" transform="matrix(0.0228 -0.9997 0.9997 0.0228 42.897 862.5444)" style="fill:#547AF7;" width="1.7" height="14.701"/>
		</g>
		<g>
			<path style="fill:#CCDCFC;" d="M384.861,316.042c-8.158-10.589-23.372-24.906-45.094-23.006c-34,2.976-40.163,54.4-17.425,89.038
				c22.738,34.638,33.363,54.188,43.138,53.976c9.775-0.213,1.7-23.163,16.15-21.676c14.45,1.488,5.525,20.616,13.388,21.677
				c7.862,1.061,76.075-58.439,82.45-87.126C483.659,321.059,435.717,271.349,384.861,316.042z"/>
			<g>
				<path style="fill:#183080;" d="M381.52,368.715l24.013-9.591c0,0,9.35,31.662,0,35.912
					C396.183,399.286,381.52,368.715,381.52,368.715z"/>
				<path style="fill:#FFFFFF;" d="M386.093,369.112l18.133-6.801c0,0,7.225,28.758,0,30.459
					c-7.225,1.699-15.725-15.23-15.725-15.23l10.625-5.879l-11.191,3.117L386.093,369.112z"/>
			</g>
			
				<rect x="359.068" y="327.886" transform="matrix(0.9904 -0.1382 0.1382 0.9904 -42.2175 54.3423)" style="fill:#183080;" width="22.561" height="6.8"/>
			
				<rect x="392.043" y="316.599" transform="matrix(0.2772 -0.9608 0.9608 0.2772 -29.4033 617.1143)" style="fill:#183080;" width="6.8" height="23.001"/>
			<path style="opacity:0.4;fill:#FFFFFF;" d="M469.032,326.782c5.574,9.412,6.689,19.059,2.49,21.547
				c-4.2,2.488-12.124-3.126-17.699-12.539c-5.575-9.412-6.689-19.059-2.488-21.547C455.534,311.757,463.457,317.37,469.032,326.782
				z"/>
			<path style="opacity:0.4;fill:#FFFFFF;" d="M317.385,333.837c0,0,9.737-28.334,52.964-27.625
				C370.349,306.212,311.01,280.286,317.385,333.837z"/>
			<g>
				<path style="fill:#FFFFFF;" d="M383.112,343.591c0.366,8.423,4.991,15.087,10.652,15.087c5.236,0,9.579-5.694,10.497-13.218
					L383.112,343.591z"/>
				<path style="fill:#183080;" d="M401.73,353.253c-0.515,0.11-1.046,0.172-1.59,0.172c-4.547,0-8.234-4.043-8.234-9.031
					c0-0.008,0.001-0.017,0.001-0.025l12.353,1.092C403.899,348.423,403,351.093,401.73,353.253z"/>
			</g>
			<g>
				<path style="fill:#FFFFFF;" d="M358.781,341.353c0.366,8.424,4.99,15.088,10.651,15.088c5.236,0,9.579-5.695,10.497-13.218
					L358.781,341.353z"/>
				<path style="fill:#183080;" d="M377.399,351.015c-0.515,0.111-1.046,0.172-1.59,0.172c-4.547,0-8.234-4.043-8.234-9.031
					c0-0.008,0.002-0.016,0.002-0.025l12.353,1.093C379.567,346.185,378.669,348.855,377.399,351.015z"/>
			</g>
		</g>
		<g>
			<g>
				<path style="fill:#FF33B4;" d="M303.004,369.112l-30.175,7.012c0,0-18.7-12.75-18.063-26.137
					c0.637-13.389,21.887-14.238,28.688-7.65c0,0,17.212-11.635,27.837-4.012C321.917,345.949,303.004,369.112,303.004,369.112z"/>
				<path style="fill:#FFC23B;" d="M284.213,336.991c0,0-8.199-14.648,13.901-18.262
					C298.114,318.729,302.345,334.005,284.213,336.991z"/>
				<polygon style="fill:#FFC23B;" points="283.154,339.786 265.392,328.737 270.705,321.724 				"/>
				<path style="opacity:0.4;fill:#FFFFFF;" d="M311.264,351.103c-1.353,5.216-4.329,8.957-6.642,8.357
					c-2.313-0.604-3.089-5.318-1.735-10.532c1.355-5.215,4.329-8.956,6.642-8.356C311.841,341.175,312.619,345.888,311.264,351.103z
					"/>
			</g>
			<g>
				<path style="fill:#CCDCFC;" d="M331.692,385.686c0,0-4.146,24.438-17.16,24.438c-13.015,0-14.927-34-14.927-34l-27.837,6.375
					l-6.375-20.612l26.563-2.763l-1.063,9.988c0,0,21.462-8.076,12.962,7.012c0,0,7.65,54.613,25.075,7.013L331.692,385.686z"/>
				<path style="fill:#547AF7;" d="M286.761,376.735c-6.525-6.297,0.569-17.24,0.875-17.704l1.419,0.936
					c-0.066,0.101-6.624,10.228-1.114,15.545L286.761,376.735z"/>
				<path style="fill:#547AF7;" d="M281.608,376.811c-8.648-6.297-1.397-16.926-1.322-17.032l1.396,0.97
					c-0.264,0.381-6.372,9.372,0.927,14.688L281.608,376.811z"/>
				<path style="fill:#547AF7;" d="M276.712,378.011c-9.367-5.639-3.252-17.331-3.189-17.449l1.499,0.803
					c-0.225,0.422-5.413,10.387,2.566,15.189L276.712,378.011z"/>
			</g>
		</g>
	</g>
</g>
</svg>
