<?xml version="1.0" encoding="utf-8"?>
<!-- Generator: Adobe Illustrator 27.5.0, SVG Export Plug-In . SVG Version: 6.00 Build 0)  -->
<svg version="1.1" xmlns="http://www.w3.org/2000/svg" xmlns:xlink="http://www.w3.org/1999/xlink" x="0px" y="0px"
	 viewBox="0 0 500 500" style="enable-background:new 0 0 500 500;" xml:space="preserve">
<g id="BACKGROUND">
	<rect style="fill:#FFFFFF;" width="500" height="500"/>
</g>
<g id="OBJECTS">
	
		<ellipse transform="matrix(0.9239 -0.3827 0.3827 0.9239 -65.1001 44.7253)" style="opacity:0.21;fill:#B3F4FF;" cx="79.875" cy="186.003" rx="23.497" ry="23.497"/>
	<circle style="opacity:0.21;fill:#B3F4FF;" cx="46.542" cy="125.348" r="9.836"/>
	<circle style="opacity:0.21;fill:#B3F4FF;" cx="191.895" cy="78.354" r="17.486"/>
	<path style="opacity:0.21;fill:#B3F4FF;" d="M238.889,104.037c0,2.716-2.202,4.918-4.918,4.918c-2.716,0-4.918-2.202-4.918-4.918
		c0-2.716,2.202-4.918,4.918-4.918C236.687,99.119,238.889,101.321,238.889,104.037z"/>
	<path style="opacity:0.21;fill:#B3F4FF;" d="M456.373,186.549c0,2.716-2.202,4.918-4.918,4.918c-2.716,0-4.918-2.202-4.918-4.918
		s2.202-4.918,4.918-4.918C454.171,181.632,456.373,183.833,456.373,186.549z"/>
	<circle style="opacity:0.21;fill:#B3F4FF;" cx="461.29" cy="232.451" r="12.765"/>
	<path style="opacity:0.21;fill:#B3F4FF;" d="M212.882,258.978c-18.819,13.679-41.638,20.591-64.245,26.09
		c-41.73,10.15-97.784,20.311-116.787,65.837c-8.495,20.352-4.002,45.624,13.05,60.889c19.899,17.814,46.874,12.932,69.345,2.948
		c20.158-8.957,40.203-22.228,61.805-29.452c25.662-8.582,52.325-5.828,78.257,0.383c24.772,5.933,48.82,14.78,73.813,19.697
		c25.209,4.96,51.615,5.802,76.372-1.064c24.758-6.866,47.764-21.972,61.108-43.927c13.344-21.955,15.859-50.955,3.601-73.534
		c-9.907-18.248-28.112-31.008-37.478-49.539c-18.599-36.796-9.136-86.213-49.424-110.686c-18.125-11.01-38.597-11.496-58.151-4.573
		c-31.506,11.156-52.718,60.349-68.32,85.932C244.21,227.027,231.142,245.705,212.882,258.978z"/>
	<path style="fill:none;stroke:#C9EBF4;stroke-width:8.7431;stroke-linecap:round;stroke-linejoin:round;stroke-miterlimit:10;" d="
		M83.336,275.073V101.669c0-11.267,9.134-20.4,20.4-20.4h0c11.267,0,20.4,9.134,20.4,20.4v14.478
		c0,10.514,8.523,19.037,19.037,19.037h105.551l39.608-35.851"/>
	<g>
		<path style="fill:#C9EBF4;" d="M278.389,295.624L278.389,295.624c-3.005,5.206-9.724,7.006-14.929,4l-47.796-27.595
			c-5.205-3.005-7.006-9.723-4-14.929l0,0c3.005-5.205,9.724-7.006,14.929-4l47.796,27.595
			C279.594,283.7,281.394,290.418,278.389,295.624z"/>
		<path style="fill:#C9EBF4;" d="M336.176,462.425c-3.345-18.336-19.39-32.24-38.692-32.24c-19.302,0-35.346,13.904-38.692,32.24
			H336.176z"/>
		<rect x="288.741" y="378.273" style="fill:#C9EBF4;" width="12.568" height="65.573"/>
		<path style="fill:#C9EBF4;" d="M336.828,467.343h-78.141c-2.404,0-4.371-1.967-4.371-4.372v0c0-2.404,1.967-4.371,4.371-4.371
			h78.141c2.404,0,4.371,1.967,4.371,4.371v0C341.199,465.375,339.232,467.343,336.828,467.343z"/>
		
			<path style="fill:none;stroke:#2D1A14;stroke-width:1.0929;stroke-linecap:round;stroke-linejoin:round;stroke-miterlimit:10;" d="
			M297.426,432.081c-10.827,2.195-19.564,12.208-20.273,23.232"/>
		<path style="fill:#9ACCD8;" d="M232.935,372.863c1.94,11.626,14.407,18.408,25.986,20.611c11.579,2.203,23.916,1.702,34.546,6.792
			c8.082,3.87,14.355,10.599,21.282,16.282c6.928,5.683,15.413,10.591,24.323,9.634c13.014-1.397,21.885-15.755,20.562-28.776
			c-1.323-13.021-10.485-24.109-21.254-31.548c-16.406-11.332-36.492-16.018-56.408-16.978
			C262.056,347.92,243.543,355.98,232.935,372.863z"/>
		<g>
			<path style="fill:#C9EBF4;" d="M261.473,382.851l-99.531-30.407c-8.244-2.519-12.929-11.325-10.41-19.569l0,0
				c2.519-8.244,11.325-12.929,19.569-10.41l99.531,30.407c8.244,2.519,12.929,11.325,10.41,19.569l0,0
				C278.523,380.685,269.717,385.37,261.473,382.851z"/>
			
				<path style="fill:none;stroke:#211D1D;stroke-width:0.8619;stroke-linecap:round;stroke-linejoin:round;stroke-miterlimit:10;" d="
				M380.333,279.204l-33.405,54.104c0,0-11.41-6.265-26.405-3.7"/>
			<path style="fill:#C9EBF4;" d="M436.854,228.43L323.085,389.211c-4.474,6.325-11.789,9.149-18.324,7.072l-65.556-20.798
				c-1.65-0.522-27.301-9.336-28.605-10.326c-3.755-2.857-6.015-7.436-6.452-12.421c-0.414-4.682,0.77-9.716,3.821-14.03
				l3.644-5.146l5.497-7.774l1.617-2.282l29.635,0.306l-16.347-19.094l18.022-25.468l38.527-54.448l4.076-5.768l3.368-4.756
				l3.502-4.946l0.569-0.806l13.893-19.641l1.607-2.268l24.945,6.942c0,0-24.172-8.033-24.171-8.038l5.379-7.601
				c4.477-6.318,11.792-9.143,18.329-7.07l89.73,28.826C440.65,203.12,444.287,217.926,436.854,228.43z"/>
			<path style="fill:#A05512;" d="M331.833,184.987c-1.703,0.77-3.264,1.842-4.567,3.204c-5.88,6.151-5.935,16.062-11.222,22.729
				c-3.887,4.901-10.095,7.372-16.213,8.677c-6.118,1.304-12.434,1.658-18.448,3.379c-6.014,1.721-11.942,5.126-14.744,10.719
				c-3.584,7.154-1.016,16.21,4.298,22.192c5.314,5.982,12.854,9.463,20.342,12.284c17.75,6.688,36.633,10.61,55.601,10.519
				c6.803-0.033,13.891-0.667,19.718-4.178c5.141-3.098,8.917-8.38,10.186-14.247c2.665-12.328-6.548-22.562-16.749-27.906
				c-4.303-2.254-9.393-4.552-11.521-9.24c-1.401-3.087-1.171-6.67-0.466-9.986c0.987-4.636,2.842-9.081,3.447-13.782
				c0.805-6.255-1.218-12.747-7.594-14.951C340.02,183.058,335.582,183.292,331.833,184.987z"/>
			<g>
				<path style="fill:#FF8772;" d="M177.197,421.768c-0.799,4.951-5.186,9.384-10.4,10.509c-3.534,0.762-7.138,0.113-10.724,0.174
					c-6.996,0.118-14.051,3.103-18.973,8.027l43.485,10.764l8.949-26.818L177.197,421.768z"/>
				<path style="fill:#EAD4C5;" d="M177.197,421.768c-0.799,4.951-5.186,9.384-10.4,10.509c-3.534,0.762-7.138,0.113-10.724,0.174
					c-6.996,0.118-14.051,3.103-18.973,8.027l43.485,10.764l8.949-26.818L177.197,421.768z"/>
				<path style="fill:#EAD4C5;" d="M186.292,434.14l3.242-9.717l-12.337-2.655c-0.799,4.95-5.186,9.384-10.4,10.509
					c-2.013,0.434-4.049,0.41-6.092,0.321c5.456,4.222,8.722,9.96,10.468,16.314l3.016,0.747
					C176.423,443.3,180.232,437.794,186.292,434.14z"/>
			</g>
			<g>
				<path style="fill:#EAD4C5;" d="M157.199,344.1c-4.417,3.116-11.141,3.078-15.939-0.092c-3.251-2.148-5.469-5.416-8.218-8.133
					c-5.365-5.302-12.984-8.489-20.489-8.569l24.488,41.625l27.413-13.321L157.199,344.1z"/>
				<path style="fill:#EAD4C5;" d="M157.199,344.1c-4.417,3.117-11.141,3.078-15.939-0.092c-3.251-2.148-5.469-5.416-8.218-8.133
					c-0.475-0.47-0.973-0.916-1.482-1.352c0.24,4.373-0.352,8.836-1.339,13.057c-0.512,2.192-1.146,4.382-1.892,6.543l2.598,4.416
					c6.938-1.103,13.79,0.884,20.286,3.503l13.24-6.434L157.199,344.1z"/>
			</g>
			<path style="fill:#AE4E3E;" d="M292.198,289.369c-8.571,21.145-18.772,41.662-30.505,61.357l67.917,20.749
				c6.48-10.274,7.79-24.28,4.242-36.202c-1.961-6.589-5.423-12.807-7.558-19.359c-2.135-6.552-2.82-13.866,0.655-19.603
				L292.198,289.369z"/>
			<path style="fill:#2D1A14;" d="M333.852,335.272c-1.961-6.589-5.423-12.807-7.558-19.359c-0.127-0.39-0.249-0.783-0.365-1.178
				c-3.825-1.124-7.64-2.28-11.443-3.478c-1.643-0.517-3.283-1.042-4.92-1.576l-23.005-7.028
				c-7.303,16.472-15.608,32.528-24.868,48.071l67.917,20.749C336.09,361.201,337.4,347.194,333.852,335.272z"/>
			<path style="fill:#C9EBF4;" d="M188.555,332.334c1.152-17.759,15.85-32.579,32.733-38.207s35.417-3.548,52.619,1.013
				l-35.585,52.361L188.555,332.334z"/>
			<path style="fill:#435FFF;" d="M361.5,265.085c12.1-24.019-0.088-24.025-22.26-32.002c-0.696-0.25-1.209-0.845-1.826-1.243
				c-17.139-11.083-50.313-15.04-57.963,0.807c-3.805,7.881,2.149,27.052,1.852,35.597c-0.372,10.706-5.346,20.771-2.882,31.586
				c2.552,11.197,11.224,15.821,21.475,18.561c11.975,3.201,21.435,1.967,27.145-9.644c2.705-5.5,3.619-11.715,5.897-17.368
				C336.403,282.786,357.382,273.26,361.5,265.085z"/>
			<g>
				<path style="fill:#2D1A14;" d="M194.302,428.891c-8.364-3.22-16.768-6.33-25.295-9.098l42.928-85.789
					c2.914-5.824,9.606-8.694,15.835-6.792l90.581,27.673c7.049,2.154,11.018,9.614,8.864,16.663
					c-2.154,7.049-9.614,11.018-16.663,8.864l-79.794-24.377L194.302,428.891z"/>
			</g>
			<g>
				<path style="fill:#2D1A14;" d="M153.322,335.841l84.479-29.258c4.15-1.437,8.826-0.88,12.596,1.499l74.668,47.119
					c6.552,4.135,8.517,12.468,4.389,18.613c-4.128,6.145-12.788,7.776-19.338,3.64l-68.671-43.334l-76.756,26.583
					C160.708,352.504,157.303,344.047,153.322,335.841z"/>
			</g>
			<path style="fill:#FF8772;" d="M368.15,252.46l2.339,52.49l0.07,1.568c0.193,4.325-3.022,8.021-7.251,8.529l-70.329,8.276
				c-1.869,0.22-3.562-1.117-3.782-2.986c-0.198-1.686,0.871-3.228,2.454-3.676l68.125-19.331l-7.181,10.097l-12.009-51.151
				c-1.764-7.513,2.897-15.034,10.41-16.798c7.513-1.764,15.034,2.897,16.798,10.41C367.99,250.723,368.108,251.634,368.15,252.46z"
				/>
			<path style="fill:#435FFF;" d="M370.559,306.518l-0.07-1.568l-2.339-52.49c-0.042-0.826-0.16-1.738-0.356-2.572
				c-1.764-7.513-9.284-12.174-16.798-10.41c-7.513,1.764-12.174,9.284-10.41,16.798l10.235,43.596l-22.917,6.503
				c2.15,3.878,3.516,8.008,4.154,12.35l31.25-3.677C367.537,314.538,370.752,310.842,370.559,306.518z"/>
			<g>
				<g>
					<path style="fill:#FF8772;" d="M276.894,314.703c-0.328,1.515,7.206,3.613,7.206,3.613s-14.139,5.966-13.469,7.878
						c0.027,0.077,0.076,0.139,0.134,0.194c0.523,0.051,1.043,0.111,1.562,0.185c3.202-0.444,9.733-3.497,9.733-3.497
						s-2.16,1.176-4.47,2.664c1.87-0.088,3.734,0.125,5.577,0.538c0.291-0.198,0.458-0.315,0.458-0.315s-0.159,0.117-0.427,0.321
						c2.679,0.604,5.314,1.625,7.858,2.736c3.932-2.815,9.641-7.253,9.641-7.253l-7.059-5.813
						C293.639,315.955,277.448,312.147,276.894,314.703z"/>
				</g>
				<path style="fill:#FF8772;" d="M281.504,328.649c-0.24,1.08,0.54,2.203,1.571,2.68c1.031,0.478,2.238,0.427,3.35,0.199
					c2.488-0.511,4.771-1.887,6.341-3.824c1.064-1.311,1.799-3.173,0.944-4.635c-0.722-1.236-2.297-1.709-3.738-1.933
					c-3.434-0.533-10.138-0.779-12.608,2.187C275.243,325.87,278.483,331.338,281.504,328.649z"/>
			</g>
			<path style="fill:#FF8772;" d="M282.401,227.491l-40.424,33.033l-1.207,0.987c-3.331,2.722-3.939,7.551-1.514,11.019
				l40.452,57.568c1.075,1.53,3.186,1.898,4.716,0.823c1.38-0.97,1.814-2.783,1.097-4.252l-30.804-63.258l-2.722,12.006
				l45.837-24.985c6.733-3.67,9.216-12.103,5.546-18.835c-3.67-6.733-12.103-9.215-18.835-5.546
				C283.794,226.459,283.041,226.975,282.401,227.491z"/>
			<path style="fill:#435FFF;" d="M240.769,261.51l1.207-0.987l40.424-33.033c0.64-0.516,1.393-1.032,2.14-1.44
				c6.733-3.67,15.166-1.187,18.835,5.546c3.67,6.733,1.187,15.166-5.546,18.835l-39.066,21.295l10.362,21.279
				c-4.296,0.976-8.259,2.699-11.898,5.103l-17.974-25.58C236.831,269.061,237.439,264.232,240.769,261.51z"/>
			<g>
				<g>
					<path style="fill:#FF8772;" d="M300.368,339.295c-0.905,1.247-7.449-2.944-7.449-2.944s4.946,14.423,3.087,15.193
						c-0.075,0.031-0.153,0.036-0.233,0.029c-0.384-0.353-0.773-0.699-1.171-1.035c-1.792-2.666-3.857-9.524-3.857-9.524
						s0.56,2.378,0.987,5.075c-1.173-1.443-2.565-2.683-4.092-3.774c-0.046-0.347-0.07-0.547-0.07-0.547s0.018,0.196,0.045,0.529
						c-2.222-1.584-4.723-2.859-7.231-4.008c-0.519-4.777-1.014-11.944-1.014-11.944l8.98,1.378
						C288.351,327.722,301.895,337.191,300.368,339.295z"/>
				</g>
				<path style="fill:#FF8772;" d="M286.987,345.117c-0.641,0.893-1.989,1.059-3.026,0.612c-1.037-0.447-1.798-1.374-2.366-2.349
					c-1.269-2.181-1.762-4.784-1.368-7.229c0.266-1.656,1.159-3.434,2.808-3.769c1.394-0.284,2.787,0.569,3.907,1.488
					c2.669,2.191,7.291,6.992,6.731,10.786C293.191,347.913,286.996,349.135,286.987,345.117z"/>
			</g>
			<path style="fill:none;stroke:#F5F5F3;stroke-width:0.8999;stroke-miterlimit:10;" d="M261.23,331.599
				c-4.412-3.036-9.182-5.904-13.951-8.773c-0.43-0.132-1.423,0.036-2.415,0.203c-9.025,3.359-17.356,5.989-26.249,8.918
				c-12.694,4.591-24.265,8.584-36.959,13.174c-4.232,1.53-8.331,2.63-12.431,3.73"/>
			<path style="fill:none;stroke:#F5F5F3;stroke-width:0.8999;stroke-miterlimit:10;" d="M312.037,363.035
				c-8.461-5.074-16.526-10.833-25.212-15.509"/>
			<path style="fill:#C9EBF4;" d="M272.707,371.132c1.152-17.759,15.85-32.579,32.733-38.207
				c16.883-5.628,35.417-3.548,52.619,1.013l-35.585,52.361L272.707,371.132z"/>
			<path style="fill:#EAD4C5;" d="M182.656,455.933l-46.12-14.09c-1.02-0.312-1.6-1.402-1.289-2.422l0,0
				c0.312-1.021,1.402-1.6,2.422-1.289l46.12,14.09c1.021,0.312,1.6,1.402,1.289,2.422l0,0
				C184.766,455.665,183.676,456.245,182.656,455.933z"/>
			<path style="fill:#EAD4C5;" d="M134.175,369.932l-24.896-41.301c-0.551-0.914-0.254-2.112,0.66-2.663l0,0
				c0.914-0.551,2.112-0.254,2.663,0.66l24.896,41.301c0.551,0.914,0.254,2.112-0.66,2.663l0,0
				C135.924,371.143,134.726,370.846,134.175,369.932z"/>
			
				<path style="fill:none;stroke:#B7A091;stroke-width:1.0333;stroke-linecap:round;stroke-linejoin:round;stroke-miterlimit:10;" d="
				M148.135,363.085c0,0-3.77-10.425-16.89-9.217"/>
			
				<path style="fill:none;stroke:#B7A091;stroke-width:1.0333;stroke-linecap:round;stroke-linejoin:round;stroke-miterlimit:10;" d="
				M184.945,438.955c0,0-11.051-3.666-19.098,7.496"/>
			<path style="fill:#FF8772;" d="M338.487,232.592c-0.552,0.365-1.14,0.678-1.756,0.947c-3.803,1.672-8.631,1.577-12.517,0.279
				c-3.683-1.224-7.13-3.621-9.143-6.897c-0.452-0.741-0.838-1.525-1.132-2.346c2.052,0.036,3.853-1.269,5.435-2.576
				c3.026-2.507,6.09-4.492,7.111-8.289l9.627,2.941C333.47,221.751,334.472,228.49,338.487,232.592z"/>
			<path style="fill:#2D1A14;" d="M326.485,213.714c-0.461,1.712-1.35,3.047-2.45,4.236c0.226,0.469,0.484,0.918,0.768,1.342
				c1.167,1.15,2.66,1.667,4.317,1.78c1.09-0.104,2.178-0.417,3.278-0.859c1.249-0.738,2.38-1.652,3.346-2.765
				c0.116-0.267,0.235-0.534,0.369-0.794L326.485,213.714z"/>
			<path style="fill:#FF8772;" d="M343.834,199.785l-3.881,12.704c-1.06,3.47-4.027,5.859-7.402,6.376
				c-0.66,0.099-1.333,0.128-2.014,0.081c-0.674-0.045-1.353-0.17-2.023-0.375c-0.942-0.288-1.807-0.717-2.577-1.261
				c-3.154-2.216-4.694-6.303-3.511-10.176l3.881-12.704c0.177-0.58,0.408-1.132,0.688-1.643c2.018-3.774,6.514-5.737,10.753-4.442
				c2.407,0.736,4.298,2.393,5.404,4.464C344.252,194.883,344.571,197.374,343.834,199.785z"/>
			
				<polyline style="fill:none;stroke:#472A1C;stroke-width:0.315;stroke-linecap:round;stroke-linejoin:round;stroke-miterlimit:10;" points="
				332.326,204.28 331.727,206.526 330.303,205.223 330.521,207.632 			"/>
			<path style="fill:none;stroke:#472A1C;stroke-width:0.63;stroke-linecap:round;stroke-linejoin:round;stroke-miterlimit:10;" d="
				M333.884,204.928c0,0,2.298-1.055,3.738,0.703"/>
			<path style="fill:none;stroke:#472A1C;stroke-width:0.63;stroke-linecap:round;stroke-linejoin:round;stroke-miterlimit:10;" d="
				M327.256,202.904c0,0,2.298-1.054,3.738,0.703"/>
			
				<path style="fill:none;stroke:#2D1A14;stroke-width:1.0929;stroke-linecap:round;stroke-linejoin:round;stroke-miterlimit:10;" d="
				M412.023,239.65c-11.808,17.313-24.923,33.706-36.216,51.192"/>
			
				<path style="fill:none;stroke:#2D1A14;stroke-width:1.0929;stroke-linecap:round;stroke-linejoin:round;stroke-miterlimit:10;" d="
				M424.259,222.355c-2.848,4.026-5.697,8.052-8.545,12.078"/>
			<path style="fill:#2D1A14;" d="M329.075,211.035c0.918,0.453,2.032,0.409,2.978,0.018c0.511-0.211,1.007-0.546,1.231-1.053
				c0.224-0.506,0.075-1.201-0.425-1.438c-0.469-0.223-1.013,0.01-1.526,0.088c-0.684,0.104-1.309-0.115-1.874-0.485
				c-0.53-0.347-0.992-0.977-1.6-0.4C326.817,208.754,328.133,210.57,329.075,211.035z"/>
			<path style="fill:#FFE9E3;" d="M332.806,208.548c-0.457-0.184-0.979,0.026-1.473,0.101c-0.684,0.104-1.309-0.115-1.874-0.485
				c-0.26-0.17-0.504-0.407-0.756-0.537c-0.011,0.225,0.02,0.455,0.072,0.685c0.176,0.77-0.413,1.274-1.018,1.339
				c0.321,0.613,0.862,1.157,1.318,1.383c0.918,0.453,2.032,0.409,2.978,0.018c0.153-0.063,0.301-0.141,0.444-0.228
				C332.212,210.058,332.379,209.233,332.806,208.548z"/>
			<path style="fill:#A05512;" d="M324.71,196.109c1.573,2.947,4.615,4.941,7.861,5.729c3.246,0.788,6.68,0.471,9.914-0.366
				c0.645-0.167,1.485-0.27,1.984-0.712c0.98-3.205,2.458-7.081,1.142-10.163c-1.153-2.701-3.98-4.494-6.903-4.781
				c-2.923-0.286-5.877,0.799-8.203,2.592C328.178,190.201,326.053,193.497,324.71,196.109z"/>
			<path style="fill:#FF8772;" d="M337.777,203.521c1.753-3.606,2.326-7.773,1.611-11.718c1.789,4.849,1.577,10.403-0.579,15.101
				C338.881,205.473,338.728,204.593,337.777,203.521z"/>
			
				<path style="fill:none;stroke:#A05512;stroke-width:0.8197;stroke-linecap:round;stroke-linejoin:round;stroke-miterlimit:10;" d="
				M344.635,180.028c1.76,1.974,2.151,5.053,0.94,7.404c1.678-2.071,2.391-5.37,1.791-7.967"/>
		</g>
		<path style="fill:#C9EBF4;" d="M313.422,223.084c-9.05,6.433-16.103,17.559-17.775,28.536c-0.529,3.474-0.609,7.068,0.304,10.461
			c0.913,3.393,2.894,6.581,5.846,8.487c5.235,3.38,12.45,2.03,17.532-1.576c5.082-3.606,8.509-9.04,11.802-14.33
			c4.123-6.621,8.245-13.243,12.368-19.865c-0.061,0,0.128-0.238,0.067-0.238c-4.135-1.648-7.846-6.063-8.925-10.382
			c-2.616,0.422-5.306,0.934-7.921,0.506c-2.615-0.428-4.516-1.753-5.648-4.149C319.322,222.664,316.177,223.21,313.422,223.084z"/>
		
			<path style="fill:none;stroke:#C9EBF4;stroke-width:0.6255;stroke-linecap:round;stroke-linejoin:round;stroke-miterlimit:10;" d="
			M345.927,218.184c0.345,1.891-9.893,5.418-11.285,5.81C335.341,222.315,345.37,215.13,345.927,218.184z"/>
		
			<path style="fill:none;stroke:#2D1A14;stroke-width:0.5464;stroke-linecap:round;stroke-linejoin:round;stroke-miterlimit:10;" d="
			M278.359,329.364c1.505,0.173,3.051-0.025,4.464-0.573c0.153,1.011,1.09,1.769,2.087,1.993c0.998,0.224,2.041,0.014,3.021-0.278
			c3.212-0.958,9.22-4.936,11.466-7.424"/>
		
			<polyline style="fill:none;stroke:#C9EBF4;stroke-width:8.7431;stroke-linecap:round;stroke-linejoin:round;stroke-miterlimit:10;" points="
			94.993,293.288 94.993,315.145 209.381,315.145 		"/>
		
			<ellipse transform="matrix(0.2298 -0.9732 0.9732 0.2298 -124.6383 585.9438)" style="fill:none;stroke:#2D1A14;stroke-width:1.0929;stroke-linecap:round;stroke-linejoin:round;stroke-miterlimit:10;" cx="307.867" cy="371.716" rx="15.3" ry="15.3"/>
		
			<circle style="fill:none;stroke:#2D1A14;stroke-width:0.7833;stroke-linecap:round;stroke-linejoin:round;stroke-miterlimit:10;" cx="307.867" cy="371.716" r="10.967"/>
		
			<line style="fill:none;stroke:#FFFFFF;stroke-width:1.0929;stroke-linecap:round;stroke-linejoin:round;stroke-miterlimit:10;" x1="354.861" y1="199.587" x2="417.155" y2="219.805"/>
		<path style="fill:#C9EBF4;" d="M375.246,335.988L375.246,335.988c-3.25,5.057-10.046,6.535-15.103,3.285l-46.428-29.841
			c-5.057-3.25-6.535-10.046-3.285-15.103l0,0c3.25-5.056,10.046-6.534,15.103-3.285l46.428,29.841
			C377.018,324.135,378.496,330.932,375.246,335.988z"/>
	</g>
	<path style="fill:#C9EBF4;" d="M117.579,299.116H66.578c-8.816,0-16.029-7.213-16.029-16.029l0,0
		c0-8.816,7.213-16.029,16.029-16.029h51.001c8.816,0,16.029,7.213,16.029,16.029l0,0
		C133.608,291.903,126.395,299.116,117.579,299.116z"/>
	<g>
		<circle style="fill:#C9EBF4;" cx="126.322" cy="125.712" r="13.843"/>
		
			<ellipse transform="matrix(0.9239 -0.3827 0.3827 0.9239 -38.4924 57.9108)" style="fill:none;stroke:#2D1A14;stroke-width:0.7833;stroke-linecap:round;stroke-linejoin:round;stroke-miterlimit:10;" cx="126.322" cy="125.712" rx="8.037" ry="8.037"/>
	</g>
	<g>
		<circle style="fill:#C9EBF4;" cx="249.454" cy="131.541" r="10.929"/>
		
			<path style="fill:none;stroke:#2D1A14;stroke-width:0.6184;stroke-linecap:round;stroke-linejoin:round;stroke-miterlimit:10;" d="
			M255.799,131.541c0,3.504-2.841,6.345-6.345,6.345c-3.504,0-6.345-2.841-6.345-6.345c0-3.504,2.841-6.345,6.345-6.345
			C252.958,125.196,255.799,128.037,255.799,131.541z"/>
	</g>
	<g>
		
			<ellipse transform="matrix(0.7071 -0.7071 0.7071 0.7071 20.3467 331.9066)" style="fill:#8DDEF1;" cx="410.82" cy="141.393" rx="35.352" ry="35.352"/>
		<path style="fill:#FFFFFF;" d="M420.264,149.505c-0.035-0.07-0.022-0.155,0.032-0.212c0.965-1.006,1.852-2.061,2.673-3.157
			c4.445-5.931,4.855-13.994,1.04-20.348c-0.022-0.036-0.044-0.072-0.065-0.108c-1.14-1.881-2.857-3.811-5.055-3.725
			c-1.57,0.062-2.882,1.147-4.124,2.11c-1.05,0.813-2.28,1.605-3.566,1.647c-1.286-0.042-2.516-0.833-3.566-1.647
			c-1.243-0.962-2.554-2.048-4.125-2.11c-2.198-0.087-3.914,1.844-5.055,3.725c-0.022,0.036-0.043,0.072-0.065,0.108
			c-3.815,6.354-3.404,14.417,1.04,20.348c0.822,1.096,1.709,2.151,2.674,3.157c0.054,0.057,0.067,0.142,0.032,0.212
			c-1.085,2.145-2.344,4.148-2.721,6.523c-0.335,2.114-0.029,4.426,1.186,6.154c0.313,0.445,0.825,0.708,1.369,0.708
			c0.935,0,1.677-0.765,1.674-1.699c-0.011-2.919,1.447-5.919,3.586-7.902c0.059-0.054,0.146-0.063,0.216-0.024
			c0.308,0.171,0.634,0.315,0.969,0.439l1.026,7.117c0,1.343,0.755,2.441,1.677,2.441c0.922,0,1.677-1.098,1.677-2.441l1.032-7.069
			c0.39-0.134,0.771-0.29,1.126-0.488c0.07-0.039,0.158-0.03,0.216,0.024c2.139,1.983,3.597,4.983,3.586,7.902
			c-0.003,0.934,0.739,1.699,1.673,1.699c0.544,0,1.056-0.263,1.369-0.708c1.216-1.728,1.522-4.04,1.187-6.154
			C422.608,153.653,421.349,151.65,420.264,149.505z"/>
		
			<line style="fill:none;stroke:#8DDEF1;stroke-width:2.1858;stroke-linecap:round;stroke-linejoin:round;stroke-miterlimit:10;" x1="387.157" y1="167.242" x2="360.927" y2="187.642"/>
		<path style="fill:#8DDEF1;" d="M365.299,188.735c0,2.616-2.12,4.736-4.736,4.736s-4.736-2.12-4.736-4.736
			c0-2.615,2.12-4.736,4.736-4.736S365.299,186.12,365.299,188.735z"/>
		<path style="fill:#C9EBF4;" d="M384.971,132.27h-29.872c-2.404,0-4.371-1.967-4.371-4.371v0c0-2.404,1.967-4.371,4.371-4.371
			h29.872c2.404,0,4.372,1.967,4.372,4.371v0C389.342,130.303,387.375,132.27,384.971,132.27z"/>
		<path style="fill:#C9EBF4;" d="M467.301,163.599h-29.872c-2.404,0-4.371-1.967-4.371-4.372l0,0c0-2.404,1.967-4.372,4.371-4.372
			h29.872c2.404,0,4.372,1.967,4.372,4.372l0,0C471.673,161.632,469.706,163.599,467.301,163.599z"/>
		<path style="fill:#C9EBF4;" d="M470.216,127.17h-29.872c-2.404,0-4.371-1.967-4.371-4.372l0,0c0-2.404,1.967-4.371,4.371-4.371
			h29.872c2.404,0,4.371,1.967,4.371,4.371l0,0C474.587,125.202,472.62,127.17,470.216,127.17z"/>
	</g>
	<g>
		<polygon style="fill:#C9EBF4;" points="51.642,221.157 45.449,221.157 30.149,253.58 45.085,253.58 47.635,224.436 		"/>
		<path style="fill:#C9EBF4;" d="M56.56,224.436h-9.472c-0.902,0-1.639-0.738-1.639-1.639l0,0c0-0.902,0.738-1.639,1.639-1.639
			h9.472c0.902,0,1.639,0.738,1.639,1.639l0,0C58.199,223.698,57.461,224.436,56.56,224.436z"/>
		<g>
			
				<line style="fill:none;stroke:#2D201B;stroke-width:0.7642;stroke-linecap:round;stroke-linejoin:round;stroke-miterlimit:10;" x1="105.557" y1="282.359" x2="105.557" y2="323.888"/>
			
				<line style="fill:none;stroke:#2D201B;stroke-width:0.7642;stroke-linecap:round;stroke-linejoin:round;stroke-miterlimit:10;" x1="111.022" y1="282.359" x2="111.022" y2="323.888"/>
			
				<line style="fill:none;stroke:#2D201B;stroke-width:0.7642;stroke-linecap:round;stroke-linejoin:round;stroke-miterlimit:10;" x1="117.215" y1="282.359" x2="117.215" y2="323.888"/>
			
				<line style="fill:none;stroke:#2D201B;stroke-width:0.7642;stroke-linecap:round;stroke-linejoin:round;stroke-miterlimit:10;" x1="122.315" y1="282.359" x2="122.315" y2="323.888"/>
		</g>
		
			<path style="fill:none;stroke:#2D201B;stroke-width:0.7642;stroke-linecap:round;stroke-linejoin:round;stroke-miterlimit:10;" d="
			M66.396,264.508L66.396,264.508c-1.503,0-2.732-1.229-2.732-2.732v-16.029c0-1.503,1.229-2.732,2.732-2.732l0,0
			c1.503,0,2.732,1.23,2.732,2.732v16.029C69.128,263.279,67.898,264.508,66.396,264.508z"/>
		
			<path style="fill:none;stroke:#2D201B;stroke-width:0.7642;stroke-linecap:round;stroke-linejoin:round;stroke-miterlimit:10;" d="
			M74.41,264.508L74.41,264.508c-1.503,0-2.732-1.229-2.732-2.732v-16.029c0-1.503,1.229-2.732,2.732-2.732l0,0
			c1.503,0,2.732,1.23,2.732,2.732v16.029C77.143,263.279,75.913,264.508,74.41,264.508z"/>
		<path style="fill:#9ACCD8;" d="M25.048,253.215c-1.41,3.989-2.185,8.279-2.185,12.75c0,21.125,17.125,38.251,38.251,38.251
			c21.125,0,38.251-17.125,38.251-38.251c0-4.472-0.775-8.761-2.185-12.75H25.048z"/>
	</g>
	<g>
		<path style="fill:none;stroke:#2D201B;stroke-width:0.591;stroke-linecap:round;stroke-linejoin:round;stroke-miterlimit:10;" d="
			M353.531,100.912h-82.837c-2.789,0-5.072-2.282-5.072-5.072l0,0c0-2.789,2.282-5.072,5.072-5.072h82.837
			c2.789,0,5.072,2.282,5.072,5.072l0,0C358.602,98.63,356.32,100.912,353.531,100.912z"/>
		<circle style="fill:#FFFFFF;" cx="312.476" cy="101.669" r="32.342"/>
		
			<circle style="fill:none;stroke:#C9EBF4;stroke-width:4.9004;stroke-linecap:round;stroke-linejoin:round;stroke-miterlimit:10;" cx="312.476" cy="101.669" r="32.342"/>
		<circle style="fill:#E6FAFF;" cx="312.476" cy="101.669" r="21.126"/>
		
			<circle style="fill:none;stroke:#2D1A14;stroke-width:1.0929;stroke-linecap:round;stroke-linejoin:round;stroke-miterlimit:10;" cx="312.476" cy="101.669" r="12.836"/>
		<path style="fill:#C9EBF4;" d="M265.118,98.39L265.118,98.39c-1.402,0-2.55-1.147-2.55-2.55l0,0c0-1.403,1.148-2.55,2.55-2.55l0,0
			c1.402,0,2.55,1.147,2.55,2.55l0,0C267.668,97.243,266.521,98.39,265.118,98.39z"/>
		<path style="fill:#C9EBF4;" d="M358.013,98.026L358.013,98.026c-1.403,0-2.55-1.147-2.55-2.55l0,0c0-1.402,1.147-2.55,2.55-2.55
			l0,0c1.402,0,2.55,1.148,2.55,2.55l0,0C360.563,96.879,359.416,98.026,358.013,98.026z"/>
	</g>
	
		<ellipse transform="matrix(0.2298 -0.9732 0.9732 0.2298 -397.7292 396.2223)" style="opacity:0.21;fill:#B3F4FF;" cx="51.46" cy="449.388" rx="11.475" ry="11.475"/>
	<g>
		<g>
			<path style="fill:#2D201B;" d="M180.547,107.371c3.401-0.759,7.332-0.153,10.455,0.743c3.381,0.97,6.563,2.835,8.754,5.586
				c0.853,1.072,1.563,2.304,1.766,3.659c0.424,2.833-1.379,5.448-2.792,7.939c-1.413,2.491-2.443,5.796-0.687,8.058
				c1.113,1.434,3.139,1.979,4.91,1.581c1.771-0.398,2.931-1.659,4.318-3.109c0.308,0.724-0.499,5.566-2.517,8.714
				c-1.801,2.81-4.76,5.211-7.715,6.764c-5.515,2.899-11.942,4.241-18.081,3.177c-6.139-1.064-11.916-4.664-15.081-10.031
				c-5.337-9.048-1.892-21.222,8.751-24.059c0.613-0.109,1.186-2.834,1.368-3.331C175.129,109.98,177.312,108.093,180.547,107.371z"
				/>
			<path style="fill:#FF8775;" d="M206.301,225.777c1.177,7.112,3.247,14.185,5.307,21.043c-18.637,2.037-31.254,4.723-49.512,0.196
				c-2.636-18.382-0.165-35.409-4.509-52.382c-1.284-5.018-3.119-9.887-3.926-15.02c-3.466-22.057,28.509-23.435,41.409-20.906
				c6.016,1.179,12.346,3.618,15.69,9.155c3.202,5.302,2.904,12.265,1.326,18.363c-1.578,6.098-4.296,11.813-5.669,17.969
				C204.831,211.306,205.106,218.561,206.301,225.777z"/>
			<path style="fill:#FF8775;" d="M169.013,160.88c5.967-3.26,10.727-16.849,9.154-27.545l9.499,5.358
				c-0.974,6.576,4.012,14.135,6.576,18.023c1.336,2.027,3.023,2.91,5.357,3.577c-3.371,4.515-9.207,6.773-14.84,6.916
				C179.127,167.353,172.609,165.218,169.013,160.88z"/>
			<path style="fill:#2D201B;" d="M190.782,151.046c-5.984-3.745-9.671-9.592-10.683-16.621l7.567,4.269
				C187.057,142.806,188.779,147.303,190.782,151.046z"/>
			<path style="fill:#FF8775;" d="M185.304,142.294L185.304,142.294c4.477,0,8.139-3.663,8.139-8.139v-11.801
				c0-4.477-3.663-8.139-8.139-8.139l0,0c-4.477,0-8.139,3.663-8.139,8.139v11.801C177.165,138.631,180.828,142.294,185.304,142.294
				z"/>
			<path style="fill:#FF8775;" d="M172.459,131.195c0,1.731,1.403,3.135,3.134,3.135c1.731,0,3.135-1.403,3.135-3.135
				s-1.403-3.134-3.135-3.134C173.862,128.06,172.459,129.463,172.459,131.195z"/>
			<path style="fill:#FF8775;" d="M138.183,459.225c1.17-0.325,2.366-0.577,3.564-0.822c8.075-1.653,14.042-6.732,16.51-14.699
				c3.002-9.692,1.034-20.259,0.774-30.189c-0.21-7.99-0.306-15.983-0.368-23.975c-0.123-15.82-0.098-31.641-0.08-47.462
				c-6.002-25.226-15.48-80.212,3.656-119.893c0,0,42.66,0.338,41.807,0.338c0,0,22.193,29.222,7.993,112.088
				c-1.272,39.912-2.884,87.025-3.434,102.16c0.244,2.346,0.671,4.663,1.374,6.932c2.468,7.967,8.435,13.046,16.51,14.699
				c1.199,0.245,2.395,0.497,3.564,0.822c3.395,0.946,6.59,2.558,9.407,4.674h-42.926c-0.368-39.433-8.484-71.331-4.63-118.075
				c0.074-0.892,0.137-1.785,0.193-2.678l-4.831-91.212l-6.91-0.451l-1.189,22.077c-0.097,3.086-0.274,6.176-0.499,9.27
				l-3.052,56.667c0.176,2.113,0.407,4.223,0.716,6.327c9.689,66.014-4.262,78.642-4.63,118.075h-42.926
				C131.593,461.783,134.788,460.172,138.183,459.225z"/>
			<path style="fill:#AFDEE8;" d="M215.628,307.581c-4.567,1.62-9.271,2.856-14.04,3.754c-3.668,0.691-7.373,1.187-11.095,1.515
				l-3.227-60.916l-6.91-0.451l-1.189,22.077c-0.097,3.086-0.274,6.176-0.499,9.27l-1.641,30.47
				c-7.712-0.149-15.416-0.965-22.965-2.341c-0.397-0.072-0.793-0.153-1.189-0.228c-3.423-27.051-3.732-61.383,9.367-88.546
				c0,0,42.66,0.338,41.807,0.338C204.046,222.523,221.323,245.288,215.628,307.581z"/>
			
				<path style="fill:none;stroke:#362F36;stroke-width:0.5071;stroke-linecap:round;stroke-linejoin:round;stroke-miterlimit:10;" d="
				M200.547,325.05c1.016,4.542,2.931,8.88,5.623,12.678"/>
			
				<path style="fill:none;stroke:#362F36;stroke-width:0.5071;stroke-linecap:round;stroke-linejoin:round;stroke-miterlimit:10;" d="
				M168.645,325.388c-1.016,4.542-2.931,8.88-5.623,12.678"/>
			
				<path style="fill:none;stroke:#362F36;stroke-width:0.5071;stroke-linecap:round;stroke-linejoin:round;stroke-miterlimit:10;" d="
				M164.986,455.9c2.064-2.093,3.304-4.978,3.405-7.915"/>
			
				<path style="fill:none;stroke:#362F36;stroke-width:0.5071;stroke-linecap:round;stroke-linejoin:round;stroke-miterlimit:10;" d="
				M202.483,455.676c-1.392-1.661-2.167-3.828-2.144-5.995"/>
			<g>
				<path style="fill:#F5E9E1;" d="M162.965,444.538c-2.626-1.405-4.895-3.929-6.656-6.441c-1.427,2.587-3.528,4.782-6.113,6.16
					c-3.817,2.035-8.264,2.337-12.413,3.516c-8.097,2.3-15.149,8.181-18.965,15.816h54.791v-18.86
					C170.297,446.428,166.454,446.404,162.965,444.538z"/>
				<path style="fill:#F5E9E1;" d="M162.965,444.538c-2.622-1.402-4.889-3.922-6.649-6.431c-1.432,2.583-3.539,4.773-6.121,6.15
					c-3.817,2.035-8.264,2.337-12.413,3.516c-8.097,2.3-15.149,8.181-18.965,15.816h54.791v-18.86
					C170.297,446.428,166.454,446.404,162.965,444.538z"/>
				<path style="fill:#EDD9D1;" d="M120.053,466.552h53.341c1.517,0,2.759-1.266,2.759-2.813l0,0c0-1.547-1.242-2.813-2.759-2.813
					h-53.341c-1.518,0-2.759,1.266-2.759,2.813l0,0C117.294,465.287,118.536,466.552,120.053,466.552z"/>
				
					<path style="fill:none;stroke:#B7A091;stroke-width:0.8312;stroke-linecap:round;stroke-linejoin:round;stroke-miterlimit:10;" d="
					M158.962,460.531c0,0,2.217-8.866,14.961-8.035"/>
				
					<line style="fill:none;stroke:#B7A091;stroke-width:0.8312;stroke-linecap:round;stroke-linejoin:round;stroke-miterlimit:10;" x1="146.91" y1="441.186" x2="151.545" y2="446.13"/>
				
					<line style="fill:none;stroke:#B7A091;stroke-width:0.8312;stroke-linecap:round;stroke-linejoin:round;stroke-miterlimit:10;" x1="143.511" y1="443.04" x2="148.146" y2="447.985"/>
			</g>
			<g>
				<path style="fill:#F5E9E1;" d="M203.565,444.538c2.626-1.405,4.895-3.929,6.656-6.441c1.427,2.587,3.528,4.782,6.113,6.16
					c3.817,2.035,8.264,2.337,12.413,3.516c8.097,2.3,15.149,8.181,18.965,15.816h-54.791v-18.86
					C196.233,446.428,200.076,446.404,203.565,444.538z"/>
				<path style="fill:#F5E9E1;" d="M203.565,444.538c2.622-1.402,4.889-3.922,6.649-6.431c1.432,2.583,3.539,4.773,6.121,6.15
					c3.817,2.035,8.264,2.337,12.413,3.516c8.097,2.3,15.149,8.181,18.965,15.816h-54.791v-18.86
					C196.233,446.428,200.076,446.404,203.565,444.538z"/>
				<path style="fill:#EDD9D1;" d="M246.477,466.552h-53.341c-1.518,0-2.759-1.266-2.759-2.813l0,0c0-1.547,1.242-2.813,2.759-2.813
					h53.341c1.518,0,2.759,1.266,2.759,2.813l0,0C249.236,465.287,247.995,466.552,246.477,466.552z"/>
				
					<path style="fill:none;stroke:#B7A091;stroke-width:0.8312;stroke-linecap:round;stroke-linejoin:round;stroke-miterlimit:10;" d="
					M207.569,460.531c0,0-2.216-8.866-14.961-8.035"/>
				
					<line style="fill:none;stroke:#B7A091;stroke-width:0.8312;stroke-linecap:round;stroke-linejoin:round;stroke-miterlimit:10;" x1="219.62" y1="441.186" x2="214.985" y2="446.13"/>
				
					<line style="fill:none;stroke:#B7A091;stroke-width:0.8312;stroke-linecap:round;stroke-linejoin:round;stroke-miterlimit:10;" x1="223.02" y1="443.04" x2="218.384" y2="447.985"/>
			</g>
			<g>
				<g>
					<path style="fill:#FFFFFF;" d="M186.917,128.763c0.004,0.292,0.627,0.551,1.504,0.652c0.021,0.004,0.042,0.004,0.063,0.004
						c0.237,0.03,0.496,0.042,0.763,0.047c0.242,0,0.474-0.008,0.691-0.03c0.093-0.008,0.186-0.017,0.275-0.03
						c0.801-0.102,1.36-0.339,1.356-0.619c0-0.237-0.411-0.449-1.03-0.572c-0.055-0.013-0.115-0.026-0.174-0.034
						c-0.335-0.059-0.716-0.093-1.127-0.093c-0.369-0.004-0.716,0.021-1.025,0.064c-0.102,0.013-0.199,0.03-0.292,0.047
						C187.315,128.322,186.917,128.53,186.917,128.763z"/>
				</g>
				<g>
					<path style="fill:#FFFFFF;" d="M181.096,128.831c0.004,0.25,0.466,0.475,1.152,0.602c0.11,0.021,0.229,0.038,0.352,0.051
						c0.254,0.03,0.534,0.046,0.826,0.051c0.301,0,0.585-0.017,0.847-0.047c0.042-0.004,0.08-0.008,0.118-0.013
						c0.801-0.102,1.36-0.339,1.356-0.618c0-0.259-0.487-0.487-1.203-0.61c-0.013,0-0.025-0.004-0.038-0.004
						c-0.326-0.055-0.695-0.085-1.089-0.085c-0.369-0.004-0.716,0.021-1.025,0.064c-0.119,0.017-0.229,0.034-0.331,0.055
						C181.473,128.399,181.096,128.602,181.096,128.831z"/>
				</g>
				
					<polyline style="fill:none;stroke:#472A1C;stroke-width:0.2831;stroke-linecap:round;stroke-linejoin:round;stroke-miterlimit:10;" points="
					187.632,131.281 187.506,130.15 186.501,130.904 186.501,129.836 				"/>
				<path style="fill:#FFFFFF;" d="M188.376,132.223c0.006,0.062,0.01,0.125,0.01,0.188c0,1.11-0.9,2.009-2.009,2.009
					c-1.11,0-2.01-0.9-2.01-2.009c0-0.064,0.004-0.126,0.01-0.188H188.376z"/>
			</g>
			<path style="fill:#2D201B;" d="M187.849,128.53c0,0.373,0.254,0.703,0.635,0.89c0.237,0.03,0.496,0.042,0.763,0.047
				c0.242,0,0.474-0.008,0.691-0.03c0.398-0.186,0.665-0.521,0.665-0.907c0-0.11-0.021-0.216-0.063-0.313
				c-0.055-0.013-0.115-0.026-0.174-0.034c-0.335-0.059-0.716-0.093-1.127-0.093c-0.369-0.004-0.716,0.021-1.025,0.064
				c-0.102,0.013-0.199,0.03-0.292,0.047C187.875,128.301,187.849,128.416,187.849,128.53z"/>
			<path style="fill:#2D201B;" d="M181.918,128.742c0,0.263,0.127,0.5,0.331,0.691c0.11,0.021,0.229,0.038,0.352,0.051
				c0.254,0.03,0.534,0.046,0.826,0.051c0.301,0,0.585-0.017,0.847-0.047c0.241-0.195,0.398-0.453,0.398-0.746
				c0-0.182-0.059-0.352-0.165-0.5c-0.326-0.055-0.695-0.085-1.089-0.085c-0.369-0.004-0.716,0.021-1.025,0.064
				c-0.119,0.017-0.229,0.034-0.331,0.055C181.969,128.416,181.918,128.572,181.918,128.742z"/>
			
				<circle style="fill:none;stroke:#2D1A14;stroke-width:1.1565;stroke-linecap:round;stroke-linejoin:round;stroke-miterlimit:10;" cx="167.724" cy="265.169" r="1.801"/>
			
				<path style="fill:none;stroke:#2D201B;stroke-width:0.7264;stroke-linecap:round;stroke-linejoin:round;stroke-miterlimit:10;" d="
				M185.185,124.334c-1.13,1.13-3.263,2.016-4.681,2.34"/>
			
				<path style="fill:none;stroke:#2D201B;stroke-width:0.7264;stroke-linecap:round;stroke-linejoin:round;stroke-miterlimit:10;" d="
				M191.877,126.791c-1.122-0.194-2.937-1.456-3.706-2.296"/>
			<path style="fill:#AFDEE8;" d="M205.976,221.156c11.441,18.022,15.036,40.035,14.869,61.382
				c-0.167,21.347-3.821,42.495-5.718,63.757c-2.713,30.394-1.835,60.98-0.955,91.482h-22.726
				c-9.928-32.552-2.255-68.547-1.974-102.578c0.124-15.077-1.291-30.12-2.705-45.131c-1.092-11.597-2.185-23.194-3.277-34.792
				c-0.426-4.523,1.731-9.432,4.023-13.355C192.354,233.633,198.817,227.552,205.976,221.156z"/>
			<path style="fill:#AFDEE8;" d="M161.993,222.125c-11.441,18.022-15.036,40.035-14.869,61.382
				c0.167,21.346,3.82,42.495,5.719,63.757c2.713,30.394,1.835,60.98,0.955,91.482h22.726c9.928-32.552,2.255-68.547,1.973-102.578
				c-0.124-15.077,1.291-30.12,2.705-45.131c1.092-11.597,2.185-23.194,3.277-34.792c0.426-4.523-1.731-9.432-4.023-13.355
				C175.615,234.601,169.152,228.521,161.993,222.125z"/>
			<g>
				<path style="fill:#AFDEE8;" d="M159.904,218.966c-5.53,11.554-9.046,24.56-10.692,37.257h69.624
					c-0.697-13.307-3.148-27.418-10.13-38.778c2.121-1.559,2.644-5.094,3.835-7.438c5.356-10.518,8.048-22.382,7.758-34.178
					c-6.237-9.433-16.222-16.667-27.447-18.062c-8.125-1.007-14.217-1.395-21.742-0.029c-0.262,0.048-0.523,0.097-0.785,0.145
					c-0.756,0.145-1.54,0.32-2.334,0.504c-5.617,1.317-14.45,5.259-18.779,9.084c-0.755,8.978-1.143,18.052,0.233,26.953
					C150.829,203.325,154.064,212.109,159.904,218.966z"/>
			</g>
			<path style="fill:#F5E4DD;" d="M195.354,158.271c0,0,4.237,17.675-8.595,29.054c0,0-15.375-13.316-13.922-29.78
				C172.837,157.545,186.595,154.228,195.354,158.271z"/>
			<g>
				<path style="fill:#FF8772;" d="M150.052,231.283l-30.494-8.443c-4.221-1.169-6.695-5.538-5.526-9.758
					c0.048-0.174,0.102-0.345,0.161-0.513l0.537-1.514l0-0.001l0.506-1.064l0.467-0.931l0.942-1.798
					c0.635-1.181,1.283-2.338,1.952-3.479c1.333-2.283,2.729-4.511,4.193-6.695c2.934-4.36,6.105-8.563,9.595-12.537
					c3.48-3.977,7.247-7.749,11.368-11.181c4.096-3.452,8.577-6.534,13.35-9.162c3.515-1.935,7.932-0.654,9.867,2.86
					c1.861,3.381,0.747,7.598-2.47,9.636l-0.138,0.087c-3.698,2.332-7.205,5.036-10.445,8.107c-3.257,3.044-6.266,6.42-9.05,9.997
					c-2.792,3.572-5.334,7.378-7.66,11.303c-1.16,1.965-2.258,3.967-3.287,5.987c-0.516,1.009-1.01,2.024-1.48,3.035l-0.681,1.505
					l-0.316,0.734l-0.249,0.615h0l-4.829-11.785l27.615,15.446c2.506,1.402,3.402,4.57,2,7.076
					C154.784,230.943,152.307,231.907,150.052,231.283z"/>
			</g>
			<path style="fill:#FF8772;" d="M146.793,224.605c0,0,21.388-11.831,22.936-9.387c0.917,1.448-9.893,6.537-9.893,6.537
				s20.735,0.772,20.766,3.011c0.001,0.09-0.026,0.173-0.066,0.253c-0.523,0.251-1.041,0.512-1.552,0.786
				c-1.275,0.276-3.142,0.36-5,0.355c0.997,2.659-0.497,6.57-3.738,5.29c0.659,1.03,0.277,2.493-0.612,3.381
				c-0.889,0.888-2.16,1.295-3.402,1.481c-2.672,0.4-5.447-0.112-7.762-1.409c-4.916-1.424-10.815-5.085-10.815-5.085
				L146.793,224.605z"/>
			<path style="fill:#AFDEE8;" d="M161.2,161.878c2.066-0.858,4.47-0.779,6.328,0.466c3.005,2.014,3.178,5.604,2.232,8.642
				c-1.261,4.051-4.088,7.402-6.915,10.565c-6.495,7.268-13.468,14.357-18.617,22.553c-2.124,3.382-0.985,7.811,2.476,9.804
				c1.852,1.066,3.63,2.315,5.253,3.644c1.615,1.322,2.546,3.303,2.546,5.391v6.452c0,4.333-3.92,7.638-8.183,6.862
				c-8.546-1.557-16.329-5.198-25.041-8.086c-2.948-0.977-6.038-2.046-8.1-4.368c-1.817-2.047-2.594-4.834-2.812-7.563
				c-0.81-10.142,5.275-19.525,12.05-27.116C134.255,175.858,145.187,168.533,161.2,161.878z"/>
			<path style="fill:#FF8772;" d="M265.543,190.63c0,0-11.359-21.642-8.882-23.136c1.468-0.885,6.318,10.034,6.318,10.034
				s1.226-20.713,3.466-20.695c0.09,0.001,0.173,0.03,0.252,0.071c0.24,0.529,0.489,1.052,0.751,1.568
				c0.248,1.281,0.291,3.15,0.246,5.007c2.68-0.939,6.557,0.641,5.207,3.853c1.044-0.637,2.498-0.223,3.366,0.686
				c0.868,0.908,1.247,2.188,1.406,3.434c0.341,2.68-0.232,5.443-1.579,7.729c-1.531,4.883-5.321,10.701-5.321,10.701
				L265.543,190.63z"/>
			<path style="fill:#AFDEE8;" d="M203.148,174.849c-0.813-2.084-0.681-4.486,0.605-6.316c2.079-2.96,5.672-3.054,8.689-2.042
				c4.023,1.35,7.31,4.25,10.411,7.146c7.124,6.653,14.058,13.78,22.139,19.107c3.334,2.198,7.788,1.156,9.856-2.26
				c1.107-1.828,2.395-3.579,3.758-5.172c1.358-1.586,3.358-2.472,5.445-2.427l6.451,0.141c4.332,0.095,7.55,4.087,6.68,8.332
				c-1.744,8.51-5.555,16.211-8.634,24.858c-1.042,2.926-2.178,5.992-4.545,8.002c-2.087,1.772-4.89,2.487-7.622,2.645
				c-10.157,0.588-19.405-5.703-26.845-12.642C216.533,202.095,209.45,191.004,203.148,174.849z"/>
			<path style="fill:#2D201B;" d="M177.254,128.383c2.27-1.707,3.451-4.749,2.927-7.541c0.615,1.248,2.242,1.598,3.604,1.882
				c2.511,0.524,5.137,0.883,7.624,0.251c2.486-0.632,4.814-2.459,5.36-4.966c-1.18-3.032-3.562-5.858-6.658-6.857
				s-6.676-0.446-9.26,1.531c-1.151,0.881-2.142,2.119-2.261,3.563c-1.951,0.439-3.013,2.122-3.713,3.996
				c-0.932,2.496-1.083,5.277-0.427,7.859C175.301,127.503,176.378,127.817,177.254,128.383z"/>
			
				<polyline style="fill:none;stroke:#2D201B;stroke-width:0.7264;stroke-linecap:round;stroke-linejoin:round;stroke-miterlimit:10;" points="
				148.303,261.025 165.923,261.025 167.307,241.342 176.131,261.025 219.57,261.025 			"/>
			
				<line style="fill:none;stroke:#2D201B;stroke-width:0.7264;stroke-linecap:round;stroke-linejoin:round;stroke-miterlimit:10;" x1="186.759" y1="187.325" x2="208.705" y2="217.445"/>
		</g>
		<g>
			
				<path style="fill:none;stroke:#2D201B;stroke-width:0.7264;stroke-linecap:round;stroke-linejoin:round;stroke-miterlimit:10;" d="
				M154.683,201.092c8.516,7.163,17.529,14.085,26.21,21.221"/>
			<path style="fill:#FFFFFF;" d="M177.442,219.364L177.442,219.364c0.306-0.372,0.86-0.426,1.232-0.12l5.795,4.763
				c0.372,0.306,0.426,0.86,0.12,1.232l0,0c-0.306,0.372-0.86,0.426-1.232,0.12l-5.795-4.763
				C177.19,220.29,177.136,219.736,177.442,219.364z"/>
			
				<line style="fill:none;stroke:#FFFFFF;stroke-width:0.5091;stroke-miterlimit:10;" x1="184.165" y1="224.814" x2="191.228" y2="230.62"/>
			<path style="fill:#FFFFFF;" d="M189.933,233.369c-1.122-0.913-1.291-2.563-0.378-3.685c0.913-1.122,2.563-1.291,3.685-0.378
				c1.122,0.913,1.291,2.563,0.378,3.685C192.705,234.113,191.055,234.283,189.933,233.369z"/>
			<circle style="fill:none;stroke:#2D201B;stroke-width:0.2545;stroke-miterlimit:10;" cx="191.587" cy="231.338" r="1.669"/>
			<path style="fill:none;stroke:#2D201B;stroke-width:0.1448;stroke-miterlimit:10;" d="M190.987,232.074
				c-0.407-0.331-0.468-0.929-0.137-1.336c0.331-0.407,0.929-0.468,1.336-0.137c0.407,0.331,0.468,0.929,0.137,1.336
				C191.992,232.344,191.394,232.406,190.987,232.074z"/>
			<g>
				
					<path style="fill:none;stroke:#FFFFFF;stroke-width:0.403;stroke-linecap:round;stroke-linejoin:round;stroke-dasharray:0,0.5939;" d="
					M190.928,232.147c-0.447-0.364-0.514-1.021-0.151-1.468c0.364-0.447,1.021-0.514,1.468-0.151
					c0.447,0.364,0.514,1.021,0.151,1.468C192.032,232.444,191.375,232.511,190.928,232.147z"/>
			</g>
		</g>
		<g>
			<path style="opacity:0.47;fill:#8DDEF1;" d="M275.769,141.352c-0.29-0.015-0.592-0.008-0.9,0.023
				c-2.014,0.206-3.543,1.381-3.416,2.624c0.027,0.263,0.127,0.508,0.285,0.729C273.069,143.588,274.413,142.463,275.769,141.352z"
				/>
			<path style="opacity:0.47;fill:#8DDEF1;" d="M272.229,145.21c1.502-1.212,2.984-2.448,4.426-3.733
				c-0.163-0.038-0.329-0.07-0.504-0.092c-1.427,1.167-2.842,2.35-4.242,3.549C272.003,145.033,272.11,145.125,272.229,145.21z"/>
			<path style="opacity:0.47;fill:#8DDEF1;" d="M277.828,141.946c-0.009,0.007-0.018,0.015-0.028,0.022
				c-0.482,0.377-0.963,0.756-1.443,1.136c-1.026,0.813-2.046,1.634-3.066,2.455c-0.045,0.036-0.091,0.073-0.136,0.11
				c0.627,0.206,1.378,0.288,2.174,0.207c2.014-0.206,3.543-1.381,3.416-2.624C278.692,142.73,278.352,142.279,277.828,141.946z"/>
			
				<path style="fill:none;stroke:#2D201B;stroke-width:0.7264;stroke-linecap:round;stroke-linejoin:round;stroke-miterlimit:10;" d="
				M278.922,143.347c0.143,1.4-1.487,2.713-3.642,2.933c-2.155,0.22-4.018-0.736-4.161-2.135c-0.143-1.4,1.488-2.713,3.642-2.933
				C276.917,140.992,278.779,141.947,278.922,143.347z"/>
			
				<path style="fill:none;stroke:#FFFFFF;stroke-width:0.1368;stroke-linecap:round;stroke-linejoin:round;stroke-miterlimit:10;" d="
				M277.682,143.46c-0.313,0.871-1.335,1.916-2.785,1.858"/>
			
				<path style="fill:none;stroke:#2D201B;stroke-width:0.7264;stroke-linecap:round;stroke-linejoin:round;stroke-miterlimit:10;" d="
				M263.215,183.222l6.836-32.53c0.243-1.156,0.797-2.224,1.602-3.088l1.198-1.286"/>
			<path style="fill:#CAE7EF;" d="M268.977,155.912L268.977,155.912c-0.346-0.075-0.568-0.42-0.492-0.766l1.174-5.393
				c0.075-0.346,0.42-0.568,0.767-0.492l0,0c0.346,0.075,0.568,0.42,0.492,0.766l-1.174,5.393
				C269.668,155.766,269.323,155.987,268.977,155.912z"/>
		</g>
	</g>
</g>
</svg>
